# 
# Wavefront OBJ file
# Converted by the DEEP Exploration 3.5.7.1088
# Right Hemisphere, LTD
# http://www.righthemisphere.com/
# 
# object Object #0
g Object__0
v 0.39 0.0834 0.1
v 0.05 0.0834 0.1
v 0.39 0.1716 0.1
v 0.05 0.1716 0.1
v 0.5 0.284 0.12
v 0.474 0.31 0.12
v 0.5 0.284 0
v 0.474 0.31 0
v 0.499071 0.290912 0.12
v 0.496451 0.297123 0.12
v 0.492385 0.302385 0.12
v 0.487123 0.306451 0.12
v 0.480912 0.309071 0.12
v 0.499071 0.290912 0
v 0.496451 0.297123 0
v 0.492385 0.302385 0
v 0.487123 0.306451 0
v 0.480912 0.309071 0
v 0.474 -0.31 0.12
v 0.5 -0.284 0.12
v 0.474 -0.31 0
v 0.5 -0.284 0
v 0.480912 -0.309071 0.12
v 0.487123 -0.306451 0.12
v 0.492385 -0.302385 0.12
v 0.496451 -0.297123 0.12
v 0.499071 -0.290912 0.12
v 0.499071 -0.290912 0
v 0.496451 -0.297123 0
v 0.492385 -0.302385 0
v 0.487123 -0.306451 0
v 0.480912 -0.309071 0
v 0.05 0.1716 0.39
v 0.0699007 0.1716 0.40801
v 0.05 0.0834 0.39
v 0.0699007 0.0834 0.40801
v 0.0507108 0.1716 0.395246
v 0.0527168 0.1716 0.399823
v 0.0558284 0.1716 0.40356
v 0.059856 0.1716 0.406284
v 0.06461 0.1716 0.407825
v 0.06461 0.0834 0.407825
v 0.059856 0.0834 0.406284
v 0.0558284 0.0834 0.40356
v 0.0527168 0.0834 0.399823
v 0.0507108 0.0834 0.395246
v 0.156325 0.0834 0.381026
v 0.130099 0.0834 0.40199
v 0.156325 0.1716 0.381026
v 0.130099 0.1716 0.40199
v 0.153932 0.0834 0.386142
v 0.150415 0.0834 0.390875
v 0.146024 0.0834 0.395026
v 0.141007 0.0834 0.398395
v 0.135616 0.0834 0.400783
v 0.135616 0.1716 0.400783
v 0.141007 0.1716 0.398395
v 0.146024 0.1716 0.395026
v 0.150415 0.1716 0.390875
v 0.153932 0.1716 0.386142
v 0.229403 0.0834 0.215149
v 0.203675 0.0834 0.238974
v 0.229403 0.1716 0.215149
v 0.203675 0.1716 0.238974
v 0.224019 0.0834 0.217117
v 0.218746 0.0834 0.220188
v 0.21383 0.0834 0.224136
v 0.209517 0.0834 0.228735
v 0.20605 0.0834 0.233756
v 0.20605 0.1716 0.233756
v 0.209517 0.1716 0.228735
v 0.21383 0.1716 0.224136
v 0.218746 0.1716 0.220188
v 0.224019 0.1716 0.217117
v 0.374851 0.0834 0.160597
v 0.350597 0.0834 0.184851
v 0.374851 0.1716 0.160597
v 0.350597 0.1716 0.184851
v 0.372868 0.0834 0.165929
v 0.369754 0.0834 0.171053
v 0.365738 0.0834 0.175738
v 0.361053 0.0834 0.179754
v 0.355929 0.0834 0.182868
v 0.355929 0.1716 0.182868
v 0.361053 0.1716 0.179754
v 0.365738 0.1716 0.175738
v 0.369754 0.1716 0.171053
v 0.372868 0.1716 0.165929
v 0.39 -0.0834 0.1
v 0.05 -0.0834 0.1
v 0.39 -0.1716 0.1
v 0.05 -0.1716 0.1
v 0.05 -0.1716 0.39
v 0.0699007 -0.1716 0.40801
v 0.05 -0.0834 0.39
v 0.0699007 -0.0834 0.40801
v 0.0507108 -0.1716 0.395246
v 0.0527168 -0.1716 0.399823
v 0.0558284 -0.1716 0.40356
v 0.059856 -0.1716 0.406284
v 0.06461 -0.1716 0.407825
v 0.06461 -0.0834 0.407825
v 0.059856 -0.0834 0.406284
v 0.0558284 -0.0834 0.40356
v 0.0527168 -0.0834 0.399823
v 0.0507108 -0.0834 0.395246
v 0.156325 -0.0834 0.381026
v 0.130099 -0.0834 0.40199
v 0.156325 -0.1716 0.381026
v 0.130099 -0.1716 0.40199
v 0.153932 -0.0834 0.386142
v 0.150415 -0.0834 0.390875
v 0.146024 -0.0834 0.395026
v 0.141007 -0.0834 0.398395
v 0.135616 -0.0834 0.400783
v 0.135616 -0.1716 0.400783
v 0.141007 -0.1716 0.398395
v 0.146024 -0.1716 0.395026
v 0.150415 -0.1716 0.390875
v 0.153932 -0.1716 0.386142
v 0.229403 -0.0834 0.215149
v 0.203675 -0.0834 0.238974
v 0.229403 -0.1716 0.215149
v 0.203675 -0.1716 0.238974
v 0.224019 -0.0834 0.217117
v 0.218746 -0.0834 0.220188
v 0.21383 -0.0834 0.224136
v 0.209517 -0.0834 0.228735
v 0.20605 -0.0834 0.233756
v 0.20605 -0.1716 0.233756
v 0.209517 -0.1716 0.228735
v 0.21383 -0.1716 0.224136
v 0.218746 -0.1716 0.220188
v 0.224019 -0.1716 0.217117
v 0.374851 -0.0834 0.160597
v 0.350597 -0.0834 0.184851
v 0.374851 -0.1716 0.160597
v 0.350597 -0.1716 0.184851
v 0.372868 -0.0834 0.165929
v 0.369754 -0.0834 0.171053
v 0.365738 -0.0834 0.175738
v 0.361053 -0.0834 0.179754
v 0.355929 -0.0834 0.182868
v 0.355929 -0.1716 0.182868
v 0.361053 -0.1716 0.179754
v 0.365738 -0.1716 0.175738
v 0.369754 -0.1716 0.171053
v 0.372868 -0.1716 0.165929
v -0.39 0.0834 0.1
v -0.05 0.0834 0.1
v -0.39 0.1716 0.1
v -0.05 0.1716 0.1
v -0.5 0.284 0.12
v -0.474 0.31 0.12
v -0.5 0.284 0
v -0.474 0.31 0
v -0.499071 0.290912 0.12
v -0.496451 0.297123 0.12
v -0.492385 0.302385 0.12
v -0.487123 0.306451 0.12
v -0.480912 0.309071 0.12
v -0.499071 0.290912 0
v -0.496451 0.297123 0
v -0.492385 0.302385 0
v -0.487123 0.306451 0
v -0.480912 0.309071 0
v -0.474 -0.31 0.12
v -0.5 -0.284 0.12
v -0.474 -0.31 0
v -0.5 -0.284 0
v -0.480912 -0.309071 0.12
v -0.487123 -0.306451 0.12
v -0.492385 -0.302385 0.12
v -0.496451 -0.297123 0.12
v -0.499071 -0.290912 0.12
v -0.499071 -0.290912 0
v -0.496451 -0.297123 0
v -0.492385 -0.302385 0
v -0.487123 -0.306451 0
v -0.480912 -0.309071 0
v -0.05 0.1716 0.39
v -0.0699007 0.1716 0.40801
v -0.05 0.0834 0.39
v -0.0699007 0.0834 0.40801
v -0.0507108 0.1716 0.395246
v -0.0527168 0.1716 0.399823
v -0.0558284 0.1716 0.40356
v -0.059856 0.1716 0.406284
v -0.06461 0.1716 0.407825
v -0.06461 0.0834 0.407825
v -0.059856 0.0834 0.406284
v -0.0558284 0.0834 0.40356
v -0.0527168 0.0834 0.399823
v -0.0507108 0.0834 0.395246
v -0.156325 0.0834 0.381026
v -0.130099 0.0834 0.40199
v -0.156325 0.1716 0.381026
v -0.130099 0.1716 0.40199
v -0.153932 0.0834 0.386142
v -0.150415 0.0834 0.390875
v -0.146024 0.0834 0.395026
v -0.141007 0.0834 0.398395
v -0.135616 0.0834 0.400783
v -0.135616 0.1716 0.400783
v -0.141007 0.1716 0.398395
v -0.146024 0.1716 0.395026
v -0.150415 0.1716 0.390875
v -0.153932 0.1716 0.386142
v -0.229403 0.0834 0.215149
v -0.203675 0.0834 0.238974
v -0.229403 0.1716 0.215149
v -0.203675 0.1716 0.238974
v -0.224019 0.0834 0.217117
v -0.218746 0.0834 0.220188
v -0.21383 0.0834 0.224136
v -0.209517 0.0834 0.228735
v -0.20605 0.0834 0.233756
v -0.20605 0.1716 0.233756
v -0.209517 0.1716 0.228735
v -0.21383 0.1716 0.224136
v -0.218746 0.1716 0.220188
v -0.224019 0.1716 0.217117
v -0.374851 0.0834 0.160597
v -0.350597 0.0834 0.184851
v -0.374851 0.1716 0.160597
v -0.350597 0.1716 0.184851
v -0.372868 0.0834 0.165929
v -0.369754 0.0834 0.171053
v -0.365738 0.0834 0.175738
v -0.361053 0.0834 0.179754
v -0.355929 0.0834 0.182868
v -0.355929 0.1716 0.182868
v -0.361053 0.1716 0.179754
v -0.365738 0.1716 0.175738
v -0.369754 0.1716 0.171053
v -0.372868 0.1716 0.165929
v -0.39 -0.0834 0.1
v -0.05 -0.0834 0.1
v -0.39 -0.1716 0.1
v -0.05 -0.1716 0.1
v -0.05 -0.1716 0.39
v -0.0699007 -0.1716 0.40801
v -0.05 -0.0834 0.39
v -0.0699007 -0.0834 0.40801
v -0.0507108 -0.1716 0.395246
v -0.0527168 -0.1716 0.399823
v -0.0558284 -0.1716 0.40356
v -0.059856 -0.1716 0.406284
v -0.06461 -0.1716 0.407825
v -0.06461 -0.0834 0.407825
v -0.059856 -0.0834 0.406284
v -0.0558284 -0.0834 0.40356
v -0.0527168 -0.0834 0.399823
v -0.0507108 -0.0834 0.395246
v -0.156325 -0.0834 0.381026
v -0.130099 -0.0834 0.40199
v -0.156325 -0.1716 0.381026
v -0.130099 -0.1716 0.40199
v -0.153932 -0.0834 0.386142
v -0.150415 -0.0834 0.390875
v -0.146024 -0.0834 0.395026
v -0.141007 -0.0834 0.398395
v -0.135616 -0.0834 0.400783
v -0.135616 -0.1716 0.400783
v -0.141007 -0.1716 0.398395
v -0.146024 -0.1716 0.395026
v -0.150415 -0.1716 0.390875
v -0.153932 -0.1716 0.386142
v -0.229403 -0.0834 0.215149
v -0.203675 -0.0834 0.238974
v -0.229403 -0.1716 0.215149
v -0.203675 -0.1716 0.238974
v -0.224019 -0.0834 0.217117
v -0.218746 -0.0834 0.220188
v -0.21383 -0.0834 0.224136
v -0.209517 -0.0834 0.228735
v -0.20605 -0.0834 0.233756
v -0.20605 -0.1716 0.233756
v -0.209517 -0.1716 0.228735
v -0.21383 -0.1716 0.224136
v -0.218746 -0.1716 0.220188
v -0.224019 -0.1716 0.217117
v -0.374851 -0.0834 0.160597
v -0.350597 -0.0834 0.184851
v -0.374851 -0.1716 0.160597
v -0.350597 -0.1716 0.184851
v -0.372868 -0.0834 0.165929
v -0.369754 -0.0834 0.171053
v -0.365738 -0.0834 0.175738
v -0.361053 -0.0834 0.179754
v -0.355929 -0.0834 0.182868
v -0.355929 -0.1716 0.182868
v -0.361053 -0.1716 0.179754
v -0.365738 -0.1716 0.175738
v -0.369754 -0.1716 0.171053
v -0.372868 -0.1716 0.165929
v 0 -0.31 0
v 0 0.31 0
v 0 -0.31 0.12
v 0 0.31 0.12
# 300 verticies
vn 0 0 -1
vn 0.044473 0.999011 0
vn 0 1 0
vn 0.088946 0.996036 0
vn 0.997771 0.0667261 0
vn 0.952044 0.305962 0
vn 0.975481 0.220084 0
vn 0.840906 0.541182 0
vn 0.884559 0.466428 0
vn 0.676247 0.736675 0
vn 0.736675 0.676247 0
vn 0.305962 0.952044 0
vn 0.220084 0.975481 0
vn 0.541182 0.840906 0
vn 0.466428 0.884559 0
vn 0 -1 0
vn 0.0667261 -0.997771 0
vn 0.997771 -0.0667261 0
vn 0 0 1
vn 0.305962 -0.952044 0
vn 0.220084 -0.975481 0
vn 0.541182 -0.840906 0
vn 0.466428 -0.884559 0
vn 0.736675 -0.676247 0
vn 0.676247 -0.736675 0
vn 0.952044 -0.305962 0
vn 0.975481 -0.220084 0
vn 0.840906 -0.541182 0
vn 0.884559 -0.466428 0
vn -0.997734 0 0.0672857
vn -1 0 0
vn -0.949068 0 0.315072
vn -0.974301 0 0.225251
vn -0.82483 0 0.565381
vn -0.874418 0 0.485174
vn -0.635258 0 0.7723
vn -0.705258 0 0.70895
vn 0.00985536 0 0.999951
vn -0.21907 0 0.975709
vn -0.127186 0 0.991879
vn 0.0547798 0 0.998498
vn -0.480501 0 0.876994
vn -0.395756 0 0.918356
vn 0.137774 0 0.990464
vn 0.175896 0 0.984409
vn 0.92149 0 0.388401
vn 0.840857 0 0.541258
vn 0.8754 0 0.483399
vn 0.935793 0 0.35255
vn 0.727974 0 0.685604
vn 0.766687 0 0.642021
vn 0.60253 0 0.798096
vn 0.645782 0 0.763522
vn 0.342757 0 0.939424
vn 0.278713 0 0.960375
vn 0.508422 0 0.861108
vn 0.457381 0 0.889271
vn 0.937003 0 0.349321
vn 0.924153 0 0.382024
vn 0.310019 0 0.95073
vn 0.45153 0 0.892256
vn 0.397959 0 0.917403
vn 0.276427 0 0.961035
vn 0.586711 0 0.809796
vn 0.54565 0 0.838013
vn 0.696484 0 0.717573
vn 0.662041 0 0.749468
vn 0.854997 0 0.518633
vn 0.884179 0 0.467148
vn 0.762412 0 0.647092
vn 0.793695 0 0.608316
vn 0.970143 0 0.242535
vn 0.949543 0 0.313637
vn 0.960508 0 0.278253
vn 0.278252 0 0.960508
vn 0.313635 0 0.949544
vn 0.885667 0 0.464321
vn 0.913368 0 0.407135
vn 0.79336 0 0.608752
vn 0.825196 0 0.564846
vn 0.688735 0 0.725013
vn 0.725013 0 0.688736
vn 0.464321 0 0.885667
vn 0.407133 0 0.913369
vn 0.608753 0 0.79336
vn 0.564847 0 0.825196
vn -0.044473 0.999011 0
vn -0.088946 0.996036 0
vn -0.975481 0.220084 0
vn -0.952044 0.305962 0
vn -0.997771 0.0667261 0
vn -0.884559 0.466428 0
vn -0.840906 0.541182 0
vn -0.736675 0.676247 0
vn -0.676247 0.736675 0
vn -0.220084 0.975481 0
vn -0.305962 0.952044 0
vn -0.466428 0.884559 0
vn -0.541182 0.840906 0
vn -0.0667261 -0.997771 0
vn -0.997771 -0.0667261 0
vn -0.220084 -0.975481 0
vn -0.305962 -0.952044 0
vn -0.466428 -0.884559 0
vn -0.541182 -0.840906 0
vn -0.676247 -0.736675 0
vn -0.736675 -0.676247 0
vn -0.975481 -0.220084 0
vn -0.952044 -0.305962 0
vn -0.884559 -0.466428 0
vn -0.840906 -0.541182 0
vn 1 0 0
vn 0.997734 0 0.0672857
vn 0.974301 0 0.225251
vn 0.949068 0 0.315072
vn 0.874418 0 0.485174
vn 0.82483 0 0.565381
vn 0.705258 0 0.70895
vn 0.635258 0 0.7723
vn 0.127186 0 0.991879
vn 0.21907 0 0.975709
vn -0.00985536 0 0.999951
vn -0.0547798 0 0.998498
vn 0.395756 0 0.918356
vn 0.480501 0 0.876994
vn -0.137774 0 0.990464
vn -0.175896 0 0.984409
vn -0.8754 0 0.483399
vn -0.840857 0 0.541258
vn -0.92149 0 0.388401
vn -0.935793 0 0.35255
vn -0.766687 0 0.642021
vn -0.727974 0 0.685604
vn -0.645782 0 0.763522
vn -0.60253 0 0.798096
vn -0.278713 0 0.960375
vn -0.342757 0 0.939424
vn -0.457381 0 0.889271
vn -0.508422 0 0.861108
vn -0.937003 0 0.349321
vn -0.924153 0 0.382024
vn -0.397959 0 0.917403
vn -0.45153 0 0.892256
vn -0.310019 0 0.95073
vn -0.276427 0 0.961035
vn -0.54565 0 0.838013
vn -0.586711 0 0.809796
vn -0.662041 0 0.749468
vn -0.696484 0 0.717573
vn -0.884179 0 0.467148
vn -0.854997 0 0.518633
vn -0.793695 0 0.608316
vn -0.762412 0 0.647092
vn -0.960508 0 0.278253
vn -0.949543 0 0.313637
vn -0.970143 0 0.242535
vn -0.278252 0 0.960508
vn -0.313635 0 0.949544
vn -0.913368 0 0.407135
vn -0.885667 0 0.464321
vn -0.825196 0 0.564846
vn -0.79336 0 0.608752
vn -0.725013 0 0.688736
vn -0.688735 0 0.725013
vn -0.407133 0 0.913369
vn -0.464321 0 0.885667
vn -0.564847 0 0.825196
vn -0.608753 0 0.79336
# 168 normals
f  4//1 3//1 1//1 2//1
f  8//2 298//3 300//3 6//4
f  7//5 14//6 9//7 5//5
f  14//6 15//8 10//9 9//7
f  15//8 16//10 11//11 10//9
f  6//4 13//12 18//13 8//2
f  13//12 12//14 17//15 18//13
f  12//14 11//11 16//10 17//15
f  299//16 297//16 21//17 19//17
f  7//5 5//5 20//18 22//18
f  22//1 28//1 29//1 30//1 31//1 32//1 21//1 297//1 298//1 8//1 18//1\
17//1 16//1 15//1 14//1 7//1
f  300//19 299//19 19//19 23//19 24//19 25//19 26//19 27//19 20//19\
5//19 9//19 10//19 11//19 12//19 13//19 6//19
f  21//17 32//20 23//21 19//17
f  32//20 31//22 24//23 23//21
f  31//22 30//24 25//25 24//23
f  20//18 27//26 28//27 22//18
f  27//26 26//28 29//29 28//27
f  26//28 25//25 30//24 29//29
f  35//30 33//30 4//31 2//31
f  35//30 46//32 37//33 33//30
f  46//32 45//34 38//35 37//33
f  45//34 44//36 39//37 38//35
f  34//38 41//39 42//40 36//41
f  41//39 40//42 43//43 42//40
f  40//42 39//37 44//36 43//43
f  50//44 34//38 36//41 48//45
f  49//46 60//47 51//48 47//49
f  60//47 59//50 52//51 51//48
f  59//50 58//52 53//53 52//51
f  48//45 55//54 56//55 50//44
f  55//54 54//56 57//57 56//55
f  54//56 53//53 58//52 57//57
f  64//58 49//46 47//49 62//59
f  63//60 74//61 65//62 61//63
f  74//61 73//64 66//65 65//62
f  73//64 72//66 67//67 66//65
f  62//59 69//68 70//69 64//58
f  69//68 68//70 71//71 70//69
f  68//70 67//67 72//66 71//71
f  3//72 77//73 75//74 1//72
f  78//75 63//60 61//63 76//76
f  2//16 1//16 75//16 79//16 80//16 81//16 82//16 83//16 76//16 61//16\
65//16 66//16 67//16 68//16 69//16 62//16 47//16 51//16 52//16 53//16\
54//16 55//16 48//16 36//16 42//16 43//16 44//16 45//16 46//16 35//16
f  50//3 56//3 57//3 58//3 59//3 60//3 49//3 64//3 70//3 71//3 72//3\
73//3 74//3 63//3 78//3 84//3 85//3 86//3 87//3 88//3 77//3 3//3 4//3\
33//3 37//3 38//3 39//3 40//3 41//3 34//3
f  77//73 88//77 79//78 75//74
f  88//77 87//79 80//80 79//78
f  87//79 86//81 81//82 80//80
f  76//76 83//83 84//84 78//75
f  83//83 82//85 85//86 84//84
f  82//85 81//82 86//81 85//86
f  89//1 91//1 92//1 90//1
f  92//31 93//30 95//30 90//31
f  97//33 106//32 95//30 93//30
f  98//35 105//34 106//32 97//33
f  99//37 104//36 105//34 98//35
f  102//40 101//39 94//38 96//41
f  103//43 100//42 101//39 102//40
f  104//36 99//37 100//42 103//43
f  96//41 94//38 110//44 108//45
f  111//48 120//47 109//46 107//49
f  112//51 119//50 120//47 111//48
f  113//53 118//52 119//50 112//51
f  116//55 115//54 108//45 110//44
f  117//57 114//56 115//54 116//55
f  118//52 113//53 114//56 117//57
f  107//49 109//46 124//58 122//59
f  125//62 134//61 123//60 121//63
f  126//65 133//64 134//61 125//62
f  127//67 132//66 133//64 126//65
f  130//69 129//68 122//59 124//58
f  131//71 128//70 129//68 130//69
f  132//66 127//67 128//70 131//71
f  135//74 137//73 91//72 89//72
f  121//63 123//60 138//75 136//76
f  106//3 105//3 104//3 103//3 102//3 96//3 108//3 115//3 114//3\
113//3 112//3 111//3 107//3 122//3 129//3 128//3 127//3 126//3 125//3\
121//3 136//3 143//3 142//3 141//3 140//3 139//3 135//3 89//3 90//3\
95//3
f  101//16 100//16 99//16 98//16 97//16 93//16 92//16 91//16 137//16\
148//16 147//16 146//16 145//16 144//16 138//16 123//16 134//16\
133//16 132//16 131//16 130//16 124//16 109//16 120//16 119//16\
118//16 117//16 116//16 110//16 94//16
f  139//78 148//77 137//73 135//74
f  140//80 147//79 148//77 139//78
f  141//82 146//81 147//79 140//80
f  144//84 143//83 136//76 138//75
f  145//86 142//85 143//83 144//84
f  146//81 141//82 142//85 145//86
f  149//1 151//1 152//1 150//1
f  300//3 298//3 156//87 154//88
f  157//89 162//90 155//91 153//91
f  158//92 163//93 162//90 157//89
f  159//94 164//95 163//93 158//92
f  166//96 161//97 154//88 156//87
f  165//98 160//99 161//97 166//96
f  164//95 159//94 160//99 165//98
f  169//100 297//16 299//16 167//100
f  168//101 153//91 155//91 170//101
f  162//1 163//1 164//1 165//1 166//1 156//1 298//1 297//1 169//1\
180//1 179//1 178//1 177//1 176//1 170//1 155//1
f  161//19 160//19 159//19 158//19 157//19 153//19 168//19 175//19\
174//19 173//19 172//19 171//19 167//19 299//19 300//19 154//19
f  171//102 180//103 169//100 167//100
f  172//104 179//105 180//103 171//102
f  173//106 178//107 179//105 172//104
f  176//108 175//109 168//101 170//101
f  177//110 174//111 175//109 176//108
f  178//107 173//106 174//111 177//110
f  152//112 181//113 183//113 150//112
f  185//114 194//115 183//113 181//113
f  186//116 193//117 194//115 185//114
f  187//118 192//119 193//117 186//116
f  190//120 189//121 182//122 184//123
f  191//124 188//125 189//121 190//120
f  192//119 187//118 188//125 191//124
f  184//123 182//122 198//126 196//127
f  199//128 208//129 197//130 195//131
f  200//132 207//133 208//129 199//128
f  201//134 206//135 207//133 200//132
f  204//136 203//137 196//127 198//126
f  205//138 202//139 203//137 204//136
f  206//135 201//134 202//139 205//138
f  195//131 197//130 212//140 210//141
f  213//142 222//143 211//144 209//145
f  214//146 221//147 222//143 213//142
f  215//148 220//149 221//147 214//146
f  218//150 217//151 210//141 212//140
f  219//152 216//153 217//151 218//150
f  220//149 215//148 216//153 219//152
f  223//154 225//155 151//156 149//156
f  209//145 211//144 226//157 224//158
f  194//16 193//16 192//16 191//16 190//16 184//16 196//16 203//16\
202//16 201//16 200//16 199//16 195//16 210//16 217//16 216//16\
215//16 214//16 213//16 209//16 224//16 231//16 230//16 229//16\
228//16 227//16 223//16 149//16 150//16 183//16
f  189//3 188//3 187//3 186//3 185//3 181//3 152//3 151//3 225//3\
236//3 235//3 234//3 233//3 232//3 226//3 211//3 222//3 221//3 220//3\
219//3 218//3 212//3 197//3 208//3 207//3 206//3 205//3 204//3 198//3\
182//3
f  227//159 236//160 225//155 223//154
f  228//161 235//162 236//160 227//159
f  229//163 234//164 235//162 228//161
f  232//165 231//166 224//158 226//157
f  233//167 230//168 231//166 232//165
f  234//164 229//163 230//168 233//167
f  240//1 239//1 237//1 238//1
f  243//113 241//113 240//112 238//112
f  243//113 254//115 245//114 241//113
f  254//115 253//117 246//116 245//114
f  253//117 252//119 247//118 246//116
f  242//122 249//121 250//120 244//123
f  249//121 248//125 251//124 250//120
f  248//125 247//118 252//119 251//124
f  258//126 242//122 244//123 256//127
f  257//130 268//129 259//128 255//131
f  268//129 267//133 260//132 259//128
f  267//133 266//135 261//134 260//132
f  256//127 263//137 264//136 258//126
f  263//137 262//139 265//138 264//136
f  262//139 261//134 266//135 265//138
f  272//140 257//130 255//131 270//141
f  271//144 282//143 273//142 269//145
f  282//143 281//147 274//146 273//142
f  281//147 280//149 275//148 274//146
f  270//141 277//151 278//150 272//140
f  277//151 276//153 279//152 278//150
f  276//153 275//148 280//149 279//152
f  239//156 285//155 283//154 237//156
f  286//157 271//144 269//145 284//158
f  238//3 237//3 283//3 287//3 288//3 289//3 290//3 291//3 284//3\
269//3 273//3 274//3 275//3 276//3 277//3 270//3 255//3 259//3 260//3\
261//3 262//3 263//3 256//3 244//3 250//3 251//3 252//3 253//3 254//3\
243//3
f  258//16 264//16 265//16 266//16 267//16 268//16 257//16 272//16\
278//16 279//16 280//16 281//16 282//16 271//16 286//16 292//16\
293//16 294//16 295//16 296//16 285//16 239//16 240//16 241//16\
245//16 246//16 247//16 248//16 249//16 242//16
f  285//155 296//160 287//159 283//154
f  296//160 295//162 288//161 287//159
f  295//162 294//164 289//163 288//161
f  284//158 291//166 292//165 286//157
f  291//166 290//168 293//167 292//165
f  290//168 289//163 294//164 293//167
