# 
# Wavefront OBJ file
# Converted by the DEEP Exploration 3.5.7.1088
# Right Hemisphere, LTD
# http://www.righthemisphere.com/
# 
# object Object #0
g Object__0
v 0.01 0.495 0.04
v 0.02 0.505 0.04
v 0.01 0.495 0
v 0.02 0.505 0
v 0.0105098 0.498161 0
v 0.0119293 0.500906 0
v 0.0140939 0.503071 0
v 0.016839 0.50449 0
v 0.0105098 0.498161 0.04
v 0.0119293 0.500906 0.04
v 0.0140939 0.503071 0.04
v 0.016839 0.50449 0.04
v 0.5 0.472 0.04
v 0.47 0.472 0.04
v 0.49 0.505 0.04
v 0.5 0.495 0.04
v 0.49 0.505 0
v 0.5 0.495 0
v 0.493161 0.50449 0
v 0.495906 0.503071 0
v 0.498071 0.500906 0
v 0.49949 0.498161 0
v 0.49949 0.498161 0.04
v 0.498071 0.500906 0.04
v 0.495906 0.503071 0.04
v 0.493161 0.50449 0.04
v 0.386 0.48615 0.02
v 0.38 0.48015 0.02
v 0.386 0.48615 0.04
v 0.38 0.48015 0.04
v 0.464 0.45885 0.02
v 0.47 0.46485 0.02
v 0.464 0.45885 0.04
v 0.47 0.46485 0.04
v 0.384103 0.485844 0.02
v 0.382456 0.484992 0.02
v 0.381158 0.483694 0.02
v 0.380306 0.482047 0.02
v 0.465897 0.459156 0.02
v 0.467544 0.460008 0.02
v 0.468842 0.461306 0.02
v 0.469694 0.462953 0.02
v 0.469694 0.462953 0.04
v 0.468842 0.461306 0.04
v 0.467544 0.460008 0.04
v 0.465897 0.459156 0.04
v 0.380306 0.482047 0.04
v 0.381158 0.483694 0.04
v 0.382456 0.484992 0.04
v 0.384103 0.485844 0.04
v 0.47 0.48015 0.04
v 0.464 0.48615 0.04
v 0.47 0.48015 0.02
v 0.464 0.48615 0.02
v 0.38 0.46485 0.04
v 0.386 0.45885 0.04
v 0.38 0.46485 0.02
v 0.386 0.45885 0.02
v 0.469694 0.482047 0.02
v 0.468842 0.483694 0.02
v 0.467544 0.484992 0.02
v 0.465897 0.485844 0.02
v 0.380306 0.462953 0.02
v 0.381158 0.461306 0.02
v 0.382456 0.460008 0.02
v 0.384103 0.459156 0.02
v 0.465897 0.485844 0.04
v 0.467544 0.484992 0.04
v 0.468842 0.483694 0.04
v 0.469694 0.482047 0.04
v 0.384103 0.459156 0.04
v 0.382456 0.460008 0.04
v 0.381158 0.461306 0.04
v 0.380306 0.462953 0.04
v 0.5 0 0
v 0.5 0 0.04
v 0.01 0 0.04
v 0.01 0 0
v 0.01 -0.495 0.04
v 0.02 -0.505 0.04
v 0.01 -0.495 0
v 0.02 -0.505 0
v 0.0105098 -0.498161 0
v 0.0119293 -0.500906 0
v 0.0140939 -0.503071 0
v 0.016839 -0.50449 0
v 0.0105098 -0.498161 0.04
v 0.0119293 -0.500906 0.04
v 0.0140939 -0.503071 0.04
v 0.016839 -0.50449 0.04
v 0.5 -0.472 0.04
v 0.47 -0.472 0.04
v 0.49 -0.505 0.04
v 0.5 -0.495 0.04
v 0.49 -0.505 0
v 0.5 -0.495 0
v 0.493161 -0.50449 0
v 0.495906 -0.503071 0
v 0.498071 -0.500906 0
v 0.49949 -0.498161 0
v 0.49949 -0.498161 0.04
v 0.498071 -0.500906 0.04
v 0.495906 -0.503071 0.04
v 0.493161 -0.50449 0.04
v 0.386 -0.48615 0.02
v 0.38 -0.48015 0.02
v 0.386 -0.48615 0.04
v 0.38 -0.48015 0.04
v 0.464 -0.45885 0.02
v 0.47 -0.46485 0.02
v 0.464 -0.45885 0.04
v 0.47 -0.46485 0.04
v 0.384103 -0.485844 0.02
v 0.382456 -0.484992 0.02
v 0.381158 -0.483694 0.02
v 0.380306 -0.482047 0.02
v 0.465897 -0.459156 0.02
v 0.467544 -0.460008 0.02
v 0.468842 -0.461306 0.02
v 0.469694 -0.462953 0.02
v 0.469694 -0.462953 0.04
v 0.468842 -0.461306 0.04
v 0.467544 -0.460008 0.04
v 0.465897 -0.459156 0.04
v 0.380306 -0.482047 0.04
v 0.381158 -0.483694 0.04
v 0.382456 -0.484992 0.04
v 0.384103 -0.485844 0.04
v 0.47 -0.48015 0.04
v 0.464 -0.48615 0.04
v 0.47 -0.48015 0.02
v 0.464 -0.48615 0.02
v 0.38 -0.46485 0.04
v 0.386 -0.45885 0.04
v 0.38 -0.46485 0.02
v 0.386 -0.45885 0.02
v 0.469694 -0.482047 0.02
v 0.468842 -0.483694 0.02
v 0.467544 -0.484992 0.02
v 0.465897 -0.485844 0.02
v 0.380306 -0.462953 0.02
v 0.381158 -0.461306 0.02
v 0.382456 -0.460008 0.02
v 0.384103 -0.459156 0.02
v 0.465897 -0.485844 0.04
v 0.467544 -0.484992 0.04
v 0.468842 -0.483694 0.04
v 0.469694 -0.482047 0.04
v 0.384103 -0.459156 0.04
v 0.382456 -0.460008 0.04
v 0.381158 -0.461306 0.04
v 0.380306 -0.462953 0.04
v -0.01 0.495 0.04
v -0.02 0.505 0.04
v -0.01 0.495 0
v -0.02 0.505 0
v -0.0105098 0.498161 0
v -0.0119293 0.500906 0
v -0.0140939 0.503071 0
v -0.016839 0.50449 0
v -0.0105098 0.498161 0.04
v -0.0119293 0.500906 0.04
v -0.0140939 0.503071 0.04
v -0.016839 0.50449 0.04
v -0.5 0.472 0.04
v -0.47 0.472 0.04
v -0.49 0.505 0.04
v -0.5 0.495 0.04
v -0.49 0.505 0
v -0.5 0.495 0
v -0.493161 0.50449 0
v -0.495906 0.503071 0
v -0.498071 0.500906 0
v -0.49949 0.498161 0
v -0.49949 0.498161 0.04
v -0.498071 0.500906 0.04
v -0.495906 0.503071 0.04
v -0.493161 0.50449 0.04
v -0.386 0.48615 0.02
v -0.38 0.48015 0.02
v -0.386 0.48615 0.04
v -0.38 0.48015 0.04
v -0.464 0.45885 0.02
v -0.47 0.46485 0.02
v -0.464 0.45885 0.04
v -0.47 0.46485 0.04
v -0.384103 0.485844 0.02
v -0.382456 0.484992 0.02
v -0.381158 0.483694 0.02
v -0.380306 0.482047 0.02
v -0.465897 0.459156 0.02
v -0.467544 0.460008 0.02
v -0.468842 0.461306 0.02
v -0.469694 0.462953 0.02
v -0.469694 0.462953 0.04
v -0.468842 0.461306 0.04
v -0.467544 0.460008 0.04
v -0.465897 0.459156 0.04
v -0.380306 0.482047 0.04
v -0.381158 0.483694 0.04
v -0.382456 0.484992 0.04
v -0.384103 0.485844 0.04
v -0.47 0.48015 0.04
v -0.464 0.48615 0.04
v -0.47 0.48015 0.02
v -0.464 0.48615 0.02
v -0.38 0.46485 0.04
v -0.386 0.45885 0.04
v -0.38 0.46485 0.02
v -0.386 0.45885 0.02
v -0.469694 0.482047 0.02
v -0.468842 0.483694 0.02
v -0.467544 0.484992 0.02
v -0.465897 0.485844 0.02
v -0.380306 0.462953 0.02
v -0.381158 0.461306 0.02
v -0.382456 0.460008 0.02
v -0.384103 0.459156 0.02
v -0.465897 0.485844 0.04
v -0.467544 0.484992 0.04
v -0.468842 0.483694 0.04
v -0.469694 0.482047 0.04
v -0.384103 0.459156 0.04
v -0.382456 0.460008 0.04
v -0.381158 0.461306 0.04
v -0.380306 0.462953 0.04
v -0.5 0 0
v -0.5 0 0.04
v -0.01 0 0.04
v -0.01 0 0
v -0.01 -0.495 0.04
v -0.02 -0.505 0.04
v -0.01 -0.495 0
v -0.02 -0.505 0
v -0.0105098 -0.498161 0
v -0.0119293 -0.500906 0
v -0.0140939 -0.503071 0
v -0.016839 -0.50449 0
v -0.0105098 -0.498161 0.04
v -0.0119293 -0.500906 0.04
v -0.0140939 -0.503071 0.04
v -0.016839 -0.50449 0.04
v -0.5 -0.472 0.04
v -0.47 -0.472 0.04
v -0.49 -0.505 0.04
v -0.5 -0.495 0.04
v -0.49 -0.505 0
v -0.5 -0.495 0
v -0.493161 -0.50449 0
v -0.495906 -0.503071 0
v -0.498071 -0.500906 0
v -0.49949 -0.498161 0
v -0.49949 -0.498161 0.04
v -0.498071 -0.500906 0.04
v -0.495906 -0.503071 0.04
v -0.493161 -0.50449 0.04
v -0.386 -0.48615 0.02
v -0.38 -0.48015 0.02
v -0.386 -0.48615 0.04
v -0.38 -0.48015 0.04
v -0.464 -0.45885 0.02
v -0.47 -0.46485 0.02
v -0.464 -0.45885 0.04
v -0.47 -0.46485 0.04
v -0.384103 -0.485844 0.02
v -0.382456 -0.484992 0.02
v -0.381158 -0.483694 0.02
v -0.380306 -0.482047 0.02
v -0.465897 -0.459156 0.02
v -0.467544 -0.460008 0.02
v -0.468842 -0.461306 0.02
v -0.469694 -0.462953 0.02
v -0.469694 -0.462953 0.04
v -0.468842 -0.461306 0.04
v -0.467544 -0.460008 0.04
v -0.465897 -0.459156 0.04
v -0.380306 -0.482047 0.04
v -0.381158 -0.483694 0.04
v -0.382456 -0.484992 0.04
v -0.384103 -0.485844 0.04
v -0.47 -0.48015 0.04
v -0.464 -0.48615 0.04
v -0.47 -0.48015 0.02
v -0.464 -0.48615 0.02
v -0.38 -0.46485 0.04
v -0.386 -0.45885 0.04
v -0.38 -0.46485 0.02
v -0.386 -0.45885 0.02
v -0.469694 -0.482047 0.02
v -0.468842 -0.483694 0.02
v -0.467544 -0.484992 0.02
v -0.465897 -0.485844 0.02
v -0.380306 -0.462953 0.02
v -0.381158 -0.461306 0.02
v -0.382456 -0.460008 0.02
v -0.384103 -0.459156 0.02
v -0.465897 -0.485844 0.04
v -0.467544 -0.484992 0.04
v -0.468842 -0.483694 0.04
v -0.469694 -0.482047 0.04
v -0.384103 -0.459156 0.04
v -0.382456 -0.460008 0.04
v -0.381158 -0.461306 0.04
v -0.380306 -0.462953 0.04
# 304 verticies
vn 0.0798572 0.996806 0
vn -0.0798571 0.996806 0
vn -0.996806 -0.0798611 0
vn -0.996806 0.0798611 0
vn 0.996806 0.0798611 0
vn 0.996806 -0.0798611 0
vn 0 0 1
vn -0.996806 0.0798605 0
vn -0.931654 0.363346 0
vn -0.96502 0.262177 0
vn -0.775657 0.631154 0
vn -0.836684 0.547686 0
vn -0.63116 0.775652 0
vn -0.54769 0.836681 0
vn -0.363346 0.931654 0
vn -0.262173 0.965021 0
vn 0.363346 0.931654 0
vn 0.262173 0.965021 0
vn 0.631161 0.775652 0
vn 0.54769 0.836681 0
vn 0.775658 0.631153 0
vn 0.836685 0.547684 0
vn 0.996806 0.0798618 0
vn 0.931654 0.363346 0
vn 0.96502 0.262178 0
vn 0.0798611 -0.996806 0
vn 0.363345 -0.931655 0
vn 0.262177 -0.96502 0
vn 0.631156 -0.775656 0
vn 0.547685 -0.836684 0
vn 0.775656 -0.631156 0
vn 0.836684 -0.547685 0
vn -0.106443 0.994319 0
vn -0.363345 0.931655 0
vn -0.262177 0.96502 0
vn -0.0532217 0.998583 0
vn -0.631156 0.775656 0
vn -0.547685 0.836684 0
vn -0.775656 0.631156 0
vn -0.836684 0.547685 0
vn -0.931655 0.363345 0
vn -0.96502 0.262177 0
vn 0.931655 -0.363345 0
vn 0.96502 -0.262177 0
vn -0.0798611 -0.996806 0
vn 0.0532217 0.998583 0
vn 0.106443 0.994319 0
vn -0.931655 -0.363345 0
vn -0.96502 -0.262177 0
vn -0.775656 -0.631156 0
vn -0.836684 -0.547685 0
vn -0.631156 -0.775656 0
vn -0.547685 -0.836684 0
vn 0.931655 0.363345 0
vn 0.96502 0.262177 0
vn 0.775656 0.631156 0
vn 0.836684 0.547685 0
vn 0.631156 0.775656 0
vn 0.547685 0.836684 0
vn -0.363345 -0.931655 0
vn -0.262177 -0.96502 0
vn 0.363345 0.931655 0
vn 0.262177 0.96502 0
vn 1 0 0
vn -1 0 0
vn 0 0 -1
vn -0.0798571 -0.996806 0
vn 0.0798572 -0.996806 0
vn -0.96502 -0.262177 0
vn -0.931654 -0.363346 0
vn -0.996806 -0.0798605 0
vn -0.836684 -0.547686 0
vn -0.775657 -0.631154 0
vn -0.63116 -0.775652 0
vn -0.54769 -0.836681 0
vn -0.262173 -0.965021 0
vn -0.363346 -0.931654 0
vn 0.262173 -0.965021 0
vn 0.363346 -0.931654 0
vn 0.54769 -0.836681 0
vn 0.631161 -0.775652 0
vn 0.775658 -0.631153 0
vn 0.836685 -0.547684 0
vn 0.96502 -0.262178 0
vn 0.931654 -0.363346 0
vn 0.996806 -0.0798618 0
vn 0.0798611 0.996806 0
vn 0.631156 0.775656 0
vn 0.775656 0.631156 0
vn -0.106443 -0.994319 0
vn -0.0532217 -0.998583 0
vn -0.631156 -0.775656 0
vn -0.775656 -0.631156 0
vn -0.0798611 0.996806 0
vn 0.0532217 -0.998583 0
vn 0.106443 -0.994319 0
vn -0.775656 0.631156 0
vn -0.631156 0.775656 0
vn 0.775656 -0.631156 0
vn 0.631156 -0.775656 0
vn 0.0798571 0.996806 0
vn -0.0798572 0.996806 0
vn 0.96502 0.262177 0
vn 0.931654 0.363346 0
vn 0.996806 0.0798605 0
vn 0.836684 0.547686 0
vn 0.775657 0.631154 0
vn 0.63116 0.775652 0
vn 0.54769 0.836681 0
vn 0.262173 0.965021 0
vn 0.363346 0.931654 0
vn -0.262173 0.965021 0
vn -0.363346 0.931654 0
vn -0.54769 0.836681 0
vn -0.631161 0.775652 0
vn -0.775658 0.631153 0
vn -0.836685 0.547684 0
vn -0.96502 0.262178 0
vn -0.931654 0.363346 0
vn -0.996806 0.0798618 0
vn -0.0798572 -0.996806 0
vn 0.0798571 -0.996806 0
vn 0.996806 -0.0798605 0
vn 0.931654 -0.363346 0
vn 0.96502 -0.262177 0
vn 0.775657 -0.631154 0
vn 0.836684 -0.547686 0
vn 0.63116 -0.775652 0
vn 0.54769 -0.836681 0
vn 0.363346 -0.931654 0
vn 0.262173 -0.965021 0
vn -0.363346 -0.931654 0
vn -0.262173 -0.965021 0
vn -0.631161 -0.775652 0
vn -0.54769 -0.836681 0
vn -0.775658 -0.631153 0
vn -0.836685 -0.547684 0
vn -0.996806 -0.0798618 0
vn -0.931654 -0.363346 0
vn -0.96502 -0.262178 0
# 140 normals
f  15//1 17//1 4//2 2//2
f  51//3 53//3 32//4 34//4
f  55//5 57//5 28//6 30//6
f  53//7 59//7 60//7 61//7 62//7 54//7 27//7 35//7 36//7 37//7 38//7\
28//7 57//7 63//7 64//7 65//7 66//7 58//7 31//7 39//7 40//7 41//7\
42//7 32//7
f  1//8 9//9 5//10 3//8
f  9//9 10//11 6//12 5//10
f  7//13 6//12 10//11 11//14
f  4//2 8//15 12//16 2//2
f  8//15 7//13 11//14 12//16
f  15//1 26//17 19//18 17//1
f  26//17 25//19 20//20 19//18
f  21//21 20//20 25//19 24//22
f  18//23 22//24 23//25 16//23
f  22//24 21//21 24//22 23//25
f  29//26 50//27 35//28 27//26
f  50//27 49//29 36//30 35//28
f  37//31 36//30 49//29 48//32
f  33//33 46//34 39//35 31//36
f  46//34 45//37 40//38 39//35
f  41//39 40//38 45//37 44//40
f  32//4 42//41 43//42 34//4
f  42//41 41//39 44//40 43//42
f  28//6 38//43 47//44 30//6
f  38//43 37//31 48//32 47//44
f  54//45 52//45 29//26 27//26
f  56//46 33//33 31//36 58//47
f  51//3 70//48 59//49 53//3
f  70//48 69//50 60//51 59//49
f  61//52 60//51 69//50 68//53
f  55//5 74//54 63//55 57//5
f  74//54 73//56 64//57 63//55
f  65//58 64//57 73//56 72//59
f  54//45 62//60 67//61 52//45
f  62//60 61//52 68//53 67//61
f  58//47 66//62 71//63 56//46
f  66//62 65//58 72//59 71//63
f  76//64 75//64 18//23 16//23
f  78//65 77//65 1//8 3//8
f  76//7 13//7 14//7 34//7 43//7 44//7 45//7 46//7 33//7 56//7 71//7\
72//7 73//7 74//7 55//7 30//7 47//7 48//7 49//7 50//7 29//7 52//7\
67//7 68//7 69//7 70//7 51//7 14//1 13//1 16//7 23//7 24//7 25//7\
26//7 15//7 2//7 12//7 11//7 10//7 9//7 1//7 77//7
f  3//66 5//66 6//66 7//66 8//66 4//66 17//66 19//66 20//66 21//66\
22//66 18//66 75//66 78//66
f  82//67 95//68 93//68 80//67
f  110//3 131//4 129//4 112//3
f  106//5 135//6 133//6 108//5
f  120//7 119//7 118//7 117//7 109//7 136//7 144//7 143//7 142//7\
141//7 135//7 106//7 116//7 115//7 114//7 113//7 105//7 132//7 140//7\
139//7 138//7 137//7 131//7 110//7
f  83//69 87//70 79//71 81//71
f  84//72 88//73 87//70 83//69
f  88//73 84//72 85//74 89//75
f  90//76 86//77 82//67 80//67
f  89//75 85//74 86//77 90//76
f  97//78 104//79 93//68 95//68
f  98//80 103//81 104//79 97//78
f  103//81 98//80 99//82 102//83
f  101//84 100//85 96//86 94//86
f  102//83 99//82 100//85 101//84
f  113//63 128//62 107//87 105//87
f  114//59 127//88 128//62 113//63
f  127//88 114//59 115//89 126//57
f  117//61 124//60 111//90 109//91
f  118//53 123//92 124//60 117//61
f  123//92 118//53 119//93 122//51
f  121//49 120//48 110//3 112//3
f  122//51 119//93 120//48 121//49
f  125//55 116//54 106//5 108//5
f  126//57 115//89 116//54 125//55
f  107//87 130//94 132//94 105//87
f  109//91 111//90 134//95 136//96
f  137//42 148//41 129//4 131//4
f  138//40 147//97 148//41 137//42
f  147//97 138//40 139//98 146//38
f  141//44 152//43 133//6 135//6
f  142//32 151//99 152//43 141//44
f  151//99 142//32 143//100 150//30
f  145//35 140//34 132//94 130//94
f  146//38 139//98 140//34 145//35
f  149//28 144//27 136//96 134//95
f  150//30 143//100 144//27 149//28
f  96//86 75//64 76//64 94//86
f  79//71 77//65 78//65 81//71
f  79//7 87//7 88//7 89//7 90//7 80//7 93//7 104//7 103//7 102//7\
101//7 94//7 91//7 92//7 129//7 148//7 147//7 146//7 145//7 130//7\
107//7 128//7 127//7 126//7 125//7 108//7 133//7 152//7 151//7 150//7\
149//7 134//7 111//7 124//7 123//7 122//7 121//7 112//7 92//1 91//1\
76//7 77//7
f  75//66 96//66 100//66 99//66 98//66 97//66 95//66 82//66 86//66\
85//66 84//66 83//66 81//66 78//66
f  156//101 169//102 167//102 154//101
f  184//5 205//6 203//6 186//5
f  180//3 209//4 207//4 182//3
f  194//7 193//7 192//7 191//7 183//7 210//7 218//7 217//7 216//7\
215//7 209//7 180//7 190//7 189//7 188//7 187//7 179//7 206//7 214//7\
213//7 212//7 211//7 205//7 184//7
f  157//103 161//104 153//105 155//105
f  158//106 162//107 161//104 157//103
f  162//107 158//106 159//108 163//109
f  164//110 160//111 156//101 154//101
f  163//109 159//108 160//111 164//110
f  171//112 178//113 167//102 169//102
f  172//114 177//115 178//113 171//112
f  177//115 172//114 173//116 176//117
f  175//118 174//119 170//120 168//120
f  176//117 173//116 174//119 175//118
f  187//61 202//60 181//45 179//45
f  188//53 201//92 202//60 187//61
f  201//92 188//53 189//93 200//51
f  191//63 198//62 185//47 183//46
f  192//59 197//88 198//62 191//63
f  197//88 192//59 193//89 196//57
f  195//55 194//54 184//5 186//5
f  196//57 193//89 194//54 195//55
f  199//49 190//48 180//3 182//3
f  200//51 189//93 190//48 199//49
f  181//45 204//26 206//26 179//45
f  183//46 185//47 208//36 210//33
f  211//44 222//43 203//6 205//6
f  212//32 221//99 222//43 211//44
f  221//99 212//32 213//100 220//30
f  215//42 226//41 207//4 209//4
f  216//40 225//97 226//41 215//42
f  225//97 216//40 217//98 224//38
f  219//28 214//27 206//26 204//26
f  220//30 213//100 214//27 219//28
f  223//35 218//34 210//33 208//36
f  224//38 217//98 218//34 223//35
f  170//120 227//65 228//65 168//120
f  153//105 229//64 230//64 155//105
f  153//7 161//7 162//7 163//7 164//7 154//7 167//7 178//7 177//7\
176//7 175//7 168//7 165//7 166//7 203//7 222//7 221//7 220//7 219//7\
204//7 181//7 202//7 201//7 200//7 199//7 182//7 207//7 226//7 225//7\
224//7 223//7 208//7 185//7 198//7 197//7 196//7 195//7 186//7 166//1\
165//1 228//7 229//7
f  227//66 170//66 174//66 173//66 172//66 171//66 169//66 156//66\
160//66 159//66 158//66 157//66 155//66 230//66
f  245//121 247//121 234//122 232//122
f  281//5 283//5 262//6 264//6
f  285//3 287//3 258//4 260//4
f  283//7 289//7 290//7 291//7 292//7 284//7 257//7 265//7 266//7\
267//7 268//7 258//7 287//7 293//7 294//7 295//7 296//7 288//7 261//7\
269//7 270//7 271//7 272//7 262//7
f  231//123 239//124 235//125 233//123
f  239//124 240//126 236//127 235//125
f  237//128 236//127 240//126 241//129
f  234//122 238//130 242//131 232//122
f  238//130 237//128 241//129 242//131
f  245//121 256//132 249//133 247//121
f  256//132 255//134 250//135 249//133
f  251//136 250//135 255//134 254//137
f  248//138 252//139 253//140 246//138
f  252//139 251//136 254//137 253//140
f  259//94 280//34 265//35 257//94
f  280//34 279//37 266//38 265//35
f  267//39 266//38 279//37 278//40
f  263//96 276//27 269//28 261//95
f  276//27 275//29 270//30 269//28
f  271//31 270//30 275//29 274//32
f  262//6 272//43 273//44 264//6
f  272//43 271//31 274//32 273//44
f  258//4 268//41 277//42 260//4
f  268//41 267//39 278//40 277//42
f  284//87 282//87 259//94 257//94
f  286//91 263//96 261//95 288//90
f  281//5 300//54 289//55 283//5
f  300//54 299//56 290//57 289//55
f  291//58 290//57 299//56 298//59
f  285//3 304//48 293//49 287//3
f  304//48 303//50 294//51 293//49
f  295//52 294//51 303//50 302//53
f  284//87 292//62 297//63 282//87
f  292//62 291//58 298//59 297//63
f  288//90 296//60 301//61 286//91
f  296//60 295//52 302//53 301//61
f  228//65 227//65 248//138 246//138
f  230//64 229//64 231//123 233//123
f  228//7 243//7 244//7 264//7 273//7 274//7 275//7 276//7 263//7\
286//7 301//7 302//7 303//7 304//7 285//7 260//7 277//7 278//7 279//7\
280//7 259//7 282//7 297//7 298//7 299//7 300//7 281//7 244//1 243//1\
246//7 253//7 254//7 255//7 256//7 245//7 232//7 242//7 241//7 240//7\
239//7 231//7 229//7
f  233//66 235//66 236//66 237//66 238//66 234//66 247//66 249//66\
250//66 251//66 252//66 248//66 227//66 230//66
