# 
# Wavefront OBJ file
# Converted by the DEEP Exploration 3.5.7.1088
# Right Hemisphere, LTD
# http://www.righthemisphere.com/
# 
# object Object #0
g Object__0
v 0.474 -0.255 0.211219
v -0.484 -0.255 0.211219
v -0.51 -0.229 0.211219
v -0.51 0.234 0.211219
v -0.484 0.26 0.211219
v 0.474 0.26 0.211219
v 0.5 0.234 0.211219
v 0.5 -0.229 0.211219
v 0.474 -0.255 0.00121914
v -0.484 -0.255 0.00121914
v -0.51 -0.229 0.00121914
v -0.51 0.234 0.00121914
v -0.484 0.26 0.00121914
v 0.474 0.26 0.00121914
v 0.5 0.234 0.00121914
v 0.5 -0.229 0.00121914
v 0.48 -0.21375 0.211219
v -0.475 -0.21375 0.211219
v -0.475 -0.19125 0.211219
v 0.48 -0.19125 0.211219
v 0.48 -0.16875 0.211219
v -0.475 -0.16875 0.211219
v -0.475 -0.14625 0.211219
v 0.48 -0.14625 0.211219
v 0.48 -0.12375 0.211219
v -0.475 -0.12375 0.211219
v -0.475 -0.10125 0.211219
v 0.48 -0.10125 0.211219
v 0.48 -0.07875 0.211219
v -0.475 -0.07875 0.211219
v -0.475 -0.05625 0.211219
v 0.48 -0.05625 0.211219
v 0.48 -0.03375 0.211219
v -0.475 -0.03375 0.211219
v -0.475 -0.01125 0.211219
v 0.48 -0.01125 0.211219
v 0.48 0.01125 0.211219
v -0.475 0.01125 0.211219
v -0.475 0.03375 0.211219
v 0.48 0.03375 0.211219
v 0.48 0.05625 0.211219
v -0.475 0.05625 0.211219
v -0.475 0.07875 0.211219
v 0.48 0.07875 0.211219
v 0.48 0.10125 0.211219
v -0.475 0.10125 0.211219
v -0.475 0.12375 0.211219
v 0.48 0.12375 0.211219
v 0.48 0.14625 0.211219
v -0.475 0.14625 0.211219
v -0.475 0.16875 0.211219
v 0.48 0.16875 0.211219
v 0.48 0.19125 0.211219
v -0.475 0.19125 0.211219
v -0.475 0.21375 0.211219
v 0.48 0.21375 0.211219
v 0.48 -0.21375 0.166219
v -0.475 -0.21375 0.166219
v -0.475 -0.19125 0.166219
v 0.48 -0.19125 0.166219
v 0.48 -0.16875 0.166219
v -0.475 -0.16875 0.166219
v -0.475 -0.14625 0.166219
v 0.48 -0.14625 0.166219
v 0.48 -0.12375 0.166219
v -0.475 -0.12375 0.166219
v -0.475 -0.10125 0.166219
v 0.48 -0.10125 0.166219
v 0.48 -0.07875 0.166219
v -0.475 -0.07875 0.166219
v -0.475 -0.05625 0.166219
v 0.48 -0.05625 0.166219
v 0.48 -0.03375 0.166219
v -0.475 -0.03375 0.166219
v -0.475 -0.01125 0.166219
v 0.48 -0.01125 0.166219
v 0.48 0.01125 0.166219
v -0.475 0.01125 0.166219
v -0.475 0.03375 0.166219
v 0.48 0.03375 0.166219
v 0.48 0.05625 0.166219
v -0.475 0.05625 0.166219
v -0.475 0.07875 0.166219
v 0.48 0.07875 0.166219
v 0.48 0.10125 0.166219
v -0.475 0.10125 0.166219
v -0.475 0.12375 0.166219
v 0.48 0.12375 0.166219
v 0.48 0.14625 0.166219
v -0.475 0.14625 0.166219
v -0.475 0.16875 0.166219
v 0.48 0.16875 0.166219
v 0.48 0.19125 0.166219
v -0.475 0.19125 0.166219
v -0.475 0.21375 0.166219
v 0.48 0.21375 0.166219
# 96 verticies
vn 0 0 -1
vn 0 -1 0
vn -0.707107 -0.707107 0
vn -1 0 0
vn -0.707107 0.707107 0
vn 0 1 0
vn 0.707107 0.707107 0
vn 1 0 0
vn 0.707107 -0.707107 0
vn 0 0 1
# 10 normals
f  9//1 10//1 11//1 12//1 13//1 14//1 15//1 16//1
f  1//2 2//2 10//2 9//2
f  2//3 3//3 11//3 10//3
f  3//4 4//4 12//4 11//4
f  4//5 5//5 13//5 12//5
f  13//6 5//6 6//6 14//6
f  14//7 6//7 7//7 15//7
f  15//8 7//8 8//8 16//8
f  16//9 8//9 1//9 9//9
f  8//10 17//10 18//10 19//10 20//10 21//10 22//10 23//10 24//10\
25//10 26//10 27//10 28//10 29//10 30//10 31//10 32//10 33//10 34//10\
35//10 36//10 37//10 38//10 39//10 40//10 41//10 42//10 43//10 44//10\
45//10 46//10 47//10 48//10 49//10 50//10 51//10 52//10 53//10 54//10\
55//10 56//10 53//1 52//1 49//1 48//1 45//1 44//1 41//1 40//1 37//1\
36//1 33//1 32//1 29//1 28//1 25//1 24//1 21//1 20//1 17//1 8//1 7//10\
6//10 5//10 4//10 3//10 2//10 1//10
f  60//10 59//10 58//10 57//10
f  64//10 63//10 62//10 61//10
f  68//10 67//10 66//10 65//10
f  72//10 71//10 70//10 69//10
f  76//10 75//10 74//10 73//10
f  80//10 79//10 78//10 77//10
f  84//10 83//10 82//10 81//10
f  88//10 87//10 86//10 85//10
f  92//10 91//10 90//10 89//10
f  96//10 95//10 94//10 93//10
f  17//4 20//4 60//4 57//4
f  18//6 17//6 57//6 58//6
f  59//8 19//8 18//8 58//8
f  60//2 20//2 19//2 59//2
f  21//4 24//4 64//4 61//4
f  22//6 21//6 61//6 62//6
f  63//8 23//8 22//8 62//8
f  64//2 24//2 23//2 63//2
f  25//4 28//4 68//4 65//4
f  26//6 25//6 65//6 66//6
f  67//8 27//8 26//8 66//8
f  68//2 28//2 27//2 67//2
f  29//4 32//4 72//4 69//4
f  30//6 29//6 69//6 70//6
f  71//8 31//8 30//8 70//8
f  72//2 32//2 31//2 71//2
f  33//4 36//4 76//4 73//4
f  34//6 33//6 73//6 74//6
f  75//8 35//8 34//8 74//8
f  76//2 36//2 35//2 75//2
f  37//4 40//4 80//4 77//4
f  38//6 37//6 77//6 78//6
f  79//8 39//8 38//8 78//8
f  80//2 40//2 39//2 79//2
f  41//4 44//4 84//4 81//4
f  42//6 41//6 81//6 82//6
f  83//8 43//8 42//8 82//8
f  84//2 44//2 43//2 83//2
f  45//4 48//4 88//4 85//4
f  46//6 45//6 85//6 86//6
f  87//8 47//8 46//8 86//8
f  88//2 48//2 47//2 87//2
f  49//4 52//4 92//4 89//4
f  50//6 49//6 89//6 90//6
f  91//8 51//8 50//8 90//8
f  92//2 52//2 51//2 91//2
f  53//4 56//4 96//4 93//4
f  54//6 53//6 93//6 94//6
f  95//8 55//8 54//8 94//8
f  96//2 56//2 55//2 95//2
