# 
# Wavefront OBJ file
# Converted by the DEEP Exploration 3.5.7.1088
# Right Hemisphere, LTD
# http://www.righthemisphere.com/
# 
# object Object #0
g Object__0
v 0.464 -0.048 0
v 0.499 -0.082 0
v -0.000999998 -0.048 0
v -0.000999998 -0.082 0
v 0.4815 -0.065 0.024
v 0.474803 -0.0584944 0.0221731
v 0.469126 -0.0529792 0.0169706
v 0.465332 -0.0492941 0.0091844
v 0.497668 -0.080706 0.0091844
v 0.493874 -0.0770208 0.0169706
v 0.488197 -0.0715056 0.0221731
v -0.000999998 -0.065 0.024
v -0.000999998 -0.0584944 0.0221731
v -0.000999998 -0.0529792 0.0169706
v -0.000999998 -0.0492941 0.0091844
v -0.000999998 -0.080706 0.0091844
v -0.000999998 -0.0770208 0.0169706
v -0.000999998 -0.0715056 0.0221731
v 0.137 0.065 0
v 0.171 0.065 0
v 0.137 -0.065 0
v 0.171 -0.065 0
v 0.154 0.065 0.024
v 0.147494 0.065 0.0221731
v 0.141979 0.065 0.0169706
v 0.138294 0.065 0.0091844
v 0.169706 0.065 0.0091844
v 0.166021 0.065 0.0169706
v 0.160506 0.065 0.0221731
v 0.154 -0.065 0.024
v 0.147494 -0.065 0.0221731
v 0.141979 -0.065 0.0169706
v 0.138294 -0.065 0.0091844
v 0.169706 -0.065 0.0091844
v 0.166021 -0.065 0.0169706
v 0.160506 -0.065 0.0221731
v 0.464 0.048 0
v 0.499 0.082 0
v -0.000999998 0.048 0
v -0.000999998 0.082 0
v 0.4815 0.065 0.024
v 0.474803 0.0584944 0.0221731
v 0.469126 0.0529792 0.0169706
v 0.465332 0.0492941 0.0091844
v 0.497668 0.080706 0.0091844
v 0.493874 0.0770208 0.0169706
v 0.488197 0.0715056 0.0221731
v -0.000999998 0.065 0.024
v -0.000999998 0.0584944 0.0221731
v -0.000999998 0.0529792 0.0169706
v -0.000999998 0.0492941 0.0091844
v -0.000999998 0.080706 0.0091844
v -0.000999998 0.0770208 0.0169706
v -0.000999998 0.0715056 0.0221731
v 0.464 0 0
v 0.465332 0 0.0091844
v 0.499 0 0
v 0.497668 0 0.0091844
v 0.469126 0 0.0169706
v 0.4815 0 0.024
v 0.474803 0 0.0221731
v 0.488197 0 0.0221731
v 0.493874 0 0.0169706
v 0.48352 -0.010752 0.0001688
v 0.48352 -0.029248 0.0001688
v 0.48352 -0.0164609 0.0174106
v 0.48352 -0.02 0.0188312
v 0.48352 -0.0134607 0.0133651
v 0.48352 -0.011456 0.00731059
v 0.48352 -0.028544 0.00731059
v 0.48352 -0.0265393 0.0133651
v 0.48352 -0.0235391 0.0174106
v 0.48352 0.010752 0.0001688
v 0.48352 0.029248 0.0001688
v 0.48352 0.0164609 0.0174106
v 0.48352 0.02 0.0188312
v 0.48352 0.0134607 0.0133651
v 0.48352 0.011456 0.00731059
v 0.48352 0.028544 0.00731059
v 0.48352 0.0265393 0.0133651
v 0.48352 0.0235391 0.0174106
v -0.464 -0.048 0
v -0.499 -0.082 0
v 0.000999998 -0.048 0
v 0.000999998 -0.082 0
v -0.4815 -0.065 0.024
v -0.474803 -0.0584944 0.0221731
v -0.469126 -0.0529792 0.0169706
v -0.465332 -0.0492941 0.0091844
v -0.497668 -0.080706 0.0091844
v -0.493874 -0.0770208 0.0169706
v -0.488197 -0.0715056 0.0221731
v 0.000999998 -0.065 0.024
v 0.000999998 -0.0584944 0.0221731
v 0.000999998 -0.0529792 0.0169706
v 0.000999998 -0.0492941 0.0091844
v 0.000999998 -0.080706 0.0091844
v 0.000999998 -0.0770208 0.0169706
v 0.000999998 -0.0715056 0.0221731
v -0.137 0.065 0
v -0.171 0.065 0
v -0.137 -0.065 0
v -0.171 -0.065 0
v -0.154 0.065 0.024
v -0.147494 0.065 0.0221731
v -0.141979 0.065 0.0169706
v -0.138294 0.065 0.0091844
v -0.169706 0.065 0.0091844
v -0.166021 0.065 0.0169706
v -0.160506 0.065 0.0221731
v -0.154 -0.065 0.024
v -0.147494 -0.065 0.0221731
v -0.141979 -0.065 0.0169706
v -0.138294 -0.065 0.0091844
v -0.169706 -0.065 0.0091844
v -0.166021 -0.065 0.0169706
v -0.160506 -0.065 0.0221731
v -0.464 0.048 0
v -0.499 0.082 0
v 0.000999998 0.048 0
v 0.000999998 0.082 0
v -0.4815 0.065 0.024
v -0.474803 0.0584944 0.0221731
v -0.469126 0.0529792 0.0169706
v -0.465332 0.0492941 0.0091844
v -0.497668 0.080706 0.0091844
v -0.493874 0.0770208 0.0169706
v -0.488197 0.0715056 0.0221731
v 0.000999998 0.065 0.024
v 0.000999998 0.0584944 0.0221731
v 0.000999998 0.0529792 0.0169706
v 0.000999998 0.0492941 0.0091844
v 0.000999998 0.080706 0.0091844
v 0.000999998 0.0770208 0.0169706
v 0.000999998 0.0715056 0.0221731
v -0.464 0 0
v -0.465332 0 0.0091844
v -0.499 0 0
v -0.497668 0 0.0091844
v -0.469126 0 0.0169706
v -0.4815 0 0.024
v -0.474803 0 0.0221731
v -0.488197 0 0.0221731
v -0.493874 0 0.0169706
v -0.48352 -0.010752 0.0001688
v -0.48352 -0.029248 0.0001688
v -0.48352 -0.0164609 0.0174106
v -0.48352 -0.02 0.0188312
v -0.48352 -0.0134607 0.0133651
v -0.48352 -0.011456 0.00731059
v -0.48352 -0.028544 0.00731059
v -0.48352 -0.0265393 0.0133651
v -0.48352 -0.0235391 0.0174106
v -0.48352 0.010752 0.0001688
v -0.48352 0.029248 0.0001688
v -0.48352 0.0164609 0.0174106
v -0.48352 0.02 0.0188312
v -0.48352 0.0134607 0.0133651
v -0.48352 0.011456 0.00731059
v -0.48352 0.028544 0.00731059
v -0.48352 0.0265393 0.0133651
v -0.48352 0.0235391 0.0174106
v 0 -0.029248 0.0001688
v 0 -0.028544 0.00731059
v 0 -0.0265393 0.0133651
v 0 -0.0235391 0.0174106
v 0 -0.02 0.0188312
v 0 -0.0164609 0.0174106
v 0 -0.010752 0.0001688
v 0 -0.011456 0.00731059
v 0 -0.0134607 0.0133651
v 0 0.010752 0.0001688
v 0 0.011456 0.00731059
v 0 0.0134607 0.0133651
v 0 0.02 0.0188312
v 0 0.0164609 0.0174106
v 0 0.029248 0.0001688
v 0 0.028544 0.00731059
v 0 0.0265393 0.0133651
v 0 0.0235391 0.0174106
# 180 verticies
vn 0 0.27036 0.962759
vn -3.81255e-007 1.2365e-007 1
vn -0.294537 0.223844 0.929054
vn 0 0.56202 0.827124
vn 0 0.770585 0.637338
vn 0 0.844279 0.535904
vn 0 0.942185 0.335094
vn 0 0.97126 0.238019
vn 0 0.990219 0.13952
vn 0 0 -1
vn 0 -0.99022 0.139518
vn 0 -0.942185 0.335094
vn 0 -0.971261 0.238019
vn 0 -0.770585 0.637337
vn 0 -0.844279 0.535904
vn 0.294537 -0.223844 0.929054
vn 0 -0.562021 0.827123
vn 0 -0.27036 0.962759
vn 0 1 0
vn 0 -1 0
vn -0.27036 0 0.962759
vn -0.419755 0 0.907637
vn -0.56202 0 0.827124
vn -0.770585 0 0.637338
vn -0.844279 0 0.535904
vn -0.942185 0 0.335094
vn -0.97126 0 0.238019
vn -0.990219 0 0.13952
vn 0.99022 0 0.139518
vn 0.942185 0 0.335094
vn 0.971261 0 0.238019
vn 0.770585 0 0.637337
vn 0.844279 0 0.535904
vn 0.419755 0 0.907637
vn 0.562021 0 0.827123
vn 0.27036 0 0.962759
vn -0.294537 -0.223844 0.929054
vn -3.81255e-007 -1.2365e-007 1
vn 0 -0.27036 0.962759
vn 0 -0.56202 0.827124
vn 0 -0.770585 0.637338
vn 0 -0.844279 0.535904
vn 0 -0.942185 0.335094
vn 0 -0.97126 0.238019
vn 0 -0.990219 0.13952
vn 0 0.971261 0.238019
vn 0 0.942185 0.335094
vn 0 0.99022 0.139518
vn 0 0.844279 0.535904
vn 0 0.770585 0.637337
vn 0 0.562021 0.827123
vn 0.294537 0.223844 0.929054
vn 0 0.27036 0.962759
vn 0.410909 0 0.911677
vn 0.263177 0 0.964748
vn -0.263178 0 0.964747
vn -0.410909 0 0.911676
vn -0.76196 0 0.647624
vn -0.8376 0 0.546284
vn -0.939158 0 0.343485
vn -0.969705 0 0.244281
vn -0.989645 0 0.143538
vn 0.989645 0 0.143538
vn 0.939158 0 0.343485
vn 0.969705 0 0.244281
vn 0.76196 0 0.647624
vn 0.8376 0 0.546284
vn -1 0 0
vn 0 0.372514 0.928026
vn 0 0.803215 0.595689
vn 0 0.861591 0.507603
vn 0 0.910844 0.41275
vn 0 0.969882 0.243576
vn 0 0.985253 0.171104
vn 0 0.995177 0.098095
vn 0 -0.995177 0.0980941
vn 0 -0.985253 0.171104
vn 0 -0.969882 0.243576
vn 0 -0.910844 0.412751
vn 0 -0.861592 0.507602
vn 0 -0.803216 0.595688
vn 0 -0.372513 0.928027
vn 0 -0.372514 0.928026
vn 0 -0.861591 0.507603
vn 0 -0.803215 0.595689
vn 0 -0.910844 0.41275
vn 0 -0.969882 0.243576
vn 0 -0.985253 0.171104
vn 0 -0.995177 0.098095
vn 0 0.985253 0.171104
vn 0 0.995177 0.0980941
vn 0 0.969882 0.243576
vn 0 0.910844 0.412751
vn 0 0.861592 0.507602
vn 0 0.803216 0.595688
vn 0 0.372513 0.928027
vn 0.294537 0.223844 0.929054
vn 3.81255e-007 1.2365e-007 1
vn -0.294537 -0.223844 0.929054
vn 0.27036 0 0.962759
vn 0.56202 0 0.827124
vn 0.770585 0 0.637338
vn 0.844279 0 0.535904
vn 0.942185 0 0.335094
vn 0.97126 0 0.238019
vn 0.990219 0 0.13952
vn -0.971261 0 0.238019
vn -0.942185 0 0.335094
vn -0.99022 0 0.139518
vn -0.844279 0 0.535904
vn -0.770585 0 0.637337
vn -0.562021 0 0.827123
vn -0.27036 0 0.962759
vn 3.81255e-007 -1.2365e-007 1
vn 0.294537 -0.223844 0.929054
vn -0.294537 0.223844 0.929054
vn -0.263177 0 0.964748
vn -0.410909 0 0.911677
vn 0.410909 0 0.911676
vn 0.263178 0 0.964747
vn 1 0 0
# 121 normals
f  12//1 5//2 6//3 13//4
f  13//4 6//3 7//5 14//6
f  14//6 7//5 8//7 15//8
f  15//8 8//7 1//9 3//9
f  1//10 2//10 4//10 3//10
f  2//11 9//12 16//13 4//11
f  9//12 10//14 17//15 16//13
f  10//14 11//16 18//17 17//15
f  11//16 5//2 12//18 18//17
f  29//19 28//19 27//19 20//19 19//19 26//19 25//19 24//19 23//19
f  30//20 31//20 32//20 33//20 21//20 22//20 34//20 35//20 36//20
f  30//21 23//21 24//22 31//23
f  31//23 24//22 25//24 32//25
f  32//25 25//24 26//26 33//27
f  33//27 26//26 19//28 21//28
f  19//10 20//10 22//10 21//10
f  20//29 27//30 34//31 22//29
f  27//30 28//32 35//33 34//31
f  28//32 29//34 36//35 35//33
f  29//34 23//36 30//36 36//35
f  42//37 41//38 48//39 49//40
f  43//41 42//37 49//40 50//42
f  44//43 43//41 50//42 51//44
f  37//45 44//43 51//44 39//45
f  40//10 38//10 37//10 39//10
f  52//46 45//47 38//48 40//48
f  53//49 46//50 45//47 52//46
f  54//51 47//52 46//50 53//49
f  48//53 41//38 47//52 54//51
f  62//54 60//55 5//2 11//16
f  5//2 60//56 61//57 6//3
f  6//3 61//57 59//58 7//59
f  7//59 59//58 56//60 8//61
f  8//61 56//60 55//62 1//62
f  1//10 55//10 57//10 2//10
f  57//63 58//64 9//65 2//63
f  58//64 63//66 10//67 9//65
f  63//66 62//54 11//16 10//67
f  61//57 60//56 41//38 42//37
f  41//38 60//55 62//54 47//52
f  47//52 62//54 63//66 46//67
f  46//67 63//66 58//64 45//65
f  45//65 58//64 57//63 38//63
f  38//10 57//10 55//10 37//10
f  55//62 56//60 44//61 37//62
f  56//60 59//58 43//59 44//61
f  59//58 61//57 42//37 43//59
f  167//68 168//68 171//68 170//68 169//68 163//68 164//68 165//68\
166//68
f  167//69 67//69 66//69 168//69
f  168//70 66//70 68//71 171//72
f  171//72 68//71 69//73 170//74
f  170//74 69//73 64//75 169//75
f  169//10 64//10 65//10 163//10
f  163//76 65//76 70//77 164//78
f  164//78 70//77 71//79 165//80
f  165//80 71//79 72//81 166//81
f  166//82 72//82 67//82 167//82
f  179//68 178//68 177//68 172//68 173//68 174//68 176//68 175//68\
180//68
f  75//83 76//83 175//83 176//83
f  77//84 75//85 176//85 174//86
f  78//87 77//84 174//86 173//88
f  73//89 78//87 173//88 172//89
f  74//10 73//10 172//10 177//10
f  79//90 74//91 177//91 178//92
f  80//93 79//90 178//92 179//94
f  81//95 80//93 179//94 180//95
f  76//96 81//96 180//96 175//96
f  87//97 86//98 93//1 94//4
f  88//5 87//97 94//4 95//6
f  89//7 88//5 95//6 96//8
f  82//9 89//7 96//8 84//9
f  85//10 83//10 82//10 84//10
f  97//13 90//12 83//11 85//11
f  98//15 91//14 90//12 97//13
f  99//17 92//99 91//14 98//15
f  93//18 86//98 92//99 99//17
f  105//19 106//19 107//19 100//19 101//19 108//19 109//19 110//19\
104//19
f  116//20 115//20 103//20 102//20 114//20 113//20 112//20 111//20\
117//20
f  105//34 104//100 111//100 112//101
f  106//102 105//34 112//101 113//103
f  107//104 106//102 113//103 114//105
f  100//106 107//104 114//105 102//106
f  103//10 101//10 100//10 102//10
f  115//107 108//108 101//109 103//109
f  116//110 109//111 108//108 115//107
f  117//112 110//22 109//111 116//110
f  111//113 104//113 110//22 117//112
f  129//39 122//114 123//115 130//40
f  130//40 123//115 124//41 131//42
f  131//42 124//41 125//43 132//44
f  132//44 125//43 118//45 120//45
f  118//10 119//10 121//10 120//10
f  119//48 126//47 133//46 121//48
f  126//47 127//50 134//49 133//46
f  127//50 128//116 135//51 134//49
f  128//116 122//114 129//53 135//51
f  86//98 141//117 143//118 92//99
f  142//119 141//120 86//98 87//97
f  140//66 142//119 87//97 88//67
f  137//64 140//66 88//67 89//65
f  136//63 137//64 89//65 82//63
f  138//10 136//10 82//10 83//10
f  90//61 139//60 138//62 83//62
f  91//59 144//58 139//60 90//61
f  92//99 143//118 144//58 91//59
f  122//114 141//120 142//119 123//115
f  143//118 141//117 122//114 128//116
f  144//58 143//118 128//116 127//59
f  139//60 144//58 127//59 126//61
f  138//62 139//60 126//61 119//62
f  136//10 138//10 119//10 118//10
f  125//65 137//64 136//63 118//63
f  124//67 140//66 137//64 125//65
f  123//115 142//119 140//66 124//67
f  165//121 164//121 163//121 169//121 170//121 171//121 168//121\
167//121 166//121
f  147//69 148//69 167//69 168//69
f  149//71 147//70 168//70 171//72
f  150//73 149//71 171//72 170//74
f  145//75 150//73 170//74 169//75
f  146//10 145//10 169//10 163//10
f  151//77 146//76 163//76 164//78
f  152//79 151//77 164//78 165//80
f  153//81 152//79 165//80 166//81
f  148//82 153//82 166//82 167//82
f  175//121 176//121 174//121 173//121 172//121 177//121 178//121\
179//121 180//121
f  175//83 157//83 156//83 176//83
f  176//85 156//85 158//84 174//86
f  174//86 158//84 159//87 173//88
f  173//88 159//87 154//89 172//89
f  172//10 154//10 155//10 177//10
f  177//91 155//91 160//90 178//92
f  178//92 160//90 161//93 179//94
f  179//94 161//93 162//95 180//95
f  180//96 162//96 157//96 175//96
