# 
# Wavefront OBJ file
# Converted by the DEEP Exploration 3.5.7.1088
# Right Hemisphere, LTD
# http://www.righthemisphere.com/
# 
# object Object #0
g Object__0
v 0.471294 -0.255 0.207684
v -0.481294 -0.255 0.207684
v -0.508087 -0.230913 0.207684
v -0.51 0.231294 0.207684
v -0.485913 0.258087 0.207684
v 0.471294 0.26 0.207684
v 0.498087 0.235913 0.207684
v 0.5 -0.226294 0.207684
v 0.472536 -0.251464 0.00121914
v -0.482536 -0.251464 0.00121914
v -0.506464 -0.227536 0.00121914
v -0.506464 0.232536 0.00121914
v -0.482536 0.256464 0.00121914
v 0.472536 0.256464 0.00121914
v 0.496464 0.232536 0.00121914
v 0.496464 -0.227536 0.00121914
v 0.483536 -0.217286 0.211219
v -0.478536 -0.217286 0.211219
v -0.478536 -0.187714 0.211219
v 0.48 -0.194786 0.207684
v 0.483536 -0.172286 0.211219
v -0.478536 -0.172286 0.211219
v -0.478536 -0.142714 0.211219
v 0.48 -0.149786 0.207684
v 0.483536 -0.127286 0.211219
v -0.478536 -0.127286 0.211219
v -0.478536 -0.0977145 0.211219
v 0.48 -0.104786 0.207684
v 0.483536 -0.0822855 0.211219
v -0.478536 -0.0822855 0.211219
v -0.478536 -0.0527145 0.211219
v 0.48 -0.0597855 0.207684
v 0.483536 -0.0372855 0.211219
v -0.478536 -0.0372855 0.211219
v -0.478536 -0.00771447 0.211219
v 0.48 -0.0147855 0.207684
v 0.483536 0.00771446 0.211219
v -0.478536 0.00771446 0.211219
v -0.478536 0.0372855 0.211219
v 0.48 0.0302145 0.207684
v 0.483536 0.0527145 0.211219
v -0.478536 0.0527145 0.211219
v -0.478536 0.0822855 0.211219
v 0.48 0.0752145 0.207684
v 0.483536 0.0977145 0.211219
v -0.478536 0.0977145 0.211219
v -0.478536 0.127286 0.211219
v 0.48 0.120214 0.207684
v 0.483536 0.142714 0.211219
v -0.478536 0.142714 0.211219
v -0.478536 0.172286 0.211219
v 0.48 0.165214 0.207684
v 0.483536 0.187714 0.211219
v -0.478536 0.187714 0.211219
v -0.478536 0.217286 0.211219
v 0.483536 0.217286 0.211219
v 0.476464 -0.210214 0.166219
v -0.471464 -0.210214 0.166219
v -0.471464 -0.194786 0.166219
v 0.476464 -0.194786 0.166219
v 0.476464 -0.165214 0.166219
v -0.471464 -0.165214 0.166219
v -0.471464 -0.149786 0.166219
v 0.476464 -0.149786 0.166219
v 0.476464 -0.120214 0.166219
v -0.471464 -0.120214 0.166219
v -0.471464 -0.104786 0.166219
v 0.476464 -0.104786 0.166219
v 0.476464 -0.0752145 0.166219
v -0.471464 -0.0752145 0.166219
v -0.471464 -0.0597855 0.166219
v 0.476464 -0.0597855 0.166219
v 0.476464 -0.0302145 0.166219
v -0.471464 -0.0302145 0.166219
v -0.471464 -0.0147855 0.166219
v 0.476464 -0.0147855 0.166219
v 0.476464 0.0147855 0.166219
v -0.471464 0.0147855 0.166219
v -0.471464 0.0302145 0.166219
v 0.476464 0.0302145 0.166219
v 0.476464 0.0597855 0.166219
v -0.471464 0.0597855 0.166219
v -0.471464 0.0752145 0.166219
v 0.476464 0.0752145 0.166219
v 0.476464 0.104786 0.166219
v -0.471464 0.104786 0.166219
v -0.471464 0.120214 0.166219
v 0.476464 0.120214 0.166219
v 0.476464 0.149786 0.166219
v -0.471464 0.149786 0.166219
v -0.471464 0.165214 0.166219
v 0.476464 0.165214 0.166219
v 0.476464 0.194786 0.166219
v -0.471464 0.194786 0.166219
v -0.471464 0.210214 0.166219
v 0.476464 0.210214 0.166219
v 0.472536 -0.251464 0.211219
v 0.475913 -0.253087 0.207684
v -0.485913 -0.253087 0.207684
v -0.482536 -0.251464 0.211219
v -0.51 -0.226294 0.207684
v -0.506464 -0.227536 0.211219
v -0.508087 0.235913 0.207684
v -0.506464 0.232536 0.211219
v -0.481294 0.26 0.207684
v -0.482536 0.256464 0.211219
v 0.475913 0.258087 0.207684
v 0.472536 0.256464 0.211219
v 0.5 0.231294 0.207684
v 0.496464 0.232536 0.211219
v 0.498087 -0.230913 0.207684
v 0.496464 -0.227536 0.211219
v 0.471294 -0.255 0.00475468
v 0.475913 -0.253087 0.00475468
v -0.485913 -0.253087 0.00475468
v -0.481294 -0.255 0.00475468
v -0.51 -0.226294 0.00475468
v -0.508087 -0.230913 0.00475468
v -0.508087 0.235913 0.00475468
v -0.51 0.231294 0.00475468
v -0.481294 0.26 0.00475468
v -0.485913 0.258087 0.00475468
v 0.475913 0.258087 0.00475468
v 0.471294 0.26 0.00475468
v 0.5 0.231294 0.00475468
v 0.498087 0.235913 0.00475468
v 0.498087 -0.230913 0.00475468
v 0.5 -0.226294 0.00475468
v 0.476464 -0.21375 0.207684
v 0.48 -0.210214 0.207684
v -0.475 -0.210214 0.207684
v -0.471464 -0.21375 0.207684
v -0.471464 -0.19125 0.207684
v -0.475 -0.194786 0.207684
v 0.476464 -0.19125 0.207684
v 0.483536 -0.187714 0.211219
v 0.476464 -0.16875 0.207684
v 0.48 -0.165214 0.207684
v -0.475 -0.165214 0.207684
v -0.471464 -0.16875 0.207684
v -0.471464 -0.14625 0.207684
v -0.475 -0.149786 0.207684
v 0.476464 -0.14625 0.207684
v 0.483536 -0.142714 0.211219
v 0.476464 -0.12375 0.207684
v 0.48 -0.120214 0.207684
v -0.475 -0.120214 0.207684
v -0.471464 -0.12375 0.207684
v -0.471464 -0.10125 0.207684
v -0.475 -0.104786 0.207684
v 0.476464 -0.10125 0.207684
v 0.483536 -0.0977145 0.211219
v 0.476464 -0.07875 0.207684
v 0.48 -0.0752145 0.207684
v -0.475 -0.0752145 0.207684
v -0.471464 -0.07875 0.207684
v -0.471464 -0.05625 0.207684
v -0.475 -0.0597855 0.207684
v 0.476464 -0.05625 0.207684
v 0.483536 -0.0527145 0.211219
v 0.476464 -0.03375 0.207684
v 0.48 -0.0302145 0.207684
v -0.475 -0.0302145 0.207684
v -0.471464 -0.03375 0.207684
v -0.471464 -0.01125 0.207684
v -0.475 -0.0147855 0.207684
v 0.476464 -0.01125 0.207684
v 0.483536 -0.00771447 0.211219
v 0.476464 0.01125 0.207684
v 0.48 0.0147855 0.207684
v -0.475 0.0147855 0.207684
v -0.471464 0.01125 0.207684
v -0.471464 0.03375 0.207684
v -0.475 0.0302145 0.207684
v 0.476464 0.03375 0.207684
v 0.483536 0.0372855 0.211219
v 0.476464 0.05625 0.207684
v 0.48 0.0597855 0.207684
v -0.475 0.0597855 0.207684
v -0.471464 0.05625 0.207684
v -0.471464 0.07875 0.207684
v -0.475 0.0752145 0.207684
v 0.476464 0.07875 0.207684
v 0.483536 0.0822855 0.211219
v 0.476464 0.10125 0.207684
v 0.48 0.104786 0.207684
v -0.475 0.104786 0.207684
v -0.471464 0.10125 0.207684
v -0.471464 0.12375 0.207684
v -0.475 0.120214 0.207684
v 0.476464 0.12375 0.207684
v 0.483536 0.127286 0.211219
v 0.476464 0.14625 0.207684
v 0.48 0.149786 0.207684
v -0.475 0.149786 0.207684
v -0.471464 0.14625 0.207684
v -0.471464 0.16875 0.207684
v -0.475 0.165214 0.207684
v 0.476464 0.16875 0.207684
v 0.483536 0.172286 0.211219
v 0.476464 0.19125 0.207684
v 0.48 0.194786 0.207684
v -0.475 0.194786 0.207684
v -0.471464 0.19125 0.207684
v -0.471464 0.21375 0.207684
v -0.475 0.210214 0.207684
v 0.48 0.210214 0.207684
v 0.476464 0.21375 0.207684
v 0.48 -0.210214 0.169755
v 0.476464 -0.21375 0.169755
v -0.471464 -0.21375 0.169755
v -0.475 -0.210214 0.169755
v -0.475 -0.194786 0.169755
v -0.471464 -0.19125 0.169755
v 0.476464 -0.19125 0.169755
v 0.48 -0.194786 0.169755
v 0.48 -0.165214 0.169755
v 0.476464 -0.16875 0.169755
v -0.471464 -0.16875 0.169755
v -0.475 -0.165214 0.169755
v -0.475 -0.149786 0.169755
v -0.471464 -0.14625 0.169755
v 0.476464 -0.14625 0.169755
v 0.48 -0.149786 0.169755
v 0.48 -0.120214 0.169755
v 0.476464 -0.12375 0.169755
v -0.471464 -0.12375 0.169755
v -0.475 -0.120214 0.169755
v -0.475 -0.104786 0.169755
v -0.471464 -0.10125 0.169755
v 0.476464 -0.10125 0.169755
v 0.48 -0.104786 0.169755
v 0.48 -0.0752145 0.169755
v 0.476464 -0.07875 0.169755
v -0.471464 -0.07875 0.169755
v -0.475 -0.0752145 0.169755
v -0.475 -0.0597855 0.169755
v -0.471464 -0.05625 0.169755
v 0.476464 -0.05625 0.169755
v 0.48 -0.0597855 0.169755
v 0.48 -0.0302145 0.169755
v 0.476464 -0.03375 0.169755
v -0.471464 -0.03375 0.169755
v -0.475 -0.0302145 0.169755
v -0.475 -0.0147855 0.169755
v -0.471464 -0.01125 0.169755
v 0.476464 -0.01125 0.169755
v 0.48 -0.0147855 0.169755
v 0.48 0.0147855 0.169755
v 0.476464 0.01125 0.169755
v -0.471464 0.01125 0.169755
v -0.475 0.0147855 0.169755
v -0.475 0.0302145 0.169755
v -0.471464 0.03375 0.169755
v 0.476464 0.03375 0.169755
v 0.48 0.0302145 0.169755
v 0.48 0.0597855 0.169755
v 0.476464 0.05625 0.169755
v -0.471464 0.05625 0.169755
v -0.475 0.0597855 0.169755
v -0.475 0.0752145 0.169755
v -0.471464 0.07875 0.169755
v 0.476464 0.07875 0.169755
v 0.48 0.0752145 0.169755
v 0.48 0.104786 0.169755
v 0.476464 0.10125 0.169755
v -0.471464 0.10125 0.169755
v -0.475 0.104786 0.169755
v -0.475 0.120214 0.169755
v -0.471464 0.12375 0.169755
v 0.476464 0.12375 0.169755
v 0.48 0.120214 0.169755
v 0.48 0.149786 0.169755
v 0.476464 0.14625 0.169755
v -0.471464 0.14625 0.169755
v -0.475 0.149786 0.169755
v -0.475 0.165214 0.169755
v -0.471464 0.16875 0.169755
v 0.476464 0.16875 0.169755
v 0.48 0.165214 0.169755
v 0.48 0.194786 0.169755
v 0.476464 0.19125 0.169755
v -0.471464 0.19125 0.169755
v -0.475 0.194786 0.169755
v -0.475 0.210214 0.169755
v -0.471464 0.21375 0.169755
v 0.476464 0.21375 0.169755
v 0.48 0.210214 0.169755
# 288 verticies
vn 0 0 -1
vn 0.195091 -0.980785 0
vn -0.195091 -0.980785 0
vn -0.555571 -0.831469 0
vn -0.831469 -0.555571 0
vn -0.980785 -0.195092 0
vn -0.980785 0.195092 0
vn -0.831469 0.555571 0
vn -0.555571 0.831469 0
vn -0.129775 0.991543 0
vn -0.259551 0.965729 0
vn 0.129775 0.991543 0
vn 0.259551 0.965729 0
vn 0.609362 0.792892 0
vn 0.499344 0.866404 0
vn 0.792892 0.609363 0
vn 0.866403 0.499345 0
vn 0.991543 0.129776 0
vn 0.965729 0.259552 0
vn 0.991543 -0.129776 0
vn 0.965729 -0.259552 0
vn 0.792892 -0.609363 0
vn 0.866403 -0.499345 0
vn 0.609362 -0.792892 0
vn 0.499344 -0.866404 0
vn 0 0 1
vn -0.0767644 0.0767644 0.99409
vn 0.061245 0.061245 0.996242
vn 0.0767644 -0.0767644 0.99409
vn -0.061245 -0.061245 0.996242
vn -0.0767644 0.0767646 0.99409
vn 0.061245 0.0612451 0.996242
vn 0.0767644 -0.0767646 0.99409
vn -0.061245 -0.0612451 0.996242
vn 0.0767644 -0.0767645 0.99409
vn -0.061245 -0.0612451 0.996242
vn -0.0767644 0.0767645 0.99409
vn 0.061245 0.0612451 0.996242
vn 0.0767644 -0.0767645 0.99409
vn -0.061245 -0.0612451 0.996242
vn -0.0767644 0.0767645 0.99409
vn 0.061245 0.0612451 0.996242
vn 0.0767644 -0.0767645 0.99409
vn -0.061245 -0.0612451 0.996242
vn -0.0767644 0.0767645 0.99409
vn 0.061245 0.0612451 0.996242
vn 0.0509317 0.0509317 0.997403
vn -0.0509317 -0.0509317 0.997403
vn -1 0 0
vn 0 1 0
vn 1 0 0
vn 0 -1 0
vn 0.205833 -0.678774 0.704911
vn -0.334421 -0.625511 0.70491
vn -0.10123 -0.721024 0.685476
vn 0.152057 -0.725072 0.671676
vn 0.438261 -0.581421 0.685475
vn 0.620224 -0.405184 0.671676
vn 0.625511 -0.334421 0.704911
vn -0.678776 -0.205834 0.704908
vn -0.581422 -0.438262 0.685474
vn -0.405183 -0.620224 0.671676
vn -0.625513 0.334421 0.704909
vn -0.721026 0.101231 0.685473
vn -0.725075 -0.152058 0.671673
vn -0.205832 0.678774 0.704911
vn -0.438261 0.581422 0.685475
vn -0.620226 0.405185 0.671673
vn 0.33442 0.625511 0.704911
vn 0.10123 0.721024 0.685476
vn -0.152057 0.725072 0.671676
vn 0.678773 0.205833 0.704911
vn 0.581421 0.438261 0.685475
vn 0.405183 0.620224 0.671676
vn 0.721023 -0.10123 0.685476
vn 0.725072 0.152058 0.671677
vn 0.33442 -0.625511 -0.704911
vn 0.678773 -0.205833 -0.704912
vn 0.581421 -0.438261 -0.685476
vn 0.405183 -0.620224 -0.671676
vn 0.10123 -0.721023 -0.685476
vn -0.152057 -0.725072 -0.671677
vn -0.205832 -0.678773 -0.704911
vn -0.438261 -0.581422 -0.685475
vn -0.620225 -0.405185 -0.671674
vn -0.625512 -0.334421 -0.704909
vn -0.721026 -0.101231 -0.685474
vn -0.725074 0.152058 -0.671674
vn -0.678776 0.205834 -0.704909
vn -0.581422 0.438262 -0.685474
vn -0.405183 0.620224 -0.671676
vn -0.33442 0.625511 -0.704911
vn -0.10123 0.721023 -0.685476
vn 0.152057 0.725072 -0.671677
vn 0.205832 0.678773 -0.704911
vn 0.438261 0.581421 -0.685476
vn 0.620223 0.405184 -0.671676
vn 0.62551 0.33442 -0.704911
vn 0.721023 0.10123 -0.685477
vn 0.725071 -0.152058 -0.671677
vn -0.707107 0 0.707107
vn 0 0.707107 0.707107
vn -0.707107 0.707107 0
vn 0.707107 0 0.707107
vn 0.707107 0.707107 0
vn 0 -0.707107 0.707107
vn 0.707107 -0.707107 0
vn -0.707107 -0.707107 0
vn 0 0.707108 0.707106
vn -0.707106 0.707108 0
vn 0.707106 0.707108 0
vn 0 -0.707108 0.707106
vn 0.707106 -0.707108 0
vn -0.707106 -0.707108 0
vn 0 -0.707107 0.707106
vn 0.707106 -0.707107 0
vn -0.707106 -0.707107 0
vn 0 0.707107 0.707106
vn -0.707106 0.707107 0
vn 0.707106 0.707107 0
vn 0 -0.707107 0.707106
vn 0.707106 -0.707107 0
vn -0.707106 -0.707107 0
vn 0 0.707107 0.707106
vn -0.707106 0.707107 0
vn 0.707106 0.707107 0
vn 0.707106 -0.707107 0
vn -0.707106 -0.707107 0
vn -0.707106 0.707107 0
vn 0.707106 0.707107 0
vn 0 0.707107 0.707106
vn 0 -0.707107 0.707106
vn 0 0.707107 0.707106
vn 0 -0.707107 0.707106
vn -0.301511 0.301511 0.904534
vn 0.301511 0.301511 0.904534
vn 0.301511 -0.301511 0.904534
vn -0.301511 -0.301511 0.904534
vn -0.301511 0.301512 0.904534
vn 0.301511 0.301512 0.904534
vn 0.301511 -0.301512 0.904534
vn -0.301511 -0.301512 0.904534
vn 0.301511 -0.301512 0.904534
vn -0.301511 -0.301512 0.904534
vn -0.301511 0.301512 0.904534
vn 0.301511 0.301512 0.904534
vn 0.301511 -0.301512 0.904534
vn -0.301511 -0.301512 0.904534
vn -0.301511 0.301512 0.904534
vn 0.301511 0.301512 0.904534
vn 0.301511 -0.301512 0.904534
vn -0.301511 -0.301512 0.904534
vn -0.301511 0.301512 0.904534
vn 0.301511 0.301512 0.904534
vn -0.57735 0.57735 0.57735
vn 0.57735 0.57735 0.57735
vn 0.57735 -0.57735 0.57735
vn -0.57735 -0.57735 0.57735
vn -0.57735 0.577351 0.57735
vn 0.57735 0.577351 0.57735
vn 0.57735 -0.577351 0.57735
vn -0.57735 -0.577351 0.57735
vn 0.57735 -0.577351 0.57735
vn -0.57735 -0.577351 0.57735
vn -0.57735 0.577351 0.57735
vn 0.57735 0.577351 0.57735
vn 0.57735 -0.577351 0.57735
vn -0.57735 -0.577351 0.57735
vn -0.57735 0.577351 0.57735
vn 0.57735 0.577351 0.57735
vn 0.57735 -0.577351 0.57735
vn -0.57735 -0.577351 0.57735
vn -0.57735 0.577351 0.57735
vn 0.57735 0.577351 0.57735
# 174 normals
f  9//1 10//1 11//1 12//1 13//1 14//1 15//1 16//1
f  1//2 2//3 116//3 113//2
f  99//4 3//5 118//5 115//4
f  101//6 4//7 120//7 117//6
f  103//8 5//9 122//9 119//8
f  121//10 105//11 6//12 124//13
f  123//14 107//15 7//16 126//17
f  125//18 109//19 8//20 128//21
f  127//22 111//23 98//24 114//25
f  112//26 17//27 18//28 19//29 136//30 21//27 22//28 23//29 144//30\
25//31 26//32 27//33 152//34 29//31 30//32 31//35 160//36 33//37\
34//38 35//39 168//40 37//41 38//42 39//43 176//44 41//45 42//46\
43//33 184//34 45//31 46//32 47//33 192//34 49//27 50//47 51//29\
200//30 53//27 54//28 55//29 56//48 53//1 200//1 49//1 192//1 45//1\
184//1 41//1 176//1 37//1 168//1 33//1 160//1 29//1 152//1 25//1\
144//1 21//1 136//1 17//1 112//1 110//26 108//26 106//26 104//26\
102//26 100//26 97//26
f  60//26 59//26 58//26 57//26
f  64//26 63//26 62//26 61//26
f  68//26 67//26 66//26 65//26
f  72//26 71//26 70//26 69//26
f  76//26 75//26 74//26 73//26
f  80//26 79//26 78//26 77//26
f  84//26 83//26 82//26 81//26
f  88//26 87//26 86//26 85//26
f  92//26 91//26 90//26 89//26
f  96//26 95//26 94//26 93//26
f  130//49 20//49 216//49 209//49
f  132//50 129//50 210//50 211//50
f  213//51 134//51 131//51 212//51
f  215//52 135//52 133//52 214//52
f  138//49 24//49 224//49 217//49
f  140//50 137//50 218//50 219//50
f  221//51 142//51 139//51 220//51
f  223//52 143//52 141//52 222//52
f  146//49 28//49 232//49 225//49
f  148//50 145//50 226//50 227//50
f  229//51 150//51 147//51 228//51
f  231//52 151//52 149//52 230//52
f  154//49 32//49 240//49 233//49
f  156//50 153//50 234//50 235//50
f  237//51 158//51 155//51 236//51
f  239//52 159//52 157//52 238//52
f  162//49 36//49 248//49 241//49
f  164//50 161//50 242//50 243//50
f  245//51 166//51 163//51 244//51
f  247//52 167//52 165//52 246//52
f  170//49 40//49 256//49 249//49
f  172//50 169//50 250//50 251//50
f  253//51 174//51 171//51 252//51
f  255//52 175//52 173//52 254//52
f  178//49 44//49 264//49 257//49
f  180//50 177//50 258//50 259//50
f  261//51 182//51 179//51 260//51
f  263//52 183//52 181//52 262//52
f  186//49 48//49 272//49 265//49
f  188//50 185//50 266//50 267//50
f  269//51 190//51 187//51 268//51
f  271//52 191//52 189//52 270//52
f  194//49 52//49 280//49 273//49
f  196//50 193//50 274//50 275//50
f  277//51 198//51 195//51 276//51
f  279//52 199//52 197//52 278//52
f  202//49 207//49 288//49 281//49
f  204//50 201//50 282//50 283//50
f  285//51 206//51 203//51 284//51
f  287//52 208//52 205//52 286//52
f  1//2 113//2 114//25 98//24
f  97//53 100//54 2//55 1//56
f  98//57 111//58 112//59 97//53
f  99//4 115//4 116//3 2//3
f  100//54 102//60 3//61 99//62
f  101//6 117//6 118//5 3//5
f  102//60 104//63 4//64 101//65
f  103//8 119//8 120//7 4//7
f  104//63 106//66 5//67 103//68
f  105//11 121//10 122//9 5//9
f  106//66 108//69 6//70 105//71
f  107//15 123//14 124//13 6//12
f  108//69 110//72 7//73 107//74
f  109//19 125//18 126//17 7//16
f  110//72 112//59 8//75 109//76
f  111//23 127//22 128//21 8//20
f  9//77 16//78 127//79 114//80
f  113//81 116//82 10//83 9//77
f  115//84 118//85 11//86 10//83
f  117//87 120//88 12//89 11//86
f  119//90 122//91 13//92 12//89
f  121//93 124//94 14//95 13//92
f  123//96 126//97 15//98 14//95
f  125//99 128//100 16//78 15//98
f  17//101 136//101 20//101 130//101
f  129//102 132//102 18//102 17//102
f  130//103 209//103 210//103 129//103
f  131//104 134//104 19//104 18//104
f  132//105 211//105 212//105 131//105
f  133//106 135//106 136//106 19//106
f  134//107 213//107 214//107 133//107
f  135//108 215//108 216//108 20//108
f  21//101 144//101 24//101 138//101
f  137//102 140//102 22//102 21//102
f  138//103 217//103 218//103 137//103
f  139//104 142//104 23//104 22//104
f  140//105 219//105 220//105 139//105
f  141//106 143//106 144//106 23//106
f  142//107 221//107 222//107 141//107
f  143//108 223//108 224//108 24//108
f  25//101 152//101 28//101 146//101
f  145//109 148//109 26//109 25//109
f  146//110 225//110 226//110 145//110
f  147//104 150//104 27//104 26//104
f  148//111 227//111 228//111 147//111
f  149//112 151//112 152//112 27//112
f  150//113 229//113 230//113 149//113
f  151//114 231//114 232//114 28//114
f  29//101 160//101 32//101 154//101
f  153//109 156//109 30//109 29//109
f  154//110 233//110 234//110 153//110
f  155//104 158//104 31//104 30//104
f  156//111 235//111 236//111 155//111
f  157//115 159//115 160//115 31//115
f  158//116 237//116 238//116 157//116
f  159//117 239//117 240//117 32//117
f  33//101 168//101 36//101 162//101
f  161//118 164//118 34//118 33//118
f  162//119 241//119 242//119 161//119
f  163//104 166//104 35//104 34//104
f  164//120 243//120 244//120 163//120
f  165//121 167//121 168//121 35//121
f  166//122 245//122 246//122 165//122
f  167//123 247//123 248//123 36//123
f  37//101 176//101 40//101 170//101
f  169//124 172//124 38//124 37//124
f  170//125 249//125 250//125 169//125
f  171//104 174//104 39//104 38//104
f  172//126 251//126 252//126 171//126
f  173//115 175//115 176//115 39//115
f  174//127 253//127 254//127 173//127
f  175//128 255//128 256//128 40//128
f  41//101 184//101 44//101 178//101
f  177//118 180//118 42//118 41//118
f  178//129 257//129 258//129 177//129
f  179//104 182//104 43//104 42//104
f  180//130 259//130 260//130 179//130
f  181//112 183//112 184//112 43//112
f  182//113 261//113 262//113 181//113
f  183//114 263//114 264//114 44//114
f  45//101 192//101 48//101 186//101
f  185//109 188//109 46//109 45//109
f  186//110 265//110 266//110 185//110
f  187//104 190//104 47//104 46//104
f  188//111 267//111 268//111 187//111
f  189//112 191//112 192//112 47//112
f  190//113 269//113 270//113 189//113
f  191//114 271//114 272//114 48//114
f  49//101 200//101 52//101 194//101
f  193//102 196//102 50//102 49//102
f  194//103 273//103 274//103 193//103
f  195//104 198//104 51//104 50//104
f  196//105 275//105 276//105 195//105
f  197//106 199//106 200//106 51//106
f  198//107 277//107 278//107 197//107
f  199//108 279//108 280//108 52//108
f  53//101 56//101 207//101 202//101
f  201//102 204//102 54//102 53//102
f  202//103 281//103 282//103 201//103
f  203//104 206//104 55//104 54//104
f  204//105 283//105 284//105 203//105
f  205//106 208//106 56//106 55//106
f  206//107 285//107 286//107 205//107
f  208//108 287//108 288//108 207//108
f  57//102 58//102 211//102 210//102
f  209//101 216//101 60//101 57//101
f  58//104 59//104 213//104 212//104
f  59//106 60//106 215//106 214//106
f  61//102 62//102 219//102 218//102
f  217//101 224//101 64//101 61//101
f  62//104 63//104 221//104 220//104
f  63//106 64//106 223//106 222//106
f  65//109 66//109 227//109 226//109
f  225//101 232//101 68//101 65//101
f  66//104 67//104 229//104 228//104
f  67//112 68//112 231//112 230//112
f  69//109 70//109 235//109 234//109
f  233//101 240//101 72//101 69//101
f  70//104 71//104 237//104 236//104
f  71//115 72//115 239//115 238//115
f  73//131 74//131 243//131 242//131
f  241//101 248//101 76//101 73//101
f  74//104 75//104 245//104 244//104
f  75//132 76//132 247//132 246//132
f  77//133 78//133 251//133 250//133
f  249//101 256//101 80//101 77//101
f  78//104 79//104 253//104 252//104
f  79//134 80//134 255//134 254//134
f  81//118 82//118 259//118 258//118
f  257//101 264//101 84//101 81//101
f  82//104 83//104 261//104 260//104
f  83//112 84//112 263//112 262//112
f  85//109 86//109 267//109 266//109
f  265//101 272//101 88//101 85//101
f  86//104 87//104 269//104 268//104
f  87//112 88//112 271//112 270//112
f  89//102 90//102 275//102 274//102
f  273//101 280//101 92//101 89//101
f  90//104 91//104 277//104 276//104
f  91//106 92//106 279//106 278//106
f  93//102 94//102 283//102 282//102
f  281//101 288//101 96//101 93//101
f  94//104 95//104 285//104 284//104
f  95//106 96//106 287//106 286//106
f  98//57 97//53 1//56
f  100//54 99//62 2//55
f  102//60 101//65 3//61
f  104//63 103//68 4//64
f  106//66 105//71 5//67
f  108//69 107//74 6//70
f  110//72 109//76 7//73
f  112//59 111//58 8//75
f  114//80 113//81 9//77
f  116//82 115//84 10//83
f  118//85 117//87 11//86
f  120//88 119//90 12//89
f  122//91 121//93 13//92
f  124//94 123//96 14//95
f  126//97 125//99 15//98
f  128//100 127//79 16//78
f  130//135 129//135 17//27
f  132//136 131//136 18//28
f  134//137 133//137 19//29
f  136//30 135//138 20//138
f  138//135 137//135 21//27
f  140//136 139//136 22//28
f  142//137 141//137 23//29
f  144//30 143//138 24//138
f  146//139 145//139 25//31
f  148//140 147//140 26//32
f  150//141 149//141 27//33
f  152//34 151//142 28//142
f  154//139 153//139 29//31
f  156//140 155//140 30//32
f  158//143 157//143 31//35
f  160//36 159//144 32//144
f  162//145 161//145 33//37
f  164//146 163//146 34//38
f  166//147 165//147 35//39
f  168//40 167//148 36//148
f  170//149 169//149 37//41
f  172//150 171//150 38//42
f  174//151 173//151 39//43
f  176//44 175//152 40//152
f  178//153 177//153 41//45
f  180//154 179//154 42//46
f  182//141 181//141 43//33
f  184//34 183//142 44//142
f  186//139 185//139 45//31
f  188//140 187//140 46//32
f  190//141 189//141 47//33
f  192//34 191//142 48//142
f  194//135 193//135 49//27
f  196//136 195//136 50//47
f  198//137 197//137 51//29
f  200//30 199//138 52//138
f  202//135 201//135 53//27
f  204//136 203//136 54//28
f  206//137 205//137 55//29
f  208//138 207//138 56//48
f  210//155 209//155 57//155
f  212//156 211//156 58//156
f  214//157 213//157 59//157
f  216//158 215//158 60//158
f  218//155 217//155 61//155
f  220//156 219//156 62//156
f  222//157 221//157 63//157
f  224//158 223//158 64//158
f  226//159 225//159 65//159
f  228//160 227//160 66//160
f  230//161 229//161 67//161
f  232//162 231//162 68//162
f  234//159 233//159 69//159
f  236//160 235//160 70//160
f  238//163 237//163 71//163
f  240//164 239//164 72//164
f  242//165 241//165 73//165
f  244//166 243//166 74//166
f  246//167 245//167 75//167
f  248//168 247//168 76//168
f  250//169 249//169 77//169
f  252//170 251//170 78//170
f  254//171 253//171 79//171
f  256//172 255//172 80//172
f  258//173 257//173 81//173
f  260//174 259//174 82//174
f  262//161 261//161 83//161
f  264//162 263//162 84//162
f  266//159 265//159 85//159
f  268//160 267//160 86//160
f  270//161 269//161 87//161
f  272//162 271//162 88//162
f  274//155 273//155 89//155
f  276//156 275//156 90//156
f  278//157 277//157 91//157
f  280//158 279//158 92//158
f  282//155 281//155 93//155
f  284//156 283//156 94//156
f  286//157 285//157 95//157
f  288//158 287//158 96//158
