# 
# Wavefront OBJ file
# Converted by the DEEP Exploration 3.5.7.1088
# Right Hemisphere, LTD
# http://www.righthemisphere.com/
# 
# object Object #0
g Object__0
v -0.5 -0.4 0
v 0.5 -0.4 0
v 0.5 0.4 0
v -0.5 0.4 0
v -0.5 -0.4 0.04
v 0.5 -0.4 0.04
v 0.5 0.4 0.04
v -0.5 0.4 0.04
v -0.4 -0.3 0.04
v -0.4 0.3 0.04
v 0.4 0.3 0.04
v 0.4 -0.3 0.04
v -0.4 0.3 0.23
v 0.4 0.3 0.23
v -0.4 -0.3 0.35
v -0.4 0.14 0.35
v 0.4 0.14 0.35
v 0.4 -0.3 0.35
v 0.38 -0.3 0.06
v -0.38 -0.3 0.06
v -0.38 -0.3 0.33
v 0.38 -0.3 0.33
v 0.38 -0.17 0.06
v -0.38 -0.17 0.06
v -0.38 -0.17 0.33
v 0.38 -0.17 0.33
v 0.36 -0.17 0.08
v -0.36 -0.17 0.08
v -0.36 -0.17 0.31
v 0.36 -0.17 0.31
v 0 -0.4 0.04
v 0 0.4 0.04
v 0 0.3 0.04
v 0 -0.3 0.04
v 0 -0.17 0.08
v 0 -0.17 0.31
v 0 -0.4 0
v 0 0.4 0
v 0 -0.3 0.35
v 0 0.14 0.35
v 0 0.3 0.23
v 0 -0.3 0.06
v 0 -0.3 0.33
v 0 -0.17 0.06
v 0 -0.17 0.33
v -0.34 -0.17 0.29
v -0.02 -0.17 0.29
v -0.02 -0.17 0.1
v -0.34 -0.17 0.1
v 0.34 -0.17 0.1
v 0.02 -0.17 0.1
v 0.02 -0.17 0.29
v 0.34 -0.17 0.29
v -0.34 -0.15 0.29
v -0.02 -0.15 0.29
v -0.02 -0.15 0.1
v -0.34 -0.15 0.1
v -0.32 -0.15 0.27
v -0.04 -0.15 0.27
v -0.04 -0.15 0.12
v -0.32 -0.15 0.12
v -0.32 -0.13 0.27
v -0.04 -0.13 0.27
v -0.04 -0.13 0.12
v -0.32 -0.13 0.12
v 0.32 -0.2 0.12
v 0.04 -0.2 0.12
v 0.04 -0.2 0.27
v 0.32 -0.2 0.27
v 0.32 -0.26 0.12
v 0.04 -0.26 0.12
v 0.04 -0.26 0.27
v 0.32 -0.26 0.27
v 0.29 -0.26 0.15
v 0.07 -0.26 0.15
v 0.07 -0.26 0.24
v 0.29 -0.26 0.24
v 0.29 -0.23 0.15
v 0.07 -0.23 0.15
v 0.07 -0.23 0.24
v 0.29 -0.23 0.24
# 81 verticies
vn -1 0 0
vn 1 0 0
vn 0 -1 0
vn 0 0 1
vn 0 0 -1
vn 0 1 0
vn 0 0.6 0.8
vn 0.83205 -0.5547 0
vn 0 -0.5547 -0.83205
vn -0.83205 -0.5547 0
vn 0 -0.5547 0.83205
# 11 normals
f  15//1 16//1 13//1 10//1 9//1
f  17//2 18//2 12//2 11//2 14//2
f  3//2 7//2 6//2 2//2
f  5//1 8//1 4//1 1//1
f  18//3 22//3 19//3 12//3
f  20//3 21//3 15//3 9//3
f  22//1 26//1 23//1 19//1
f  24//2 25//2 21//2 20//2
f  26//3 30//3 27//3 23//3
f  28//3 29//3 25//3 24//3
f  31//4 34//4 9//4 10//4 33//4 32//4 8//4 5//4
f  32//4 33//4 11//4 12//4 34//4 31//4 6//4 7//4
f  65//3 64//3 63//3 62//3
f  81//3 80//3 79//3 78//3
f  2//5 37//5 38//5 3//5
f  4//5 38//5 37//5 1//5
f  31//3 37//3 2//3 6//3
f  1//3 37//3 31//3 5//3
f  3//6 38//6 32//6 7//6
f  8//6 32//6 38//6 4//6
f  40//4 39//4 18//4 17//4
f  15//4 39//4 40//4 16//4
f  11//6 33//6 41//6 14//6
f  13//6 41//6 33//6 10//6
f  14//7 41//7 40//7 17//7
f  16//7 40//7 41//7 13//7
f  42//3 20//3 9//3 34//3
f  19//3 42//3 34//3 12//3
f  21//3 43//3 39//3 15//3
f  43//3 22//3 18//3 39//3
f  20//4 42//4 44//4 24//4
f  23//4 44//4 42//4 19//4
f  22//5 43//5 45//5 26//5
f  25//5 45//5 43//5 21//5
f  35//3 28//3 24//3 44//3
f  27//3 35//3 44//3 23//3
f  29//3 36//3 45//3 25//3
f  36//3 30//3 26//3 45//3
f  49//3 46//3 29//3 28//3
f  36//3 29//3 46//3 47//3
f  36//3 47//3 48//3 35//3
f  48//3 49//3 28//3 35//3
f  30//3 53//3 50//3 27//3
f  27//3 50//3 51//3 35//3
f  51//3 52//3 36//3 35//3
f  53//3 30//3 36//3 52//3
f  57//2 54//2 46//2 49//2
f  46//5 54//5 55//5 47//5
f  47//1 55//1 56//1 48//1
f  56//4 57//4 49//4 48//4
f  61//3 58//3 54//3 57//3
f  55//3 54//3 58//3 59//3
f  55//3 59//3 60//3 56//3
f  60//3 61//3 57//3 56//3
f  65//2 62//2 58//2 61//2
f  58//5 62//5 63//5 59//5
f  59//1 63//1 64//1 60//1
f  64//4 65//4 61//4 60//4
f  53//8 69//8 66//8 50//8
f  50//9 66//9 67//9 51//9
f  67//10 68//10 52//10 51//10
f  69//11 53//11 52//11 68//11
f  66//2 69//2 73//2 70//2
f  67//5 66//5 70//5 71//5
f  72//1 68//1 67//1 71//1
f  73//4 69//4 68//4 72//4
f  73//3 77//3 74//3 70//3
f  70//3 74//3 75//3 71//3
f  75//3 76//3 72//3 71//3
f  77//3 73//3 72//3 76//3
f  77//1 81//1 78//1 74//1
f  74//4 78//4 79//4 75//4
f  79//2 80//2 76//2 75//2
f  80//5 81//5 77//5 76//5
