# 
# Wavefront OBJ file
# Converted by the DEEP Exploration 3.5.7.1088
# Right Hemisphere, LTD
# http://www.righthemisphere.com/
# 
# object Object #0
g Object__0
v -0.25 -0.23 0
v 0.25 -0.23 0
v 0.25 0.23 0
v -0.25 0.23 0
v -0.25 -0.23 0.04
v 0.25 -0.23 0.04
v 0.25 0.23 0.04
v -0.25 0.23 0.04
v -0.21 -0.19 0.105
v -0.21 0.19 0.105
v 0.21 0.19 0.105
v 0.21 -0.19 0.105
v 0.14 0.1 0.07
v 0.14 0.08 0.07
v 0.24 0.08 0.07
v 0.24 0.1 0.07
v 0.14 0.1 0.12
v 0.14 0.08 0.12
v 0.24 0.08 0.12
v 0.24 0.1 0.12
v -0.035 0.12 0.07
v -0.055 0.12 0.07
v -0.055 0.22 0.07
v -0.035 0.22 0.07
v -0.035 0.12 0.12
v -0.055 0.12 0.12
v -0.055 0.22 0.12
v -0.035 0.22 0.12
v -0.08 0.12 0.07
v -0.1 0.12 0.07
v -0.1 0.22 0.07
v -0.08 0.22 0.07
v -0.08 0.12 0.12
v -0.1 0.12 0.12
v -0.1 0.22 0.12
v -0.08 0.22 0.12
v -0.125 0.12 0.07
v -0.145 0.12 0.07
v -0.145 0.22 0.07
v -0.125 0.22 0.07
v -0.125 0.12 0.12
v -0.145 0.12 0.12
v -0.145 0.22 0.12
v -0.125 0.22 0.12
v -0.17 0.12 0.07
v -0.19 0.12 0.07
v -0.19 0.22 0.07
v -0.17 0.22 0.07
v -0.17 0.12 0.12
v -0.19 0.12 0.12
v -0.19 0.22 0.12
v -0.17 0.22 0.12
v -0.01 -0.12 0.07
v 0.01 -0.12 0.07
v 0.01 -0.22 0.07
v -0.01 -0.22 0.07
v -0.01 -0.12 0.12
v 0.01 -0.12 0.12
v 0.01 -0.22 0.12
v -0.01 -0.22 0.12
v 0.035 -0.12 0.07
v 0.055 -0.12 0.07
v 0.055 -0.22 0.07
v 0.035 -0.22 0.07
v 0.035 -0.12 0.12
v 0.055 -0.12 0.12
v 0.055 -0.22 0.12
v 0.035 -0.22 0.12
v 0.08 -0.12 0.07
v 0.1 -0.12 0.07
v 0.1 -0.22 0.07
v 0.08 -0.22 0.07
v 0.08 -0.12 0.12
v 0.1 -0.12 0.12
v 0.1 -0.22 0.12
v 0.08 -0.22 0.12
v 0.125 -0.12 0.07
v 0.145 -0.12 0.07
v 0.145 -0.22 0.07
v 0.125 -0.22 0.07
v 0.125 -0.12 0.12
v 0.145 -0.12 0.12
v 0.145 -0.22 0.12
v 0.125 -0.22 0.12
v 0.17 -0.12 0.07
v 0.19 -0.12 0.07
v 0.19 -0.22 0.07
v 0.17 -0.22 0.07
v 0.17 -0.12 0.12
v 0.19 -0.12 0.12
v 0.19 -0.22 0.12
v 0.17 -0.22 0.12
v -0.035 -0.12 0.07
v -0.055 -0.12 0.07
v -0.055 -0.22 0.07
v -0.035 -0.22 0.07
v -0.035 -0.12 0.12
v -0.055 -0.12 0.12
v -0.055 -0.22 0.12
v -0.035 -0.22 0.12
v -0.08 -0.12 0.07
v -0.1 -0.12 0.07
v -0.1 -0.22 0.07
v -0.08 -0.22 0.07
v -0.08 -0.12 0.12
v -0.1 -0.12 0.12
v -0.1 -0.22 0.12
v -0.08 -0.22 0.12
v -0.125 -0.12 0.07
v -0.145 -0.12 0.07
v -0.145 -0.22 0.07
v -0.125 -0.22 0.07
v -0.125 -0.12 0.12
v -0.145 -0.12 0.12
v -0.145 -0.22 0.12
v -0.125 -0.22 0.12
v -0.17 -0.12 0.07
v -0.19 -0.12 0.07
v -0.19 -0.22 0.07
v -0.17 -0.22 0.07
v -0.17 -0.12 0.12
v -0.19 -0.12 0.12
v -0.19 -0.22 0.12
v -0.17 -0.22 0.12
v 0.14 0.055 0.07
v 0.14 0.035 0.07
v 0.24 0.035 0.07
v 0.24 0.055 0.07
v 0.14 0.055 0.12
v 0.14 0.035 0.12
v 0.24 0.035 0.12
v 0.24 0.055 0.12
v 0.14 0.00999999 0.07
v 0.14 -0.01 0.07
v 0.24 -0.01 0.07
v 0.24 0.00999999 0.07
v 0.14 0.00999999 0.12
v 0.14 -0.01 0.12
v 0.24 -0.01 0.12
v 0.24 0.00999999 0.12
v 0.14 -0.035 0.07
v 0.14 -0.055 0.07
v 0.24 -0.055 0.07
v 0.24 -0.035 0.07
v 0.14 -0.035 0.12
v 0.14 -0.055 0.12
v 0.24 -0.055 0.12
v 0.24 -0.035 0.12
v 0.14 -0.08 0.07
v 0.14 -0.1 0.07
v 0.24 -0.1 0.07
v 0.24 -0.08 0.07
v 0.14 -0.08 0.12
v 0.14 -0.1 0.12
v 0.24 -0.1 0.12
v 0.24 -0.08 0.12
v -0.01 0.12 0.07
v 0.01 0.12 0.07
v 0.01 0.22 0.07
v -0.01 0.22 0.07
v -0.01 0.12 0.12
v 0.01 0.12 0.12
v 0.01 0.22 0.12
v -0.01 0.22 0.12
v 0.035 0.12 0.07
v 0.055 0.12 0.07
v 0.055 0.22 0.07
v 0.035 0.22 0.07
v 0.035 0.12 0.12
v 0.055 0.12 0.12
v 0.055 0.22 0.12
v 0.035 0.22 0.12
v 0.08 0.12 0.07
v 0.1 0.12 0.07
v 0.1 0.22 0.07
v 0.08 0.22 0.07
v 0.08 0.12 0.12
v 0.1 0.12 0.12
v 0.1 0.22 0.12
v 0.08 0.22 0.12
v 0.125 0.12 0.07
v 0.145 0.12 0.07
v 0.145 0.22 0.07
v 0.125 0.22 0.07
v 0.125 0.12 0.12
v 0.145 0.12 0.12
v 0.145 0.22 0.12
v 0.125 0.22 0.12
v 0.17 0.12 0.07
v 0.19 0.12 0.07
v 0.19 0.22 0.07
v 0.17 0.22 0.07
v 0.17 0.12 0.12
v 0.19 0.12 0.12
v 0.19 0.22 0.12
v 0.17 0.22 0.12
v -0.14 0.1 0.07
v -0.14 0.08 0.07
v -0.24 0.08 0.07
v -0.24 0.1 0.07
v -0.14 0.1 0.12
v -0.14 0.08 0.12
v -0.24 0.08 0.12
v -0.24 0.1 0.12
v -0.14 0.055 0.07
v -0.14 0.035 0.07
v -0.24 0.035 0.07
v -0.24 0.055 0.07
v -0.14 0.055 0.12
v -0.14 0.035 0.12
v -0.24 0.035 0.12
v -0.24 0.055 0.12
v -0.14 0.00999999 0.07
v -0.14 -0.01 0.07
v -0.24 -0.01 0.07
v -0.24 0.00999999 0.07
v -0.14 0.00999999 0.12
v -0.14 -0.01 0.12
v -0.24 -0.01 0.12
v -0.24 0.00999999 0.12
v -0.14 -0.035 0.07
v -0.14 -0.055 0.07
v -0.24 -0.055 0.07
v -0.24 -0.035 0.07
v -0.14 -0.035 0.12
v -0.14 -0.055 0.12
v -0.24 -0.055 0.12
v -0.24 -0.035 0.12
v -0.14 -0.08 0.07
v -0.14 -0.1 0.07
v -0.24 -0.1 0.07
v -0.24 -0.08 0.07
v -0.14 -0.08 0.12
v -0.14 -0.1 0.12
v -0.24 -0.1 0.12
v -0.24 -0.08 0.12
# 236 verticies
vn 0 0 -1
vn 0 -1 0
vn 1 0 0
vn 0 1 0
vn -1 0 0
vn 0 0 1
vn 0 -0.851658 0.524098
vn -0.851658 0 0.524098
vn 0 0.851658 0.524098
vn 0.851658 0 0.524098
# 10 normals
f  4//1 3//1 2//1 1//1
f  2//2 6//2 5//2 1//2
f  3//3 7//3 6//3 2//3
f  8//4 7//4 3//4 4//4
f  5//5 8//5 4//5 1//5
f  12//6 11//6 10//6 9//6
f  12//7 9//7 5//7 6//7
f  9//8 10//8 8//8 5//8
f  10//9 11//9 7//9 8//9
f  7//10 11//10 12//10 6//10
f  16//1 15//1 14//1 13//1
f  14//5 18//5 17//5 13//5
f  15//2 19//2 18//2 14//2
f  20//3 19//3 15//3 16//3
f  17//4 20//4 16//4 13//4
f  18//6 19//6 20//6 17//6
f  22//1 23//1 24//1 21//1
f  25//2 26//2 22//2 21//2
f  26//5 27//5 23//5 22//5
f  23//4 27//4 28//4 24//4
f  24//3 28//3 25//3 21//3
f  28//6 27//6 26//6 25//6
f  30//1 31//1 32//1 29//1
f  33//2 34//2 30//2 29//2
f  34//5 35//5 31//5 30//5
f  31//4 35//4 36//4 32//4
f  32//3 36//3 33//3 29//3
f  36//6 35//6 34//6 33//6
f  38//1 39//1 40//1 37//1
f  41//2 42//2 38//2 37//2
f  42//5 43//5 39//5 38//5
f  39//4 43//4 44//4 40//4
f  40//3 44//3 41//3 37//3
f  44//6 43//6 42//6 41//6
f  46//1 47//1 48//1 45//1
f  49//2 50//2 46//2 45//2
f  50//5 51//5 47//5 46//5
f  47//4 51//4 52//4 48//4
f  48//3 52//3 49//3 45//3
f  52//6 51//6 50//6 49//6
f  54//1 55//1 56//1 53//1
f  57//4 58//4 54//4 53//4
f  58//3 59//3 55//3 54//3
f  55//2 59//2 60//2 56//2
f  56//5 60//5 57//5 53//5
f  60//6 59//6 58//6 57//6
f  62//1 63//1 64//1 61//1
f  65//4 66//4 62//4 61//4
f  66//3 67//3 63//3 62//3
f  63//2 67//2 68//2 64//2
f  64//5 68//5 65//5 61//5
f  68//6 67//6 66//6 65//6
f  70//1 71//1 72//1 69//1
f  73//4 74//4 70//4 69//4
f  74//3 75//3 71//3 70//3
f  71//2 75//2 76//2 72//2
f  72//5 76//5 73//5 69//5
f  76//6 75//6 74//6 73//6
f  78//1 79//1 80//1 77//1
f  81//4 82//4 78//4 77//4
f  82//3 83//3 79//3 78//3
f  79//2 83//2 84//2 80//2
f  80//5 84//5 81//5 77//5
f  84//6 83//6 82//6 81//6
f  86//1 87//1 88//1 85//1
f  89//4 90//4 86//4 85//4
f  90//3 91//3 87//3 86//3
f  87//2 91//2 92//2 88//2
f  88//5 92//5 89//5 85//5
f  92//6 91//6 90//6 89//6
f  96//1 95//1 94//1 93//1
f  94//4 98//4 97//4 93//4
f  95//5 99//5 98//5 94//5
f  100//2 99//2 95//2 96//2
f  97//3 100//3 96//3 93//3
f  98//6 99//6 100//6 97//6
f  104//1 103//1 102//1 101//1
f  102//4 106//4 105//4 101//4
f  103//5 107//5 106//5 102//5
f  108//2 107//2 103//2 104//2
f  105//3 108//3 104//3 101//3
f  106//6 107//6 108//6 105//6
f  112//1 111//1 110//1 109//1
f  110//4 114//4 113//4 109//4
f  111//5 115//5 114//5 110//5
f  116//2 115//2 111//2 112//2
f  113//3 116//3 112//3 109//3
f  114//6 115//6 116//6 113//6
f  120//1 119//1 118//1 117//1
f  118//4 122//4 121//4 117//4
f  119//5 123//5 122//5 118//5
f  124//2 123//2 119//2 120//2
f  121//3 124//3 120//3 117//3
f  122//6 123//6 124//6 121//6
f  128//1 127//1 126//1 125//1
f  126//5 130//5 129//5 125//5
f  127//2 131//2 130//2 126//2
f  132//3 131//3 127//3 128//3
f  129//4 132//4 128//4 125//4
f  130//6 131//6 132//6 129//6
f  136//1 135//1 134//1 133//1
f  134//5 138//5 137//5 133//5
f  135//2 139//2 138//2 134//2
f  140//3 139//3 135//3 136//3
f  137//4 140//4 136//4 133//4
f  138//6 139//6 140//6 137//6
f  144//1 143//1 142//1 141//1
f  142//5 146//5 145//5 141//5
f  143//2 147//2 146//2 142//2
f  148//3 147//3 143//3 144//3
f  145//4 148//4 144//4 141//4
f  146//6 147//6 148//6 145//6
f  152//1 151//1 150//1 149//1
f  150//5 154//5 153//5 149//5
f  151//2 155//2 154//2 150//2
f  156//3 155//3 151//3 152//3
f  153//4 156//4 152//4 149//4
f  154//6 155//6 156//6 153//6
f  160//1 159//1 158//1 157//1
f  158//2 162//2 161//2 157//2
f  159//3 163//3 162//3 158//3
f  164//4 163//4 159//4 160//4
f  161//5 164//5 160//5 157//5
f  162//6 163//6 164//6 161//6
f  168//1 167//1 166//1 165//1
f  166//2 170//2 169//2 165//2
f  167//3 171//3 170//3 166//3
f  172//4 171//4 167//4 168//4
f  169//5 172//5 168//5 165//5
f  170//6 171//6 172//6 169//6
f  176//1 175//1 174//1 173//1
f  174//2 178//2 177//2 173//2
f  175//3 179//3 178//3 174//3
f  180//4 179//4 175//4 176//4
f  177//5 180//5 176//5 173//5
f  178//6 179//6 180//6 177//6
f  184//1 183//1 182//1 181//1
f  182//2 186//2 185//2 181//2
f  183//3 187//3 186//3 182//3
f  188//4 187//4 183//4 184//4
f  185//5 188//5 184//5 181//5
f  186//6 187//6 188//6 185//6
f  192//1 191//1 190//1 189//1
f  190//2 194//2 193//2 189//2
f  191//3 195//3 194//3 190//3
f  196//4 195//4 191//4 192//4
f  193//5 196//5 192//5 189//5
f  194//6 195//6 196//6 193//6
f  198//1 199//1 200//1 197//1
f  201//3 202//3 198//3 197//3
f  202//2 203//2 199//2 198//2
f  199//5 203//5 204//5 200//5
f  200//4 204//4 201//4 197//4
f  204//6 203//6 202//6 201//6
f  206//1 207//1 208//1 205//1
f  209//3 210//3 206//3 205//3
f  210//2 211//2 207//2 206//2
f  207//5 211//5 212//5 208//5
f  208//4 212//4 209//4 205//4
f  212//6 211//6 210//6 209//6
f  214//1 215//1 216//1 213//1
f  217//3 218//3 214//3 213//3
f  218//2 219//2 215//2 214//2
f  215//5 219//5 220//5 216//5
f  216//4 220//4 217//4 213//4
f  220//6 219//6 218//6 217//6
f  222//1 223//1 224//1 221//1
f  225//3 226//3 222//3 221//3
f  226//2 227//2 223//2 222//2
f  223//5 227//5 228//5 224//5
f  224//4 228//4 225//4 221//4
f  228//6 227//6 226//6 225//6
f  230//1 231//1 232//1 229//1
f  233//3 234//3 230//3 229//3
f  234//2 235//2 231//2 230//2
f  231//5 235//5 236//5 232//5
f  232//4 236//4 233//4 229//4
f  236//6 235//6 234//6 233//6
