# 
# Wavefront OBJ file
# Converted by the DEEP Exploration 3.5.7.1088
# Right Hemisphere, LTD
# http://www.righthemisphere.com/
# 
# object Object #0
g Object__0
v 0.41 -0.61 0
v 0.41 0.62 0
v 0.41 0.6 0.15
v 0.41 0.46 0.15
v 0.41 0.44 0.22
v 0.41 0.31 0.22
v 0.41 0.31 0.27
v 0.41 -0.43 0.27
v 0.51 -0.39 0
v 0.51 0.22 0
v 0.51 -0.39 0.223403
v 0.51 0.22 0.223403
v 0.21 0.49 0.13
v 0.34 0.49 0.13
v 0.34 0.58 0.13
v 0.21 0.58 0.13
v 0.21 0.49 0.17
v 0.34 0.49 0.17
v 0.34 0.58 0.17
v 0.21 0.58 0.17
v 0.34 0.38 0.2
v 0.339039 0.389755 0.2
v 0.336194 0.399134 0.2
v 0.331573 0.407779 0.2
v 0.325355 0.415355 0.2
v 0.317778 0.421573 0.2
v 0.309134 0.426194 0.2
v 0.299755 0.429039 0.2
v 0.29 0.43 0.2
v 0.280245 0.429039 0.2
v 0.270866 0.426194 0.2
v 0.262221 0.421573 0.2
v 0.254645 0.415355 0.2
v 0.248427 0.407779 0.2
v 0.243806 0.399134 0.2
v 0.240961 0.389755 0.2
v 0.24 0.38 0.2
v 0.240961 0.370245 0.2
v 0.243806 0.360866 0.2
v 0.248427 0.352221 0.2
v 0.254645 0.344645 0.2
v 0.262221 0.338427 0.2
v 0.270866 0.333806 0.2
v 0.280245 0.330961 0.2
v 0.29 0.33 0.2
v 0.299755 0.330961 0.2
v 0.309134 0.333806 0.2
v 0.317778 0.338427 0.2
v 0.325355 0.344645 0.2
v 0.331573 0.352221 0.2
v 0.336194 0.360866 0.2
v 0.339039 0.370245 0.2
v 0.34 0.38 0.24
v 0.339039 0.389755 0.24
v 0.336194 0.399134 0.24
v 0.331573 0.407779 0.24
v 0.325355 0.415355 0.24
v 0.317778 0.421573 0.24
v 0.309134 0.426194 0.24
v 0.299755 0.429039 0.24
v 0.29 0.43 0.24
v 0.280245 0.429039 0.24
v 0.270866 0.426194 0.24
v 0.262221 0.421573 0.24
v 0.254645 0.415355 0.24
v 0.248427 0.407779 0.24
v 0.243806 0.399134 0.24
v 0.240961 0.389755 0.24
v 0.24 0.38 0.24
v 0.240961 0.370245 0.24
v 0.243806 0.360866 0.24
v 0.248427 0.352221 0.24
v 0.254645 0.344645 0.24
v 0.262221 0.338427 0.24
v 0.270866 0.333806 0.24
v 0.280245 0.330961 0.24
v 0.29 0.33 0.24
v 0.299755 0.330961 0.24
v 0.309134 0.333806 0.24
v 0.317778 0.338427 0.24
v 0.325355 0.344645 0.24
v 0.331573 0.352221 0.24
v 0.336194 0.360866 0.24
v 0.339039 0.370245 0.24
v 0.1 0.335 0.2
v 0.1 0.425 0.2
v 0.1 0.335 0.24
v 0.1 0.425 0.24
v -0.41 -0.61 0
v -0.41 0.62 0
v -0.41 0.6 0.15
v -0.41 0.46 0.15
v -0.41 0.44 0.22
v -0.41 0.31 0.22
v -0.41 0.31 0.27
v -0.41 -0.43 0.27
v -0.51 -0.39 0
v -0.51 0.22 0
v -0.51 -0.39 0.223403
v -0.51 0.22 0.223403
v -0.21 0.49 0.13
v -0.34 0.49 0.13
v -0.34 0.58 0.13
v -0.21 0.58 0.13
v -0.21 0.49 0.17
v -0.34 0.49 0.17
v -0.34 0.58 0.17
v -0.21 0.58 0.17
v -0.34 0.38 0.2
v -0.339039 0.389755 0.2
v -0.336194 0.399134 0.2
v -0.331573 0.407779 0.2
v -0.325355 0.415355 0.2
v -0.317778 0.421573 0.2
v -0.309134 0.426194 0.2
v -0.299755 0.429039 0.2
v -0.29 0.43 0.2
v -0.280245 0.429039 0.2
v -0.270866 0.426194 0.2
v -0.262221 0.421573 0.2
v -0.254645 0.415355 0.2
v -0.248427 0.407779 0.2
v -0.243806 0.399134 0.2
v -0.240961 0.389755 0.2
v -0.24 0.38 0.2
v -0.240961 0.370245 0.2
v -0.243806 0.360866 0.2
v -0.248427 0.352221 0.2
v -0.254645 0.344645 0.2
v -0.262221 0.338427 0.2
v -0.270866 0.333806 0.2
v -0.280245 0.330961 0.2
v -0.29 0.33 0.2
v -0.299755 0.330961 0.2
v -0.309134 0.333806 0.2
v -0.317778 0.338427 0.2
v -0.325355 0.344645 0.2
v -0.331573 0.352221 0.2
v -0.336194 0.360866 0.2
v -0.339039 0.370245 0.2
v -0.34 0.38 0.24
v -0.339039 0.389755 0.24
v -0.336194 0.399134 0.24
v -0.331573 0.407779 0.24
v -0.325355 0.415355 0.24
v -0.317778 0.421573 0.24
v -0.309134 0.426194 0.24
v -0.299755 0.429039 0.24
v -0.29 0.43 0.24
v -0.280245 0.429039 0.24
v -0.270866 0.426194 0.24
v -0.262221 0.421573 0.24
v -0.254645 0.415355 0.24
v -0.248427 0.407779 0.24
v -0.243806 0.399134 0.24
v -0.240961 0.389755 0.24
v -0.24 0.38 0.24
v -0.240961 0.370245 0.24
v -0.243806 0.360866 0.24
v -0.248427 0.352221 0.24
v -0.254645 0.344645 0.24
v -0.262221 0.338427 0.24
v -0.270866 0.333806 0.24
v -0.280245 0.330961 0.24
v -0.29 0.33 0.24
v -0.299755 0.330961 0.24
v -0.309134 0.333806 0.24
v -0.317778 0.338427 0.24
v -0.325355 0.344645 0.24
v -0.331573 0.352221 0.24
v -0.336194 0.360866 0.24
v -0.339039 0.370245 0.24
v -0.1 0.335 0.2
v -0.1 0.425 0.2
v -0.1 0.335 0.24
v -0.1 0.425 0.24
v 0 -0.61 0
v 0 -0.43 0.27
v 0 -0.39 0
v 0 -0.39 0.223403
v 0 0.31 0.22
v 0 0.31 0.27
v 0 0.22 0
v 0 0.22 0.223403
v 0 0.62 0
v 0 0.6 0.15
v 0 0.46 0.15
v 0 0.44 0.22
v 0 0.335 0.2
v 0 0.425 0.2
v 0 0.335 0.24
v 0 0.425 0.24
v -0.34 -0.42 0.23
v -0.34 0.28 0.23
v -0.34 0.28 0.32
v -0.34 -0.42 0.46
v 0.34 -0.42 0.23
v 0.34 0.28 0.23
v 0.34 0.28 0.32
v 0.34 -0.42 0.46
v -0.29 -0.37 0.45
v -0.29 0.23 0.33
v 0.29 0.23 0.33
v 0.29 -0.37 0.45
v -0.29 -0.37 0.4
v -0.29 0.23 0.28
v 0.29 0.23 0.28
v 0.29 -0.37 0.4
v -0.31 0.14 0.288
v 0.31 0.14 0.288
v 0.31 0.2 0.276
v -0.31 0.2 0.276
v -0.31 0.06 0.304
v 0.31 0.06 0.304
v 0.31 0.12 0.292
v -0.31 0.12 0.292
v -0.31 -0.02 0.32
v 0.31 -0.02 0.32
v 0.31 0.04 0.308
v -0.31 0.04 0.308
v -0.31 -0.1 0.336
v 0.31 -0.1 0.336
v 0.31 -0.04 0.324
v -0.31 -0.04 0.324
v -0.31 -0.18 0.352
v 0.31 -0.18 0.352
v 0.31 -0.12 0.34
v -0.31 -0.12 0.34
v -0.31 -0.27 0.37
v 0.31 -0.27 0.37
v 0.31 -0.21 0.358
v -0.31 -0.21 0.358
v -0.31 -0.35 0.386
v 0.31 -0.35 0.386
v 0.31 -0.29 0.374
v -0.31 -0.29 0.374
v -0.31 0.14 0.328
v -0.31 0.2 0.316
v 0.31 0.2 0.316
v 0.31 0.14 0.328
v -0.31 0.06 0.344
v -0.31 0.12 0.332
v 0.31 0.12 0.332
v 0.31 0.06 0.344
v -0.31 -0.02 0.36
v -0.31 0.04 0.348
v 0.31 0.04 0.348
v 0.31 -0.02 0.36
v -0.31 -0.1 0.376
v -0.31 -0.04 0.364
v 0.31 -0.04 0.364
v 0.31 -0.1 0.376
v -0.31 -0.18 0.392
v -0.31 -0.12 0.38
v 0.31 -0.12 0.38
v 0.31 -0.18 0.392
v -0.31 -0.27 0.41
v -0.31 -0.21 0.398
v 0.31 -0.21 0.398
v 0.31 -0.27 0.41
v -0.31 -0.35 0.426
v -0.31 -0.29 0.414
v 0.31 -0.29 0.414
v 0.31 -0.35 0.426
# 264 verticies
vn 1 0 0
vn 0 -0.83205 0.5547
vn 0 0 -1
vn 0 0.991228 0.132164
vn 0 0 1
vn 0 0.961524 0.274721
vn 0 1 0
vn 0 -1 0
vn -1 0 0
vn 0.986659 0.162803 0
vn 0.973856 0.227168 0
vn 0.999461 0.0328129 0
vn 0.999461 -0.0328129 0
vn 0.935939 0.352162 0
vn 0.910825 0.412792 0
vn 0.849252 0.527988 0
vn 0.812792 0.582554 0
vn 0.729928 0.683524 0
vn 0.683524 0.729928 0
vn 0.582554 0.812792 0
vn 0.527989 0.849251 0
vn 0.412793 0.910825 0
vn 0.352163 0.935939 0
vn 0.227168 0.973856 0
vn 0.162803 0.986659 0
vn -1.49733e-007 1 0
vn -0.162803 0.986659 0
vn -0.227168 0.973856 0
vn -0.352162 0.935939 0
vn -0.412792 0.910825 0
vn -0.527989 0.849252 0
vn -0.582555 0.812791 0
vn -0.683525 0.729927 0
vn -0.729929 0.683523 0
vn -0.812792 0.582554 0
vn -0.849251 0.527989 0
vn -0.910825 0.412793 0
vn -0.935939 0.352163 0
vn -0.973856 0.227168 0
vn -0.986659 0.162803 0
vn -0.999461 0.0328129 0
vn -0.999461 -0.0328129 0
vn -0.986659 -0.162803 0
vn -0.973856 -0.227168 0
vn -0.935939 -0.352163 0
vn -0.910825 -0.412793 0
vn -0.849251 -0.527989 0
vn -0.812792 -0.582554 0
vn -0.729928 -0.683524 0
vn -0.683524 -0.729928 0
vn -0.582554 -0.812792 0
vn -0.527988 -0.849252 0
vn -0.412792 -0.910825 0
vn -0.352162 -0.935939 0
vn -0.227168 -0.973856 0
vn -0.162803 -0.986659 0
vn -1.49733e-007 -1 0
vn 0.162803 -0.986659 0
vn 0.227168 -0.973856 0
vn 0.352163 -0.935939 0
vn 0.412793 -0.910825 0
vn 0.527988 -0.849252 0
vn 0.582553 -0.812793 0
vn 0.683523 -0.729929 0
vn 0.729928 -0.683524 0
vn 0.812792 -0.582554 0
vn 0.849252 -0.527988 0
vn 0.910825 -0.412792 0
vn 0.935939 -0.352162 0
vn 0.973856 -0.227168 0
vn 0.986659 -0.162803 0
vn -0.910825 0.412792 0
vn -0.935939 0.352162 0
vn -0.812792 0.582554 0
vn -0.849252 0.527988 0
vn -0.683524 0.729928 0
vn -0.729928 0.683524 0
vn -0.527989 0.849251 0
vn -0.582554 0.812792 0
vn -0.352163 0.935939 0
vn -0.412793 0.910825 0
vn -0.162803 0.986659 0
vn -0.227168 0.973856 0
vn 1.49733e-007 1 0
vn 0.162803 0.986659 0
vn 0.227168 0.973856 0
vn 0.352162 0.935939 0
vn 0.412792 0.910825 0
vn 0.527989 0.849252 0
vn 0.582555 0.812791 0
vn 0.683525 0.729927 0
vn 0.729929 0.683523 0
vn 0.812792 0.582554 0
vn 0.849251 0.527989 0
vn 0.910825 0.412793 0
vn 0.935939 0.352163 0
vn 0.935939 -0.352163 0
vn 0.910825 -0.412793 0
vn 0.849251 -0.527989 0
vn 0.812792 -0.582554 0
vn 0.729928 -0.683524 0
vn 0.683524 -0.729928 0
vn 0.582554 -0.812792 0
vn 0.527988 -0.849252 0
vn 0.412792 -0.910825 0
vn 0.352162 -0.935939 0
vn 0.227168 -0.973856 0
vn 0.162803 -0.986659 0
vn 1.49733e-007 -1 0
vn -0.227168 -0.973856 0
vn -0.162803 -0.986659 0
vn -0.412793 -0.910825 0
vn -0.352163 -0.935939 0
vn -0.582553 -0.812793 0
vn -0.527988 -0.849252 0
vn -0.729928 -0.683524 0
vn -0.683523 -0.729929 0
vn -0.849252 -0.527988 0
vn -0.812792 -0.582554 0
vn -0.935939 -0.352162 0
vn -0.910825 -0.412792 0
vn 0 0.196116 0.980581
vn 6.78405e-009 0.196116 0.980581
vn -9.04539e-009 0.196116 0.980581
vn -7.23631e-008 0.196116 0.980581
vn 1.08545e-007 0.196116 0.980581
vn 6.33177e-008 0.196116 0.980581
vn -9.04539e-009 0.196116 0.980581
vn 6.78405e-009 0.196116 0.980581
vn -9.49766e-008 0.196116 0.980581
vn 0 0.196117 0.980581
vn 0 0.196117 0.980581
vn 0 0.196116 0.980581
vn 0 0.196116 0.980581
vn 0 0.196116 0.980581
# 135 normals
f  6//1 7//1 8//1 1//1 2//1 3//1 4//1 5//1
f  10//1 12//1 11//1 9//1
f  8//2 178//2 177//2 1//2
f  1//3 177//3 185//3 2//3
f  2//4 185//4 186//4 3//4
f  3//5 186//5 187//5 4//5
f  5//5 188//5 181//5 6//5
f  182//5 178//5 8//5 7//5
f  4//6 187//6 188//6 5//6
f  6//7 181//7 182//7 7//7
f  9//3 179//3 183//3 10//3
f  180//8 179//8 9//8 11//8
f  10//7 183//7 184//7 12//7
f  184//5 180//5 11//5 12//5
f  16//3 15//3 14//3 13//3
f  14//8 18//8 17//8 13//8
f  15//1 19//1 18//1 14//1
f  20//7 19//7 15//7 16//7
f  17//9 20//9 16//9 13//9
f  18//5 19//5 20//5 17//5
f  86//1 88//1 87//1 85//1
f  52//3 51//3 50//3 49//3 48//3 47//3 46//3 45//3 44//3 43//3 42//3\
41//3 40//3 39//3 38//3 37//3 36//3 35//3 34//3 33//3 32//3 31//3\
30//3 29//3 28//3 27//3 26//3 25//3 24//3 23//3 22//3 21//3
f  22//10 54//11 53//12 21//13
f  23//14 55//15 54//11 22//10
f  24//16 56//17 55//15 23//14
f  25//18 57//19 56//17 24//16
f  26//20 58//21 57//19 25//18
f  27//22 59//23 58//21 26//20
f  28//24 60//25 59//23 27//22
f  29//26 61//26 60//25 28//24
f  62//27 61//26 29//26 30//28
f  63//29 62//27 30//28 31//30
f  64//31 63//29 31//30 32//32
f  65//33 64//31 32//32 33//34
f  66//35 65//33 33//34 34//36
f  67//37 66//35 34//36 35//38
f  68//39 67//37 35//38 36//40
f  69//41 68//39 36//40 37//42
f  70//43 69//41 37//42 38//44
f  71//45 70//43 38//44 39//46
f  72//47 71//45 39//46 40//48
f  73//49 72//47 40//48 41//50
f  74//51 73//49 41//50 42//52
f  75//53 74//51 42//52 43//54
f  76//55 75//53 43//54 44//56
f  77//57 76//55 44//56 45//57
f  46//58 78//59 77//57 45//57
f  47//60 79//61 78//59 46//58
f  48//62 80//63 79//61 47//60
f  49//64 81//65 80//63 48//62
f  50//66 82//67 81//65 49//64
f  51//68 83//69 82//67 50//66
f  52//70 84//71 83//69 51//68
f  21//13 53//12 84//71 52//70
f  54//5 55//5 56//5 57//5 58//5 59//5 60//5 61//5 62//5 63//5 64//5\
65//5 66//5 67//5 68//5 69//5 70//5 71//5 72//5 73//5 74//5 75//5\
76//5 77//5 78//5 79//5 80//5 81//5 82//5 83//5 84//5 53//5
f  85//3 189//3 190//3 86//3
f  191//8 189//8 85//8 87//8
f  86//7 190//7 192//7 88//7
f  192//5 191//5 87//5 88//5
f  92//9 91//9 90//9 89//9 96//9 95//9 94//9 93//9
f  99//9 100//9 98//9 97//9
f  177//2 178//2 96//2 89//2
f  185//3 177//3 89//3 90//3
f  186//4 185//4 90//4 91//4
f  187//5 186//5 91//5 92//5
f  181//5 188//5 93//5 94//5
f  96//5 178//5 182//5 95//5
f  188//6 187//6 92//6 93//6
f  182//7 181//7 94//7 95//7
f  183//3 179//3 97//3 98//3
f  97//8 179//8 180//8 99//8
f  184//7 183//7 98//7 100//7
f  99//5 180//5 184//5 100//5
f  102//3 103//3 104//3 101//3
f  105//8 106//8 102//8 101//8
f  106//9 107//9 103//9 102//9
f  103//7 107//7 108//7 104//7
f  104//1 108//1 105//1 101//1
f  108//5 107//5 106//5 105//5
f  175//9 176//9 174//9 173//9
f  110//3 111//3 112//3 113//3 114//3 115//3 116//3 117//3 118//3\
119//3 120//3 121//3 122//3 123//3 124//3 125//3 126//3 127//3 128//3\
129//3 130//3 131//3 132//3 133//3 134//3 135//3 136//3 137//3 138//3\
139//3 140//3 109//3
f  141//41 142//39 110//40 109//42
f  142//39 143//72 111//73 110//40
f  143//72 144//74 112//75 111//73
f  144//74 145//76 113//77 112//75
f  145//76 146//78 114//79 113//77
f  146//78 147//80 115//81 114//79
f  147//80 148//82 116//83 115//81
f  148//82 149//84 117//84 116//83
f  117//84 149//84 150//85 118//86
f  118//86 150//85 151//87 119//88
f  119//88 151//87 152//89 120//90
f  120//90 152//89 153//91 121//92
f  121//92 153//91 154//93 122//94
f  122//94 154//93 155//95 123//96
f  123//96 155//95 156//11 124//10
f  124//10 156//11 157//12 125//13
f  125//13 157//12 158//71 126//70
f  126//70 158//71 159//97 127//98
f  127//98 159//97 160//99 128//100
f  128//100 160//99 161//101 129//102
f  129//102 161//101 162//103 130//104
f  130//104 162//103 163//105 131//106
f  131//106 163//105 164//107 132//108
f  132//108 164//107 165//109 133//109
f  165//109 166//110 134//111 133//109
f  166//110 167//112 135//113 134//111
f  167//112 168//114 136//115 135//113
f  168//114 169//116 137//117 136//115
f  169//116 170//118 138//119 137//117
f  170//118 171//120 139//121 138//119
f  171//120 172//43 140//44 139//121
f  172//43 141//41 109//42 140//44
f  172//5 171//5 170//5 169//5 168//5 167//5 166//5 165//5 164//5\
163//5 162//5 161//5 160//5 159//5 158//5 157//5 156//5 155//5 154//5\
153//5 152//5 151//5 150//5 149//5 148//5 147//5 146//5 145//5 144//5\
143//5 142//5 141//5
f  190//3 189//3 173//3 174//3
f  173//8 189//8 191//8 175//8
f  192//7 190//7 174//7 176//7
f  175//5 191//5 192//5 176//5
f  196//9 195//9 194//9 193//9
f  194//3 198//3 197//3 193//3
f  195//7 199//7 198//7 194//7
f  208//122 207//122 206//122 205//122
f  197//8 200//8 196//8 193//8
f  198//1 199//1 200//1 197//1
f  204//123 201//124 196//125 200//126
f  201//124 202//127 195//128 196//125
f  199//129 195//128 202//127 203//130
f  199//129 203//130 204//123 200//126
f  201//7 204//7 208//7 205//7
f  206//1 202//1 201//1 205//1
f  203//8 202//8 206//8 207//8
f  204//9 203//9 207//9 208//9
f  240//131 239//131 238//131 237//131
f  244//132 243//132 242//132 241//132
f  248//133 247//133 246//133 245//133
f  252//134 251//134 250//134 249//134
f  256//133 255//133 254//133 253//133
f  260//135 259//135 258//135 257//135
f  264//134 263//134 262//134 261//134
f  240//8 237//8 209//8 210//8
f  237//9 238//9 212//9 209//9
f  238//7 239//7 211//7 212//7
f  211//1 239//1 240//1 210//1
f  244//8 241//8 213//8 214//8
f  241//9 242//9 216//9 213//9
f  242//7 243//7 215//7 216//7
f  215//1 243//1 244//1 214//1
f  248//8 245//8 217//8 218//8
f  245//9 246//9 220//9 217//9
f  246//7 247//7 219//7 220//7
f  219//1 247//1 248//1 218//1
f  252//8 249//8 221//8 222//8
f  249//9 250//9 224//9 221//9
f  250//7 251//7 223//7 224//7
f  223//1 251//1 252//1 222//1
f  256//8 253//8 225//8 226//8
f  253//9 254//9 228//9 225//9
f  254//7 255//7 227//7 228//7
f  227//1 255//1 256//1 226//1
f  260//8 257//8 229//8 230//8
f  257//9 258//9 232//9 229//9
f  258//7 259//7 231//7 232//7
f  231//1 259//1 260//1 230//1
f  264//8 261//8 233//8 234//8
f  261//9 262//9 236//9 233//9
f  262//7 263//7 235//7 236//7
f  235//1 263//1 264//1 234//1
