# 
# Wavefront OBJ file
# Converted by the DEEP Exploration 3.5.7.1088
# Right Hemisphere, LTD
# http://www.righthemisphere.com/
# 
# object Object #0
g Object__0
v 0.5 0.147 0
v 0.447 0.2 0
v 0.5 0.147 0.38
v 0.447 0.2 0.38
v 0.498107 0.16109 0
v 0.492765 0.173751 0
v 0.484478 0.184478 0
v 0.473751 0.192765 0
v 0.46109 0.198107 0
v 0.498107 0.16109 0.38
v 0.492765 0.173751 0.38
v 0.484478 0.184478 0.38
v 0.473751 0.192765 0.38
v 0.46109 0.198107 0.38
v 0.181 -0.9 0.38
v 0.5 -0.581 0.38
v 0.181 -0.9 0
v 0.5 -0.581 0
v 0.265808 -0.888606 0.38
v 0.342012 -0.856451 0.38
v 0.406573 -0.806573 0.38
v 0.456451 -0.742012 0.38
v 0.488606 -0.665808 0.38
v 0.265808 -0.888606 0
v 0.342012 -0.856451 0
v 0.406573 -0.806573 0
v 0.456451 -0.742012 0
v 0.488606 -0.665808 0
v -0.5 0.147 0
v -0.447 0.2 0
v -0.5 0.147 0.38
v -0.447 0.2 0.38
v -0.498107 0.16109 0
v -0.492765 0.173751 0
v -0.484478 0.184478 0
v -0.473751 0.192765 0
v -0.46109 0.198107 0
v -0.498107 0.16109 0.38
v -0.492765 0.173751 0.38
v -0.484478 0.184478 0.38
v -0.473751 0.192765 0.38
v -0.46109 0.198107 0.38
v -0.181 -0.9 0.38
v -0.5 -0.581 0.38
v -0.181 -0.9 0
v -0.5 -0.581 0
v -0.265808 -0.888606 0.38
v -0.342012 -0.856451 0.38
v -0.406573 -0.806573 0.38
v -0.456451 -0.742012 0.38
v -0.488606 -0.665808 0.38
v -0.265808 -0.888606 0
v -0.342012 -0.856451 0
v -0.406573 -0.806573 0
v -0.456451 -0.742012 0
v -0.488606 -0.665808 0
v 0 0.2 0
v 0 0.2 0.38
v 0 -0.9 0
v 0 -0.9 0.38
v -0.28 0 0.16
v -0.272168 0 0.159487
v -0.264471 0 0.157956
v -0.257039 0 0.155433
v -0.25 0 0.151962
v -0.243474 0 0.147601
v -0.237574 0 0.142426
v -0.232399 0 0.136526
v -0.228038 0 0.13
v -0.224567 0 0.122961
v -0.222044 0 0.115529
v -0.220513 0 0.107832
v -0.22 0 0.1
v -0.220513 0 0.0921684
v -0.222044 0 0.0844709
v -0.224567 0 0.077039
v -0.228038 0 0.07
v -0.232399 0 0.0634743
v -0.237574 0 0.0575736
v -0.243474 0 0.0523988
v -0.25 0 0.0480385
v -0.257039 0 0.0445672
v -0.264471 0 0.0420444
v -0.272168 0 0.0405133
v -0.28 0 0.04
v -0.287832 0 0.0405133
v -0.295529 0 0.0420444
v -0.302961 0 0.0445672
v -0.31 0 0.0480385
v -0.316526 0 0.0523988
v -0.322426 0 0.0575736
v -0.327601 0 0.0634743
v -0.331962 0 0.07
v -0.335433 0 0.077039
v -0.337956 0 0.0844709
v -0.339487 0 0.0921684
v -0.34 0 0.1
v -0.339487 0 0.107832
v -0.337956 0 0.115529
v -0.335433 0 0.122961
v -0.331962 0 0.13
v -0.327601 0 0.136526
v -0.322426 0 0.142426
v -0.316526 0 0.147601
v -0.31 0 0.151962
v -0.302961 0 0.155433
v -0.295529 0 0.157956
v -0.287832 0 0.159487
v -0.28 0.92 0.16
v -0.272168 0.92 0.159487
v -0.264471 0.92 0.157956
v -0.257039 0.92 0.155433
v -0.25 0.92 0.151962
v -0.243474 0.92 0.147601
v -0.237574 0.92 0.142426
v -0.232399 0.92 0.136526
v -0.228038 0.92 0.13
v -0.224567 0.92 0.122961
v -0.222044 0.92 0.115529
v -0.220513 0.92 0.107832
v -0.22 0.92 0.1
v -0.220513 0.92 0.0921684
v -0.222044 0.92 0.0844709
v -0.224567 0.92 0.077039
v -0.228038 0.92 0.07
v -0.232399 0.92 0.0634743
v -0.237574 0.92 0.0575736
v -0.243474 0.92 0.0523988
v -0.25 0.92 0.0480385
v -0.257039 0.92 0.0445672
v -0.264471 0.92 0.0420444
v -0.272168 0.92 0.0405133
v -0.28 0.92 0.04
v -0.287832 0.92 0.0405133
v -0.295529 0.92 0.0420444
v -0.302961 0.92 0.0445672
v -0.31 0.92 0.0480385
v -0.316526 0.92 0.0523988
v -0.322426 0.92 0.0575736
v -0.327601 0.92 0.0634743
v -0.331962 0.92 0.07
v -0.335433 0.92 0.077039
v -0.337956 0.92 0.0844709
v -0.339487 0.92 0.0921684
v -0.34 0.92 0.1
v -0.339487 0.92 0.107832
v -0.337956 0.92 0.115529
v -0.335433 0.92 0.122961
v -0.331962 0.92 0.13
v -0.327601 0.92 0.136526
v -0.322426 0.92 0.142426
v -0.316526 0.92 0.147601
v -0.31 0.92 0.151962
v -0.302961 0.92 0.155433
v -0.295529 0.92 0.157956
v -0.287832 0.92 0.159487
v 0.28 0 0.16
v 0.272168 0 0.159487
v 0.264471 0 0.157956
v 0.257039 0 0.155433
v 0.25 0 0.151962
v 0.243474 0 0.147601
v 0.237574 0 0.142426
v 0.232399 0 0.136526
v 0.228038 0 0.13
v 0.224567 0 0.122961
v 0.222044 0 0.115529
v 0.220513 0 0.107832
v 0.22 0 0.1
v 0.220513 0 0.0921684
v 0.222044 0 0.0844709
v 0.224567 0 0.077039
v 0.228038 0 0.07
v 0.232399 0 0.0634743
v 0.237574 0 0.0575736
v 0.243474 0 0.0523988
v 0.25 0 0.0480385
v 0.257039 0 0.0445672
v 0.264471 0 0.0420444
v 0.272168 0 0.0405133
v 0.28 0 0.04
v 0.287832 0 0.0405133
v 0.295529 0 0.0420444
v 0.302961 0 0.0445672
v 0.31 0 0.0480385
v 0.316526 0 0.0523988
v 0.322426 0 0.0575736
v 0.327601 0 0.0634743
v 0.331962 0 0.07
v 0.335433 0 0.077039
v 0.337956 0 0.0844709
v 0.339487 0 0.0921684
v 0.34 0 0.1
v 0.339487 0 0.107832
v 0.337956 0 0.115529
v 0.335433 0 0.122961
v 0.331962 0 0.13
v 0.327601 0 0.136526
v 0.322426 0 0.142426
v 0.316526 0 0.147601
v 0.31 0 0.151962
v 0.302961 0 0.155433
v 0.295529 0 0.157956
v 0.287832 0 0.159487
v 0.28 0.92 0.16
v 0.272168 0.92 0.159487
v 0.264471 0.92 0.157956
v 0.257039 0.92 0.155433
v 0.25 0.92 0.151962
v 0.243474 0.92 0.147601
v 0.237574 0.92 0.142426
v 0.232399 0.92 0.136526
v 0.228038 0.92 0.13
v 0.224567 0.92 0.122961
v 0.222044 0.92 0.115529
v 0.220513 0.92 0.107832
v 0.22 0.92 0.1
v 0.220513 0.92 0.0921684
v 0.222044 0.92 0.0844709
v 0.224567 0.92 0.077039
v 0.228038 0.92 0.07
v 0.232399 0.92 0.0634743
v 0.237574 0.92 0.0575736
v 0.243474 0.92 0.0523988
v 0.25 0.92 0.0480385
v 0.257039 0.92 0.0445672
v 0.264471 0.92 0.0420444
v 0.272168 0.92 0.0405133
v 0.28 0.92 0.04
v 0.287832 0.92 0.0405133
v 0.295529 0.92 0.0420444
v 0.302961 0.92 0.0445672
v 0.31 0.92 0.0480385
v 0.316526 0.92 0.0523988
v 0.322426 0.92 0.0575736
v 0.327601 0.92 0.0634743
v 0.331962 0.92 0.07
v 0.335433 0.92 0.077039
v 0.337956 0.92 0.0844709
v 0.339487 0.92 0.0921684
v 0.34 0.92 0.1
v 0.339487 0.92 0.107832
v 0.337956 0.92 0.115529
v 0.335433 0.92 0.122961
v 0.331962 0.92 0.13
v 0.327601 0.92 0.136526
v 0.322426 0.92 0.142426
v 0.316526 0.92 0.147601
v 0.31 0.92 0.151962
v 0.302961 0.92 0.155433
v 0.295529 0.92 0.157956
v 0.287832 0.92 0.159487
v 0 -0.72 0
v -0.14542 -0.691074 0
v -0.0983512 -0.707052 0
v -0.0495999 -0.716749 0
v 0.0495999 -0.716749 0
v 0.0983512 -0.707052 0
v 0.14542 -0.691074 0
v 0 -0.72 0.38
v -0.14542 -0.691074 0.38
v -0.0983512 -0.707052 0.38
v -0.0495999 -0.716749 0.38
v 0.0495999 -0.716749 0.38
v 0.0983512 -0.707052 0.38
v 0.14542 -0.691074 0.38
v -0.351074 -0.48542 0
v -0.32909 -0.53 0
v -0.301474 -0.571329 0
v -0.268701 -0.608701 0
v -0.231329 -0.641474 0
v -0.19 -0.66909 0
v 0.19 -0.66909 0
v 0.231329 -0.641474 0
v 0.268701 -0.608701 0
v 0.301474 -0.571329 0
v 0.32909 -0.53 0
v 0.351074 -0.48542 0
v -0.351074 -0.48542 0.38
v -0.32909 -0.53 0.38
v -0.301474 -0.571329 0.38
v -0.268701 -0.608701 0.38
v -0.231329 -0.641474 0.38
v -0.19 -0.66909 0.38
v 0.19 -0.66909 0.38
v 0.231329 -0.641474 0.38
v 0.268701 -0.608701 0.38
v 0.301474 -0.571329 0.38
v 0.32909 -0.53 0.38
v 0.351074 -0.48542 0.38
v -0.367052 -0.241649 0
v -0.376749 -0.2904 0
v -0.38 -0.34 0
v -0.376749 -0.3896 0
v -0.367052 -0.438351 0
v 0.38 -0.34 0
v 0.376749 -0.2904 0
v 0.367052 -0.241649 0
v 0.367052 -0.438351 0
v 0.376749 -0.3896 0
v -0.367052 -0.241649 0.38
v -0.376749 -0.2904 0.38
v -0.38 -0.34 0.38
v -0.376749 -0.3896 0.38
v -0.367052 -0.438351 0.38
v 0.38 -0.34 0.38
v 0.376749 -0.2904 0.38
v 0.367052 -0.241649 0.38
v 0.367052 -0.438351 0.38
v 0.376749 -0.3896 0.38
v -0.268701 -0.0712994 0
v -0.301474 -0.108671 0
v -0.32909 -0.15 0
v -0.351074 -0.19458 0
v -0.19 -0.0109104 0
v -0.231329 -0.0385257 0
v 0.231329 -0.0385257 0
v 0.19 -0.0109104 0
v 0.351074 -0.19458 0
v 0.32909 -0.15 0
v 0.301474 -0.108671 0
v 0.268701 -0.0712994 0
v -0.268701 -0.0712994 0.38
v -0.301474 -0.108671 0.38
v -0.32909 -0.15 0.38
v -0.351074 -0.19458 0.38
v -0.19 -0.0109104 0.38
v -0.231329 -0.0385257 0.38
v 0.231329 -0.0385257 0.38
v 0.19 -0.0109104 0.38
v 0.351074 -0.19458 0.38
v 0.32909 -0.15 0.38
v 0.301474 -0.108671 0.38
v 0.268701 -0.0712994 0.38
v 0 0.04 0
v -0.0495999 0.0367491 0
v -0.0983512 0.0270518 0
v -0.14542 0.0110742 0
v 0.14542 0.0110742 0
v 0.0983512 0.0270518 0
v 0.0495999 0.0367491 0
v 0 0.04 0.38
v -0.0495999 0.0367491 0.38
v -0.0983512 0.0270518 0.38
v -0.14542 0.0110742 0.38
v 0.14542 0.0110742 0.38
v 0.0983512 0.0270518 0.38
v 0.0495999 0.0367491 0.38
# 348 verticies
vn 0.997771 0.0667255 0
vn 0.952044 0.305961 0
vn 0.975481 0.220083 0
vn 0.840906 0.541181 0
vn 0.88456 0.466427 0
vn 0.676247 0.736675 0
vn 0.736675 0.676248 0
vn 0.0889446 0.996037 0
vn 0.305962 0.952044 0
vn 0.220083 0.975481 0
vn 0.0444723 0.999011 0
vn 0.541181 0.840906 0
vn 0.466428 0.884559 0
vn 0.997771 -0.0667251 0
vn 0.0667251 -0.997771 0
vn 0.305961 -0.952044 0
vn 0.220083 -0.975481 0
vn 0.541181 -0.840906 0
vn 0.466428 -0.884559 0
vn 0.736675 -0.676247 0
vn 0.676247 -0.736675 0
vn 0.952044 -0.305961 0
vn 0.975481 -0.220083 0
vn 0.840906 -0.541181 0
vn 0.884559 -0.466428 0
vn 0 1 0
vn 0 -1 0
vn -0.975481 0.220083 0
vn -0.952044 0.305961 0
vn -0.997771 0.0667255 0
vn -0.88456 0.466427 0
vn -0.840906 0.541181 0
vn -0.736675 0.676248 0
vn -0.676247 0.736675 0
vn -0.220083 0.975481 0
vn -0.305962 0.952044 0
vn -0.0889446 0.996037 0
vn -0.0444723 0.999011 0
vn -0.466428 0.884559 0
vn -0.541181 0.840906 0
vn -0.997771 -0.0667251 0
vn -0.220083 -0.975481 0
vn -0.305961 -0.952044 0
vn -0.0667251 -0.997771 0
vn -0.466428 -0.884559 0
vn -0.541181 -0.840906 0
vn -0.676247 -0.736675 0
vn -0.736675 -0.676247 0
vn -0.975481 -0.220083 0
vn -0.952044 -0.305961 0
vn -0.884559 -0.466428 0
vn -0.840906 -0.541181 0
vn 0.108839 0 0.994059
vn 0 0 1
vn 0.152151 0 0.988357
vn 0.237659 0 0.971349
vn 0.279855 0 0.960042
vn 0.362412 0 0.932018
vn 0.402773 0 0.9153
vn 0.480965 0 0.87674
vn 0.518797 0 0.854897
vn 0.591287 0 0.806461
vn 0.625945 0 0.779867
vn 0.691493 0 0.722383
vn 0.722383 0 0.691493
vn 0.779867 0 0.625945
vn 0.806461 0 0.591287
vn 0.854897 0 0.518797
vn 0.87674 0 0.480964
vn 0.9153 0 0.402772
vn 0.932018 0 0.362412
vn 0.960042 0 0.279856
vn 0.971349 0 0.237659
vn 0.988357 0 0.152151
vn 0.994059 0 0.10884
vn 0.999761 0 0.0218429
vn 0.999761 0 -0.0218429
vn 0.994059 0 -0.10884
vn 0.988357 0 -0.152151
vn 0.971349 0 -0.237659
vn 0.960042 0 -0.279856
vn 0.932018 0 -0.362412
vn 0.9153 0 -0.402772
vn 0.87674 0 -0.480964
vn 0.854897 0 -0.518797
vn 0.806461 0 -0.591288
vn 0.779867 0 -0.625945
vn 0.722383 0 -0.691493
vn 0.691493 0 -0.722383
vn 0.625945 0 -0.779867
vn 0.591287 0 -0.806461
vn 0.518797 0 -0.854897
vn 0.480965 0 -0.87674
vn 0.402772 0 -0.9153
vn 0.362413 0 -0.932018
vn 0.279856 0 -0.960042
vn 0.237659 0 -0.971349
vn 0.152151 0 -0.988357
vn 0.108839 0 -0.994059
vn 0 0 -1
vn -0.108839 0 -0.994059
vn -0.152151 0 -0.988357
vn -0.237659 0 -0.971349
vn -0.279857 0 -0.960042
vn -0.362413 0 -0.932018
vn -0.402772 0 -0.9153
vn -0.480964 0 -0.876741
vn -0.518796 0 -0.854898
vn -0.591287 0 -0.806461
vn -0.625945 0 -0.779867
vn -0.691494 0 -0.722383
vn -0.722384 0 -0.691493
vn -0.779867 0 -0.625945
vn -0.806461 0 -0.591287
vn -0.854898 0 -0.518797
vn -0.87674 0 -0.480965
vn -0.9153 0 -0.402772
vn -0.932018 0 -0.362412
vn -0.960042 0 -0.279855
vn -0.971349 0 -0.23766
vn -0.988357 0 -0.152152
vn -0.994059 0 -0.10884
vn -0.999761 0 -0.0218429
vn -0.999761 0 0.0218429
vn -0.994059 0 0.10884
vn -0.988357 0 0.152152
vn -0.971349 0 0.237659
vn -0.960042 0 0.279855
vn -0.932018 0 0.362412
vn -0.9153 0 0.402772
vn -0.87674 0 0.480965
vn -0.854898 0 0.518797
vn -0.806461 0 0.591287
vn -0.779867 0 0.625945
vn -0.722383 0 0.691493
vn -0.691494 0 0.722382
vn -0.625946 0 0.779867
vn -0.591287 0 0.806461
vn -0.518796 0 0.854898
vn -0.480964 0 0.87674
vn -0.402772 0 0.9153
vn -0.362412 0 0.932018
vn -0.279856 0 0.960042
vn -0.23766 0 0.971348
vn -0.152151 0 0.988357
vn -0.108839 0 0.994059
vn -0.237659 0 0.971349
vn -0.279855 0 0.960042
vn -0.362412 0 0.932018
vn -0.402773 0 0.9153
vn -0.480965 0 0.87674
vn -0.518797 0 0.854897
vn -0.591287 0 0.806461
vn -0.625945 0 0.779867
vn -0.691493 0 0.722383
vn -0.722383 0 0.691493
vn -0.779867 0 0.625945
vn -0.806461 0 0.591287
vn -0.854897 0 0.518797
vn -0.87674 0 0.480964
vn -0.9153 0 0.402772
vn -0.932018 0 0.362412
vn -0.960042 0 0.279856
vn -0.971349 0 0.237659
vn -0.988357 0 0.152151
vn -0.994059 0 0.10884
vn -0.994059 0 -0.10884
vn -0.988357 0 -0.152151
vn -0.971349 0 -0.237659
vn -0.960042 0 -0.279856
vn -0.932018 0 -0.362412
vn -0.9153 0 -0.402772
vn -0.87674 0 -0.480964
vn -0.854897 0 -0.518797
vn -0.806461 0 -0.591288
vn -0.779867 0 -0.625945
vn -0.722383 0 -0.691493
vn -0.691493 0 -0.722383
vn -0.625945 0 -0.779867
vn -0.591287 0 -0.806461
vn -0.518797 0 -0.854897
vn -0.480965 0 -0.87674
vn -0.402772 0 -0.9153
vn -0.362413 0 -0.932018
vn -0.279856 0 -0.960042
vn -0.237659 0 -0.971349
vn -0.152151 0 -0.988357
vn 0.152151 0 -0.988357
vn 0.279857 0 -0.960042
vn 0.237659 0 -0.971349
vn 0.402772 0 -0.9153
vn 0.362413 0 -0.932018
vn 0.518796 0 -0.854898
vn 0.480964 0 -0.876741
vn 0.625945 0 -0.779867
vn 0.591287 0 -0.806461
vn 0.722384 0 -0.691493
vn 0.691494 0 -0.722383
vn 0.806461 0 -0.591287
vn 0.779867 0 -0.625945
vn 0.87674 0 -0.480965
vn 0.854898 0 -0.518797
vn 0.932018 0 -0.362412
vn 0.9153 0 -0.402772
vn 0.971349 0 -0.23766
vn 0.960042 0 -0.279855
vn 0.994059 0 -0.10884
vn 0.988357 0 -0.152152
vn 0.988357 0 0.152152
vn 0.994059 0 0.10884
vn 0.960042 0 0.279855
vn 0.971349 0 0.237659
vn 0.9153 0 0.402772
vn 0.932018 0 0.362412
vn 0.854898 0 0.518797
vn 0.87674 0 0.480965
vn 0.779867 0 0.625945
vn 0.806461 0 0.591287
vn 0.691494 0 0.722382
vn 0.722383 0 0.691493
vn 0.591287 0 0.806461
vn 0.625946 0 0.779867
vn 0.480964 0 0.87674
vn 0.518796 0 0.854898
vn 0.362412 0 0.932018
vn 0.402772 0 0.9153
vn 0.23766 0 0.971348
vn 0.279856 0 0.960042
vn -0.999761 -0.0218424 0
vn -0.988357 -0.152151 0
vn -0.994059 -0.108839 0
vn -0.999761 0.0218424 0
vn -0.960042 -0.279856 0
vn -0.971349 -0.237659 0
vn -0.9153 -0.402772 0
vn -0.932018 -0.362412 0
vn -0.854898 -0.518797 0
vn -0.87674 -0.480964 0
vn -0.779867 -0.625945 0
vn -0.806461 -0.591287 0
vn -0.691493 -0.722383 0
vn -0.722383 -0.691493 0
vn -0.591287 -0.806461 0
vn -0.625945 -0.779867 0
vn -0.480964 -0.87674 0
vn -0.518797 -0.854897 0
vn -0.362412 -0.932018 0
vn -0.402772 -0.9153 0
vn -0.237659 -0.971349 0
vn -0.279856 -0.960042 0
vn -0.108839 -0.994059 0
vn -0.152151 -0.988357 0
vn 0.0218425 -0.999761 0
vn -0.0218425 -0.999761 0
vn 0.152151 -0.988357 0
vn 0.108839 -0.994059 0
vn 0.279856 -0.960042 0
vn 0.237659 -0.971349 0
vn 0.402772 -0.9153 0
vn 0.362412 -0.932018 0
vn 0.518797 -0.854897 0
vn 0.480964 -0.87674 0
vn 0.625945 -0.779867 0
vn 0.591287 -0.806461 0
vn 0.722383 -0.691493 0
vn 0.691493 -0.722383 0
vn 0.806461 -0.591287 0
vn 0.779867 -0.625945 0
vn 0.87674 -0.480964 0
vn 0.854898 -0.518797 0
vn 0.932018 -0.362412 0
vn 0.9153 -0.402772 0
vn 0.971349 -0.237659 0
vn 0.960042 -0.279856 0
vn 0.994059 -0.108839 0
vn 0.988357 -0.152151 0
vn 0.999761 0.0218424 0
vn 0.999761 -0.0218424 0
vn 0.988357 0.152151 0
vn 0.994059 0.108839 0
vn 0.960042 0.279856 0
vn 0.971349 0.237659 0
vn 0.9153 0.402772 0
vn 0.932018 0.362412 0
vn 0.854898 0.518797 0
vn 0.87674 0.480964 0
vn 0.779867 0.625945 0
vn 0.806461 0.591287 0
vn 0.691493 0.722383 0
vn 0.722383 0.691493 0
vn 0.591288 0.806461 0
vn 0.625945 0.779867 0
vn 0.480964 0.87674 0
vn 0.518797 0.854897 0
vn 0.362412 0.932018 0
vn 0.402772 0.9153 0
vn 0.237659 0.971349 0
vn 0.279856 0.960042 0
vn 0.10884 0.994059 0
vn 0.152151 0.988357 0
vn 0.0218426 0.999761 0
vn -0.0218426 0.999761 0
vn -0.152151 0.988357 0
vn -0.10884 0.994059 0
vn -0.279856 0.960042 0
vn -0.237659 0.971349 0
vn -0.402772 0.9153 0
vn -0.362412 0.932018 0
vn -0.518797 0.854897 0
vn -0.480964 0.87674 0
vn -0.625945 0.779867 0
vn -0.591288 0.806461 0
vn -0.722383 0.691493 0
vn -0.691493 0.722383 0
vn -0.806461 0.591287 0
vn -0.779867 0.625945 0
vn -0.87674 0.480964 0
vn -0.854898 0.518797 0
vn -0.932018 0.362412 0
vn -0.9153 0.402772 0
vn -0.971349 0.237659 0
vn -0.960042 0.279856 0
vn -0.994059 0.108839 0
vn -0.988357 0.152151 0
# 324 normals
f  1//1 5//2 10//3 3//1
f  5//2 6//4 11//5 10//3
f  6//4 7//6 12//7 11//5
f  4//8 14//9 9//10 2//11
f  14//9 13//12 8//13 9//10
f  13//12 12//7 7//6 8//13
f  1//1 3//1 16//14 18//14
f  17//15 24//16 19//17 15//15
f  24//16 25//18 20//19 19//17
f  25//18 26//20 21//21 20//19
f  16//14 23//22 28//23 18//14
f  23//22 22//24 27//25 28//23
f  22//24 21//21 26//20 27//25
f  2//11 57//26 58//26 4//8
f  60//27 59//27 17//15 15//15
f  38//28 33//29 29//30 31//30
f  39//31 34//32 33//29 38//28
f  40//33 35//34 34//32 39//31
f  37//35 42//36 32//37 30//38
f  36//39 41//40 42//36 37//35
f  35//34 40//33 41//40 36//39
f  44//41 31//30 29//30 46//41
f  47//42 52//43 45//44 43//44
f  48//45 53//46 52//43 47//42
f  49//47 54//48 53//46 48//45
f  56//49 51//50 44//41 46//41
f  55//51 50//52 51//50 56//49
f  54//48 49//47 50//52 55//51
f  58//26 57//26 30//38 32//37
f  45//44 59//27 60//27 43//44
f  108//27 107//27 106//27 105//27 104//27 103//27 102//27 101//27\
100//27 99//27 98//27 97//27 96//27 95//27 94//27 93//27 92//27 91//27\
90//27 89//27 88//27 87//27 86//27 85//27 84//27 83//27 82//27 81//27\
80//27 79//27 78//27 77//27 76//27 75//27 74//27 73//27 72//27 71//27\
70//27 69//27 68//27 67//27 66//27 65//27 64//27 63//27 62//27 61//27
f  110//53 109//54 61//54 62//55
f  111//56 110//53 62//55 63//57
f  112//58 111//56 63//57 64//59
f  113//60 112//58 64//59 65//61
f  114//62 113//60 65//61 66//63
f  115//64 114//62 66//63 67//65
f  116//66 115//64 67//65 68//67
f  117//68 116//66 68//67 69//69
f  118//70 117//68 69//69 70//71
f  119//72 118//70 70//71 71//73
f  120//74 119//72 71//73 72//75
f  121//76 120//74 72//75 73//77
f  122//78 121//76 73//77 74//79
f  123//80 122//78 74//79 75//81
f  124//82 123//80 75//81 76//83
f  125//84 124//82 76//83 77//85
f  126//86 125//84 77//85 78//87
f  127//88 126//86 78//87 79//89
f  128//90 127//88 79//89 80//91
f  129//92 128//90 80//91 81//93
f  130//94 129//92 81//93 82//95
f  131//96 130//94 82//95 83//97
f  132//98 131//96 83//97 84//99
f  133//100 132//98 84//99 85//100
f  86//101 134//102 133//100 85//100
f  87//103 135//104 134//102 86//101
f  88//105 136//106 135//104 87//103
f  89//107 137//108 136//106 88//105
f  90//109 138//110 137//108 89//107
f  91//111 139//112 138//110 90//109
f  92//113 140//114 139//112 91//111
f  93//115 141//116 140//114 92//113
f  94//117 142//118 141//116 93//115
f  95//119 143//120 142//118 94//117
f  96//121 144//122 143//120 95//119
f  97//123 145//124 144//122 96//121
f  98//125 146//126 145//124 97//123
f  99//127 147//128 146//126 98//125
f  100//129 148//130 147//128 99//127
f  101//131 149//132 148//130 100//129
f  102//133 150//134 149//132 101//131
f  103//135 151//136 150//134 102//133
f  104//137 152//138 151//136 103//135
f  105//139 153//140 152//138 104//137
f  106//141 154//142 153//140 105//139
f  107//143 155//144 154//142 106//141
f  108//145 156//146 155//144 107//143
f  61//54 109//54 156//146 108//145
f  110//26 111//26 112//26 113//26 114//26 115//26 116//26 117//26\
118//26 119//26 120//26 121//26 122//26 123//26 124//26 125//26\
126//26 127//26 128//26 129//26 130//26 131//26 132//26 133//26\
134//26 135//26 136//26 137//26 138//26 139//26 140//26 141//26\
142//26 143//26 144//26 145//26 146//26 147//26 148//26 149//26\
150//26 151//26 152//26 153//26 154//26 155//26 156//26 109//26
f  158//27 159//27 160//27 161//27 162//27 163//27 164//27 165//27\
166//27 167//27 168//27 169//27 170//27 171//27 172//27 173//27\
174//27 175//27 176//27 177//27 178//27 179//27 180//27 181//27\
182//27 183//27 184//27 185//27 186//27 187//27 188//27 189//27\
190//27 191//27 192//27 193//27 194//27 195//27 196//27 197//27\
198//27 199//27 200//27 201//27 202//27 203//27 204//27 157//27
f  157//54 205//54 206//146 158//145
f  158//145 206//146 207//147 159//148
f  159//148 207//147 208//149 160//150
f  160//150 208//149 209//151 161//152
f  161//152 209//151 210//153 162//154
f  162//154 210//153 211//155 163//156
f  163//156 211//155 212//157 164//158
f  164//158 212//157 213//159 165//160
f  165//160 213//159 214//161 166//162
f  166//162 214//161 215//163 167//164
f  167//164 215//163 216//165 168//166
f  168//166 216//165 217//124 169//123
f  169//123 217//124 218//167 170//168
f  170//168 218//167 219//169 171//170
f  171//170 219//169 220//171 172//172
f  172//172 220//171 221//173 173//174
f  173//174 221//173 222//175 174//176
f  174//176 222//175 223//177 175//178
f  175//178 223//177 224//179 176//180
f  176//180 224//179 225//181 177//182
f  177//182 225//181 226//183 178//184
f  178//184 226//183 227//185 179//186
f  179//186 227//185 228//187 180//101
f  180//101 228//187 229//100 181//100
f  229//100 230//188 182//99 181//100
f  230//188 231//189 183//190 182//99
f  231//189 232//191 184//192 183//190
f  232//191 233//193 185//194 184//192
f  233//193 234//195 186//196 185//194
f  234//195 235//197 187//198 186//196
f  235//197 236//199 188//200 187//198
f  236//199 237//201 189//202 188//200
f  237//201 238//203 190//204 189//202
f  238//203 239//205 191//206 190//204
f  239//205 240//207 192//208 191//206
f  240//207 241//76 193//77 192//208
f  241//76 242//209 194//210 193//77
f  242//209 243//211 195//212 194//210
f  243//211 244//213 196//214 195//212
f  244//213 245//215 197//216 196//214
f  245//215 246//217 198//218 197//216
f  246//217 247//219 199//220 198//218
f  247//219 248//221 200//222 199//220
f  248//221 249//223 201//224 200//222
f  249//223 250//225 202//226 201//224
f  250//225 251//227 203//228 202//226
f  251//227 252//53 204//55 203//228
f  252//53 205//54 157//54 204//55
f  252//26 251//26 250//26 249//26 248//26 247//26 246//26 245//26\
244//26 243//26 242//26 241//26 240//26 239//26 238//26 237//26\
236//26 235//26 234//26 233//26 232//26 231//26 230//26 229//26\
228//26 227//26 226//26 225//26 224//26 223//26 222//26 221//26\
220//26 219//26 218//26 217//26 216//26 215//26 214//26 213//26\
212//26 211//26 210//26 209//26 208//26 207//26 206//26 205//26
f  2//100 9//100 8//100 7//100 6//100 5//100 1//100 18//100 28//100\
27//100 26//100 25//100 24//100 17//100 59//100 253//100 257//100\
258//100 259//100 273//100 274//100 275//100 276//100 277//100\
278//100 299//100 300//100 296//100 297//100 298//100 319//100\
320//100 321//100 322//100 317//100 318//100 339//100 340//100\
341//100 335//100 57//100
f  342//54 348//54 347//54 346//54 330//54 329//54 334//54 333//54\
332//54 331//54 308//54 307//54 306//54 310//54 309//54 290//54\
289//54 288//54 287//54 286//54 285//54 266//54 265//54 264//54\
260//54 60//54 15//54 19//54 20//54 21//54 22//54 23//54 16//54 3//54\
10//54 11//54 12//54 13//54 14//54 4//54 58//54
f  335//100 336//100 337//100 338//100 315//100 316//100 311//100\
312//100 313//100 314//100 291//100 292//100 293//100 294//100\
295//100 267//100 268//100 269//100 270//100 271//100 272//100\
254//100 255//100 256//100 253//100 59//100 45//100 52//100 53//100\
54//100 55//100 56//100 46//100 29//100 33//100 34//100 35//100\
36//100 37//100 30//100 57//100
f  32//54 42//54 41//54 40//54 39//54 38//54 31//54 44//54 51//54\
50//54 49//54 48//54 47//54 43//54 60//54 260//54 263//54 262//54\
261//54 284//54 283//54 282//54 281//54 280//54 279//54 305//54\
304//54 303//54 302//54 301//54 326//54 325//54 324//54 323//54\
328//54 327//54 345//54 344//54 343//54 342//54 58//54
f  306//229 307//230 297//231 296//232
f  307//230 308//233 298//234 297//231
f  308//233 331//235 319//236 298//234
f  331//235 332//237 320//238 319//236
f  332//237 333//239 321//240 320//238
f  333//239 334//241 322//242 321//240
f  334//241 329//243 317//244 322//242
f  329//243 330//245 318//246 317//244
f  330//245 346//247 339//248 318//246
f  346//247 347//249 340//250 339//248
f  347//249 348//251 341//252 340//250
f  348//251 342//253 335//254 341//252
f  342//253 343//255 336//256 335//254
f  343//255 344//257 337//258 336//256
f  344//257 345//259 338//260 337//258
f  345//259 327//261 315//262 338//260
f  327//261 328//263 316//264 315//262
f  328//263 323//265 311//266 316//264
f  323//265 324//267 312//268 311//266
f  324//267 325//269 313//270 312//268
f  325//269 326//271 314//272 313//270
f  326//271 301//273 291//274 314//272
f  301//273 302//275 292//276 291//274
f  302//275 303//277 293//278 292//276
f  303//277 304//279 294//280 293//278
f  304//279 305//281 295//282 294//280
f  305//281 279//283 267//284 295//282
f  279//283 280//285 268//286 267//284
f  280//285 281//287 269//288 268//286
f  281//287 282//289 270//290 269//288
f  282//289 283//291 271//292 270//290
f  283//291 284//293 272//294 271//292
f  284//293 261//295 254//296 272//294
f  261//295 262//297 255//298 254//296
f  262//297 263//299 256//300 255//298
f  253//301 256//300 263//299 260//302
f  260//302 264//303 257//304 253//301
f  264//303 265//305 258//306 257//304
f  265//305 266//307 259//308 258//306
f  266//307 285//309 273//310 259//308
f  285//309 286//311 274//312 273//310
f  286//311 287//313 275//314 274//312
f  287//313 288//315 276//316 275//314
f  288//315 289//317 277//318 276//316
f  289//317 290//319 278//320 277//318
f  290//319 309//321 299//322 278//320
f  309//321 310//323 300//324 299//322
f  310//323 306//229 296//232 300//324
