# 
# Wavefront OBJ file
# Converted by the DEEP Exploration 3.5.7.1088
# Right Hemisphere, LTD
# http://www.righthemisphere.com/
# 
# object Object #0
g Object__0
v 0.464 -0.048 0
v 0.499 -0.082 0
v -0.000999998 -0.048 0
v -0.000999998 -0.082 0
v 0.4815 -0.065 0.024
v 0.469126 -0.0529792 0.0169706
v 0.493874 -0.0770208 0.0169706
v -0.000999998 -0.065 0.024
v -0.000999998 -0.0529792 0.0169706
v -0.000999998 -0.0770208 0.0169706
v 0.137 0.065 0
v 0.171 0.065 0
v 0.137 -0.065 0
v 0.171 -0.065 0
v 0.154 0.065 0.024
v 0.141979 0.065 0.0169706
v 0.166021 0.065 0.0169706
v 0.154 -0.065 0.024
v 0.141979 -0.065 0.0169706
v 0.166021 -0.065 0.0169706
v 0.464 0.048 0
v 0.499 0.082 0
v -0.000999998 0.048 0
v -0.000999998 0.082 0
v 0.4815 0.065 0.024
v 0.469126 0.0529792 0.0169706
v 0.493874 0.0770208 0.0169706
v -0.000999998 0.065 0.024
v -0.000999998 0.0529792 0.0169706
v -0.000999998 0.0770208 0.0169706
v 0.464 0 0
v 0.499 0 0
v 0.469126 0 0.0169706
v 0.4815 0 0.024
v 0.493874 0 0.0169706
v 0.48352 -0.010752 0.0001688
v 0.48352 -0.029248 0.0001688
v 0.48352 -0.02 0.0188312
v 0.48352 -0.0134607 0.0133651
v 0.48352 -0.0265393 0.0133651
v 0.48352 0.010752 0.0001688
v 0.48352 0.029248 0.0001688
v 0.48352 0.02 0.0188312
v 0.48352 0.0134607 0.0133651
v 0.48352 0.0265393 0.0133651
v -0.464 -0.048 0
v -0.499 -0.082 0
v 0.000999998 -0.048 0
v 0.000999998 -0.082 0
v -0.4815 -0.065 0.024
v -0.469126 -0.0529792 0.0169706
v -0.493874 -0.0770208 0.0169706
v 0.000999998 -0.065 0.024
v 0.000999998 -0.0529792 0.0169706
v 0.000999998 -0.0770208 0.0169706
v -0.137 0.065 0
v -0.171 0.065 0
v -0.137 -0.065 0
v -0.171 -0.065 0
v -0.154 0.065 0.024
v -0.141979 0.065 0.0169706
v -0.166021 0.065 0.0169706
v -0.154 -0.065 0.024
v -0.141979 -0.065 0.0169706
v -0.166021 -0.065 0.0169706
v -0.464 0.048 0
v -0.499 0.082 0
v 0.000999998 0.048 0
v 0.000999998 0.082 0
v -0.4815 0.065 0.024
v -0.469126 0.0529792 0.0169706
v -0.493874 0.0770208 0.0169706
v 0.000999998 0.065 0.024
v 0.000999998 0.0529792 0.0169706
v 0.000999998 0.0770208 0.0169706
v -0.464 0 0
v -0.499 0 0
v -0.469126 0 0.0169706
v -0.4815 0 0.024
v -0.493874 0 0.0169706
v -0.48352 -0.010752 0.0001688
v -0.48352 -0.029248 0.0001688
v -0.48352 -0.02 0.0188312
v -0.48352 -0.0134607 0.0133651
v -0.48352 -0.0265393 0.0133651
v -0.48352 0.010752 0.0001688
v -0.48352 0.029248 0.0001688
v -0.48352 0.02 0.0188312
v -0.48352 0.0134607 0.0133651
v -0.48352 0.0265393 0.0133651
v 0 -0.029248 0.0001688
v 0 -0.0265393 0.0133651
v 0 -0.02 0.0188312
v 0 -0.010752 0.0001688
v 0 -0.0134607 0.0133651
v 0 0.010752 0.0001688
v 0 0.0134607 0.0133651
v 0 0.02 0.0188312
v 0 0.029248 0.0001688
v 0 0.0265393 0.0133651
# 100 verticies
vn 0 0.504798 0.863238
vn 0 0.959551 0.281534
vn 0 0 -1
vn 0 -0.959551 0.281534
vn 0 -0.504798 0.863238
vn 0 1 0
vn 0 -1 0
vn -0.504798 0 0.863238
vn -0.959551 0 0.281534
vn 0.959551 0 0.281534
vn 0.504798 0 0.863238
vn 0 -0.504798 0.863238
vn 0 0.504798 0.863238
vn 0.493932 0 0.8695
vn -0.493933 0 0.8695
vn -0.957289 0 0.289131
vn 0.957289 0 0.289131
vn -1 0 0
vn 0 0.641337 0.767259
vn 0 0.979577 0.201069
vn 0 -0.979577 0.201069
vn 0 -0.641337 0.767259
vn 0 -0.641337 0.767259
vn 0 0.641337 0.767259
vn -0.493932 0 0.8695
vn 0.493933 0 0.8695
vn 1 0 0
# 27 normals
f  8//1 5//1 6//1 9//1
f  9//2 6//2 1//2 3//2
f  1//3 2//3 4//3 3//3
f  2//4 7//4 10//4 4//4
f  7//5 5//5 8//5 10//5
f  17//6 12//6 11//6 16//6 15//6
f  18//7 19//7 13//7 14//7 20//7
f  18//8 15//8 16//8 19//8
f  19//9 16//9 11//9 13//9
f  11//3 12//3 14//3 13//3
f  12//10 17//10 20//10 14//10
f  17//11 15//11 18//11 20//11
f  26//12 25//12 28//12 29//12
f  21//4 26//4 29//4 23//4
f  24//3 22//3 21//3 23//3
f  30//2 27//2 22//2 24//2
f  28//13 25//13 27//13 30//13
f  35//14 34//14 5//14 7//14
f  5//15 34//15 33//15 6//15
f  6//16 33//16 31//16 1//16
f  1//3 31//3 32//3 2//3
f  32//17 35//17 7//17 2//17
f  33//15 34//15 25//15 26//15
f  25//14 34//14 35//14 27//14
f  27//17 35//17 32//17 22//17
f  22//3 32//3 31//3 21//3
f  31//16 33//16 26//16 21//16
f  93//18 95//18 94//18 91//18 92//18
f  93//19 38//19 39//19 95//19
f  95//20 39//20 36//20 94//20
f  94//3 36//3 37//3 91//3
f  91//21 37//21 40//21 92//21
f  92//22 40//22 38//22 93//22
f  99//18 96//18 97//18 98//18 100//18
f  44//23 43//23 98//23 97//23
f  41//21 44//21 97//21 96//21
f  42//3 41//3 96//3 99//3
f  45//20 42//20 99//20 100//20
f  43//24 45//24 100//24 98//24
f  51//1 50//1 53//1 54//1
f  46//2 51//2 54//2 48//2
f  49//3 47//3 46//3 48//3
f  55//4 52//4 47//4 49//4
f  53//5 50//5 52//5 55//5
f  61//6 56//6 57//6 62//6 60//6
f  59//7 58//7 64//7 63//7 65//7
f  61//11 60//11 63//11 64//11
f  56//10 61//10 64//10 58//10
f  59//3 57//3 56//3 58//3
f  65//9 62//9 57//9 59//9
f  63//8 60//8 62//8 65//8
f  73//12 70//12 71//12 74//12
f  74//4 71//4 66//4 68//4
f  66//3 67//3 69//3 68//3
f  67//2 72//2 75//2 69//2
f  72//13 70//13 73//13 75//13
f  50//25 79//25 80//25 52//25
f  78//26 79//26 50//26 51//26
f  76//17 78//17 51//17 46//17
f  77//3 76//3 46//3 47//3
f  52//16 80//16 77//16 47//16
f  70//26 79//26 78//26 71//26
f  80//25 79//25 70//25 72//25
f  77//16 80//16 72//16 67//16
f  76//3 77//3 67//3 66//3
f  71//17 78//17 76//17 66//17
f  91//27 94//27 95//27 93//27 92//27
f  84//19 83//19 93//19 95//19
f  81//20 84//20 95//20 94//20
f  82//3 81//3 94//3 91//3
f  85//21 82//21 91//21 92//21
f  83//22 85//22 92//22 93//22
f  98//27 97//27 96//27 99//27 100//27
f  98//23 88//23 89//23 97//23
f  97//21 89//21 86//21 96//21
f  96//3 86//3 87//3 99//3
f  99//20 87//20 90//20 100//20
f  100//24 90//24 88//24 98//24
