# 
# Wavefront OBJ file
# Converted by the DEEP Exploration 3.5.7.1088
# Right Hemisphere, LTD
# http://www.righthemisphere.com/
# 
# object Object #0
g Object__0
v -0.5 0.0666678 0.333331
v -0.5 -0.0666652 0.333331
v 0.5 -0.0666652 0.333331
v 0.5 0.0666678 0.333331
v -0.5 0.0287728 0.44303
v -0.5 -0.0287728 0.44303
v 0.5 -0.0287728 0.44303
v 0.5 0.0287728 0.44303
v -0.5 0.0666678 0
v -0.5 -0.0666652 0
v 0.5 -0.0666652 0
v 0.5 0.0666678 0
v -0.496704 0.0354383 0.452383
v 0.496704 0.0354383 0.452383
v 0.496704 -0.0354358 0.452383
v -0.496704 -0.0354358 0.452383
v -0.496704 0.0760188 0.334901
v 0.496704 0.0760188 0.334901
v -0.496704 -0.0760188 0.334901
v 0.496704 -0.0760188 0.334901
v -0.496704 -0.0760188 0.00329269
v 0.496704 -0.0760188 0.00329269
v -0.496704 0.0760188 0.00329269
v 0.496704 0.0760188 0.00329269
v -0.459996 0.1292 0.333331
v -0.459996 -0.129198 0.333331
v -0.419997 -0.129198 0.333331
v -0.419997 0.1292 0.333331
v -0.459996 0.0804667 0.403599
v -0.459996 -0.0804667 0.403599
v -0.419997 -0.0804667 0.403599
v -0.419997 0.0804667 0.403599
v -0.379999 0.1292 0.333331
v -0.379999 -0.129198 0.333331
v -0.339997 -0.129198 0.333331
v -0.339997 0.1292 0.333331
v -0.379999 0.0804667 0.403599
v -0.379999 -0.0804667 0.403599
v -0.339997 -0.0804667 0.403599
v -0.339997 0.0804667 0.403599
v -0.299994 0.1292 0.333331
v -0.299994 -0.129198 0.333331
v -0.259996 -0.129198 0.333331
v -0.259996 0.1292 0.333331
v -0.299994 0.0804667 0.403599
v -0.299994 -0.0804667 0.403599
v -0.259996 -0.0804667 0.403599
v -0.259996 0.0804667 0.403599
v -0.219997 0.1292 0.333331
v -0.219997 -0.129198 0.333331
v -0.179999 -0.129198 0.333331
v -0.179999 0.1292 0.333331
v -0.219997 0.0804667 0.403599
v -0.219997 -0.0804667 0.403599
v -0.179999 -0.0804667 0.403599
v -0.179999 0.0804667 0.403599
v 0.179999 0.1292 0.333331
v 0.179999 -0.129198 0.333331
v 0.220002 -0.129198 0.333331
v 0.220002 0.1292 0.333331
v 0.179999 0.0804667 0.403599
v 0.179999 -0.0804667 0.403599
v 0.220002 -0.0804667 0.403599
v 0.220002 0.0804667 0.403599
v 0.26 0.1292 0.333331
v 0.26 -0.129198 0.333331
v 0.299998 -0.129198 0.333331
v 0.299998 0.1292 0.333331
v 0.26 0.0804667 0.403599
v 0.26 -0.0804667 0.403599
v 0.299998 -0.0804667 0.403599
v 0.299998 0.0804667 0.403599
v 0.339997 0.1292 0.333331
v 0.339997 -0.129198 0.333331
v 0.379999 -0.129198 0.333331
v 0.379999 0.1292 0.333331
v 0.339997 0.0804667 0.403599
v 0.339997 -0.0804667 0.403599
v 0.379999 -0.0804667 0.403599
v 0.379999 0.0804667 0.403599
v 0.419997 0.1292 0.333331
v 0.419997 -0.129198 0.333331
v 0.460002 -0.129198 0.333331
v 0.460002 0.1292 0.333331
v 0.419997 0.0804667 0.403599
v 0.419997 -0.0804667 0.403599
v 0.460002 -0.0804667 0.403599
v 0.460002 0.0804667 0.403599
v -0.140001 0.1292 0.333331
v -0.140001 -0.129198 0.333331
v -0.0999984 -0.129198 0.333331
v -0.0999984 0.1292 0.333331
v -0.140001 0.0804667 0.403599
v -0.140001 -0.0804667 0.403599
v -0.0999984 -0.0804667 0.403599
v -0.0999984 0.0804667 0.403599
v -0.0600003 0.1292 0.333331
v -0.0600003 -0.129198 0.333331
v -0.0199975 -0.129198 0.333331
v -0.0199975 0.1292 0.333331
v -0.0600003 0.0804667 0.403599
v -0.0600003 -0.0804667 0.403599
v -0.0199975 -0.0804667 0.403599
v -0.0199975 0.0804667 0.403599
v 0.0200006 0.1292 0.333331
v 0.0200006 -0.129198 0.333331
v 0.0599987 -0.129198 0.333331
v 0.0599987 0.1292 0.333331
v 0.0200006 0.0804667 0.403599
v 0.0200006 -0.0804667 0.403599
v 0.0599987 -0.0804667 0.403599
v 0.0599987 0.0804667 0.403599
v 0.0999969 0.1292 0.333331
v 0.0999969 -0.129198 0.333331
v 0.140001 -0.129198 0.333331
v 0.140001 0.1292 0.333331
v 0.0999969 0.0804667 0.403599
v 0.0999969 -0.0804667 0.403599
v 0.140001 -0.0804667 0.403599
v 0.140001 0.0804667 0.403599
v -0.459996 0.1292 0
v -0.459996 -0.129198 0
v -0.419997 -0.129198 0
v -0.419997 0.1292 0
v -0.379999 0.1292 0
v -0.379999 -0.129198 0
v -0.339997 -0.129198 0
v -0.339997 0.1292 0
v -0.299994 0.1292 0
v -0.299994 -0.129198 0
v -0.259996 -0.129198 0
v -0.259996 0.1292 0
v -0.219997 0.1292 0
v -0.219997 -0.129198 0
v -0.179999 -0.129198 0
v -0.179999 0.1292 0
v 0.179999 0.1292 0
v 0.179999 -0.129198 0
v 0.220002 -0.129198 0
v 0.220002 0.1292 0
v 0.26 0.1292 0
v 0.26 -0.129198 0
v 0.299998 -0.129198 0
v 0.299998 0.1292 0
v 0.339997 0.1292 0
v 0.339997 -0.129198 0
v 0.379999 -0.129198 0
v 0.379999 0.1292 0
v 0.419997 0.1292 0
v 0.419997 -0.129198 0
v 0.460002 -0.129198 0
v 0.460002 0.1292 0
v -0.140001 0.1292 0
v -0.140001 -0.129198 0
v -0.0999984 -0.129198 0
v -0.0999984 0.1292 0
v -0.0600003 0.1292 0
v -0.0600003 -0.129198 0
v -0.0199975 -0.129198 0
v -0.0199975 0.1292 0
v 0.0200006 0.1292 0
v 0.0200006 -0.129198 0
v 0.0599987 -0.129198 0
v 0.0599987 0.1292 0
v 0.0999969 0.1292 0
v 0.0999969 -0.129198 0
v 0.140001 -0.129198 0
v 0.140001 0.1292 0
v 0.103233 0.134518 0.00323009
v 0.136771 0.134518 0.00323009
v 0.136771 0.134518 0.334995
v 0.103233 0.134518 0.334995
v 0.0232308 0.134518 0.00323009
v 0.0567749 0.134518 0.00323009
v 0.0567749 0.134518 0.334995
v 0.0232308 0.134518 0.334995
v -0.0567702 0.134518 0.00323009
v -0.0232308 0.134518 0.00323009
v -0.0232308 0.134518 0.334995
v -0.0567702 0.134518 0.334995
v -0.136766 0.134518 0.00323009
v -0.103227 0.134518 0.00323009
v -0.103227 0.134518 0.334995
v -0.136766 0.134518 0.334995
v 0.423228 0.134518 0.00323009
v 0.456765 0.134518 0.00323009
v 0.456765 0.134518 0.334995
v 0.423228 0.134518 0.334995
v 0.343231 0.134518 0.00323009
v 0.376769 0.134518 0.00323009
v 0.376769 0.134518 0.334995
v 0.343231 0.134518 0.334995
v 0.263226 0.134518 0.00323009
v 0.296768 0.134518 0.00323009
v 0.296768 0.134518 0.334995
v 0.263226 0.134518 0.334995
v 0.18323 0.134518 0.00323009
v 0.216767 0.134518 0.00323009
v 0.216767 0.134518 0.334995
v 0.18323 0.134518 0.334995
v -0.216767 0.134518 0.00323009
v -0.183223 0.134518 0.00323009
v -0.183223 0.134518 0.334995
v -0.216767 0.134518 0.334995
v -0.29677 0.134518 0.00323009
v -0.263226 0.134518 0.00323009
v -0.263226 0.134518 0.334995
v -0.29677 0.134518 0.334995
v -0.376766 0.134518 0.00323009
v -0.343227 0.134518 0.00323009
v -0.343227 0.134518 0.334995
v -0.376766 0.134518 0.334995
v -0.456767 0.134518 0.00323009
v -0.423223 0.134518 0.00323009
v -0.423223 0.134518 0.334995
v -0.456767 0.134518 0.334995
v 0.136771 0.0832514 0.408919
v 0.103233 0.0832514 0.408919
v 0.0567749 0.0832514 0.408919
v 0.0232308 0.0832514 0.408919
v -0.0232308 0.0832514 0.408919
v -0.0567702 0.0832514 0.408919
v -0.103227 0.0832514 0.408919
v -0.136766 0.0832514 0.408919
v 0.456765 0.0832514 0.408919
v 0.423228 0.0832514 0.408919
v 0.376769 0.0832514 0.408919
v 0.343231 0.0832514 0.408919
v 0.296768 0.0832514 0.408919
v 0.263226 0.0832514 0.408919
v 0.216767 0.0832514 0.408919
v 0.18323 0.0832514 0.408919
v -0.183223 0.0832514 0.408919
v -0.216767 0.0832514 0.408919
v -0.263226 0.0832514 0.408919
v -0.29677 0.0832514 0.408919
v -0.343227 0.0832514 0.408919
v -0.376766 0.0832514 0.408919
v -0.423223 0.0832514 0.408919
v -0.456767 0.0832514 0.408919
v -0.456767 -0.134518 0.334995
v -0.456767 -0.0832489 0.408919
v -0.423223 -0.0832489 0.408919
v -0.423223 -0.134518 0.334995
v -0.376766 -0.134518 0.334995
v -0.376766 -0.0832489 0.408919
v -0.343227 -0.0832489 0.408919
v -0.343227 -0.134518 0.334995
v -0.29677 -0.134518 0.334995
v -0.29677 -0.0832489 0.408919
v -0.263226 -0.0832489 0.408919
v -0.263226 -0.134518 0.334995
v -0.216767 -0.134518 0.334995
v -0.216767 -0.0832489 0.408919
v -0.183223 -0.0832489 0.408919
v -0.183223 -0.134518 0.334995
v 0.18323 -0.134518 0.334995
v 0.18323 -0.0832489 0.408919
v 0.216767 -0.0832489 0.408919
v 0.216767 -0.134518 0.334995
v 0.263226 -0.134518 0.334995
v 0.263226 -0.0832489 0.408919
v 0.296768 -0.0832489 0.408919
v 0.296768 -0.134518 0.334995
v 0.343231 -0.134518 0.334995
v 0.343231 -0.0832489 0.408919
v 0.376769 -0.0832489 0.408919
v 0.376769 -0.134518 0.334995
v 0.423228 -0.134518 0.334995
v 0.423228 -0.0832489 0.408919
v 0.456765 -0.0832489 0.408919
v 0.456765 -0.134518 0.334995
v -0.136766 -0.134518 0.334995
v -0.136766 -0.0832489 0.408919
v -0.103227 -0.0832489 0.408919
v -0.103227 -0.134518 0.334995
v -0.0567702 -0.134518 0.334995
v -0.0567702 -0.0832489 0.408919
v -0.0232308 -0.0832489 0.408919
v -0.0232308 -0.134518 0.334995
v 0.0232308 -0.134518 0.334995
v 0.0232308 -0.0832489 0.408919
v 0.0567749 -0.0832489 0.408919
v 0.0567749 -0.134518 0.334995
v 0.103233 -0.134518 0.334995
v 0.103233 -0.0832489 0.408919
v 0.136771 -0.0832489 0.408919
v 0.136771 -0.134518 0.334995
v 0.103233 -0.134518 0.00323009
v 0.136771 -0.134518 0.00323009
v 0.0232308 -0.134518 0.00323009
v 0.0567749 -0.134518 0.00323009
v -0.0567702 -0.134518 0.00323009
v -0.0232308 -0.134518 0.00323009
v -0.136766 -0.134518 0.00323009
v -0.103227 -0.134518 0.00323009
v 0.423228 -0.134518 0.00323009
v 0.456765 -0.134518 0.00323009
v 0.343231 -0.134518 0.00323009
v 0.376769 -0.134518 0.00323009
v 0.263226 -0.134518 0.00323009
v 0.296768 -0.134518 0.00323009
v 0.18323 -0.134518 0.00323009
v 0.216767 -0.134518 0.00323009
v -0.216767 -0.134518 0.00323009
v -0.183223 -0.134518 0.00323009
v -0.29677 -0.134518 0.00323009
v -0.263226 -0.134518 0.00323009
v -0.376766 -0.134518 0.00323009
v -0.343227 -0.134518 0.00323009
v -0.456767 -0.134518 0.00323009
v -0.423223 -0.134518 0.00323009
# 312 verticies
vn -0.993682 0.112233 0
vn -0.990875 -0.134786 0
vn -0.968484 -0.242952 0.0548902
vn -0.985392 -0.0641068 0.157775
vn -0.989905 0.106695 0.0932954
vn -0.968473 0.247601 0.0274497
vn 0.996467 -0.083984 0
vn 0.985681 0.168623 0
vn 0.968479 0.242972 0.05489
vn 0.989906 0.0533395 0.131305
vn 0.985393 -0.128199 0.1121
vn 0.968489 -0.247542 0.0274416
vn 0 0 1
vn 0 0.986205 0.165529
vn 0 0.9452 0.326491
vn 0 -0.986203 0.165538
vn 0 -0.945194 0.326509
vn 0 -1 0
vn 0 1 0
vn -1 0 0
vn 1 0 0
vn 0 0.821729 0.569878
vn 0 -0.821716 0.569898
vn 0.959141 0.212988 0.18624
vn 0.959139 -0.106504 0.262126
vn -0.95914 -0.212989 0.186241
vn -0.959144 0.106481 0.262115
vn 0.944405 0.326784 0.0362255
vn -0.944415 0.320676 0.0724444
vn -0.944432 -0.326706 0.0362194
vn 0.944424 -0.320647 0.0724437
vn -0.943161 -0.332336 0
vn 0.943161 -0.332336 0
vn 0 -0.332052 -0.943261
vn 0 0.332132 -0.943233
vn 0.943133 0.332417 0
vn -0.943133 0.332417 0
vn 0 0.519156 -0.854679
vn 0.854675 0.519163 0
vn 0.863955 0.493604 0.0996851
vn 0.863984 0.462377 0.19935
vn -0.863531 0.494316 0.0998322
vn -0.863558 0.463046 0.199639
vn -0.854229 0.519897 0
vn 0.855122 0.518427 0
vn 0.86438 0.492889 0.0995406
vn 0.864408 0.461706 0.199061
vn -0.863955 0.493603 0.0996881
vn -0.863983 0.462378 0.199351
vn -0.854676 0.519163 0
vn 0.854452 0.51953 0
vn 0.863743 0.49396 0.099757
vn 0.863772 0.46271 0.199494
vn -0.863955 0.493602 0.0996881
vn -0.863983 0.462377 0.199351
vn -0.854676 0.519162 0
vn 0.854787 0.518979 0
vn 0.864061 0.493425 0.0996489
vn 0.86409 0.462209 0.199278
vn -0.863636 0.494138 0.0997964
vn -0.863664 0.462879 0.199567
vn -0.85434 0.519714 0
vn 0.854229 0.519897 0
vn 0.86353 0.494317 0.0998291
vn 0.863559 0.463045 0.199638
vn -0.863955 0.493603 0.0996883
vn -0.863982 0.462378 0.199351
vn -0.854675 0.519163 0
vn -0.863635 0.49414 0.0997967
vn -0.863663 0.462881 0.199568
vn -0.854339 0.519716 0
vn -0.864274 0.493066 0.0995797
vn -0.864302 0.461875 0.199134
vn -0.855011 0.51861 0
vn 0.85434 0.519714 0
vn 0.863636 0.494139 0.0997932
vn 0.863665 0.462878 0.199566
vn -0.863956 0.493602 0.0996879
vn -0.863983 0.462377 0.19935
vn -0.854676 0.519161 0
vn 0.855122 0.518426 0
vn 0.86438 0.492888 0.0995405
vn 0.864409 0.461706 0.199061
vn -0.864379 0.492889 0.099544
vn -0.864407 0.461709 0.199063
vn -0.855121 0.518428 0
vn -0.863743 0.49396 0.0997603
vn -0.86377 0.462712 0.199495
vn -0.854452 0.519531 0
vn 0.855009 0.518614 0
vn 0.864272 0.49307 0.0995772
vn 0.864301 0.461876 0.199134
vn -0.86406 0.493426 0.0996526
vn -0.864088 0.462213 0.19928
vn -0.854786 0.518981 0
vn 0.877633 0.291977 0.380145
vn 0.877649 0.145971 0.456537
vn -0.877241 0.292414 0.380712
vn -0.877258 0.146191 0.457215
vn 0.878024 0.291541 0.379576
vn 0.878039 0.145752 0.455854
vn -0.877632 0.291979 0.380145
vn -0.877649 0.145974 0.456535
vn 0.877438 0.292195 0.380428
vn 0.877454 0.146079 0.456877
vn -0.877632 0.291979 0.380145
vn -0.877649 0.145973 0.456534
vn 0.877731 0.291868 0.380002
vn 0.877747 0.145916 0.456365
vn -0.877339 0.292306 0.380571
vn -0.877356 0.146137 0.457046
vn 0.877242 0.292413 0.380711
vn 0.877258 0.146188 0.457217
vn -0.877632 0.291979 0.380146
vn -0.877649 0.145974 0.456535
vn -0.877338 0.292307 0.380572
vn -0.877355 0.146138 0.457047
vn -0.877926 0.291651 0.379719
vn -0.877943 0.14581 0.456022
vn 0.87734 0.292304 0.38057
vn 0.877355 0.146134 0.457047
vn -0.877633 0.291978 0.380144
vn -0.87765 0.145973 0.456533
vn 0.878024 0.29154 0.379575
vn 0.87804 0.145752 0.455853
vn -0.878022 0.291543 0.379578
vn -0.878039 0.145756 0.455853
vn -0.877436 0.292197 0.380429
vn -0.877453 0.146083 0.456876
vn 0.877925 0.291651 0.37972
vn 0.87794 0.145808 0.456027
vn -0.877728 0.291871 0.380005
vn -0.877745 0.14592 0.456366
vn -0.864121 -0.46215 0.199279
vn -0.864159 -0.493259 0.099624
vn -0.877728 -0.291872 0.380005
vn -0.877721 -0.145964 0.456399
vn 0.877925 -0.291651 0.37972
vn 0.877916 -0.14585 0.45606
vn 0.864335 -0.461813 0.199133
vn 0.864371 -0.492903 0.0995469
vn -0.863804 -0.46265 0.199495
vn -0.863842 -0.493793 0.0997317
vn -0.877436 -0.292197 0.380429
vn -0.877429 -0.146127 0.456908
vn 0.877633 -0.291977 0.380144
vn 0.877624 -0.146013 0.45657
vn 0.864018 -0.462313 0.199349
vn 0.864054 -0.493437 0.0996548
vn -0.86444 -0.461646 0.199062
vn -0.864478 -0.492722 0.0995154
vn -0.878022 -0.291544 0.379578
vn -0.878015 -0.1458 0.455885
vn -0.864016 -0.462316 0.19935
vn -0.864054 -0.493436 0.0996597
vn -0.877631 -0.29198 0.380146
vn -0.877625 -0.146018 0.456567
vn 0.878025 -0.29154 0.379575
vn 0.878016 -0.145794 0.455886
vn 0.864443 -0.461642 0.199059
vn 0.864479 -0.492721 0.0995102
vn -0.864017 -0.462314 0.19935
vn -0.864055 -0.493434 0.0996593
vn -0.877632 -0.291979 0.380144
vn -0.877626 -0.146017 0.456566
vn 0.87734 -0.292304 0.380569
vn 0.877331 -0.146176 0.45708
vn 0.8637 -0.462814 0.199565
vn 0.863735 -0.493972 0.0997628
vn -0.864335 -0.461812 0.199133
vn -0.864373 -0.492898 0.0995512
vn -0.877925 -0.291652 0.379719
vn -0.877919 -0.145854 0.456054
vn -0.863697 -0.462819 0.199567
vn -0.863735 -0.493973 0.0997681
vn -0.877338 -0.292307 0.380572
vn -0.877331 -0.146181 0.45708
vn 0.877242 -0.292412 0.380711
vn 0.877234 -0.146231 0.45725
vn 0.863593 -0.462981 0.199637
vn 0.863629 -0.494151 0.0997988
vn -0.863698 -0.462817 0.199567
vn -0.863736 -0.493971 0.0997677
vn -0.877338 -0.292306 0.380571
vn -0.877332 -0.146181 0.457078
vn 0.877731 -0.291867 0.380001
vn 0.877722 -0.145958 0.456398
vn 0.864124 -0.462145 0.199276
vn 0.86416 -0.493258 0.0996185
vn -0.864017 -0.462315 0.19935
vn -0.864054 -0.493435 0.0996595
vn -0.877632 -0.291979 0.380145
vn -0.877625 -0.146017 0.456566
vn 0.877438 -0.292194 0.380427
vn 0.877429 -0.146122 0.456909
vn 0.863806 -0.462647 0.199492
vn 0.863842 -0.493793 0.0997267
vn -0.864016 -0.462315 0.19935
vn -0.864054 -0.493435 0.0996595
vn -0.877632 -0.291979 0.380145
vn -0.877625 -0.146017 0.456567
vn 0.878024 -0.29154 0.379576
vn 0.878015 -0.145795 0.455887
vn 0.864443 -0.461643 0.19906
vn 0.864478 -0.492722 0.0995103
vn -0.863592 -0.462983 0.199638
vn -0.86363 -0.494148 0.0998036
vn -0.877241 -0.292414 0.380712
vn -0.877234 -0.146235 0.457247
vn -0.85434 -0.519715 0
vn 0.854785 -0.518982 0
vn 0 -0.518975 -0.85479
vn -0.854786 -0.518981 0
vn 0.855232 -0.518245 0
vn -0.854786 -0.518981 0
vn 0.854563 -0.519348 0
vn -0.854451 -0.519532 0
vn 0.854897 -0.518797 0
vn -0.854785 -0.518982 0
vn 0.854339 -0.519716 0
vn -0.85445 -0.519534 0
vn -0.855121 -0.518428 0
vn -0.854787 -0.51898 0
vn 0.854451 -0.519532 0
vn 0.855232 -0.518245 0
vn -0.855231 -0.518246 0
vn -0.854562 -0.519349 0
vn -0.854896 -0.5188 0
vn 0.855119 -0.518432 0
# 229 normals
f  9//1 10//2 2//3 6//4 5//5 1//6
f  11//7 12//8 4//9 8//10 7//11 3//12
f  13//13 16//13 15//13 14//13
f  17//14 13//15 14//15 18//14
f  20//16 15//17 16//17 19//16
f  20//16 19//16 21//18 22//18
f  17//14 18//14 24//19 23//19
f  122//20 26//20 30//20 29//20 25//20 121//20
f  123//21 124//21 28//21 32//21 31//21 27//21
f  126//20 34//20 38//20 37//20 33//20 125//20
f  127//21 128//21 36//21 40//21 39//21 35//21
f  130//20 42//20 46//20 45//20 41//20 129//20
f  131//21 132//21 44//21 48//21 47//21 43//21
f  134//20 50//20 54//20 53//20 49//20 133//20
f  135//21 136//21 52//21 56//21 55//21 51//21
f  138//20 58//20 62//20 61//20 57//20 137//20
f  139//21 140//21 60//21 64//21 63//21 59//21
f  142//20 66//20 70//20 69//20 65//20 141//20
f  143//21 144//21 68//21 72//21 71//21 67//21
f  146//20 74//20 78//20 77//20 73//20 145//20
f  147//21 148//21 76//21 80//21 79//21 75//21
f  150//20 82//20 86//20 85//20 81//20 149//20
f  151//21 152//21 84//21 88//21 87//21 83//21
f  154//20 90//20 94//20 93//20 89//20 153//20
f  155//21 156//21 92//21 96//21 95//21 91//21
f  158//20 98//20 102//20 101//20 97//20 157//20
f  159//21 160//21 100//21 104//21 103//21 99//21
f  162//20 106//20 110//20 109//20 105//20 161//20
f  163//21 164//21 108//21 112//21 111//21 107//21
f  166//20 114//20 118//20 117//20 113//20 165//20
f  167//21 168//21 116//21 120//21 119//21 115//21
f  172//19 171//19 170//19 169//19
f  176//19 175//19 174//19 173//19
f  180//19 179//19 178//19 177//19
f  184//19 183//19 182//19 181//19
f  188//19 187//19 186//19 185//19
f  192//19 191//19 190//19 189//19
f  196//19 195//19 194//19 193//19
f  200//19 199//19 198//19 197//19
f  204//19 203//19 202//19 201//19
f  208//19 207//19 206//19 205//19
f  212//19 211//19 210//19 209//19
f  216//19 215//19 214//19 213//19
f  172//22 218//22 217//22 171//22
f  176//22 220//22 219//22 175//22
f  180//22 222//22 221//22 179//22
f  184//22 224//22 223//22 183//22
f  188//22 226//22 225//22 187//22
f  192//22 228//22 227//22 191//22
f  196//22 230//22 229//22 195//22
f  200//22 232//22 231//22 199//22
f  204//22 234//22 233//22 203//22
f  208//22 236//22 235//22 207//22
f  212//22 238//22 237//22 211//22
f  216//22 240//22 239//22 215//22
f  244//23 243//23 242//23 241//23
f  240//13 242//13 243//13 239//13
f  248//23 247//23 246//23 245//23
f  238//13 246//13 247//13 237//13
f  252//23 251//23 250//23 249//23
f  236//13 250//13 251//13 235//13
f  256//23 255//23 254//23 253//23
f  234//13 254//13 255//13 233//13
f  260//23 259//23 258//23 257//23
f  232//13 258//13 259//13 231//13
f  264//23 263//23 262//23 261//23
f  230//13 262//13 263//13 229//13
f  268//23 267//23 266//23 265//23
f  228//13 266//13 267//13 227//13
f  272//23 271//23 270//23 269//23
f  226//13 270//13 271//13 225//13
f  276//23 275//23 274//23 273//23
f  224//13 274//13 275//13 223//13
f  280//23 279//23 278//23 277//23
f  222//13 278//13 279//13 221//13
f  284//23 283//23 282//23 281//23
f  220//13 282//13 283//13 219//13
f  288//23 287//23 286//23 285//23
f  218//13 286//13 287//13 217//13
f  288//18 285//18 289//18 290//18
f  284//18 281//18 291//18 292//18
f  280//18 277//18 293//18 294//18
f  276//18 273//18 295//18 296//18
f  272//18 269//18 297//18 298//18
f  268//18 265//18 299//18 300//18
f  264//18 261//18 301//18 302//18
f  260//18 257//18 303//18 304//18
f  256//18 253//18 305//18 306//18
f  252//18 249//18 307//18 308//18
f  248//18 245//18 309//18 310//18
f  244//18 241//18 311//18 312//18
f  8//10 14//24 15//25 7//11
f  6//4 16//26 13//27 5//5
f  4//9 18//28 14//24 8//10
f  5//5 13//27 17//29 1//6
f  2//3 19//30 16//26 6//4
f  7//11 15//25 20//31 3//12
f  10//2 21//32 19//30 2//3
f  3//12 20//31 22//33 11//7
f  11//34 22//34 21//34 10//34
f  9//35 23//35 24//35 12//35
f  12//8 24//36 18//28 4//9
f  1//6 17//29 23//37 9//1
f  165//38 169//38 170//38 168//38
f  168//39 170//39 171//40 116//41
f  113//42 172//43 169//44 165//44
f  161//38 173//38 174//38 164//38
f  164//45 174//45 175//46 108//47
f  105//48 176//49 173//50 161//50
f  157//38 177//38 178//38 160//38
f  160//51 178//51 179//52 100//53
f  97//54 180//55 177//56 157//56
f  153//38 181//38 182//38 156//38
f  156//57 182//57 183//58 92//59
f  89//60 184//61 181//62 153//62
f  149//38 185//38 186//38 152//38
f  152//63 186//63 187//64 84//65
f  81//66 188//67 185//68 149//68
f  145//38 189//38 190//38 148//38
f  148//39 190//39 191//40 76//41
f  73//69 192//70 189//71 145//71
f  141//38 193//38 194//38 144//38
f  144//39 194//39 195//40 68//41
f  65//72 196//73 193//74 141//74
f  137//38 197//38 198//38 140//38
f  140//75 198//75 199//76 60//77
f  57//78 200//79 197//80 137//80
f  133//38 201//38 202//38 136//38
f  136//81 202//81 203//82 52//83
f  49//66 204//67 201//68 133//68
f  129//38 205//38 206//38 132//38
f  132//39 206//39 207//40 44//41
f  41//84 208//85 205//86 129//86
f  125//38 209//38 210//38 128//38
f  128//39 210//39 211//40 36//41
f  33//87 212//88 209//89 125//89
f  121//38 213//38 214//38 124//38
f  124//90 214//90 215//91 28//92
f  25//93 216//94 213//95 121//95
f  116//41 171//40 217//96 120//97
f  117//98 218//99 172//43 113//42
f  108//47 175//46 219//100 112//101
f  109//102 220//103 176//49 105//48
f  100//53 179//52 221//104 104//105
f  101//106 222//107 180//55 97//54
f  92//59 183//58 223//108 96//109
f  93//110 224//111 184//61 89//60
f  84//65 187//64 225//112 88//113
f  85//114 226//115 188//67 81//66
f  76//41 191//40 227//96 80//97
f  77//116 228//117 192//70 73//69
f  68//41 195//40 229//96 72//97
f  69//118 230//119 196//73 65//72
f  60//77 199//76 231//120 64//121
f  61//122 232//123 200//79 57//78
f  52//83 203//82 233//124 56//125
f  53//114 234//115 204//67 49//66
f  44//41 207//40 235//96 48//97
f  45//126 236//127 208//85 41//84
f  36//41 211//40 237//96 40//97
f  37//128 238//129 212//88 33//87
f  28//92 215//91 239//130 32//131
f  29//132 240//133 216//94 25//93
f  26//134 241//135 242//136 30//137
f  31//138 243//139 244//140 27//141
f  32//131 239//130 243//139 31//138
f  30//137 242//136 240//133 29//132
f  34//142 245//143 246//144 38//145
f  39//146 247//147 248//148 35//149
f  40//97 237//96 247//147 39//146
f  38//145 246//144 238//129 37//128
f  42//150 249//151 250//152 46//153
f  47//146 251//147 252//148 43//149
f  48//97 235//96 251//147 47//146
f  46//153 250//152 236//127 45//126
f  50//154 253//155 254//156 54//157
f  55//158 255//159 256//160 51//161
f  56//125 233//124 255//159 55//158
f  54//157 254//156 234//115 53//114
f  58//162 257//163 258//164 62//165
f  63//166 259//167 260//168 59//169
f  64//121 231//120 259//167 63//166
f  62//165 258//164 232//123 61//122
f  66//170 261//171 262//172 70//173
f  71//146 263//147 264//148 67//149
f  72//97 229//96 263//147 71//146
f  70//173 262//172 230//119 69//118
f  74//174 265//175 266//176 78//177
f  79//146 267//147 268//148 75//149
f  80//97 227//96 267//147 79//146
f  78//177 266//176 228//117 77//116
f  82//154 269//155 270//156 86//157
f  87//178 271//179 272//180 83//181
f  88//113 225//112 271//179 87//178
f  86//157 270//156 226//115 85//114
f  90//182 273//183 274//184 94//185
f  95//186 275//187 276//188 91//189
f  96//109 223//108 275//187 95//186
f  94//185 274//184 224//111 93//110
f  98//190 277//191 278//192 102//193
f  103//194 279//195 280//196 99//197
f  104//105 221//104 279//195 103//194
f  102//193 278//192 222//107 101//106
f  106//198 281//199 282//200 110//201
f  111//202 283//203 284//204 107//205
f  112//101 219//100 283//203 111//202
f  110//201 282//200 220//103 109//102
f  114//206 285//207 286//208 118//209
f  119//146 287//147 288//148 115//149
f  120//97 217//96 287//147 119//146
f  118//209 286//208 218//99 117//98
f  166//210 289//210 285//207 114//206
f  115//149 288//148 290//211 167//211
f  167//212 290//212 289//212 166//212
f  162//213 291//213 281//199 106//198
f  107//205 284//204 292//214 163//214
f  163//212 292//212 291//212 162//212
f  158//215 293//215 277//191 98//190
f  99//197 280//196 294//216 159//216
f  159//212 294//212 293//212 158//212
f  154//217 295//217 273//183 90//182
f  91//189 276//188 296//218 155//218
f  155//212 296//212 295//212 154//212
f  150//219 297//219 269//155 82//154
f  83//181 272//180 298//220 151//220
f  151//212 298//212 297//212 150//212
f  146//221 299//221 265//175 74//174
f  75//149 268//148 300//211 147//211
f  147//212 300//212 299//212 146//212
f  142//222 301//222 261//171 66//170
f  67//149 264//148 302//211 143//211
f  143//212 302//212 301//212 142//212
f  138//223 303//223 257//163 58//162
f  59//169 260//168 304//224 139//224
f  139//212 304//212 303//212 138//212
f  134//219 305//219 253//155 50//154
f  51//161 256//160 306//225 135//225
f  135//212 306//212 305//212 134//212
f  130//226 307//226 249//151 42//150
f  43//149 252//148 308//211 131//211
f  131//212 308//212 307//212 130//212
f  126//227 309//227 245//143 34//142
f  35//149 248//148 310//211 127//211
f  127//212 310//212 309//212 126//212
f  122//228 311//228 241//135 26//134
f  27//141 244//140 312//229 123//229
f  123//212 312//212 311//212 122//212
