# 
# Wavefront OBJ file
# Converted by the DEEP Exploration 3.5.7.1088
# Right Hemisphere, LTD
# http://www.righthemisphere.com/
# 
# object Object #0
g Object__0
v 0.14 0.98 0
v 0.14 0.98 0.62
v 0.14 0.98 0.52
v 0.1164 0.98 0.62
v 0.1164 0.98 0.52
v 0.483491 -1.03049 0.62
v 0.45888 -1.06 0.62
v 0.45888 -1.06 0.52
v 0.483491 -1.03049 0.52
v 0.483968 -1.03644 0.62
v 0.483232 -1.04198 0.62
v 0.481381 -1.04699 0.62
v 0.478516 -1.05136 0.62
v 0.474734 -1.05496 0.62
v 0.470135 -1.05768 0.62
v 0.464817 -1.0594 0.62
v 0.464817 -1.0594 0.52
v 0.470135 -1.05768 0.52
v 0.474734 -1.05496 0.52
v 0.478516 -1.05136 0.52
v 0.481381 -1.04699 0.52
v 0.483232 -1.04198 0.52
v 0.483968 -1.03644 0.52
v 0.17965 0.194631 0.62
v 0.15434 0.165 0.62
v 0.17965 0.194631 0.52
v 0.15434 0.165 0.52
v 0.354901 -0.950291 0.62
v 0.329072 -0.98 0.62
v 0.354901 -0.950291 0.52
v 0.329072 -0.98 0.52
v 0.179986 0.188659 0.62
v 0.179118 0.183097 0.62
v 0.177149 0.178063 0.62
v 0.17418 0.173678 0.62
v 0.170313 0.17006 0.62
v 0.16565 0.167328 0.62
v 0.160292 0.165602 0.62
v 0.160292 0.165602 0.52
v 0.16565 0.167328 0.52
v 0.170313 0.17006 0.52
v 0.17418 0.173678 0.52
v 0.177149 0.178063 0.52
v 0.179118 0.183097 0.52
v 0.179986 0.188659 0.52
v 0.355132 -0.956279 0.62
v 0.354167 -0.961856 0.62
v 0.35211 -0.966902 0.62
v 0.349064 -0.971299 0.62
v 0.345134 -0.974927 0.62
v 0.340422 -0.977666 0.62
v 0.335034 -0.979397 0.62
v 0.335034 -0.979397 0.52
v 0.340422 -0.977666 0.52
v 0.345134 -0.974927 0.52
v 0.349064 -0.971299 0.52
v 0.35211 -0.966902 0.52
v 0.354167 -0.961856 0.52
v 0.355132 -0.956279 0.52
v 0.183744 0.055 0.62
v 0.217916 0.0252915 0.62
v 0.183744 0.055 0.52
v 0.217916 0.0252915 0.52
v 0.189875 0.0543965 0.62
v 0.19575 0.0526656 0.62
v 0.20123 0.0499266 0.62
v 0.206179 0.0462991 0.62
v 0.21046 0.0419024 0.62
v 0.213934 0.036856 0.62
v 0.216465 0.0312792 0.62
v 0.216465 0.0312792 0.52
v 0.213934 0.036856 0.52
v 0.21046 0.0419024 0.52
v 0.206179 0.0462991 0.52
v 0.20123 0.0499266 0.52
v 0.19575 0.0526656 0.52
v 0.189875 0.0543965 0.52
v 0.0364 0.91 0.62
v 0.0710909 0.880369 0.62
v 0.0364 0.91 0.52
v 0.0710909 0.880369 0.52
v 0.0425418 0.909398 0.62
v 0.0484466 0.907672 0.62
v 0.053975 0.90494 0.62
v 0.0589876 0.901322 0.62
v 0.0633449 0.896937 0.62
v 0.0669075 0.891903 0.62
v 0.069536 0.886341 0.62
v 0.069536 0.886341 0.52
v 0.0669075 0.891903 0.52
v 0.0633449 0.896937 0.52
v 0.0589876 0.901322 0.52
v 0.053975 0.90494 0.52
v 0.0484466 0.907672 0.52
v 0.0425418 0.909398 0.52
v 0.14 1.05 0.62
v 0.13 1.06 0.62
v 0.14 1.05 0
v 0.13 1.06 0
v 0.139797 1.05202 0.62
v 0.139214 1.05389 0.62
v 0.138292 1.05559 0.62
v 0.137071 1.05707 0.62
v 0.135591 1.05829 0.62
v 0.133893 1.05921 0.62
v 0.132015 1.0598 0.62
v 0.132015 1.0598 0
v 0.133893 1.05921 0
v 0.135591 1.05829 0
v 0.137071 1.05707 0
v 0.138292 1.05559 0
v 0.139214 1.05389 0
v 0.139797 1.05202 0
v -0.14 0.98 0
v -0.14 0.98 0.62
v -0.14 0.98 0.52
v -0.1164 0.98 0.62
v -0.1164 0.98 0.52
v -0.483491 -1.03049 0.62
v -0.45888 -1.06 0.62
v -0.45888 -1.06 0.52
v -0.483491 -1.03049 0.52
v -0.483968 -1.03644 0.62
v -0.483232 -1.04198 0.62
v -0.481381 -1.04699 0.62
v -0.478516 -1.05136 0.62
v -0.474734 -1.05496 0.62
v -0.470135 -1.05768 0.62
v -0.464817 -1.0594 0.62
v -0.464817 -1.0594 0.52
v -0.470135 -1.05768 0.52
v -0.474734 -1.05496 0.52
v -0.478516 -1.05136 0.52
v -0.481381 -1.04699 0.52
v -0.483232 -1.04198 0.52
v -0.483968 -1.03644 0.52
v -0.17965 0.194631 0.62
v -0.15434 0.165 0.62
v -0.17965 0.194631 0.52
v -0.15434 0.165 0.52
v -0.354901 -0.950291 0.62
v -0.329072 -0.98 0.62
v -0.354901 -0.950291 0.52
v -0.329072 -0.98 0.52
v -0.179986 0.188659 0.62
v -0.179118 0.183097 0.62
v -0.177149 0.178063 0.62
v -0.17418 0.173678 0.62
v -0.170313 0.17006 0.62
v -0.16565 0.167328 0.62
v -0.160292 0.165602 0.62
v -0.160292 0.165602 0.52
v -0.16565 0.167328 0.52
v -0.170313 0.17006 0.52
v -0.17418 0.173678 0.52
v -0.177149 0.178063 0.52
v -0.179118 0.183097 0.52
v -0.179986 0.188659 0.52
v -0.355132 -0.956279 0.62
v -0.354167 -0.961856 0.62
v -0.35211 -0.966902 0.62
v -0.349064 -0.971299 0.62
v -0.345134 -0.974927 0.62
v -0.340422 -0.977666 0.62
v -0.335034 -0.979397 0.62
v -0.335034 -0.979397 0.52
v -0.340422 -0.977666 0.52
v -0.345134 -0.974927 0.52
v -0.349064 -0.971299 0.52
v -0.35211 -0.966902 0.52
v -0.354167 -0.961856 0.52
v -0.355132 -0.956279 0.52
v -0.183744 0.055 0.62
v -0.217916 0.0252915 0.62
v -0.183744 0.055 0.52
v -0.217916 0.0252915 0.52
v -0.189875 0.0543965 0.62
v -0.19575 0.0526656 0.62
v -0.20123 0.0499266 0.62
v -0.206179 0.0462991 0.62
v -0.21046 0.0419024 0.62
v -0.213934 0.036856 0.62
v -0.216465 0.0312792 0.62
v -0.216465 0.0312792 0.52
v -0.213934 0.036856 0.52
v -0.21046 0.0419024 0.52
v -0.206179 0.0462991 0.52
v -0.20123 0.0499266 0.52
v -0.19575 0.0526656 0.52
v -0.189875 0.0543965 0.52
v -0.0364 0.91 0.62
v -0.0710909 0.880369 0.62
v -0.0364 0.91 0.52
v -0.0710909 0.880369 0.52
v -0.0425418 0.909398 0.62
v -0.0484466 0.907672 0.62
v -0.053975 0.90494 0.62
v -0.0589876 0.901322 0.62
v -0.0633449 0.896937 0.62
v -0.0669075 0.891903 0.62
v -0.069536 0.886341 0.62
v -0.069536 0.886341 0.52
v -0.0669075 0.891903 0.52
v -0.0633449 0.896937 0.52
v -0.0589876 0.901322 0.52
v -0.053975 0.90494 0.52
v -0.0484466 0.907672 0.52
v -0.0425418 0.909398 0.52
v -0.14 1.05 0.62
v -0.13 1.06 0.62
v -0.14 1.05 0
v -0.13 1.06 0
v -0.139797 1.05202 0.62
v -0.139214 1.05389 0.62
v -0.138292 1.05559 0.62
v -0.137071 1.05707 0.62
v -0.135591 1.05829 0.62
v -0.133893 1.05921 0.62
v -0.132015 1.0598 0.62
v -0.132015 1.0598 0
v -0.133893 1.05921 0
v -0.135591 1.05829 0
v -0.137071 1.05707 0
v -0.138292 1.05559 0
v -0.139214 1.05389 0
v -0.139797 1.05202 0
v 0 -1.06 0.62
v 0 -1.06 0.52
v 0 -0.98 0.62
v 0 -0.98 0.52
v 0 0.055 0.62
v 0 0.055 0.52
v 0 0.165 0.62
v 0 0.165 0.52
v 0 0.98 0
v 0 1.06 0
v 0 0.98 0.62
v 0 1.06 0.62
v 0 0.98 0.52
v 0 0.91 0.62
v 0 0.91 0.52
# 241 verticies
vn 0 -1 0
vn 0.989205 0.146536 0
vn 0.983736 0.179619 0
vn 0.993566 0.113251 0
vn 0.0335265 -0.999438 0
vn 0.0670531 -0.997749 0
vn 0.998106 -0.0615254 0
vn 0.999956 0.00937552 0
vn 0.961076 -0.276286 0
vn 0.97889 -0.204386 0
vn 0.875116 -0.483914 0
vn 0.90932 -0.416098 0
vn 0.742908 -0.669394 0
vn 0.791949 -0.610587 0
vn 0.239802 -0.970822 0
vn 0.170386 -0.985377 0
vn 0.444421 -0.895818 0
vn 0.376889 -0.926258 0
vn 0.633233 -0.773961 0
vn 0.572664 -0.81979 0
vn -0.0335818 0.999436 0
vn 0 1 0
vn -0.0671635 0.997742 0
vn -0.0336093 0.999435 0
vn -0.0672187 0.997738 0
vn -0.995972 -0.0896695 0
vn -0.996431 0.0844088 0
vn -0.999902 0.0139793 0
vn -0.992394 -0.123104 0
vn -0.955252 0.295793 0
vn -0.97428 0.225343 0
vn -0.867226 0.497915 0
vn -0.901818 0.432115 0
vn -0.735572 0.677447 0
vn -0.784129 0.620598 0
vn -0.239175 0.970976 0
vn -0.170153 0.985418 0
vn -0.441522 0.897251 0
vn -0.374913 0.92706 0
vn -0.627391 0.778704 0
vn -0.567811 0.823159 0
vn -0.997392 -0.0721678 0
vn -0.994858 0.101279 0
vn -0.999512 0.0312421 0
vn -0.994399 -0.105687 0
vn -0.950707 0.310089 0
vn -0.970593 0.240726 0
vn -0.86126 0.508164 0
vn -0.896108 0.443836 0
vn -0.730062 0.683381 0
vn -0.778255 0.627948 0
vn -0.238628 0.971111 0
vn -0.169919 0.985458 0
vn -0.439276 0.898352 0
vn -0.373349 0.927691 0
vn -0.622985 0.782234 0
vn -0.56413 0.825686 0
vn -0.0653762 -0.997861 0
vn -0.0326881 -0.999466 0
vn -0.985211 -0.171346 0
vn -0.979076 -0.203494 0
vn -0.221951 -0.975058 0
vn -0.160149 -0.987093 0
vn -0.393605 -0.91928 0
vn -0.338613 -0.940926 0
vn -0.544852 -0.838532 0
vn -0.496657 -0.867947 0
vn -0.676809 -0.736159 0
vn -0.634898 -0.772596 0
vn -0.934723 -0.355378 0
vn -0.955235 -0.295849 0
vn -0.855619 -0.517607 0
vn -0.884701 -0.466159 0
vn -0.754625 -0.656156 0
vn -0.790456 -0.612519 0
vn -0.0650967 -0.997879 0
vn -0.0325484 -0.99947 0
vn -0.982087 -0.188427 0
vn -0.975426 -0.220325 0
vn 0 0 1
vn 0 0 -1
vn -0.220449 -0.975399 0
vn -0.159185 -0.987249 0
vn -0.390196 -0.920732 0
vn -0.335885 -0.941903 0
vn -0.539499 -0.841987 0
vn -0.491933 -0.870633 0
vn -0.669977 -0.742382 0
vn -0.628489 -0.777818 0
vn -0.928931 -0.370254 0
vn -0.950215 -0.311595 0
vn -0.848397 -0.529361 0
vn -0.877798 -0.479031 0
vn -0.747273 -0.664517 0
vn -0.783007 -0.622014 0
vn 1 0 0
vn 0.997758 0.0669323 0
vn 0.99944 0.0334662 0
vn 0.0334635 0.99944 0
vn 0.0669269 0.997758 0
vn 0.972696 0.232082 0
vn 0.986057 0.166409 0
vn 0.908163 0.418616 0
vn 0.933661 0.358158 0
vn 0.81054 0.585683 0
vn 0.846531 0.532339 0
vn 0.684173 0.729319 0
vn 0.729338 0.684154 0
vn 0.2321 0.972692 0
vn 0.166414 0.986056 0
vn 0.418594 0.908174 0
vn 0.358162 0.93366 0
vn 0.585683 0.81054 0
vn 0.532317 0.846545 0
vn -0.983736 0.179619 0
vn -0.989205 0.146536 0
vn -0.993566 0.113251 0
vn -0.0335265 -0.999438 0
vn -0.0670531 -0.997749 0
vn -0.999956 0.00937552 0
vn -0.998106 -0.0615254 0
vn -0.97889 -0.204386 0
vn -0.961076 -0.276286 0
vn -0.90932 -0.416098 0
vn -0.875116 -0.483914 0
vn -0.791949 -0.610587 0
vn -0.742908 -0.669394 0
vn -0.170386 -0.985377 0
vn -0.239802 -0.970822 0
vn -0.376889 -0.926258 0
vn -0.444421 -0.895818 0
vn -0.572664 -0.81979 0
vn -0.633233 -0.773961 0
vn 0.0335818 0.999436 0
vn 0.0671635 0.997742 0
vn 0.0336093 0.999435 0
vn 0.0672187 0.997738 0
vn 0.999902 0.0139793 0
vn 0.996431 0.0844088 0
vn 0.995972 -0.0896695 0
vn 0.992394 -0.123104 0
vn 0.97428 0.225343 0
vn 0.955252 0.295793 0
vn 0.901818 0.432115 0
vn 0.867226 0.497915 0
vn 0.784129 0.620598 0
vn 0.735572 0.677447 0
vn 0.170153 0.985418 0
vn 0.239175 0.970976 0
vn 0.374913 0.92706 0
vn 0.441522 0.897251 0
vn 0.567811 0.823159 0
vn 0.627391 0.778704 0
vn 0.999512 0.0312421 0
vn 0.994858 0.101279 0
vn 0.997392 -0.0721678 0
vn 0.994399 -0.105687 0
vn 0.970593 0.240726 0
vn 0.950707 0.310089 0
vn 0.896108 0.443836 0
vn 0.86126 0.508164 0
vn 0.778255 0.627948 0
vn 0.730062 0.683381 0
vn 0.169919 0.985458 0
vn 0.238628 0.971111 0
vn 0.373349 0.927691 0
vn 0.439276 0.898352 0
vn 0.56413 0.825686 0
vn 0.622985 0.782234 0
vn 0.0326881 -0.999466 0
vn 0.0653762 -0.997861 0
vn 0.985211 -0.171346 0
vn 0.979076 -0.203494 0
vn 0.160149 -0.987093 0
vn 0.221951 -0.975058 0
vn 0.338613 -0.940926 0
vn 0.393605 -0.91928 0
vn 0.496657 -0.867947 0
vn 0.544852 -0.838532 0
vn 0.634898 -0.772596 0
vn 0.676809 -0.736159 0
vn 0.955235 -0.295849 0
vn 0.934723 -0.355378 0
vn 0.884701 -0.466159 0
vn 0.855619 -0.517607 0
vn 0.790456 -0.612519 0
vn 0.754625 -0.656156 0
vn 0.0325484 -0.99947 0
vn 0.0650967 -0.997879 0
vn 0.982087 -0.188427 0
vn 0.975426 -0.220325 0
vn 0.159185 -0.987249 0
vn 0.220449 -0.975399 0
vn 0.335885 -0.941903 0
vn 0.390196 -0.920732 0
vn 0.491933 -0.870633 0
vn 0.539499 -0.841987 0
vn 0.628489 -0.777818 0
vn 0.669977 -0.742382 0
vn 0.950215 -0.311595 0
vn 0.928931 -0.370254 0
vn 0.877798 -0.479031 0
vn 0.848397 -0.529361 0
vn 0.783007 -0.622014 0
vn 0.747273 -0.664517 0
vn -0.99944 0.0334662 0
vn -0.997758 0.0669323 0
vn -1 0 0
vn -0.0334635 0.99944 0
vn -0.0669269 0.997758 0
vn -0.986057 0.166409 0
vn -0.972696 0.232082 0
vn -0.933661 0.358158 0
vn -0.908163 0.418616 0
vn -0.846531 0.532339 0
vn -0.81054 0.585683 0
vn -0.729338 0.684154 0
vn -0.684173 0.729319 0
vn -0.166414 0.986056 0
vn -0.2321 0.972692 0
vn -0.358162 0.93366 0
vn -0.418594 0.908174 0
vn -0.532317 0.846545 0
vn -0.585683 0.81054 0
# 224 normals
f  2//1 4//1 5//1 3//1
f  239//1 235//1 1//1 3//1
f  9//2 5//3 4//3 6//4
f  7//5 227//1 228//1 8//6
f  6//4 10//7 23//8 9//2
f  10//7 11//9 22//10 23//8
f  11//9 12//11 21//12 22//10
f  12//11 13//13 20//14 21//12
f  8//6 17//15 16//16 7//5
f  17//15 18//17 15//18 16//16
f  18//17 19//19 14//20 15//18
f  19//19 20//14 13//13 14//20
f  27//21 234//22 233//22 25//23
f  31//24 230//22 229//22 29//25
f  26//26 45//27 32//28 24//29
f  45//27 44//30 33//31 32//28
f  44//30 43//32 34//33 33//31
f  43//32 42//34 35//35 34//33
f  25//23 38//36 39//37 27//21
f  38//36 37//38 40//39 39//37
f  37//38 36//40 41//41 40//39
f  36//40 35//35 42//34 41//41
f  30//42 59//43 46//44 28//45
f  59//43 58//46 47//47 46//44
f  58//46 57//48 48//49 47//47
f  57//48 56//50 49//51 48//49
f  29//25 52//52 53//53 31//24
f  52//52 51//54 54//55 53//53
f  51//54 50//56 55//57 54//55
f  50//56 49//51 56//50 55//57
f  232//1 62//58 60//59 231//1
f  63//60 30//42 28//45 61//61
f  62//58 77//62 64//63 60//59
f  77//62 76//64 65//65 64//63
f  76//64 75//66 66//67 65//65
f  75//66 74//68 67//69 66//67
f  61//61 70//70 71//71 63//60
f  70//70 69//72 72//73 71//71
f  69//72 68//74 73//75 72//73
f  68//74 67//69 74//68 73//75
f  241//1 80//76 78//77 240//1
f  81//78 26//26 24//29 79//79
f  7//80 16//80 15//80 14//80 13//80 12//80 11//80 10//80 6//80 4//80\
237//80 240//80 78//80 82//80 83//80 84//80 85//80 86//80 87//80\
88//80 79//80 24//80 32//80 33//80 34//80 35//80 36//80 37//80 38//80\
25//80 233//80 231//80 60//80 64//80 65//80 66//80 67//80 68//80\
69//80 70//80 61//80 28//80 46//80 47//80 48//80 49//80 50//80 51//80\
52//80 29//80 229//80 227//80
f  27//81 39//81 40//81 41//81 42//81 43//81 44//81 45//81 26//81\
81//81 89//81 90//81 91//81 92//81 93//81 94//81 95//81 80//81 241//81\
239//81 5//81 9//81 23//81 22//81 21//81 20//81 19//81 18//81 17//81\
8//81 228//81 230//81 31//81 53//81 54//81 55//81 56//81 57//81 58//81\
59//81 30//81 63//81 71//81 72//81 73//81 74//81 75//81 76//81 77//81\
62//81 232//81 234//81
f  80//76 95//82 82//83 78//77
f  95//82 94//84 83//85 82//83
f  94//84 93//86 84//87 83//85
f  93//86 92//88 85//89 84//87
f  79//79 88//90 89//91 81//78
f  88//90 87//92 90//93 89//91
f  87//92 86//94 91//95 90//93
f  86//94 85//89 92//88 91//95
f  1//96 98//97 96//98 2//96
f  99//99 236//22 238//22 97//100
f  1//81 235//81 236//81 99//81 107//81 108//81 109//81 110//81\
111//81 112//81 113//81 98//81
f  238//80 237//80 2//80 96//80 100//80 101//80 102//80 103//80\
104//80 105//80 106//80 97//80
f  98//97 113//101 100//102 96//98
f  113//101 112//103 101//104 100//102
f  112//103 111//105 102//106 101//104
f  111//105 110//107 103//108 102//106
f  97//100 106//109 107//110 99//99
f  106//109 105//111 108//112 107//110
f  105//111 104//113 109//114 108//112
f  104//113 103//108 110//107 109//114
f  118//1 117//1 115//1 116//1
f  114//1 235//1 239//1 116//1
f  117//115 118//115 122//116 119//117
f  228//1 227//1 120//118 121//119
f  136//120 123//121 119//117 122//116
f  135//122 124//123 123//121 136//120
f  134//124 125//125 124//123 135//122
f  133//126 126//127 125//125 134//124
f  129//128 130//129 121//119 120//118
f  128//130 131//131 130//129 129//128
f  127//132 132//133 131//131 128//130
f  126//127 133//126 132//133 127//132
f  233//22 234//22 140//134 138//135
f  229//22 230//22 144//136 142//137
f  145//138 158//139 139//140 137//141
f  146//142 157//143 158//139 145//138
f  147//144 156//145 157//143 146//142
f  148//146 155//147 156//145 147//144
f  152//148 151//149 138//135 140//134
f  153//150 150//151 151//149 152//148
f  154//152 149//153 150//151 153//150
f  155//147 148//146 149//153 154//152
f  159//154 172//155 143//156 141//157
f  160//158 171//159 172//155 159//154
f  161//160 170//161 171//159 160//158
f  162//162 169//163 170//161 161//160
f  166//164 165//165 142//137 144//136
f  167//166 164//167 165//165 166//164
f  168//168 163//169 164//167 167//166
f  169//163 162//162 163//169 168//168
f  173//170 175//171 232//1 231//1
f  141//157 143//156 176//172 174//173
f  177//174 190//175 175//171 173//170
f  178//176 189//177 190//175 177//174
f  179//178 188//179 189//177 178//176
f  180//180 187//181 188//179 179//178
f  184//182 183//183 174//173 176//172
f  185//184 182//185 183//183 184//182
f  186//186 181//187 182//185 185//184
f  187//181 180//180 181//187 186//186
f  191//188 193//189 241//1 240//1
f  137//141 139//140 194//190 192//191
f  229//80 142//80 165//80 164//80 163//80 162//80 161//80 160//80\
159//80 141//80 174//80 183//80 182//80 181//80 180//80 179//80\
178//80 177//80 173//80 231//80 233//80 138//80 151//80 150//80\
149//80 148//80 147//80 146//80 145//80 137//80 192//80 201//80\
200//80 199//80 198//80 197//80 196//80 195//80 191//80 240//80\
237//80 117//80 119//80 123//80 124//80 125//80 126//80 127//80\
128//80 129//80 120//80 227//80
f  232//81 175//81 190//81 189//81 188//81 187//81 186//81 185//81\
184//81 176//81 143//81 172//81 171//81 170//81 169//81 168//81\
167//81 166//81 144//81 230//81 228//81 121//81 130//81 131//81\
132//81 133//81 134//81 135//81 136//81 122//81 118//81 239//81\
241//81 193//81 208//81 207//81 206//81 205//81 204//81 203//81\
202//81 194//81 139//81 158//81 157//81 156//81 155//81 154//81\
153//81 152//81 140//81 234//81
f  195//192 208//193 193//189 191//188
f  196//194 207//195 208//193 195//192
f  197//196 206//197 207//195 196//194
f  198//198 205//199 206//197 197//196
f  202//200 201//201 192//191 194//190
f  203//202 200//203 201//201 202//200
f  204//204 199//205 200//203 203//202
f  205//199 198//198 199//205 204//204
f  209//206 211//207 114//208 115//208
f  238//22 236//22 212//209 210//210
f  226//81 225//81 224//81 223//81 222//81 221//81 220//81 212//81\
236//81 235//81 114//81 211//81
f  219//80 218//80 217//80 216//80 215//80 214//80 213//80 209//80\
115//80 237//80 238//80 210//80
f  213//211 226//212 211//207 209//206
f  214//213 225//214 226//212 213//211
f  215//215 224//216 225//214 214//213
f  216//217 223//218 224//216 215//215
f  220//219 219//220 210//210 212//209
f  221//221 218//222 219//220 220//219
f  222//223 217//224 218//222 221//221
f  223//218 216//217 217//224 222//223
