# 
# Wavefront OBJ file
# Converted by the DEEP Exploration 3.5.7.1088
# Right Hemisphere, LTD
# http://www.righthemisphere.com/
# 
# object Object #0
g Object__0
v 0.5 -1.08 0
v 0.5 1.08 0
v 0.5 -1.08 0.14
v 0.5 1.08 0.14
v 0.46 1.04 0.14
v 0.46 -1.04 0.14
v 0.46 1.04 0.1
v 0.46 -1.04 0.1
v 0.46 0.9 0.1
v 0.46 0.94 0.1
v 0.46 0.9 0.125
v 0.46 0.94 0.125
v 0.46 0.5 0.1
v 0.46 0.54 0.1
v 0.46 0.5 0.125
v 0.46 0.54 0.125
v 0.46 0.1 0.1
v 0.46 0.14 0.1
v 0.46 0.1 0.125
v 0.46 0.14 0.125
v 0.46 -0.3 0.1
v 0.46 -0.26 0.1
v 0.46 -0.3 0.125
v 0.46 -0.26 0.125
v 0.46 -0.7 0.1
v 0.46 -0.66 0.1
v 0.46 -0.7 0.125
v 0.46 -0.66 0.125
v 0.25 1.039 0.1
v 0.25 -1.039 0.1
v 0.306 -1.039 0.1
v 0.306 1.039 0.1
v 0.25 1.039 0.143
v 0.25 -1.039 0.143
v 0.306 -1.039 0.143
v 0.306 1.039 0.143
v -0.5 -1.08 0
v -0.5 1.08 0
v -0.5 -1.08 0.14
v -0.5 1.08 0.14
v -0.46 1.04 0.14
v -0.46 -1.04 0.14
v -0.46 1.04 0.1
v -0.46 -1.04 0.1
v -0.46 0.9 0.1
v -0.46 0.94 0.1
v -0.46 0.9 0.125
v -0.46 0.94 0.125
v -0.46 0.5 0.1
v -0.46 0.54 0.1
v -0.46 0.5 0.125
v -0.46 0.54 0.125
v -0.46 0.1 0.1
v -0.46 0.14 0.1
v -0.46 0.1 0.125
v -0.46 0.14 0.125
v -0.46 -0.3 0.1
v -0.46 -0.26 0.1
v -0.46 -0.3 0.125
v -0.46 -0.26 0.125
v -0.46 -0.7 0.1
v -0.46 -0.66 0.1
v -0.46 -0.7 0.125
v -0.46 -0.66 0.125
v -0.25 1.039 0.1
v -0.25 -1.039 0.1
v -0.306 -1.039 0.1
v -0.306 1.039 0.1
v -0.25 1.039 0.143
v -0.25 -1.039 0.143
v -0.306 -1.039 0.143
v -0.306 1.039 0.143
v 0 -1.08 0
v 0 -1.08 0.14
v 0 -1.04 0.1
v 0 -1.04 0.14
v 0 -0.7 0.1
v 0 -0.66 0.1
v 0 -0.7 0.125
v 0 -0.66 0.125
v 0 -0.3 0.1
v 0 -0.3 0.125
v 0 -0.26 0.1
v 0 -0.26 0.125
v 0 0.1 0.1
v 0 0.14 0.1
v 0 0.1 0.125
v 0 0.14 0.125
v 0 0.5 0.1
v 0 0.54 0.1
v 0 0.5 0.125
v 0 0.54 0.125
v 0 1.08 0
v 0 1.08 0.14
v 0 1.04 0.1
v 0 1.04 0.14
v 0 0.9 0.1
v 0 0.94 0.1
v 0 0.9 0.125
v 0 0.94 0.125
v 0.2 -0.14 0.1
v 0.2 -0.01 0.1
v 0.2 -0.14 0.16
v 0.2 -0.01 0.16
v 0.08 -0.14 0.1
v 0.08 -0.01 0.1
v 0.08 -0.14 0.16
v 0.08 -0.01 0.16
v 0.06 -1.04 0.1
v 0.06 -0.91 0.1
v 0.06 -1.04 0.16
v 0.06 -0.91 0.16
v 0.2 0.66 0.1
v 0.2 0.79 0.1
v 0.2 0.66 0.16
v 0.2 0.79 0.16
v 0.08 0.66 0.1
v 0.08 0.79 0.1
v 0.08 0.66 0.16
v 0.08 0.79 0.16
v -0.2 -0.14 0.1
v -0.2 -0.01 0.1
v -0.2 -0.14 0.16
v -0.2 -0.01 0.16
v -0.08 -0.14 0.1
v -0.08 -0.01 0.1
v -0.08 -0.14 0.16
v -0.08 -0.01 0.16
v -0.06 -1.04 0.1
v -0.06 -0.91 0.1
v -0.06 -1.04 0.16
v -0.06 -0.91 0.16
v -0.2 0.66 0.1
v -0.2 0.79 0.1
v -0.2 0.66 0.16
v -0.2 0.79 0.16
v -0.08 0.66 0.1
v -0.08 0.79 0.1
v -0.08 0.66 0.16
v -0.08 0.79 0.16
# 140 verticies
vn 1 0 0
vn 0 0 1
vn -1 0 0
vn 0 0 -1
vn 0 -1 0
vn 0 1 0
# 6 normals
f  2//1 4//1 3//1 1//1
f  4//2 5//2 6//2 3//2
f  6//3 5//3 7//3 8//3
f  10//1 12//1 11//1 9//1
f  14//1 16//1 15//1 13//1
f  18//1 20//1 19//1 17//1
f  22//1 24//1 23//1 21//1
f  26//1 28//1 27//1 25//1
f  32//4 31//4 30//4 29//4
f  30//3 34//3 33//3 29//3
f  31//5 35//5 34//5 30//5
f  36//1 35//1 31//1 32//1
f  33//6 36//6 32//6 29//6
f  34//2 35//2 36//2 33//2
f  1//4 73//4 93//4 2//4
f  74//5 73//5 1//5 3//5
f  2//6 93//6 94//6 4//6
f  95//2 75//2 8//2 7//2
f  6//2 76//2 74//2 3//2
f  96//2 5//2 4//2 94//2
f  8//6 75//6 76//6 6//6
f  5//5 96//5 95//5 7//5
f  9//4 97//4 98//4 10//4
f  99//5 97//5 9//5 11//5
f  10//6 98//6 100//6 12//6
f  100//2 99//2 11//2 12//2
f  13//4 89//4 90//4 14//4
f  91//5 89//5 13//5 15//5
f  14//6 90//6 92//6 16//6
f  92//2 91//2 15//2 16//2
f  17//4 85//4 86//4 18//4
f  87//5 85//5 17//5 19//5
f  18//6 86//6 88//6 20//6
f  88//2 87//2 19//2 20//2
f  21//4 81//4 83//4 22//4
f  82//5 81//5 21//5 23//5
f  22//6 83//6 84//6 24//6
f  84//2 82//2 23//2 24//2
f  25//4 77//4 78//4 26//4
f  79//5 77//5 25//5 27//5
f  26//6 78//6 80//6 28//6
f  80//2 79//2 27//2 28//2
f  39//3 40//3 38//3 37//3
f  42//2 41//2 40//2 39//2
f  43//1 41//1 42//1 44//1
f  47//3 48//3 46//3 45//3
f  51//3 52//3 50//3 49//3
f  55//3 56//3 54//3 53//3
f  59//3 60//3 58//3 57//3
f  63//3 64//3 62//3 61//3
f  66//4 67//4 68//4 65//4
f  69//1 70//1 66//1 65//1
f  70//5 71//5 67//5 66//5
f  67//3 71//3 72//3 68//3
f  68//6 72//6 69//6 65//6
f  72//2 71//2 70//2 69//2
f  93//4 73//4 37//4 38//4
f  37//5 73//5 74//5 39//5
f  94//6 93//6 38//6 40//6
f  44//2 75//2 95//2 43//2
f  74//2 76//2 42//2 39//2
f  40//2 41//2 96//2 94//2
f  76//6 75//6 44//6 42//6
f  95//5 96//5 41//5 43//5
f  98//4 97//4 45//4 46//4
f  45//5 97//5 99//5 47//5
f  100//6 98//6 46//6 48//6
f  47//2 99//2 100//2 48//2
f  90//4 89//4 49//4 50//4
f  49//5 89//5 91//5 51//5
f  92//6 90//6 50//6 52//6
f  51//2 91//2 92//2 52//2
f  86//4 85//4 53//4 54//4
f  53//5 85//5 87//5 55//5
f  88//6 86//6 54//6 56//6
f  55//2 87//2 88//2 56//2
f  83//4 81//4 57//4 58//4
f  57//5 81//5 82//5 59//5
f  84//6 83//6 58//6 60//6
f  59//2 82//2 84//2 60//2
f  78//4 77//4 61//4 62//4
f  61//5 77//5 79//5 63//5
f  80//6 78//6 62//6 64//6
f  63//2 79//2 80//2 64//2
f  129//4 130//4 110//4 109//4
f  131//5 129//5 109//5 111//5
f  130//6 132//6 112//6 110//6
f  132//2 131//2 111//2 112//2
f  110//1 112//1 111//1 109//1
f  115//2 116//2 120//2 119//2
f  116//6 114//6 118//6 120//6
f  113//5 115//5 119//5 117//5
f  114//4 113//4 117//4 118//4
f  103//2 104//2 108//2 107//2
f  104//6 102//6 106//6 108//6
f  101//5 103//5 107//5 105//5
f  102//4 101//4 105//4 106//4
f  119//3 120//3 118//3 117//3
f  114//1 116//1 115//1 113//1
f  107//3 108//3 106//3 105//3
f  102//1 104//1 103//1 101//1
f  131//3 132//3 130//3 129//3
f  140//2 136//2 135//2 139//2
f  138//6 134//6 136//6 140//6
f  139//5 135//5 133//5 137//5
f  137//4 133//4 134//4 138//4
f  128//2 124//2 123//2 127//2
f  126//6 122//6 124//6 128//6
f  127//5 123//5 121//5 125//5
f  125//4 121//4 122//4 126//4
f  138//1 140//1 139//1 137//1
f  135//3 136//3 134//3 133//3
f  126//1 128//1 127//1 125//1
f  123//3 124//3 122//3 121//3
