# 
# Wavefront OBJ file
# Converted by the DEEP Exploration 3.5.7.1088
# Right Hemisphere, LTD
# http://www.righthemisphere.com/
# 
# object Object #0
g Object__0
v 0 0.240509 0.632912
v 0 -0.240509 0.632912
v 0 -0.075943 0.632912
v 0 0.075943 0.632912
v 0 -0.126587 0.316452
v 0 0.126587 0.316452
v 0 0.075943 0.316452
v 0 -0.075943 0.316452
v 0 -0.240509 0.696198
v 0 0.240509 0.696198
v 0 -0.259491 0
v 0 0.259491 0
v -0.291138 0.216509 0.632912
v -0.267138 0.240509 0.632912
v -0.291138 0.216509 0.696198
v -0.267138 0.240509 0.696198
v -0.164551 0.051943 0.316452
v -0.140551 0.075943 0.316452
v -0.164551 0.051943 0.632912
v -0.140551 0.075943 0.632912
v -0.5 0.234349 0
v -0.468813 0.259491 0
v -0.215195 0.101445 0.316452
v -0.184008 0.126587 0.316452
v -0.29028 0.22289 0.632912
v -0.287861 0.228623 0.632912
v -0.284109 0.23348 0.632912
v -0.279251 0.237233 0.632912
v -0.273518 0.239652 0.632912
v -0.163694 0.0583235 0.316452
v -0.161274 0.0640568 0.316452
v -0.157522 0.068914 0.316452
v -0.152665 0.0726665 0.316452
v -0.146931 0.0750858 0.316452
v -0.498886 0.241033 0
v -0.495742 0.247039 0
v -0.490866 0.252127 0
v -0.484555 0.256059 0
v -0.477105 0.258593 0
v -0.163694 0.0583235 0.632912
v -0.161274 0.0640568 0.632912
v -0.157522 0.068914 0.632912
v -0.152665 0.0726665 0.632912
v -0.146931 0.0750858 0.632912
v -0.214081 0.108129 0.316452
v -0.210937 0.114135 0.316452
v -0.206061 0.119223 0.316452
v -0.199749 0.123155 0.316452
v -0.192299 0.125689 0.316452
v -0.273518 0.239652 0.696198
v -0.279251 0.237233 0.696198
v -0.284109 0.23348 0.696198
v -0.287861 0.228623 0.696198
v -0.29028 0.22289 0.696198
v -0.267138 -0.240509 0.696198
v -0.291138 -0.216509 0.696198
v -0.267138 -0.240509 0.632912
v -0.291138 -0.216509 0.632912
v -0.140551 -0.075943 0.632912
v -0.164551 -0.051943 0.632912
v -0.140551 -0.075943 0.316452
v -0.164551 -0.051943 0.316452
v -0.468813 -0.259491 0
v -0.5 -0.234349 0
v -0.184008 -0.126587 0.316452
v -0.215195 -0.101445 0.316452
v -0.273518 -0.239652 0.632912
v -0.279251 -0.237233 0.632912
v -0.284109 -0.23348 0.632912
v -0.287861 -0.228623 0.632912
v -0.29028 -0.22289 0.632912
v -0.146931 -0.0750858 0.316452
v -0.152665 -0.0726665 0.316452
v -0.157522 -0.068914 0.316452
v -0.161274 -0.0640568 0.316452
v -0.163694 -0.0583235 0.316452
v -0.477105 -0.258593 0
v -0.484555 -0.256059 0
v -0.490866 -0.252127 0
v -0.495742 -0.247039 0
v -0.498886 -0.241033 0
v -0.29028 -0.22289 0.696198
v -0.287861 -0.228623 0.696198
v -0.284109 -0.23348 0.696198
v -0.279251 -0.237233 0.696198
v -0.273518 -0.239652 0.696198
v -0.163694 -0.0583235 0.632912
v -0.161274 -0.0640568 0.632912
v -0.157522 -0.068914 0.632912
v -0.152665 -0.0726665 0.632912
v -0.146931 -0.0750858 0.632912
v -0.214081 -0.108129 0.316452
v -0.210937 -0.114135 0.316452
v -0.206061 -0.119223 0.316452
v -0.199749 -0.123155 0.316452
v -0.192299 -0.125689 0.316452
v 0.291138 0.216509 0.696198
v 0.267138 0.240509 0.696198
v 0.291138 0.216509 0.632912
v 0.267138 0.240509 0.632912
v 0.164551 0.051943 0.632912
v 0.140551 0.075943 0.632912
v 0.164551 0.051943 0.316452
v 0.140551 0.075943 0.316452
v 0.215195 0.101445 0.316452
v 0.184008 0.126587 0.316452
v 0.5 0.234349 0
v 0.468813 0.259491 0
v 0.29028 0.22289 0.696198
v 0.287861 0.228623 0.696198
v 0.284109 0.23348 0.696198
v 0.279251 0.237233 0.696198
v 0.273518 0.239652 0.696198
v 0.163694 0.0583235 0.632912
v 0.161274 0.0640568 0.632912
v 0.157522 0.068914 0.632912
v 0.152665 0.0726665 0.632912
v 0.146931 0.0750858 0.632912
v 0.214081 0.108129 0.316452
v 0.210937 0.114135 0.316452
v 0.206061 0.119223 0.316452
v 0.199749 0.123155 0.316452
v 0.192299 0.125689 0.316452
v 0.29028 0.22289 0.632912
v 0.287861 0.228623 0.632912
v 0.284109 0.23348 0.632912
v 0.279251 0.237233 0.632912
v 0.273518 0.239652 0.632912
v 0.163694 0.0583235 0.316452
v 0.161274 0.0640568 0.316452
v 0.157522 0.068914 0.316452
v 0.152665 0.0726665 0.316452
v 0.146931 0.0750858 0.316452
v 0.477105 0.258593 0
v 0.484555 0.256059 0
v 0.490866 0.252127 0
v 0.495742 0.247039 0
v 0.498886 0.241033 0
v 0.267138 -0.240509 0.696198
v 0.291138 -0.216509 0.696198
v 0.267138 -0.240509 0.632912
v 0.291138 -0.216509 0.632912
v 0.140551 -0.075943 0.632912
v 0.164551 -0.051943 0.632912
v 0.140551 -0.075943 0.316452
v 0.164551 -0.051943 0.316452
v 0.468813 -0.259491 0
v 0.5 -0.234349 0
v 0.184008 -0.126587 0.316452
v 0.215195 -0.101445 0.316452
v 0.273518 -0.239652 0.696198
v 0.279251 -0.237233 0.696198
v 0.284109 -0.23348 0.696198
v 0.287861 -0.228623 0.696198
v 0.29028 -0.22289 0.696198
v 0.146931 -0.0750858 0.632912
v 0.152665 -0.0726665 0.632912
v 0.157522 -0.068914 0.632912
v 0.161274 -0.0640568 0.632912
v 0.163694 -0.0583235 0.632912
v 0.192299 -0.125689 0.316452
v 0.199749 -0.123155 0.316452
v 0.206061 -0.119223 0.316452
v 0.210937 -0.114135 0.316452
v 0.214081 -0.108129 0.316452
v 0.29028 -0.22289 0.632912
v 0.287861 -0.228623 0.632912
v 0.284109 -0.23348 0.632912
v 0.279251 -0.237233 0.632912
v 0.273518 -0.239652 0.632912
v 0.163694 -0.0583235 0.316452
v 0.161274 -0.0640568 0.316452
v 0.157522 -0.068914 0.316452
v 0.152665 -0.0726665 0.316452
v 0.146931 -0.0750858 0.316452
v 0.498886 -0.241033 0
v 0.495742 -0.247039 0
v 0.490866 -0.252127 0
v 0.484555 -0.256059 0
v 0.477105 -0.258593 0
# 180 verticies
vn 0 1 0
vn -0.0667249 0.997771 0
vn -0.0319728 0.910919 0.411345
vn 0 0.921988 0.387218
vn -0.0639461 0.898253 0.434801
vn -0.997771 0.066726 0
vn -0.952044 0.30596 0
vn -0.975481 0.220083 0
vn -0.840906 0.541181 0
vn -0.88456 0.466426 0
vn -0.676248 0.736674 0
vn -0.736675 0.676247 0
vn -0.997771 0.0667249 0
vn -0.952044 0.305961 0
vn -0.975481 0.220082 0
vn -0.840906 0.541181 0
vn -0.88456 0.466427 0
vn -0.676247 0.736675 0
vn -0.736675 0.676247 0
vn -0.729425 0.0595022 0.681468
vn -0.660661 0.260549 0.704018
vn -0.688744 0.190003 0.699664
vn -0.729424 0.0595026 0.681469
vn -0.5629 0.44783 0.694688
vn -0.597387 0.389278 0.701135
vn -0.448137 0.605544 0.657639
vn -0.488182 0.555873 0.672818
vn -0.305961 0.952044 0
vn -0.220082 0.975481 0
vn -0.541182 0.840905 0
vn -0.466428 0.884559 0
vn -0.305961 0.952044 0
vn -0.220082 0.975481 0
vn -0.541181 0.840906 0
vn -0.466428 0.884559 0
vn -0.210053 0.819487 0.533216
vn -0.153179 0.854321 0.49666
vn -0.361035 0.698225 0.618171
vn -0.313832 0.741002 0.593655
vn -0.0444722 -0.999011 0
vn 0 -1 0
vn -0.0889444 -0.996037 0
vn 0 -0.921988 0.387218
vn -0.0639461 -0.898253 0.434801
vn -0.0319733 -0.910919 0.411345
vn -0.997771 -0.066726 0
vn -0.997771 -0.0667249 0
vn -0.729425 -0.0595022 0.681468
vn -0.729425 -0.0595018 0.681468
vn 0 0 -1
vn 0 0 1
vn -0.305961 -0.952044 0
vn -0.220082 -0.975481 0
vn -0.541182 -0.840905 0
vn -0.466428 -0.884559 0
vn -0.736675 -0.676247 0
vn -0.676248 -0.736674 0
vn -0.305961 -0.952044 0
vn -0.220082 -0.975481 0
vn -0.541181 -0.840906 0
vn -0.466428 -0.884559 0
vn -0.736675 -0.676247 0
vn -0.676247 -0.736675 0
vn -0.210053 -0.819487 0.533216
vn -0.153179 -0.854321 0.49666
vn -0.361034 -0.698225 0.618171
vn -0.313832 -0.741002 0.593654
vn -0.488182 -0.555873 0.672818
vn -0.448137 -0.605545 0.657639
vn -0.952044 -0.30596 0
vn -0.975481 -0.220083 0
vn -0.840906 -0.541181 0
vn -0.88456 -0.466426 0
vn -0.952044 -0.305961 0
vn -0.975481 -0.220082 0
vn -0.840906 -0.541181 0
vn -0.88456 -0.466427 0
vn -0.660661 -0.26055 0.704018
vn -0.688744 -0.190004 0.699664
vn -0.562901 -0.447829 0.694688
vn -0.597387 -0.389278 0.701135
vn 0.0444722 0.999011 0
vn 0.0889444 0.996037 0
vn 0.0639461 0.898253 0.434801
vn 0.0319733 0.910919 0.411345
vn 0.997771 0.066726 0
vn 0.952044 0.30596 0
vn 0.975481 0.220083 0
vn 0.840906 0.541181 0
vn 0.88456 0.466426 0
vn 0.676248 0.736674 0
vn 0.736675 0.676247 0
vn 0.997771 0.0667249 0
vn 0.952044 0.305961 0
vn 0.975481 0.220082 0
vn 0.840906 0.541181 0
vn 0.88456 0.466427 0
vn 0.676247 0.736675 0
vn 0.736675 0.676247 0
vn 0.729425 0.0595022 0.681468
vn 0.660661 0.26055 0.704018
vn 0.688744 0.190004 0.699664
vn 0.729425 0.0595018 0.681468
vn 0.562901 0.447829 0.694688
vn 0.597387 0.389278 0.701135
vn 0.448137 0.605545 0.657639
vn 0.488182 0.555873 0.672818
vn 0.305961 0.952044 0
vn 0.220082 0.975481 0
vn 0.541182 0.840905 0
vn 0.466428 0.884559 0
vn 0.305961 0.952044 0
vn 0.220082 0.975481 0
vn 0.541181 0.840906 0
vn 0.466428 0.884559 0
vn 0.210053 0.819487 0.533216
vn 0.153179 0.854321 0.49666
vn 0.361034 0.698225 0.618171
vn 0.313832 0.741002 0.593654
vn 0.0667249 -0.997771 0
vn 0.0319728 -0.910919 0.411345
vn 0.0639461 -0.898253 0.434801
vn 0.997771 -0.066726 0
vn 0.997771 -0.0667249 0
vn 0.729425 -0.0595022 0.681468
vn 0.729424 -0.0595026 0.681469
vn 0.305961 -0.952044 0
vn 0.220082 -0.975481 0
vn 0.541182 -0.840905 0
vn 0.466428 -0.884559 0
vn 0.736675 -0.676247 0
vn 0.676248 -0.736674 0
vn 0.305961 -0.952044 0
vn 0.220082 -0.975481 0
vn 0.541181 -0.840906 0
vn 0.466428 -0.884559 0
vn 0.736675 -0.676247 0
vn 0.676247 -0.736675 0
vn 0.210053 -0.819487 0.533216
vn 0.153179 -0.854321 0.49666
vn 0.361035 -0.698225 0.618171
vn 0.313832 -0.741002 0.593655
vn 0.488182 -0.555873 0.672818
vn 0.448137 -0.605544 0.657639
vn 0.952044 -0.30596 0
vn 0.975481 -0.220083 0
vn 0.840906 -0.541181 0
vn 0.88456 -0.466426 0
vn 0.952044 -0.305961 0
vn 0.975481 -0.220082 0
vn 0.840906 -0.541181 0
vn 0.88456 -0.466427 0
vn 0.660661 -0.260549 0.704018
vn 0.688744 -0.190003 0.699664
vn 0.5629 -0.44783 0.694688
vn 0.597387 -0.389278 0.701135
# 156 normals
f  10//1 1//1 14//2 16//2
f  4//1 7//1 18//2 20//2
f  24//3 6//4 12//4 22//5
f  15//6 54//7 25//8 13//6
f  54//7 53//9 26//10 25//8
f  53//9 52//11 27//12 26//10
f  19//13 40//14 30//15 17//13
f  40//14 41//16 31//17 30//15
f  41//16 42//18 32//19 31//17
f  23//20 45//21 35//22 21//23
f  45//21 46//24 36//25 35//22
f  46//24 47//26 37//27 36//25
f  14//2 29//28 50//29 16//2
f  29//28 28//30 51//31 50//29
f  28//30 27//12 52//11 51//31
f  18//2 34//32 44//33 20//2
f  34//32 33//34 43//35 44//33
f  33//34 32//19 42//18 43//35
f  22//5 39//36 49//37 24//3
f  39//36 38//38 48//39 49//37
f  38//38 37//27 47//26 48//39
f  57//40 2//41 9//41 55//42
f  61//40 8//41 3//41 59//42
f  5//43 65//44 63//45 11//43
f  58//46 56//46 15//6 13//6
f  62//47 60//47 19//13 17//13
f  64//48 66//49 23//20 21//23
f  1//50 4//50 20//50 44//50 43//50 42//50 41//50 40//50 19//50 60//50\
87//50 88//50 89//50 90//50 91//50 59//50 3//50 2//50 57//50 67//50\
68//50 69//50 70//50 71//50 58//50 13//50 25//50 26//50 27//50 28//50\
29//50 14//50
f  5//51 8//51 61//51 72//51 73//51 74//51 75//51 76//51 62//51 17//51\
30//51 31//51 32//51 33//51 34//51 18//51 7//51 6//51 24//51 49//51\
48//51 47//51 46//51 45//51 23//51 66//51 92//51 93//51 94//51 95//51\
96//51 65//51
f  56//51 82//51 83//51 84//51 85//51 86//51 55//51 9//51 10//51\
16//51 50//51 51//51 52//51 53//51 54//51 15//51
f  11//50 63//50 77//50 78//50 79//50 80//50 81//50 64//50 21//50\
35//50 36//50 37//50 38//50 39//50 22//50 12//50
f  55//42 86//52 67//53 57//40
f  86//52 85//54 68//55 67//53
f  85//54 84//56 69//57 68//55
f  59//42 91//58 72//59 61//40
f  91//58 90//60 73//61 72//59
f  90//60 89//62 74//63 73//61
f  65//44 96//64 77//65 63//45
f  96//64 95//66 78//67 77//65
f  95//66 94//68 79//69 78//67
f  58//46 71//70 82//71 56//46
f  71//70 70//72 83//73 82//71
f  70//72 69//57 84//56 83//73
f  62//47 76//74 87//75 60//47
f  76//74 75//76 88//77 87//75
f  75//76 74//63 89//62 88//77
f  64//48 81//78 92//79 66//49
f  81//78 80//80 93//81 92//79
f  80//80 79//69 94//68 93//81
f  100//82 1//1 10//1 98//83
f  104//82 7//1 4//1 102//83
f  6//4 106//84 108//85 12//4
f  99//86 124//87 109//88 97//86
f  124//87 125//89 110//90 109//88
f  125//89 126//91 111//92 110//90
f  103//93 129//94 114//95 101//93
f  129//94 130//96 115//97 114//95
f  130//96 131//98 116//99 115//97
f  107//100 138//101 119//102 105//103
f  138//101 137//104 120//105 119//102
f  137//104 136//106 121//107 120//105
f  98//83 113//108 128//109 100//82
f  113//108 112//110 127//111 128//109
f  112//110 111//92 126//91 127//111
f  102//83 118//112 133//113 104//82
f  118//112 117//114 132//115 133//113
f  117//114 116//99 131//98 132//115
f  106//84 123//116 134//117 108//85
f  123//116 122//118 135//119 134//117
f  122//118 121//107 136//106 135//119
f  9//41 2//41 141//120 139//120
f  3//41 8//41 145//120 143//120
f  149//121 5//43 11//43 147//122
f  99//86 97//86 140//123 142//123
f  103//93 101//93 144//124 146//124
f  107//100 105//103 150//125 148//126
f  2//50 3//50 143//50 156//50 157//50 158//50 159//50 160//50 144//50\
101//50 114//50 115//50 116//50 117//50 118//50 102//50 4//50 1//50\
100//50 128//50 127//50 126//50 125//50 124//50 99//50 142//50 166//50\
167//50 168//50 169//50 170//50 141//50
f  6//51 7//51 104//51 133//51 132//51 131//51 130//51 129//51 103//51\
146//51 171//51 172//51 173//51 174//51 175//51 145//51 8//51 5//51\
149//51 161//51 162//51 163//51 164//51 165//51 150//51 105//51\
119//51 120//51 121//51 122//51 123//51 106//51
f  97//51 109//51 110//51 111//51 112//51 113//51 98//51 10//51 9//51\
139//51 151//51 152//51 153//51 154//51 155//51 140//51
f  148//50 176//50 177//50 178//50 179//50 180//50 147//50 11//50\
12//50 108//50 134//50 135//50 136//50 137//50 138//50 107//50
f  141//120 170//127 151//128 139//120
f  170//127 169//129 152//130 151//128
f  169//129 168//131 153//132 152//130
f  145//120 175//133 156//134 143//120
f  175//133 174//135 157//136 156//134
f  174//135 173//137 158//138 157//136
f  147//122 180//139 161//140 149//121
f  180//139 179//141 162//142 161//140
f  179//141 178//143 163//144 162//142
f  140//123 155//145 166//146 142//123
f  155//145 154//147 167//148 166//146
f  154//147 153//132 168//131 167//148
f  144//124 160//149 171//150 146//124
f  160//149 159//151 172//152 171//150
f  159//151 158//138 173//137 172//152
f  150//125 165//153 176//154 148//126
f  165//153 164//155 177//156 176//154
f  164//155 163//144 178//143 177//156
