<?xml version="1.0" encoding="UTF-8" standalone="no"?>
<!-- Created with Inkscape (http://www.inkscape.org/) -->

<svg
   xmlns:dc="http://purl.org/dc/elements/1.1/"
   xmlns:cc="http://creativecommons.org/ns#"
   xmlns:rdf="http://www.w3.org/1999/02/22-rdf-syntax-ns#"
   xmlns:svg="http://www.w3.org/2000/svg"
   xmlns="http://www.w3.org/2000/svg"
   xmlns:sodipodi="http://sodipodi.sourceforge.net/DTD/sodipodi-0.dtd"
   xmlns:inkscape="http://www.inkscape.org/namespaces/inkscape"
   width="8192pt"
   height="8192pt"
   viewBox="0 0 2889.9556 2889.9555"
   version="1.1"
   id="svg8"
   inkscape:version="0.92.4 (5da689c313, 2019-01-14)"
   sodipodi:docname="Forcefield_pattern.svg"
   inkscape:export-filename="Z:\code\AuroraRendererUnity\Assets\SpacePod\Forcefield_pattern.png"
   inkscape:export-xdpi="72"
   inkscape:export-ydpi="72">
  <defs
     id="defs2">
    <pattern
       patternUnits="userSpaceOnUse"
       width="85.333336"
       height="85.333336"
       patternTransform="matrix(0.26458332,0,0,0.26458332,-70.55555,274.42217)"
       id="pattern6321">
      <g
         id="g6319"
         transform="matrix(3.7795277,0,0,3.7795277,266.66665,-1037.1859)">
        <rect
           y="274.42209"
           x="-70.55555"
           height="22.577778"
           width="22.577778"
           id="rect6276"
           style="opacity:1;fill:#000000;fill-opacity:1;stroke:none;stroke-width:0.02844465;stroke-miterlimit:4;stroke-dasharray:none;stroke-opacity:1" />
        <path
           style="opacity:1;fill:#ff00f4;fill-opacity:1;stroke:none;stroke-width:0.04088258;stroke-miterlimit:4;stroke-dasharray:none;stroke-opacity:1"
           d="m -266.66602,10837.334 v 37.332 5.334 37.334 5.332 h 5.33204 37.33398 5.33398 37.33204 v -9.105 L -214.89453,10880 h 33.56055 v -5.334 h -33.56055 l 33.56055,-33.561 v -3.771 h -3.77149 l -33.56055,33.561 v -33.561 H -224 v 33.561 l -33.56055,-33.561 z m 5.33204,3.77 33.5625,33.562 h -33.5625 z m 0,38.896 h 33.5625 l -33.5625,33.562 z m 37.33398,3.771 v 33.563 h -33.5625 z m 5.33398,0 33.5625,33.563 h -33.5625 z"
           transform="matrix(0.26458332,0,0,0.26458332,0,-2592.9556)"
           id="rect6278"
           inkscape:connector-curvature="0" />
      </g>
    </pattern>
    <pattern
       patternUnits="userSpaceOnUse"
       width="85.332037"
       height="85.331984"
       patternTransform="matrix(0.26458332,0,0,0.26458332,-70.555383,274.4224)"
       id="pattern6336">
      <path
         inkscape:connector-curvature="0"
         id="path6330"
         d="m 0,0 v 37.331982 5.33401 37.334023 5.331969 h 5.3320405 37.3339775 5.33398 37.332039 V 76.226988 L 51.771486,42.665992 h 33.560551 v -5.33401 H 51.771486 L 85.332037,3.7709859 V 0 H 81.560548 L 47.999998,33.560996 V 0 h -5.33398 V 33.560996 L 9.105468,0 Z M 5.3320405,3.7700033 38.894537,37.331982 H 5.3320405 Z m 0,38.8959887 H 38.894537 L 5.3320405,76.228009 Z M 42.666018,46.437016 V 80.000015 H 9.1035178 Z m 5.33398,0 33.5625,33.562999 h -33.5625 z"
         style="opacity:1;fill:#ff00f4;fill-opacity:1;stroke:none;stroke-width:0.04088258;stroke-miterlimit:4;stroke-dasharray:none;stroke-opacity:1" />
    </pattern>
    <pattern
       patternUnits="userSpaceOnUse"
       width="85.332028"
       height="85.331998"
       patternTransform="matrix(0.26458332,0,0,0.26458332,-211.66666,274.4223)"
       id="pattern6401">
      <path
         id="rect6357"
         d="M 0,0 V 85.331998 H 5.3320299 V 0 Z"
         style="opacity:0.544;fill:#ff00a8;fill-opacity:1;stroke:none;stroke-width:0.04088258;stroke-miterlimit:4;stroke-dasharray:none;stroke-opacity:1"
         inkscape:connector-curvature="0" />
      <path
         id="rect6359"
         d="m 42.666019,0 v 85.331998 h 5.33398 V 0 Z"
         style="opacity:0.544;fill:#ff00f4;fill-opacity:1;stroke:none;stroke-width:0.04088258;stroke-miterlimit:4;stroke-dasharray:none;stroke-opacity:1"
         inkscape:connector-curvature="0" />
      <path
         id="rect6361"
         d="m 0,79.999999 v 5.331999 h 85.332028 v -5.331999 z"
         style="opacity:0.544;fill:#dc1d9b;fill-opacity:1;stroke:none;stroke-width:0.03697523;stroke-miterlimit:4;stroke-dasharray:none;stroke-opacity:1"
         inkscape:connector-curvature="0" />
      <path
         id="rect6363"
         d="m 0,37.331999 v 5.334 h 85.332028 v -5.334 z"
         style="opacity:0.544;fill:#ff00f4;fill-opacity:1;stroke:none;stroke-width:0.03697523;stroke-miterlimit:4;stroke-dasharray:none;stroke-opacity:1"
         inkscape:connector-curvature="0" />
      <path
         id="rect6365"
         d="M 1.5625,0 85.332028,83.769998 V 76.226999 L 9.1054698,0 Z"
         style="opacity:0.544;fill:#bb00ff;fill-opacity:1;stroke:none;stroke-width:0.04088258;stroke-miterlimit:4;stroke-dasharray:none;stroke-opacity:1"
         inkscape:connector-curvature="0" />
      <path
         id="rect6367"
         d="M 81.560548,0 0,81.560998 v 3.771 H 3.7714799 L 85.332028,3.7699999 V 0 Z"
         style="opacity:0.544;fill:#bb00ff;fill-opacity:1;stroke:none;stroke-width:0.04088258;stroke-miterlimit:4;stroke-dasharray:none;stroke-opacity:1"
         inkscape:connector-curvature="0" />
    </pattern>
    <pattern
       patternUnits="userSpaceOnUse"
       width="85.332045"
       height="85.332004"
       patternTransform="matrix(0.26458332,0,0,0.26458332,-211.66666,274.42239)"
       id="pattern6423">
      <rect
         id="rect6409"
         y="8.4891726e-06"
         x="1.3250493e-05"
         height="85.331993"
         width="85.332031"
         style="fill:none;stroke:none;stroke-width:3.77952766" />
      <path
         id="path6411"
         d="M 0,0 V 85.331984 H 5.3320443 V 0 Z"
         style="opacity:0.544;fill:#ff00a8;fill-opacity:1;stroke:none;stroke-width:0.04088258;stroke-miterlimit:4;stroke-dasharray:none;stroke-opacity:1"
         inkscape:connector-curvature="0" />
      <path
         id="path6413"
         d="m 42.66603,0 v 85.331984 h 5.333972 V 0 Z"
         style="opacity:0.544;fill:#ff00f4;fill-opacity:1;stroke:none;stroke-width:0.04088258;stroke-miterlimit:4;stroke-dasharray:none;stroke-opacity:1"
         inkscape:connector-curvature="0" />
      <path
         id="path6415"
         d="m 0,80.000015 v 5.331969 h 85.332022 v -5.331969 z"
         style="opacity:0.544;fill:#dc1d9b;fill-opacity:1;stroke:none;stroke-width:0.03697523;stroke-miterlimit:4;stroke-dasharray:none;stroke-opacity:1"
         inkscape:connector-curvature="0" />
      <path
         id="path6417"
         d="m 0,37.331982 v 5.33401 h 85.332022 v -5.33401 z"
         style="opacity:0.544;fill:#ff00f4;fill-opacity:1;stroke:none;stroke-width:0.03697523;stroke-miterlimit:4;stroke-dasharray:none;stroke-opacity:1"
         inkscape:connector-curvature="0" />
      <path
         id="path6419"
         d="M 1.5624945,0 85.332022,83.769981 V 76.226988 L 9.1054869,0 Z"
         style="opacity:0.544;fill:#bb00ff;fill-opacity:1;stroke:none;stroke-width:0.04088258;stroke-miterlimit:4;stroke-dasharray:none;stroke-opacity:1"
         inkscape:connector-curvature="0" />
      <path
         id="path6421"
         d="M 81.560544,0 0,81.560998 v 3.770986 H 3.7714773 L 85.332022,3.7700033 V 0 Z"
         style="opacity:0.544;fill:#a100ff;fill-opacity:1;stroke:none;stroke-width:0.04088258;stroke-miterlimit:4;stroke-dasharray:none;stroke-opacity:1"
         inkscape:connector-curvature="0" />
    </pattern>
    <pattern
       patternUnits="userSpaceOnUse"
       width="170.66665"
       height="170.66702"
       patternTransform="matrix(0.26458332,0,0,0.26458332,-246.94432,251.84426)"
       id="pattern6450">
      <rect
         id="rect6432"
         y="85.335022"
         x="0"
         height="85.332001"
         width="85.332047"
         style="fill:none;stroke:none;stroke-width:3.77952766" />
      <rect
         id="rect6434"
         y="85.335022"
         x="0"
         height="85.331985"
         width="85.332031"
         style="fill:none;stroke:none;stroke-width:3.77952766" />
      <path
         id="path6436"
         d="M 2.5652067e-6,0 V 170.66665 H 5.3320468 V 0 Z"
         style="opacity:0.544;fill:#ff00a8;fill-opacity:1;stroke:none;stroke-width:0.05781718;stroke-miterlimit:4;stroke-dasharray:none;stroke-opacity:1"
         inkscape:connector-curvature="0" />
      <path
         id="path6438"
         d="m 85.332893,0 v 170.66665 h 5.333972 V 0 Z"
         style="opacity:0.544;fill:#ff00f4;fill-opacity:1;stroke:none;stroke-width:0.05781718;stroke-miterlimit:4;stroke-dasharray:none;stroke-opacity:1"
         inkscape:connector-curvature="0" />
      <path
         id="path6440"
         d="m 2.5652067e-6,165.33502 v 5.33197 H 170.66665 v -5.33197 z"
         style="opacity:0.544;fill:#dc1d9b;fill-opacity:1;stroke:none;stroke-width:0.05229128;stroke-miterlimit:4;stroke-dasharray:none;stroke-opacity:1"
         inkscape:connector-curvature="0" />
      <path
         id="path6442"
         d="m 2.5652067e-6,79.999864 v 5.33401 H 170.66665 v -5.33401 z"
         style="opacity:0.544;fill:#ff00f4;fill-opacity:1;stroke:none;stroke-width:0.05229128;stroke-miterlimit:4;stroke-dasharray:none;stroke-opacity:1"
         inkscape:connector-curvature="0" />
      <path
         id="path6444"
         d="M 86.895577,85.335007 170.6651,169.10499 V 161.562 L 94.438569,85.335007 Z"
         style="opacity:0.544;fill:#bb00ff;fill-opacity:1;stroke:none;stroke-width:0.04088258;stroke-miterlimit:4;stroke-dasharray:none;stroke-opacity:1"
         inkscape:connector-curvature="0" />
      <path
         sodipodi:nodetypes="ccccccc"
         id="path6446"
         d="M 166.89476,1.8897638e-4 2.5652067e-6,166.89601 v 3.77098 H 3.7714799 L 170.66624,3.7701922 V 1.8897638e-4 Z"
         style="opacity:0.544;fill:#a100ff;fill-opacity:1;stroke:none;stroke-width:0.04088258;stroke-miterlimit:4;stroke-dasharray:none;stroke-opacity:1"
         inkscape:connector-curvature="0" />
      <path
         inkscape:connector-curvature="0"
         style="opacity:0.544;fill:#bb00ff;fill-opacity:1;stroke:none;stroke-width:0.04088258;stroke-miterlimit:4;stroke-dasharray:none;stroke-opacity:1"
         d="M 1.5622325,0.00120945 85.33176,83.77119 V 76.228198 L 9.1052249,0.00120945 Z"
         id="path6448" />
    </pattern>
  </defs>
  <sodipodi:namedview
     id="base"
     pagecolor="#ffffff"
     bordercolor="#666666"
     borderopacity="1.0"
     inkscape:pageopacity="0.0"
     inkscape:pageshadow="2"
     inkscape:zoom="0.32"
     inkscape:cx="730.58083"
     inkscape:cy="1109.2399"
     inkscape:document-units="pt"
     inkscape:current-layer="layer1"
     showgrid="false"
     inkscape:window-width="1920"
     inkscape:window-height="1017"
     inkscape:window-x="-8"
     inkscape:window-y="-8"
     inkscape:window-maximized="1"
     units="pt" />
  <metadata
     id="metadata5">
    <rdf:RDF>
      <cc:Work
         rdf:about="">
        <dc:format>image/svg+xml</dc:format>
        <dc:type
           rdf:resource="http://purl.org/dc/dcmitype/StillImage" />
        <dc:title></dc:title>
      </cc:Work>
    </rdf:RDF>
  </metadata>
  <g
     inkscape:label="Layer 1"
     inkscape:groupmode="layer"
     id="layer1"
     transform="translate(0,2592.9556)">
    <rect
       style="opacity:1;fill:url(#pattern6450);fill-opacity:1.0;stroke:none;stroke-width:1.73563504;stroke-miterlimit:4;stroke-dasharray:none;stroke-opacity:1"
       id="rect4821"
       width="2889.9556"
       height="2889.9556"
       x="-2.8421709e-14"
       y="-2592.9556" />
    <path
       style="color:#000000;font-style:normal;font-variant:normal;font-weight:normal;font-stretch:normal;font-size:medium;line-height:normal;font-family:sans-serif;font-variant-ligatures:normal;font-variant-position:normal;font-variant-caps:normal;font-variant-numeric:normal;font-variant-alternates:normal;font-feature-settings:normal;text-indent:0;text-align:start;text-decoration:none;text-decoration-line:none;text-decoration-style:solid;text-decoration-color:#000000;letter-spacing:normal;word-spacing:normal;text-transform:none;writing-mode:lr-tb;direction:ltr;text-orientation:mixed;dominant-baseline:auto;baseline-shift:baseline;text-anchor:start;white-space:normal;shape-padding:0;clip-rule:nonzero;display:inline;overflow:visible;visibility:visible;opacity:1;isolation:auto;mix-blend-mode:normal;color-interpolation:sRGB;color-interpolation-filters:linearRGB;solid-color:#000000;solid-opacity:1;vector-effect:none;fill:#0f0f0f;fill-opacity:0.76649743;fill-rule:nonzero;stroke:#ff27ff;stroke-width:1.41111107;stroke-linecap:butt;stroke-linejoin:miter;stroke-miterlimit:4;stroke-dasharray:none;stroke-dashoffset:0;stroke-opacity:1;color-rendering:auto;image-rendering:auto;shape-rendering:auto;text-rendering:auto;enable-background:accumulate"
       d="M -5.6445312,-2598.5996 V -1147.9785 302.64453 H 1444.9785 2895.5996 V -1147.9785 -2598.5996 H 1444.9785 Z m 11.2890624,11.2891 H 1444.9785 2884.3105 v 1439.332 1439.33397 H 1444.9785 5.6445312 V -1147.9785 Z m 126.7714888,42.7871 c -14.6825,-0.2731 -27.43817,0.6827 -38.919926,2.8515 -13.226159,2.4984 -22.721429,6.3528 -29.3125,12.8926 -2.706019,2.6849 -4.197145,4.7802 -6.216797,8.7695 -3.208044,6.3369 -5.118604,12.2659 -6.683594,20.5508 -5.788604,30.6446 -2.962544,70.0627 8.826172,131.4063 7.068455,36.7813 19.236584,89.7483 74.667965,325.1367 35.88482,152.3843 46.53197,197.0754 79.69336,334.4648 65.10969,269.7531 77.94801,321.8007 88.78321,359.877 11.25589,39.5547 20.16662,64.4033 30.20117,83.7773 5.72864,11.0605 10.5726,18.2751 17.41797,25.8418 4.31958,4.7747 8.53116,7.8511 14.1289,10.2715 2.78915,1.2059 5.47154,1.3862 8.48828,1.3809 3.01675,-0.01 6.24542,-0.36 9.37891,-1.0918 h 0.002 l 0.008,-0 4.35156,-1.0156 v -0.2383 c 9.57144,-2.7848 19.44766,-7.3555 31.60351,-14.668 26.73329,-16.0816 61.42444,-44.7613 105.41602,-86.8574 50.37827,-48.2076 231.70421,-227.4658 370.88477,-366.6465 139.18053,-139.1805 318.43693,-320.5044 366.64453,-370.8828 36.9258,-38.5884 63.781,-70.341 80.2734,-95.0957 8.6952,-13.0513 14.7426,-24.0467 18.7383,-34.2851 3.526,-9.0352 5.3306,-16.4579 4.6348,-23.4825 -0.6959,-7.0245 -4.1638,-13.1263 -9.4317,-18.4804 -15.7952,-16.054 -42.0916,-28.4021 -88.3535,-42.7832 -37.3217,-11.6019 -76.0574,-21.3943 -272.72654,-68.9766 -212.56775,-51.4289 -270.72429,-65.3419 -429.35156,-102.7129 -247.47373,-58.3022 -303.16426,-71.1114 -340.6582,-78.3281 -38.19417,-7.3515 -68.01746,-11.2187 -92.48828,-11.6738 z m 2625.12308,0 c -24.4709,0.4551 -54.2941,4.3223 -92.4883,11.6738 -37.5429,7.2261 -94.4728,20.325 -343.6563,79.0351 -139.9285,32.9686 -177.2752,41.8721 -311.5332,74.2715 -279.2745,67.395 -327.717,79.3566 -367.2988,90.7207 -38.28,10.9905 -61.7284,19.4622 -80.7656,29.3223 -11.0605,5.7287 -18.2751,10.5726 -25.8418,17.418 -4.1525,3.7567 -6.7649,7.1027 -9.1309,11.7441 l -2.2597,4.4336 -0.1504,5.7832 c -0.1766,6.8317 1.2125,12.9656 4.7519,22.0352 8.4173,21.5683 26.3947,47.7284 55.5313,81.7031 23.413,27.3008 46.9313,51.9385 131.4062,137.6933 188.2087,191.0599 368.5261,371.3773 559.586,559.586 85.7548,84.4749 110.3925,107.9932 137.6933,131.4062 33.9739,29.1359 60.1254,47.1098 81.7012,55.5332 11.5028,4.4908 19.8245,5.9149 27.7148,3.8047 5.2597,-1.4067 9.821,-4.2439 14.25,-8.6015 16.054,-15.7952 28.4021,-42.0936 42.7832,-88.3555 11.6019,-37.3218 21.3943,-76.0555 68.9766,-272.7246 57.2574,-236.6583 77.5428,-321.7746 132.3437,-555.2988 44.5301,-189.7568 51.6935,-223.1703 57.2364,-267.1075 5.0279,-39.8555 4.2297,-70.4298 -3.1739,-92.2968 -2.1856,-6.4551 -4.9504,-11.2989 -9.0586,-15.5821 -2.9751,-3.1017 -4.9274,-4.5352 -9.1132,-6.6504 -6.3739,-3.2208 -12.2954,-5.1295 -20.584,-6.6953 -11.4818,-2.1688 -24.2374,-3.1246 -38.9199,-2.8515 z m -2625.28715,11.3222 c 23.46763,0.453 52.68085,4.1544 90.51953,11.4375 37.09544,7.1401 92.73822,19.9303 340.20313,78.2305 158.61803,37.3688 216.72253,51.2696 429.28516,102.6973 196.65433,47.5787 235.10243,57.306 272.02933,68.7851 45.6445,14.1893 70.2922,26.3349 83.6582,39.9199 4.1375,4.2053 5.8241,7.4357 6.2441,11.6758 0.42,4.2402 -0.698,10.0147 -3.918,18.2656 -3.5865,9.19 -9.2052,19.5076 -17.6152,32.1309 -15.8208,23.7467 -42.3603,55.2207 -79.0352,93.5469 -47.8969,50.0536 -227.3297,231.5661 -366.47066,370.707 -139.14092,139.141 -320.65342,318.5757 -370.70703,366.4727 -43.69549,41.8127 -78.09749,70.101 -103.42969,85.3398 -13.43591,8.0825 -23.24468,12.3932 -32.71289,14.6055 -2.20507,0.515 -4.72403,0.7912 -6.83203,0.7949 -2.108,0 -3.92613,-0.4282 -3.98828,-0.4551 -4.53015,-1.9588 -6.59069,-3.4527 -10.23633,-7.4824 -6.25908,-6.9188 -10.29764,-12.898 -15.76757,-23.459 -9.47407,-18.2919 -18.20072,-42.4353 -29.36719,-81.6758 -10.73617,-37.7283 -23.55804,-89.6915 -88.66602,-359.4375 -33.15971,-137.3825 -43.7962,-182.0236 -79.67969,-334.4023 -55.429238,-235.3793 -67.576142,-288.285 -74.570308,-324.6797 -11.680855,-60.7823 -14.149867,-98.9549 -8.818359,-127.1797 1.446881,-7.6597 2.885031,-12.0633 5.662109,-17.5488 1.893796,-3.7407 1.674345,-3.451 4.095704,-5.8535 4.287374,-4.254 11.358315,-7.5291 23.457031,-9.8145 10.566863,-1.996 22.579583,-2.8928 36.660153,-2.6211 z m 2625.45115,0 c 14.0806,-0.2717 26.0933,0.6251 36.6602,2.6211 7.6645,1.4479 12.0533,2.881 17.5879,5.6778 4.0146,2.0286 3.2414,1.4555 6.0566,4.3906 3.0615,3.1921 4.6571,5.8977 6.5156,11.3867 6.4327,18.9995 7.5803,48.2959 2.6641,87.2656 -5.4809,43.4463 -12.5011,76.2092 -57.0254,265.9414 -54.7988,233.515 -75.0709,318.5734 -132.3262,555.2227 -47.5787,196.6543 -57.306,235.1025 -68.7851,272.0293 -14.1893,45.6445 -26.3349,70.2922 -39.9199,83.6582 -3.5614,3.504 -5.8119,4.8251 -9.2481,5.7441 -4.9095,1.313 -10.0862,0.7231 -20.6933,-3.4179 -19.3379,-7.5498 -44.928,-24.8297 -78.4571,-53.584 -27.0132,-23.1664 -51.3901,-46.4275 -137.1211,-130.8789 -191.0215,-188.171 -371.2958,-368.4453 -559.4668,-559.4668 -84.4514,-85.731 -107.7125,-110.1079 -130.8789,-137.1211 -28.7549,-33.5297 -46.0413,-59.1298 -53.584,-78.4571 -3.3096,-8.4806 -4.1196,-12.3288 -3.9824,-17.6406 l 0.084,-3.2246 1.0996,-2.1562 c 1.956,-3.8371 3.0492,-5.2456 6.6465,-8.5 6.9188,-6.2591 12.898,-10.2957 23.459,-15.7657 18.0178,-9.3321 40.7147,-17.5933 78.6894,-28.4961 39.2528,-11.2696 87.5644,-23.2042 366.8321,-90.5976 134.2524,-32.3981 171.5493,-41.2905 311.4726,-74.2578 249.1746,-58.7081 306.0677,-71.7879 343.2031,-78.9356 37.8387,-7.2831 67.05,-10.9845 90.5176,-11.4375 z m -1312.7246,349.1153 c -21.0117,0 -45.3175,11.717 -76.0644,34.832 -25.9182,19.4848 -63.0502,54.2174 -128.5079,119.9883 -12.4422,12.5018 -45.2088,45.5725 -72.8417,73.5156 -27.6285,27.9386 -58.746,59.3743 -69.1329,69.8418 -10.3986,10.4794 -38.8169,39.1329 -63.1543,63.6777 -93.2652,94.0604 -166.19494,166.8725 -328.23042,327.7012 -10.46677,10.3888 -41.90332,41.5084 -69.8418,69.1367 -108.8721,107.6635 -136.25562,135.4295 -164.72266,167.0391 -28.62707,31.7871 -45.83672,55.7504 -55.79297,78.248 -7.21354,16.3 -9.37161,29.8059 -6.64062,43.9356 4.6919,24.2752 23.15616,53.8379 54.38086,89.5137 26.11018,29.8321 54.32842,58.7827 138.72851,142.35932 28.03699,27.76344 66.8499,66.19656 86.25,85.40821 82.40755,81.60698 124.79279,123.72404 187.79297,186.60742 57.2474,57.14129 92.98262,93.03985 220.87503,221.88086 10.1955,10.27111 41.3867,41.79014 69.2929,70.01953 55.6729,56.31757 111.0738,111.79636 126.9336,127.09961 44.3853,42.82729 69.2966,64.20154 92.5821,79.2207 6.4655,4.17032 7.4705,4.78286 11.9277,7.2793 12.5179,7.01112 23.3883,11.47671 33.5605,13.57422 5.0051,1.03203 7.3617,1.28315 12.25,1.30859 4.8682,0.0253 7.2412,-0.19925 12.1622,-1.15039 24.2752,-4.6919 53.8378,-23.15616 89.5136,-54.38086 29.8253,-26.10421 58.9357,-54.4781 142.3594,-138.72851 172.0297,-173.73445 196.2131,-198.09825 272.0176,-274.04297 56.9775,-57.083 97.5679,-97.49063 222.2324,-221.22656 10.4668,-10.38882 41.9033,-41.50838 69.8418,-69.13672 97.7662,-96.68092 123.9084,-123.00686 151.0762,-152.15825 32.0732,-34.4149 49.8597,-56.894 62.3359,-79.082 9.9378,-17.6735 14.9238,-32.4318 14.9238,-46.1738 0,-21.0118 -11.717,-45.3156 -34.832,-76.0625 -19.4449,-25.8651 -53.9413,-62.7536 -119.6387,-128.1602 -12.3067,-12.2523 -45.4532,-45.0959 -73.6875,-73.0156 -28.2296,-27.9151 -59.7466,-59.1121 -70.0195,-69.3066 -10.2857,-10.2074 -38.8601,-38.5454 -63.502,-62.9786 -70.2081,-69.6133 -167.2382,-166.6028 -241.373,-241.2714 -102.4032,-103.1404 -101.7869,-102.5184 -155.6406,-156.9766 -82.7058,-83.634 -111.4825,-112.3735 -136.1192,-135.9316 -44.0192,-42.0925 -70.0369,-63.3746 -95.123,-77.4805 -17.6736,-9.9378 -32.4299,-14.9238 -46.1719,-14.9238 z m 0,11.289 c 10.986,0 23.908,4.069 40.6387,13.4766 23.7605,13.3605 49.0681,33.93 92.8535,75.7988 24.4957,23.4233 53.2002,52.0866 135.8945,135.709 53.8537,54.4582 53.255,53.8538 155.6582,156.9941 74.1611,74.6952 171.1955,171.689 241.4336,241.3321 24.6411,24.4324 53.2188,52.7736 63.5,62.9765 10.2941,10.2155 41.8007,41.4005 70.0332,69.3184 28.2278,27.9133 61.3873,60.7716 73.6602,72.9902 65.5916,65.3014 99.8993,102.0947 118.5801,126.9434 22.4692,29.8879 32.5664,52.6268 32.5664,69.2793 0,10.986 -4.069,23.91 -13.4766,40.6406 -11.826,21.0316 -28.9339,42.7767 -60.7539,76.9199 -27.0166,28.9892 -53.0009,55.16025 -150.7539,151.82816 -27.9415,27.63133 -59.3692,58.74028 -69.8574,69.15039 -124.6671,123.73847 -165.2799,164.16858 -222.2696,221.26367 -75.8092,75.94947 -100.0181,100.33885 -272.0488,274.07422 -83.3915,84.2179 -112.2574,112.34592 -141.7715,138.17773 -34.9754,30.61169 -63.8417,47.85375 -84.2226,51.79297 -4.7018,0.90878 -5.3303,0.96744 -9.961,0.94336 -4.6522,-0.0242 -5.2343,-0.0875 -10.0293,-1.07617 -8.6141,-1.77622 -18.4583,-5.72235 -30.3222,-12.36719 -4.4156,-2.47314 -4.8783,-2.75703 -11.3262,-6.91602 -22.2642,-14.36046 -46.6475,-35.19366 -90.8633,-77.85742 -15.4983,-14.95442 -71.098,-70.62355 -126.7441,-126.91406 -27.9095,-28.23268 -59.0885,-59.73932 -69.3086,-70.03516 C 978.1934,-547.19665 942.43385,-583.1176 885.17578,-640.26953 822.1676,-703.16089 779.76384,-745.29654 697.35156,-826.9082 c -19.40023,-19.21178 -58.21294,-57.64666 -86.25,-85.41016 -84.36786,-83.54471 -112.33836,-112.25074 -138.17773,-141.77344 -30.61169,-34.9754 -47.85375,-63.8397 -51.79297,-84.2207 -2.29221,-11.8595 -0.77247,-22.1861 5.88281,-37.2246 9.20383,-20.7974 25.61658,-43.9035 53.85742,-75.2617 28.25802,-31.3775 55.41641,-58.9197 164.27149,-166.5664 27.94152,-27.6313 59.36919,-58.7403 69.85742,-69.1504 162.04255,-160.8357 235.00689,-233.6842 328.293,-327.7656 24.3366,-24.5442 52.7575,-53.2002 63.1523,-63.6758 10.4066,-10.4875 41.5134,-41.9141 69.1445,-69.8555 27.6267,-27.9369 60.4071,-61.0195 72.8184,-73.4902 65.3516,-65.6644 102.3932,-100.2115 127.2891,-118.9278 29.8879,-22.4692 52.6288,-32.5664 69.2812,-32.5664 z m 1072.1426,1104.2559 c -6.8317,-0.1766 -12.9656,1.2106 -22.0352,4.75 -21.5683,8.4173 -47.7284,26.3947 -81.7031,55.5312 -27.3008,23.41311 -51.9385,46.93128 -137.6933,131.40628 -190.9126,188.06349 -371.5225,368.67341 -559.586,559.58594 -84.5002,85.78034 -107.9379,110.33286 -131.4062,137.69336 -29.1236,33.95366 -47.1132,60.1327 -55.5313,81.703126 -3.526,9.035131 -5.3306,16.457842 -4.6348,23.482422 0.6959,7.024581 4.1619,13.128287 9.4297,18.482422 18.6353,18.940559 52.2728,33.103384 117.6368,51.3632812 36.602,10.2250765 94.8187,24.5469958 354.0312,87.1152348 135.316,32.662314 173.4704,41.760174 315.9414,75.328124 224.6977,52.94156 283.7318,66.611 325.0469,75.25977 40.7155,8.52322 74.9527,13.67449 101.0293,15.13281 8.1817,0.45754 26.22,0.20497 33.8242,-0.50195 21.0771,-1.95947 35.4584,-6.19316 44.3008,-14.9668 2.706,-2.68493 4.1971,-4.78015 6.2168,-8.76953 3.2081,-6.33683 5.1186,-12.2658 6.6836,-20.55078 5.7836,-30.61805 2.9401,-70.29755 -8.8223,-131.408207 -7.2261,-37.542888 -20.325,-94.472848 -79.0351,-343.656253 -32.9686,-139.9285 -41.8722,-177.2752 -74.2715,-311.5332 -67.3951,-279.27449 -79.3566,-327.71699 -90.7207,-367.29883 -10.9905,-38.27997 -19.4622,-61.72842 -29.3223,-80.76562 -5.7287,-11.0604 -10.5726,-18.2751 -17.418,-25.8418 -3.7567,-4.1525 -7.1027,-6.7648 -11.7441,-9.1309 l -4.4336,-2.2597 z m -2140.3711,0.051 c -1.82485,-0.1265 -3.60518,-0.1095 -5.36133,0.064 -7.02458,0.6959 -13.12829,4.1638 -18.48242,9.4317 -16.05402,15.7952 -28.40208,42.0916 -42.7832,88.35348 -12.6847,40.80477 -21.89519,77.65944 -91.81641,367.26171 -36.82851,152.53763 -46.72494,194.05079 -83.5293,350.33985 C 79.392989,-17.850386 67.172057,35.346448 60.109375,72.097656 48.320659,133.44119 45.494599,172.8593 51.283203,203.50391 c 2.498354,13.22615 6.35285,22.72141 12.892578,29.3125 2.684916,2.70597 4.780126,4.19713 8.769531,6.21679 11.237963,5.68928 24.571113,8.31296 45.292968,9.39649 5.45647,0.28535 16.04553,0.21283 22.83984,-0.12891 31.94732,-1.60683 68.71465,-7.61083 129.8379,-21.10156 44.30449,-9.7786 223.08138,-51.56676 400.83984,-93.6875 111.4552,-26.40986 384.18724,-92.218092 481.06054,-116.076173 103.3369,-25.4499339 144.9366,-38.142584 175.3418,-53.890625 11.0605,-5.728634 18.2751,-10.572598 25.8418,-17.417969 4.1525,-3.756681 6.7648,-7.102741 9.1309,-11.744141 l 2.2597,-4.435546 0.1504,-5.78125 c 0.1766,-6.831695 -1.2106,-12.965702 -4.75,-22.035157 v -0.002 c -8.418,-21.570426 -26.4097,-47.749466 -55.5332,-81.703126 -29.6626,-34.58213 -57.8498,-63.59081 -268.1074,-275.99023 -113.22817,-114.38144 -281.05836,-281.58109 -422.88282,-421.28907 -85.78035,-84.50026 -110.33287,-107.93594 -137.69336,-131.40428 -33.95366,-29.1235 -60.1327,-47.1152 -81.70313,-55.5332 -6.77634,-2.6445 -12.64654,-4.32 -18.12109,-4.6992 z m 2140.0801,11.2343 3.2246,0.084 2.1562,1.0977 c 3.8371,1.956 5.2456,3.0491 8.5,6.6465 6.2597,6.9193 10.2954,12.8993 15.7657,23.4609 9.3321,18.0178 17.5933,40.71475 28.4961,78.68946 11.2696,39.25278 23.2041,87.56432 90.5976,366.83203 32.398,134.2524 41.2905,171.54932 74.2578,311.47265 58.7081,249.174495 71.7879,306.065734 78.9356,343.201176 11.6529,60.541874 14.1391,99.001394 8.8164,127.179684 -1.4469,7.65974 -2.885,12.06338 -5.6621,17.54883 -1.8938,3.74076 -1.6763,3.45102 -4.0977,5.85352 -5.5874,5.54391 -17.4277,9.88203 -37.3945,11.73828 -6.0136,0.55905 -25.2798,0.85872 -32.1485,0.47461 -25.1404,-1.40596 -58.9841,-6.46256 -99.3476,-14.91211 -41.0907,-8.60179 -100.0793,-22.2594 -324.7695,-75.19922 C 2181.6944,113.34538 2143.5876,104.26053 2008.2773,71.599609 1749.0721,9.033124 1690.879,-5.2889409 1654.6348,-15.414062 c -64.8419,-18.114033 -96.8838,-32.409064 -112.627,-48.410157 -4.1375,-4.205261 -5.8241,-7.435629 -6.2441,-11.675781 -0.4201,-4.240152 0.698,-10.014715 3.9179,-18.265625 7.5428,-19.327525 24.8449,-44.951225 53.586,-78.458985 23.2235,-27.07508 46.4001,-51.36256 130.8769,-137.11914 188.0257,-190.87411 368.5927,-371.44116 559.4668,-559.4668 85.731,-84.45151 110.1079,-107.71248 137.1211,-130.8789 33.5297,-28.75485 59.1298,-46.04125 78.4571,-53.58395 8.4806,-3.3096 12.3288,-4.1197 17.6406,-3.9825 z m -2140.84768,0.047 c 3.79953,0.288 8.59502,1.5206 14.7832,3.9356 19.32754,7.5427 44.95123,24.8429 78.45899,53.58395 27.07508,23.22354 51.36256,46.40205 137.11914,130.8789 141.78856,139.67262 309.61124,306.86086 422.78515,421.1875 210.251,212.39266 238.1672,241.13027 267.5606,275.39844 28.741,33.50776 46.0412,59.13146 53.5839,78.458985 3.3096,8.480605 4.1197,12.326911 3.9825,17.638672 l -0.084,3.226562 -1.0977,2.15625 c -1.956,3.837049 -3.0492,5.243622 -6.6465,8.498047 -6.9193,6.259687 -12.8994,10.297352 -23.4609,15.767578 -28.8584,14.946871 -69.6793,27.544215 -172.8496,52.9531254 C 1053.3407,30.308838 780.53394,96.134925 669.15234,122.52734 c -177.73592,42.1154 -356.73513,83.94949 -400.66992,93.64649 -60.88051,13.43715 -96.99992,19.29385 -127.9707,20.85156 -6.24439,0.31408 -17.16698,0.36706 -21.6836,0.13086 -20.028144,-1.04725 -31.496788,-3.49303 -40.785151,-8.19531 -3.740755,-1.89378 -3.450996,-1.67434 -5.853516,-4.09571 -4.253988,-4.28739 -7.527115,-11.35832 -9.8125,-23.45703 -5.331508,-28.22475 -2.862496,-66.39741 8.818359,-127.179684 6.988006,-36.362624 19.188112,-89.500154 74.570308,-324.679686 36.80309,-156.28364 46.68848,-197.74538 83.51563,-350.27735 69.91942,-289.59479 79.05036,-326.11608 91.62305,-366.56054 14.18922,-45.64454 26.33492,-70.29224 39.91992,-83.65824 4.20526,-4.1375 7.43563,-5.8241 11.67578,-6.2441 1.06004,-0.105 2.21591,-0.1136 3.48242,-0.018 z"
       id="edgeEffect"
       inkscape:connector-curvature="0"
       inkscape:label="edgeEffect" />
    <path
       style="fill:#000000;stroke-width:0.35277778;fill-opacity:1"
       d="M 0,-1147.9778 V -2592.9556 H 1444.9778 2889.9556 V -1147.9778 297 H 1444.9778 0 Z M 140.79481,242.66308 c 31.45905,-1.58227 67.90193,-7.51268 128.90381,-20.97662 44.11964,-9.7378 223.00837,-51.5486 400.75556,-93.66667 111.4184,-26.40114 384.18762,-92.217978 481.01252,-116.064133 103.2536,-25.429422 144.464,-38.07513 174.0958,-53.422586 10.811,-5.59943 17.4085,-10.040162 24.6515,-16.592691 3.8749,-3.505553 5.7271,-5.882147 7.8881,-10.121371 l 1.6799,-3.295404 0.1163,-4.503914 c 0.1569,-6.071728 -0.9416,-11.062723 -4.3661,-19.837753 -7.9804,-20.448978 -25.6267,-46.349848 -54.559,-80.080558 -29.528,-34.42515 -57.5792,-63.2998 -267.8335,-275.69584 C 919.93866,-565.9485 752.11207,-733.14125 610.30556,-872.83155 524.5371,-957.32011 500.11641,-980.62725 472.89862,-1003.9732 c -33.73071,-28.9323 -59.63158,-46.5786 -80.08056,-54.559 -17.28604,-6.746 -26.39279,-5.8439 -35.95218,3.5615 -14.81951,14.5806 -27.06668,40.0531 -41.35185,86.00632 -12.62869,40.62462 -21.79971,77.31167 -91.72003,366.9102 -36.82783,152.5348 -46.71952,194.02199 -83.52324,350.30834 C 84.887482,-16.561735 72.676968,36.605581 65.651624,73.162497 53.916838,134.2254 51.269788,173.02087 56.829844,202.45555 c 2.391869,12.66243 5.955856,20.94544 11.352714,26.38468 2.543718,2.56367 3.446808,3.20068 7.311888,5.1574 10.263163,5.19578 22.663891,7.72999 43.038894,8.79538 4.98654,0.26078 15.74212,0.19798 22.26147,-0.12993 z M 2780.9473,242.1699 c 20.522,-1.90786 33.6336,-6.19368 40.8485,-13.35246 2.5637,-2.54371 3.2007,-3.44682 5.1574,-7.31189 2.9926,-5.91114 4.6666,-11.07764 6.1725,-19.05 5.5532,-29.39817 2.8882,-68.46679 -8.8195,-129.293053 -7.1869,-37.339165 -20.2758,-94.25023 -78.9849,-343.429177 -32.9679,-139.92592 -41.8656,-177.24758 -74.2643,-311.50278 -67.3943,-279.2711 -79.3427,-327.64797 -90.6596,-367.06528 -10.9466,-38.12734 -19.3126,-61.20026 -28.9087,-79.72776 -5.5995,-10.811 -10.0402,-17.4085 -16.5927,-24.6515 -3.5056,-3.8749 -5.8822,-5.7271 -10.1214,-7.8881 l -3.2954,-1.6799 -4.5039,-0.1163 c -6.0717,-0.1569 -11.0627,0.9416 -19.8378,4.3661 -20.4478,7.98 -46.3283,25.612 -80.0805,54.5577 -27.157,23.28975 -51.6641,46.67969 -137.407,131.14295 -190.8933,188.04456 -371.4814,368.63267 -559.526,559.52599 -84.4885,85.76846 -107.7957,110.18915 -131.1416,137.40694 -28.9323,33.73071 -46.5786,59.63158 -54.559,80.080558 -6.746,17.286041 -5.8439,26.392788 3.5615,35.952184 17.1892,17.470826 50.0289,31.700541 115.1318,49.8875058 36.4231,10.17509902 94.6272,24.4966422 353.8361,87.0640042 135.3131,32.661618 173.4441,41.752838 315.9125,75.320178 224.694,52.94069 283.7055,66.60426 324.9084,75.22954 40.5395,8.48639 74.5803,13.59062 100.1888,15.02276 7.5252,0.42083 26.1759,0.14478 32.9848,-0.48821 z M 1455.7141,-118.58987 c 22.3281,-4.31556 51.5422,-22.16908 86.8678,-53.08727 29.6697,-25.96801 58.658,-54.21926 142.0656,-138.45342 172.0302,-173.73491 196.2255,-198.11034 272.0324,-274.05744 56.9836,-57.08904 97.5863,-97.50774 222.2521,-221.24494 10.4775,-10.39946 41.91,-41.51432 69.85,-69.14416 97.7596,-96.67441 123.8221,-122.92323 150.9143,-151.9935 31.9466,-34.2791 49.3938,-56.3913 61.5449,-78.0011 9.6727,-17.2021 14.2005,-31.0421 14.2005,-43.4061 0,-18.8321 -10.9082,-42.3548 -33.7003,-72.6722 -19.0628,-25.3569 -53.4642,-62.1965 -119.1087,-127.5505 -12.2898,-12.2355 -45.4433,-45.0872 -73.6743,-73.0037 -28.2311,-27.9165 -59.7429,-59.107 -70.0264,-69.312 -10.2835,-10.2051 -38.8585,-38.5452 -63.5,-62.978 -70.2231,-69.6282 -167.2558,-166.6198 -241.4037,-241.3017 -102.4032,-103.1404 -101.796,-102.5279 -155.6497,-156.9861 -82.7001,-83.6282 -111.4399,-112.3287 -136.0061,-135.8194 -43.9023,-41.9806 -69.5653,-62.9066 -93.9886,-76.6398 -17.2021,-9.6727 -31.0421,-14.2005 -43.4061,-14.2005 -18.8321,0 -42.3548,10.9082 -72.6722,33.7003 -25.407,19.1005 -62.4937,53.7395 -127.8983,119.4571 -12.4268,12.4863 -45.2004,45.5623 -72.8302,73.5023 -27.6298,27.94 -58.7424,59.3725 -69.1391,69.85 -10.3967,10.4775 -38.8152,39.1319 -63.1522,63.6764 -93.27566,94.0709 -166.22316,166.9007 -328.26218,327.7329 -10.4775,10.3995 -41.91,41.5144 -69.85,69.1442 -108.86359,107.6551 -136.13486,135.3084 -164.49739,166.8019 -28.43396,31.5727 -45.24498,55.1085 -54.82502,76.756 -6.93441,15.6692 -8.77294,27.5845 -6.26134,40.5791 4.31556,22.3281 22.16908,51.5422 53.08727,86.8678 25.97478,29.6774 54.06944,58.50515 138.45342,142.06582 28.03702,27.76347 66.84928,66.19773 86.24945,85.40944 82.40991,81.60932 124.80381,123.73579 187.80799,186.62316 57.25273,57.14661 93.00026,93.05681 220.8937,221.89888 10.2078,10.28347 41.3933,41.79535 69.3012,70.02639 55.6595,56.30404 111.1602,111.87797 126.8393,127.00681 44.3005,42.74552 68.9475,63.85038 91.7223,78.54019 6.4567,4.16465 7.1908,4.61274 11.6272,7.09753 12.1909,6.82798 22.5476,11.03362 31.9408,12.97048 4.9,1.01036 6.3693,1.16766 11.1396,1.19249 4.7494,0.0247 6.2506,-0.1174 11.062,-1.04736 z M 381.58608,-1233.8907 c 10.21468,-2.3867 20.62099,-7.0127 34.33893,-15.2648 26.03274,-15.6602 60.57868,-44.1441 104.42222,-86.0985 50.21594,-48.0523 231.63467,-227.3982 370.79541,-366.559 139.16076,-139.1607 318.50666,-320.5794 366.55896,-370.7954 36.8003,-38.4573 63.4974,-70.0703 79.654,-94.321 8.5526,-12.8373 14.3855,-23.4939 18.1766,-33.2081 6.746,-17.2861 5.8439,-26.3928 -3.5615,-35.9522 -14.5806,-14.8195 -40.0531,-27.0667 -86.0063,-41.3519 -37.1243,-11.5405 -75.7155,-21.2997 -272.37724,-68.8802 -212.56519,-51.4283 -270.69645,-65.3348 -429.3191,-102.7047 -247.46932,-58.3012 -303.13587,-71.1013 -340.43056,-78.2797 -60.82628,-11.7077 -99.89489,-14.3727 -129.293054,-8.8196 -12.662437,2.3919 -20.945444,5.9559 -26.384667,11.3528 -2.563689,2.5437 -3.200675,3.4468 -5.157399,7.3118 -2.992561,5.9112 -4.666601,11.0777 -6.172536,19.05 -5.560056,29.4347 -2.913006,68.2302 8.82178,129.2931 7.03131,36.588 19.188822,89.5245 74.619136,324.9083 35.88415,152.3815 46.52698,197.0474 79.68753,334.4334 65.10883,269.7495 77.93794,321.7546 88.72362,359.6569 11.21118,39.3976 20.03072,63.8934 29.78503,82.7264 5.59944,10.811 10.04016,17.4085 16.59268,24.6515 3.98261,4.4022 7.1181,6.6869 12.18205,8.8765 2.85129,1.2328 9.00585,1.2218 14.34441,-0.025 z m 2139.75452,0.079 c 4.3479,-1.1629 7.7539,-3.2424 11.7491,-7.1732 14.8195,-14.5806 27.0667,-40.0531 41.3519,-86.0063 11.5405,-37.1243 21.2997,-75.7155 68.8802,-272.3772 57.2563,-236.6538 77.5351,-321.7412 132.335,-555.2608 44.5272,-189.7445 51.6197,-222.8319 57.1316,-266.5236 4.9721,-39.4126 3.9986,-69.3487 -2.9195,-89.782 -2.0222,-5.9724 -4.2019,-9.7472 -7.7871,-13.4851 -2.8952,-3.0184 -3.4846,-3.4474 -7.5848,-5.5193 -5.9542,-3.0088 -11.1092,-4.6798 -19.0858,-6.1866 -29.3982,-5.5531 -68.4668,-2.8881 -129.2931,8.8196 -37.3392,7.1869 -94.2502,20.2758 -343.4292,78.9849 -139.9259,32.9679 -177.2476,41.8656 -311.5028,74.2644 -279.2711,67.3942 -327.6479,79.3426 -367.0652,90.6595 -38.1274,10.9466 -61.2003,19.3126 -79.7278,28.9087 -10.811,5.5995 -17.4085,10.0402 -24.6515,16.5927 -3.8749,3.5056 -5.7271,5.8822 -7.8881,10.1214 l -1.6799,3.2954 -0.1163,4.5039 c -0.1569,6.0717 0.9416,11.0627 4.3661,19.8378 7.98,20.4478 25.612,46.3283 54.5577,80.0805 23.2897,27.157 46.6797,51.6641 131.1429,137.407 188.1898,191.0407 368.4853,371.3362 559.526,559.526 85.7429,84.4632 110.25,107.8532 137.407,131.1429 33.7515,28.9451 59.6237,46.5717 80.0805,54.5583 11.055,4.3159 17.8032,5.3227 24.2031,3.6111 z"
       id="rawVisibility"
       inkscape:connector-curvature="0"
       inkscape:label="rawVisibility" />
    <g
       id="g6268">
      <rect
         y="274.42209"
         x="-35.277775"
         height="22.577778"
         width="22.577778"
         id="rect6262"
         style="opacity:1;fill:#ff00f4;fill-opacity:1;stroke:none;stroke-width:0.02844466;stroke-miterlimit:4;stroke-dasharray:none;stroke-opacity:1" />
      <rect
         style="opacity:1;fill:#000000;fill-opacity:1;stroke:none;stroke-width:0.02666686;stroke-miterlimit:4;stroke-dasharray:none;stroke-opacity:1"
         id="rect6264"
         width="21.166666"
         height="21.166666"
         x="-35.277775"
         y="275.83319" />
      <rect
         style="opacity:1;fill:#ff00f4;fill-opacity:1;stroke:none;stroke-width:0.01081685;stroke-miterlimit:4;stroke-dasharray:none;stroke-opacity:1"
         id="rect6270"
         width="1.4111111"
         height="52.239849"
         x="-35.277775"
         y="259.59094" />
      <rect
         style="stroke:none;fill:none"
         width="22.577778"
         height="22.577778"
         x="-70.55555"
         y="274.42217"
         id="rect6326" />
      <rect
         style="opacity:1;fill:#000000;fill-opacity:1;stroke:none;stroke-width:0.02844465;stroke-miterlimit:4;stroke-dasharray:none;stroke-opacity:1"
         id="rect6296"
         width="22.577778"
         height="22.577778"
         x="-141.11122"
         y="274.42209" />
      <rect
         style="opacity:1;fill:#ff00f4;fill-opacity:1;stroke:none;stroke-width:0.01081685;stroke-miterlimit:4;stroke-dasharray:none;stroke-opacity:1"
         id="rect6298"
         width="1.4111111"
         height="52.239849"
         x="-141.11122"
         y="259.59094" />
      <rect
         y="259.59094"
         x="-129.82233"
         height="52.239849"
         width="1.4111111"
         id="rect6300"
         style="opacity:1;fill:#ff00f4;fill-opacity:1;stroke:none;stroke-width:0.01081685;stroke-miterlimit:4;stroke-dasharray:none;stroke-opacity:1" />
      <rect
         transform="rotate(90)"
         y="109.94484"
         x="295.58875"
         height="42.731384"
         width="1.4111111"
         id="rect6302"
         style="opacity:1;fill:#ff00f4;fill-opacity:1;stroke:none;stroke-width:0.00978303;stroke-miterlimit:4;stroke-dasharray:none;stroke-opacity:1" />
      <rect
         style="opacity:1;fill:#ff00f4;fill-opacity:1;stroke:none;stroke-width:0.00978303;stroke-miterlimit:4;stroke-dasharray:none;stroke-opacity:1"
         id="rect6304"
         width="1.4111111"
         height="42.731384"
         x="284.29987"
         y="109.94484"
         transform="rotate(90)" />
      <rect
         transform="rotate(-45)"
         style="opacity:1;fill:#ff00f4;fill-opacity:1;stroke:none;stroke-width:0.01081685;stroke-miterlimit:4;stroke-dasharray:none;stroke-opacity:1"
         id="rect6306"
         width="1.4111111"
         height="52.239849"
         x="-293.53412"
         y="84.110069" />
      <rect
         y="-319.94626"
         x="-110.93539"
         height="52.239849"
         width="1.4111111"
         id="rect6308"
         style="opacity:1;fill:#ff00f4;fill-opacity:1;stroke:none;stroke-width:0.01081685;stroke-miterlimit:4;stroke-dasharray:none;stroke-opacity:1"
         transform="rotate(-135)" />
      <rect
         y="274.42218"
         x="-70.55555"
         height="22.577778"
         width="22.577778"
         id="rect6328"
         style="opacity:1;fill:#000000;fill-opacity:1;stroke:none;stroke-width:0.02844465;stroke-miterlimit:4;stroke-dasharray:none;stroke-opacity:1" />
      <rect
         style="stroke:none;fill:url(#pattern6336)"
         width="22.577434"
         height="22.57742"
         x="-70.555383"
         y="274.4224"
         id="rect6339" />
      <rect
         y="251.84422"
         x="-246.94444"
         height="45.155556"
         width="45.155556"
         id="rect6355"
         style="opacity:1;fill:#000000;fill-opacity:1;stroke:none;stroke-width:0.0568893;stroke-miterlimit:4;stroke-dasharray:none;stroke-opacity:1" />
      <rect
         style="stroke:none;fill:url(#pattern6450)"
         width="45.155551"
         height="45.155649"
         x="-246.94432"
         y="251.84426"
         id="rect6461" />
      <rect
         style="opacity:1;fill:#000000;fill-opacity:1;stroke:none;stroke-width:0.02844465;stroke-miterlimit:4;stroke-dasharray:none;stroke-opacity:1"
         id="rect6387"
         width="22.577778"
         height="22.577778"
         x="-176.38889"
         y="274.42209" />
      <path
         id="path6389"
         d="m -176.38876,274.42221 v 22.57742 h 1.41077 v -22.57742 z"
         style="opacity:0.544;fill:#ff00a8;fill-opacity:1;stroke:none;stroke-width:0.01081685;stroke-miterlimit:4;stroke-dasharray:none;stroke-opacity:1"
         inkscape:connector-curvature="0" />
      <path
         id="path6391"
         d="m -165.10004,274.42221 v 22.57742 h 1.41128 v -22.57742 z"
         style="opacity:0.544;fill:#ff00f4;fill-opacity:1;stroke:none;stroke-width:0.01081685;stroke-miterlimit:4;stroke-dasharray:none;stroke-opacity:1"
         inkscape:connector-curvature="0" />
      <path
         id="path6393"
         d="m -176.38876,295.58888 v 1.41075 h 22.57743 v -1.41075 z"
         style="opacity:0.544;fill:#dc1d9b;fill-opacity:1;stroke:none;stroke-width:0.00978303;stroke-miterlimit:4;stroke-dasharray:none;stroke-opacity:1"
         inkscape:connector-curvature="0" />
      <path
         id="path6395"
         d="m -176.38876,284.29963 v 1.41129 h 22.57743 v -1.41129 z"
         style="opacity:0.544;fill:#ff00f4;fill-opacity:1;stroke:none;stroke-width:0.00978303;stroke-miterlimit:4;stroke-dasharray:none;stroke-opacity:1"
         inkscape:connector-curvature="0" />
      <path
         id="path6397"
         d="m -175.97535,274.42221 22.16402,22.16414 v -1.99575 l -20.16828,-20.16839 z"
         style="opacity:0.544;fill:#bb00ff;fill-opacity:1;stroke:none;stroke-width:0.01081685;stroke-miterlimit:4;stroke-dasharray:none;stroke-opacity:1"
         inkscape:connector-curvature="0" />
      <path
         id="path6399"
         d="m -154.8092,274.42221 -21.57956,21.57968 v 0.99774 h 0.99787 l 21.57956,-21.57994 v -0.99748 z"
         style="opacity:0.544;fill:#bb00ff;fill-opacity:1;stroke:none;stroke-width:0.01081685;stroke-miterlimit:4;stroke-dasharray:none;stroke-opacity:1"
         inkscape:connector-curvature="0" />
    </g>
  </g>
</svg>
