# 
# Wavefront OBJ file
# Converted by the DEEP Exploration 3.5.7.1088
# Right Hemisphere, LTD
# http://www.righthemisphere.com/
# 
# object Object #0
g Object__0
v 0.128083 2.16177 0.161497
v 0.128083 2.10999 0.320231
v 0.128083 2.02468 0.473485
v 0.128083 1.90728 0.618638
v 0.128083 1.75982 0.753206
v 0.128083 1.58481 0.874887
v 0.128083 1.38526 0.981598
v 0.128083 1.16457 1.07151
v 0.128083 0.926516 1.14309
v 0.128083 0.675179 1.19512
v 0.128083 0.414855 1.22669
v 0.128083 0.15 1.23728
v 0.253559 2.10013 0.156549
v 0.253559 2.04994 0.310419
v 0.253559 1.96723 0.458978
v 0.253559 1.85344 0.599683
v 0.253559 1.71049 0.730128
v 0.253559 1.54085 0.84808
v 0.253559 1.34741 0.951521
v 0.253559 1.13348 1.03868
v 0.253559 0.902723 1.10807
v 0.253559 0.659087 1.1585
v 0.253559 0.40674 1.18911
v 0.253559 0.15 1.19937
v 0.373874 1.99879 0.148413
v 0.373874 1.95121 0.294288
v 0.373874 1.8728 0.435126
v 0.373874 1.76492 0.56852
v 0.373874 1.6294 0.692186
v 0.373874 1.46857 0.804009
v 0.373874 1.28519 0.902075
v 0.373874 1.08237 0.984706
v 0.373874 0.863607 1.05049
v 0.373874 0.632632 1.0983
v 0.373874 0.393398 1.12731
v 0.373874 0.15 1.13704
v 0.486788 1.85982 0.137257
v 0.486788 1.81581 0.272166
v 0.486788 1.74329 0.402417
v 0.486788 1.64352 0.525783
v 0.486788 1.51819 0.640153
v 0.486788 1.36945 0.74357
v 0.486788 1.19985 0.834264
v 0.486788 1.01228 0.910684
v 0.486788 0.809964 0.971521
v 0.486788 0.596352 1.01574
v 0.486788 0.375102 1.04257
v 0.486788 0.15 1.05157
v -0.128083 2.16177 0.161497
v -0.128083 2.10999 0.320231
v -0.128083 2.02468 0.473485
v -0.128083 1.90728 0.618638
v -0.128083 1.75982 0.753206
v -0.128083 1.58481 0.874887
v -0.128083 1.38526 0.981598
v -0.128083 1.16457 1.07151
v -0.128083 0.926516 1.14309
v -0.128083 0.675179 1.19512
v -0.128083 0.414855 1.22669
v -0.128083 0.15 1.23728
v -0.253559 2.10013 0.156549
v -0.253559 2.04994 0.310419
v -0.253559 1.96723 0.458978
v -0.253559 1.85344 0.599683
v -0.253559 1.71049 0.730128
v -0.253559 1.54085 0.84808
v -0.253559 1.34741 0.951521
v -0.253559 1.13348 1.03868
v -0.253559 0.902723 1.10807
v -0.253559 0.659087 1.1585
v -0.253559 0.40674 1.18911
v -0.253559 0.15 1.19937
v -0.373874 1.99879 0.148413
v -0.373874 1.95121 0.294288
v -0.373874 1.8728 0.435126
v -0.373874 1.76492 0.56852
v -0.373874 1.6294 0.692186
v -0.373874 1.46857 0.804009
v -0.373874 1.28519 0.902075
v -0.373874 1.08237 0.984706
v -0.373874 0.863607 1.05049
v -0.373874 0.632632 1.0983
v -0.373874 0.393398 1.12731
v -0.373874 0.15 1.13704
v -0.486788 1.85982 0.137257
v -0.486788 1.81581 0.272166
v -0.486788 1.74329 0.402417
v -0.486788 1.64352 0.525783
v -0.486788 1.51819 0.640153
v -0.486788 1.36945 0.74357
v -0.486788 1.19985 0.834264
v -0.486788 1.01228 0.910684
v -0.486788 0.809964 0.971521
v -0.486788 0.596352 1.01574
v -0.486788 0.375102 1.04257
v -0.486788 0.15 1.05157
v 0 0.15 0
v 0 1.175 1.08253
v 0 0.934501 1.15485
v 0 0.680579 1.20741
v 0 0.417579 1.23931
v 0 0.15 1.25
v 0 2.18246 0.163158
v 0 2.13015 0.323524
v 0 2.04395 0.478354
v 0 1.92535 0.625
v 0 1.77637 0.760952
v 0 1.59957 0.883883
v 0 1.39796 0.991692
v -0.526788 0.15 1.07146
v -0.395298 0.15 1.17099
v -0.268672 0.15 1.23659
v -0.135919 0.15 1.2767
v 0 0.15 1.2902
v 0.135919 0.15 1.2767
v 0.268672 0.15 1.23659
v 0.395298 0.15 1.17099
v 0.526788 0.15 1.07146
v -0.526788 -0.07 1.07146
v -0.395298 -0.07 1.17099
v -0.268672 -0.07 1.23659
v -0.135919 -0.07 1.2767
v 0 -0.07 1.2902
v 0.135919 -0.07 1.2767
v 0.268672 -0.07 1.23659
v 0.395298 -0.07 1.17099
v 0.526788 -0.07 1.07146
v -0.566788 -0.07 1.09134
v -0.416723 -0.07 1.20494
v -0.283784 -0.07 1.27381
v -0.143754 -0.07 1.31611
v 0 -0.07 1.33039
v 0.143754 -0.07 1.31611
v 0.283784 -0.07 1.27381
v 0.416723 -0.07 1.20494
v 0.566788 -0.07 1.09134
v -0.566788 -1.15 1.09134
v -0.416723 -1.15 1.20494
v -0.283784 -1.15 1.27381
v -0.143754 -1.15 1.31611
v 0 -1.15 1.33039
v 0.143754 -1.15 1.31611
v 0.283784 -1.15 1.27381
v 0.416723 -1.15 1.20494
v 0.566788 -1.15 1.09134
v -0.486788 -1.15 1.78814e-009
v -0.486788 -1.15 1.05157
v -0.373874 -1.15 1.13704
v -0.253559 -1.15 1.19937
v -0.128083 -1.15 1.23728
v 0 -1.15 1.25
v 0.128083 -1.15 1.23728
v 0.253559 -1.15 1.19937
v 0.373874 -1.15 1.13704
v 0.486788 -1.15 1.05157
v 0.486788 -1.15 1.78814e-009
v 0 -1.15 1.78814e-009
v -0.486788 -2.13 1.78814e-009
v -0.486788 -2.13 1.05157
v -0.373874 -2.13 1.13704
v -0.253559 -2.13 1.19937
v -0.128083 -2.13 1.23728
v 0 -2.13 1.25
v 0.128083 -2.13 1.23728
v 0.253559 -2.13 1.19937
v 0.373874 -2.13 1.13704
v 0.486788 -2.13 1.05157
v 0.486788 -2.13 1.78814e-009
v 0 -2.13 1.78814e-009
v -0.486788 -1.15 0
v 0 -1.15 0
v 0.486788 -1.15 0
v -0.566788 -1.15 0
v 0.566788 -1.15 -1.38778e-017
v -0.526788 -0.07 0
v -0.566788 -0.07 0
v 0.526788 -0.07 0
v 0.566788 -0.07 -1.38778e-017
v -0.486788 0.15 0
v -0.526788 0.15 0
v 0.486788 0.15 0
v 0.526788 0.15 0
v -0.128083 2.17913 0
v -0.253559 2.11696 0
v -0.373874 2.01475 0
v -0.486788 1.87457 0
v 0 2.2 0
v 0.128083 2.17913 0
v 0.253559 2.11696 0
v 0.373874 2.01475 0
v 0.486788 1.87457 0
# 191 verticies
vn 0 0.96988 0.243583
vn -2.52265e-009 0.903084 0.429464
vn 0.291082 0.877223 0.381773
vn 0.30163 0.932533 0.198499
vn 2.51742e-009 0.812242 0.58332
vn 0.27661 0.796845 0.537145
vn 0 0.710333 0.703866
vn 0.260745 0.703152 0.661506
vn -2.50811e-009 0.606421 0.795144
vn 0.245384 0.60516 0.757342
vn 1.25237e-009 0.505402 0.862884
vn 0.231638 0.508248 0.829474
vn -1.25109e-009 0.409205 0.912442
vn 0.220018 0.414907 0.882861
vn 0 0.318053 0.948073
vn 0.210674 0.325819 0.921661
vn 0 0.231305 0.972881
vn 0.203581 0.240682 0.949014
vn 1.24905e-009 0.147943 0.988996
vn 0.198652 0.158715 0.967133
vn -2.49763e-009 0.0668042 0.997766
vn 0.195798 0.0789296 0.977463
vn 0 0.0399336 0.999202
vn 0.162866 0.0394004 0.985861
vn 0.529749 0.777889 0.338017
vn 0.544453 0.820558 0.173942
vn 0.508707 0.714078 0.480946
vn 0.484748 0.63723 0.59913
vn 0.460734 0.554218 0.693229
vn 0.43859 0.469703 0.766171
vn 0.419393 0.386295 0.821514
vn 0.403634 0.305125 0.862542
vn 0.391467 0.226399 0.891907
vn 0.382881 0.149798 0.911572
vn 0.377812 0.0747295 0.922862
vn 0.347213 0.0374494 0.937038
vn 0.697794 0.656978 0.285417
vn 0.711477 0.687475 0.145526
vn 0.677553 0.610011 0.410864
vn 0.653639 0.551365 0.518414
vn 0.628756 0.485579 0.607354
vn 0.604998 0.416189 0.678796
vn 0.583767 0.345561 0.734713
vn 0.565894 0.275055 0.777244
vn 0.551812 0.2053 0.808304
vn 0.541715 0.136438 0.829415
vn 0.535671 0.0683136 0.841659
vn 0.50917 0.0343695 0.859979
vn 0.764531 0.598441 0.239502
vn 0.775659 0.621274 0.111225
vn 0.746879 0.561049 0.356927
vn 0.72508 0.512471 0.460036
vn 0.701572 0.456201 0.547428
vn 0.678428 0.395234 0.619294
vn 0.657184 0.3318 0.676771
vn 0.638858 0.267369 0.72137
vn 0.624066 0.202786 0.754598
vn 0.613149 0.138441 0.777742
vn 0.606274 0.0744191 0.791766
vn 0.603244 0.0318492 0.79692
vn 0 0 -1
vn -0.291082 0.877223 0.381773
vn -0.30163 0.932533 0.198499
vn -0.27661 0.796845 0.537145
vn -0.260745 0.703152 0.661506
vn -0.245384 0.60516 0.757342
vn -0.231638 0.508248 0.829474
vn -0.220018 0.414907 0.882861
vn -0.210674 0.325819 0.921661
vn -0.203581 0.240682 0.949014
vn -0.198652 0.158715 0.967133
vn -0.195798 0.0789296 0.977463
vn -0.162866 0.0394004 0.985861
vn -0.529749 0.777889 0.338017
vn -0.544453 0.820558 0.173942
vn -0.508707 0.714078 0.480946
vn -0.484748 0.63723 0.59913
vn -0.460734 0.554218 0.693229
vn -0.43859 0.469703 0.766171
vn -0.419393 0.386295 0.821514
vn -0.403634 0.305125 0.862542
vn -0.391467 0.226399 0.891907
vn -0.382881 0.149798 0.911572
vn -0.377812 0.0747295 0.922862
vn -0.347213 0.0374494 0.937038
vn -0.697794 0.656978 0.285417
vn -0.711477 0.687475 0.145526
vn -0.677553 0.610011 0.410864
vn -0.653639 0.551365 0.518414
vn -0.628756 0.485579 0.607354
vn -0.604998 0.416189 0.678796
vn -0.583767 0.345561 0.734713
vn -0.565894 0.275055 0.777244
vn -0.551812 0.2053 0.808304
vn -0.541715 0.136438 0.829415
vn -0.535671 0.0683136 0.841659
vn -0.50917 0.0343695 0.859979
vn -0.764531 0.598441 0.239502
vn -0.775659 0.621274 0.111225
vn -0.746879 0.561049 0.356927
vn -0.72508 0.512471 0.460036
vn -0.701572 0.456201 0.547428
vn -0.678428 0.395234 0.619294
vn -0.657184 0.3318 0.676771
vn -0.638858 0.267369 0.72137
vn -0.624066 0.202786 0.754598
vn -0.613149 0.138441 0.777742
vn -0.606274 0.0744191 0.791766
vn -0.603244 0.0318492 0.79692
vn 0 1 0
vn -0.55748 0 0.83019
vn -0.509468 0 0.86049
vn -0.60355 0 0.797325
vn -0.404587 0 0.9145
vn -0.347453 0 0.937697
vn -0.226715 0 0.973961
vn -0.16299 0 0.986628
vn 0 0 1
vn 0.16299 0 0.986628
vn 0.226715 0 0.973961
vn 0.347453 0 0.937697
vn 0.404587 0 0.9145
vn 0.509468 0 0.86049
vn 0.55748 0 0.83019
vn 0.60355 0 0.797325
vn -0.55748 0 0.83019
vn -0.509468 0 0.86049
vn -0.60355 0 0.797325
vn -0.404587 0 0.914499
vn -0.347454 0 0.937697
vn -0.226716 0 0.973961
vn -0.16299 0 0.986628
vn 0.16299 0 0.986628
vn 0.226716 0 0.973961
vn 0.347454 0 0.937697
vn 0.404587 0 0.914499
vn 0.509468 0 0.86049
vn 0.55748 0 0.83019
vn 0.60355 0 0.797325
vn 0 -1 0
vn -1.46929e-016 -1 0
vn -0.55748 0 0.83019
vn -0.509468 0 0.86049
vn -0.60355 0 0.797325
vn -0.404587 0 0.914499
vn -0.347453 0 0.937697
vn -0.226715 0 0.973961
vn -0.16299 0 0.986628
vn 0.16299 0 0.986628
vn 0.226715 0 0.973961
vn 0.347453 0 0.937697
vn 0.404587 0 0.914499
vn 0.509468 0 0.86049
vn 0.60355 0 0.797325
vn 0.351364 0.930877 0.100061
vn 0 0.994272 0.106876
vn 0.581338 0.809002 0.0869601
vn 0.736002 0.673102 0.0723519
vn 0.777002 0.625893 0.0672781
vn 1 0 0
vn -0.351364 0.930877 0.100061
vn -0.581338 0.809002 0.0869601
vn -0.736002 0.673102 0.0723519
vn -0.777002 0.625893 0.0672781
vn -1 0 0
vn -2.20394e-016 -1 0
vn -4.40788e-016 -1 0
vn -1.73472e-016 1.75653e-016 -1
vn -1.04083e-016 6.25513e-017 -1
vn -1.73472e-016 0 -1
vn -8.67362e-017 -6.4249e-018 -1
vn 0 -1.28498e-017 -1
vn -5.78241e-017 5.64094e-017 -1
# 173 normals
f  103//1 104//2 2//3 1//4
f  104//2 105//5 3//6 2//3
f  105//5 106//7 4//8 3//6
f  106//7 107//9 5//10 4//8
f  107//9 108//11 6//12 5//10
f  108//11 109//13 7//14 6//12
f  109//13 98//15 8//16 7//14
f  98//15 99//17 9//18 8//16
f  99//17 100//19 10//20 9//18
f  100//19 101//21 11//22 10//20
f  101//21 102//23 12//24 11//22
f  1//4 2//3 14//25 13//26
f  2//3 3//6 15//27 14//25
f  3//6 4//8 16//28 15//27
f  4//8 5//10 17//29 16//28
f  5//10 6//12 18//30 17//29
f  6//12 7//14 19//31 18//30
f  7//14 8//16 20//32 19//31
f  8//16 9//18 21//33 20//32
f  9//18 10//20 22//34 21//33
f  10//20 11//22 23//35 22//34
f  11//22 12//24 24//36 23//35
f  13//26 14//25 26//37 25//38
f  14//25 15//27 27//39 26//37
f  15//27 16//28 28//40 27//39
f  16//28 17//29 29//41 28//40
f  17//29 18//30 30//42 29//41
f  18//30 19//31 31//43 30//42
f  19//31 20//32 32//44 31//43
f  20//32 21//33 33//45 32//44
f  21//33 22//34 34//46 33//45
f  22//34 23//35 35//47 34//46
f  23//35 24//36 36//48 35//47
f  25//38 26//37 38//49 37//50
f  26//37 27//39 39//51 38//49
f  27//39 28//40 40//52 39//51
f  28//40 29//41 41//53 40//52
f  29//41 30//42 42//54 41//53
f  30//42 31//43 43//55 42//54
f  31//43 32//44 44//56 43//55
f  32//44 33//45 45//57 44//56
f  33//45 34//46 46//58 45//57
f  34//46 35//47 47//59 46//58
f  35//47 36//48 48//60 47//59
f  187//61 188//61 189//61 190//61 191//61 181//61 97//61
f  50//62 104//2 103//1 49//63
f  51//64 105//5 104//2 50//62
f  52//65 106//7 105//5 51//64
f  53//66 107//9 106//7 52//65
f  54//67 108//11 107//9 53//66
f  55//68 109//13 108//11 54//67
f  56//69 98//15 109//13 55//68
f  57//70 99//17 98//15 56//69
f  58//71 100//19 99//17 57//70
f  59//72 101//21 100//19 58//71
f  60//73 102//23 101//21 59//72
f  62//74 50//62 49//63 61//75
f  63//76 51//64 50//62 62//74
f  64//77 52//65 51//64 63//76
f  65//78 53//66 52//65 64//77
f  66//79 54//67 53//66 65//78
f  67//80 55//68 54//67 66//79
f  68//81 56//69 55//68 67//80
f  69//82 57//70 56//69 68//81
f  70//83 58//71 57//70 69//82
f  71//84 59//72 58//71 70//83
f  72//85 60//73 59//72 71//84
f  74//86 62//74 61//75 73//87
f  75//88 63//76 62//74 74//86
f  76//89 64//77 63//76 75//88
f  77//90 65//78 64//77 76//89
f  78//91 66//79 65//78 77//90
f  79//92 67//80 66//79 78//91
f  80//93 68//81 67//80 79//92
f  81//94 69//82 68//81 80//93
f  82//95 70//83 69//82 81//94
f  83//96 71//84 70//83 82//95
f  84//97 72//85 71//84 83//96
f  86//98 74//86 73//87 85//99
f  87//100 75//88 74//86 86//98
f  88//101 76//89 75//88 87//100
f  89//102 77//90 76//89 88//101
f  90//103 78//91 77//90 89//102
f  91//104 79//92 78//91 90//103
f  92//105 80//93 79//92 91//104
f  93//106 81//94 80//93 92//105
f  94//107 82//95 81//94 93//106
f  95//108 83//96 82//95 94//107
f  96//109 84//97 83//96 95//108
f  179//61 186//61 185//61 184//61 183//61 187//61 97//61
f  110//110 111//110 84//110 96//110
f  111//110 112//110 72//110 84//110
f  112//110 113//110 60//110 72//110
f  113//110 114//110 102//110 60//110
f  102//110 114//110 115//110 12//110
f  12//110 115//110 116//110 24//110
f  24//110 116//110 117//110 36//110
f  36//110 117//110 118//110 48//110
f  120//111 111//112 110//113 119//113
f  121//114 112//115 111//112 120//111
f  122//116 113//117 112//115 121//114
f  123//118 114//118 113//117 122//116
f  115//119 114//118 123//118 124//120
f  116//121 115//119 124//120 125//122
f  117//123 116//121 125//122 126//124
f  118//125 117//123 126//124 127//125
f  128//110 129//110 120//110 119//110
f  129//110 130//110 121//110 120//110
f  130//110 131//110 122//110 121//110
f  131//110 132//110 123//110 122//110
f  123//110 132//110 133//110 124//110
f  124//110 133//110 134//110 125//110
f  125//110 134//110 135//110 126//110
f  126//110 135//110 136//110 127//110
f  138//126 129//127 128//128 137//128
f  139//129 130//130 129//127 138//126
f  140//131 131//132 130//130 139//129
f  141//118 132//118 131//132 140//131
f  133//133 132//118 141//118 142//134
f  134//135 133//133 142//134 143//136
f  135//137 134//135 143//136 144//138
f  136//139 135//137 144//138 145//139
f  148//140 138//140 137//140 147//141
f  149//140 139//140 138//140 148//140
f  150//140 140//140 139//140 149//140
f  151//140 141//140 140//140 150//140
f  142//140 141//140 151//140 152//140
f  143//140 142//140 152//140 153//140
f  144//140 143//140 153//140 154//140
f  145//140 144//140 154//140 155//140
f  158//61 146//61 157//61 169//61
f  160//142 148//143 147//144 159//144
f  161//145 149//146 148//143 160//142
f  162//147 150//148 149//146 161//145
f  163//118 151//118 150//148 162//147
f  152//149 151//118 163//118 164//150
f  153//151 152//149 164//150 165//152
f  154//153 153//151 165//152 166//138
f  155//154 154//153 166//138 167//154
f  157//61 156//61 168//61 169//61
f  1//4 188//155 187//156 103//1
f  13//26 189//157 188//155 1//4
f  25//38 190//158 189//157 13//26
f  37//50 191//159 190//158 25//38
f  191//160 37//160 38//160 39//160 40//160 41//160 42//160 43//160\
44//160 45//160 46//160 47//160 48//160 181//160
f  187//156 183//161 49//63 103//1
f  183//161 184//162 61//75 49//63
f  184//162 185//163 73//87 61//75
f  185//163 186//164 85//99 73//87
f  96//165 95//165 94//165 93//165 92//165 91//165 90//165 89//165\
88//165 87//165 86//165 85//165 186//165 179//165
f  167//140 166//140 165//140 164//140 163//140 162//140 161//140\
160//140 159//140 158//140 169//140 168//140
f  96//110 179//110 180//110 110//110
f  181//110 48//110 118//110 182//110
f  180//165 175//165 119//165 110//165
f  127//160 177//160 182//160 118//160
f  119//110 175//110 176//110 128//110
f  177//110 127//110 136//110 178//110
f  176//165 173//165 137//165 128//165
f  145//160 174//160 178//160 136//160
f  173//166 146//167 147//141 137//140
f  155//140 156//140 174//140 145//140
f  146//165 158//165 159//165 147//165
f  167//160 168//160 156//160 155//160
f  181//61 182//61 177//168 178//169 174//170 172//171 171//172\
170//172 173//173 176//61 175//61 180//61 179//61 186//61 185//61\
184//61 183//61 187//61 188//61 189//61 190//61 191//61
