# 
# Wavefront OBJ file
# Converted by the DEEP Exploration 3.5.7.1088
# Right Hemisphere, LTD
# http://www.righthemisphere.com/
# 
# object Object #0
g Object__0
v 0.118721 -0.1 0.00176777
v 0.12 0.0982322 0
v 0.121165 -0.0994725 0.00823223
v 0.12 0.0982322 0.01
v 0.384618 0.0217678 0
v 0.384618 0.0217678 0.01
v 0.385 0.1 0.00823223
v 0.385 0.1 0.00176777
v 0.498232 0.0217678 0
v 0.5 0.0217678 0.00823223
v 0.5 0.0982322 0.00823223
v 0.498232 0.0982322 0
v 0.0732322 -0.07 0.00176777
v 0.075 -0.00176777 0.00176777
v 0.075 -0.00176777 0.00823223
v 0.0732322 -0.07 0.00823223
v 0.105 0.065 0.00853553
v 0.101464 0.0914645 0.005
v 0.105 0.0685355 0.0164645
v 0.101464 0.095 0.02
v 0.101464 0.005 0.0164645
v 0.101464 0.00853553 0.005
v 0.105 0.0914645 0.0514645
v 0.105 0.0685355 0.0514645
v 0.05 0.0335355 0.00853553
v 0.05 0.0714645 0.00853553
v 0.05 0.0335355 0.0864645
v 0.05 0.0714645 0.0864645
v -1.38778e-017 0.065 0.005
v -1.38778e-017 0.00853553 0.02
v -1.24759e-017 0.095 0.0514645
v -1.24759e-017 0.065 0.0235355
v -0.121165 -0.0994725 0.00176777
v -0.12 0.0982322 0
v -0.119618 -0.0982322 0.01
v -0.12 0.1 0.00823223
v -0.386279 0.02 0.00176777
v -0.384618 0.0217678 0.01
v -0.385 0.1 0.00823223
v -0.385 0.0982322 0
v -0.5 0.0217678 0.00176777
v -0.5 0.0217678 0.00823223
v -0.5 0.0982322 0.00823223
v -0.5 0.0982322 0.00176777
v -0.075 -0.0682322 0.00176777
v -0.075 -0.00176777 0.00176777
v -0.075 -0.00176777 0.00823223
v -0.075 -0.0682322 0.00823223
v -0.101464 0.065 0.005
v -0.101464 0.0914645 0.005
v -0.101464 0.065 0.0235355
v -0.105 0.0914645 0.02
v -0.101464 0.005 0.0164645
v -0.101464 0.00853553 0.005
v -0.105 0.0914645 0.0514645
v -0.105 0.0685355 0.0514645
v -0.05 0.0335355 0.00853553
v -0.05 0.0714645 0.00853553
v -0.05 0.0335355 0.0864645
v -0.05 0.0714645 0.0864645
v 1.38778e-017 0.065 0.005
v 1.06068e-017 0.005 0.0164645
v 1.22423e-017 0.0914645 0.055
v 1.38778e-017 0.0614645 0.02
v 0 -0.1 0.00176777
v 0 -0.0982322 0.01
v 0 -0.0717678 0
v 0 -0.07 0.00823223
v 0 2.98023e-010 0.00176777
v 0 0.00176777 0.01
v 8.17756e-019 0.00853553 0.005
v 0 0.03 0.00853553
v 0 0.03 0.0864645
v 0 0.0982322 0
v 0 0.1 0.00823223
v -1.63551e-018 0.0914645 0.005
v 0 0.095 0.02
v -1.63551e-018 0.0685355 0.055
v 0 0.0714645 0.005
v 0 0.0714645 0.09
v 0.0464645 0.0335355 0.005
v 0.0464645 0.03 0.00853553
v 0.0464645 0.075 0.00853553
v 0.0464645 0.0714645 0.005
v 0.0464645 0.03 0.0864645
v 0.0464645 0.0335355 0.09
v 0.0464645 0.0714645 0.09
v 0.0464645 0.075 0.0864645
v -0.0464645 0.03 0.00853553
v -0.0464645 0.0335355 0.005
v -0.0464645 0.0714645 0.005
v -0.0464645 0.075 0.00853553
v -0.0464645 0.0335355 0.09
v -0.0464645 0.03 0.0864645
v -0.0464645 0.075 0.0864645
v -0.0464645 0.0714645 0.09
v 0 0.0335355 0.005
v 0 0.0335355 0.09
v 0 0.075 0.00853553
v 0 0.075 0.0864645
v 0.101464 0.065 0.005
v 0.105 0.0914645 0.00853553
v 0.101464 0.095 0.00853553
v 0.101464 0.0614645 0.02
v 0.101464 0.065 0.0235355
v 0.105 0.0914645 0.02
v 0.101464 0.00853553 0.02
v 0.105 0.00853553 0.0164645
v 0.101464 0.005 0.00853553
v 0.105 0.00853553 0.00853553
v 0.101464 0.0914645 0.055
v 0.101464 0.095 0.0514645
v 0.101464 0.065 0.0514645
v 0.101464 0.0685355 0.055
v -1.06068e-017 0.005 0.0164645
v -1.22423e-017 0.0914645 0.055
v -1.38778e-017 0.0614645 0.02
v -0.105 0.065 0.00853553
v -0.101464 0.095 0.00853553
v -0.105 0.0914645 0.00853553
v -0.101464 0.0614645 0.02
v -0.105 0.0685355 0.0164645
v -0.101464 0.095 0.02
v -0.105 0.00853553 0.0164645
v -0.101464 0.00853553 0.02
v -0.105 0.00853553 0.00853553
v -0.101464 0.005 0.00853553
v -0.101464 0.095 0.0514645
v -0.101464 0.0914645 0.055
v -0.101464 0.0685355 0.055
v -0.101464 0.065 0.0514645
v 1.38778e-017 0.00853553 0.02
v 1.24759e-017 0.095 0.0514645
v 1.24759e-017 0.065 0.0235355
v 3.27103e-018 0.005 0.00853553
v -3.27103e-018 0.005 0.00853553
v -8.17756e-019 0.00853553 0.005
v 0 0.095 0.00853553
v 1.63551e-018 0.0914645 0.005
v -1.40187e-018 0.065 0.0514645
v 1.40187e-018 0.065 0.0514645
v 1.63551e-018 0.0685355 0.055
v 0.121165 -0.0994725 0.00176777
v 0.119618 -0.0982322 0
v 0.12 0.1 0.00176777
v 0.118721 -0.1 0.00823223
v 0.119618 -0.0982322 0.01
v 0.12 0.1 0.00823223
v 0.383835 0.0194725 0.00176777
v 0.386279 0.02 0.00176777
v 0.386279 0.02 0.00823223
v 0.383835 0.0194725 0.00823223
v 0.385 0.0982322 0.01
v 0.385 0.0982322 0
v 0.498232 0.02 0.00176777
v 0.5 0.0217678 0.00176777
v 0.498232 0.02 0.00823223
v 0.498232 0.0217678 0.01
v 0.498232 0.0982322 0.01
v 0.498232 0.1 0.00823223
v 0.5 0.0982322 0.00176777
v 0.498232 0.1 0.00176777
v 0.0767678 -0.0717678 0
v 0.075 -0.0682322 0.00176777
v 0.0767678 0.00176777 0
v 0.0732322 2.98023e-010 0.00176777
v 0.0732322 2.98023e-010 0.00823223
v 0.0767678 0.00176777 0.01
v 0.075 -0.0682322 0.00823223
v 0.0767678 -0.0717678 0.01
v -0.118721 -0.1 0.00176777
v -0.119618 -0.0982322 0
v -0.12 0.1 0.00176777
v -0.118721 -0.1 0.00823223
v -0.121165 -0.0994725 0.00823223
v -0.12 0.0982322 0.01
v -0.383835 0.0194725 0.00176777
v -0.384618 0.0217678 0
v -0.383835 0.0194725 0.00823223
v -0.386279 0.02 0.00823223
v -0.385 0.0982322 0.01
v -0.385 0.1 0.00176777
v -0.498232 0.02 0.00176777
v -0.498232 0.0217678 0
v -0.498232 0.0217678 0.01
v -0.498232 0.02 0.00823223
v -0.498232 0.1 0.00823223
v -0.498232 0.0982322 0.01
v -0.498232 0.0982322 0
v -0.498232 0.1 0.00176777
v -0.0767678 -0.0717678 0
v -0.0732322 -0.07 0.00176777
v -0.0732322 2.98023e-010 0.00176777
v -0.0767678 0.00176777 0
v -0.0767678 0.00176777 0.01
v -0.0732322 2.98023e-010 0.00823223
v -0.0732322 -0.07 0.00823223
v -0.0767678 -0.0717678 0.01
v 0 -0.0982322 0
v 0 -0.1 0.00823223
v 0 -0.07 0.00176777
v 0 -0.0717678 0.01
v 0 0.00176777 0
v 0 2.98023e-010 0.00823223
v 0 0.1 0.00176777
v 0 0.0982322 0.01
# 206 verticies
vn 0.070689 -0.997498 0
vn 0.141378 -0.989956 0
vn 0 -1 0
vn 1 0 0
vn 0 1 0
vn 0 0 -1
vn 0.347081 -0.937835 0
vn 0.279575 -0.960124 0
vn 0.34708 -0.937835 0
vn 0.279574 -0.960124 0
vn 0 0 1
vn 0.0706896 -0.997498 0
vn 0.141379 -0.989955 0
vn -0.102706 0.102706 -0.989395
vn -0.0612449 -0.061245 -0.996242
vn -0.102706 -0.102706 0.989395
vn -0.0612449 0.0612449 0.996242
vn -1 0 0
vn 0.996242 -0.061245 0.061245
vn -0.1061 -0.994355 0
vn -0.313525 -0.94958 0
vn -0.313526 -0.94958 0
vn -0.313526 -0.94958 0
vn -0.106101 -0.994355 0
vn 0.0612449 -0.061245 -0.996242
vn 0.102706 0.102706 -0.989395
vn 0.0612449 0.0612449 0.996242
vn 0.102706 -0.102706 0.989395
vn -0.996242 -0.061245 0.061245
vn 0.707107 -0.707107 0
vn 0.707107 0 -0.707107
vn 0 -0.707107 -0.707107
vn 0 -0.707107 -0.707107
vn 0.707106 0.707107 0
vn 0 0.707107 -0.707107
vn 0.707106 0 0.707107
vn 0 -0.707107 0.707107
vn 0 -0.707107 0.707107
vn 0 0.707107 0.707107
vn -0.707107 0 -0.707107
vn -0.707107 -0.707107 0
vn -0.707106 0.707107 0
vn -0.707106 0 0.707107
vn 0.57735 -0.57735 -0.57735
vn 0.57735 0.577351 -0.57735
vn 0.57735 -0.57735 0.577351
vn 0.57735 0.57735 0.57735
vn -0.57735 -0.57735 -0.57735
vn -0.57735 0.577351 -0.57735
vn -0.57735 -0.57735 0.577351
vn -0.57735 0.57735 0.57735
vn 0.707107 0 -0.707107
vn 0.707107 0.707107 0
vn 0.707107 -0.707107 0
vn 0.707107 0 0.707107
vn 0.707107 -0.707107 0
vn 0 -0.707107 0.707107
vn 0 -0.707107 -0.707107
vn 0.707107 0 0.707106
vn 0 0.707107 0.707106
vn 0 -0.707107 0.707106
vn -0.707107 0 -0.707107
vn -0.707107 0.707107 0
vn -0.707107 -0.707107 0
vn -0.707107 0 0.707107
vn -0.707107 -0.707107 0
vn -0.707107 0 0.707106
vn 0.57735 0.57735 -0.57735
vn 0.904534 -0.301511 0.301511
vn 0.57735 -0.57735 0.57735
vn 0.577351 -0.57735 -0.57735
vn 0.57735 0.57735 0.57735
vn 0.57735 -0.57735 0.57735
vn -0.57735 0.57735 -0.57735
vn -0.904534 -0.301511 0.301511
vn -0.57735 -0.57735 0.57735
vn -0.577351 -0.57735 -0.57735
vn -0.57735 0.57735 0.57735
vn -0.57735 -0.57735 0.57735
vn 0.0532235 -0.719481 -0.69247
vn 0 -0.707106 -0.707107
vn 0.187187 -0.688893 -0.700276
vn 0.107979 -0.678441 -0.726676
vn 0.240755 -0.642472 -0.727508
vn 0.226239 -0.693227 -0.68429
vn 0 0.707106 -0.707107
vn 0.248307 -0.67737 0.69247
vn 0.214929 -0.640905 0.736917
vn 0.181499 -0.66257 0.726677
vn 0.113655 -0.704766 0.700277
vn 0 -0.707106 0.707107
vn 0.0798674 -0.724824 0.684289
vn 0 0.707106 0.707107
vn 0 -0.707107 -0.707107
vn 0.0685884 -0.672495 -0.736917
vn 0.0457083 -0.684576 0.727507
vn 0 0.707106 0.707107
vn 0.707109 0 -0.707104
vn 0.707109 -0.707104 0
vn 0.707109 0 0.707104
vn 0.70711 0.707104 0
vn -0.707106 0 -0.707107
vn -0.707106 -0.707107 0
vn 0 -0.707107 -0.707107
vn -0.707106 0 0.707107
vn 0 -0.707107 0.707107
vn -0.248307 -0.67737 -0.692469
vn -0.214929 -0.640905 -0.736917
vn -0.181499 -0.66257 -0.726677
vn -0.113655 -0.704766 -0.700277
vn -0.0798674 -0.724824 -0.684289
vn -0.187187 -0.688893 0.700277
vn -0.107979 -0.678441 0.726676
vn -0.240755 -0.642472 0.727508
vn -0.226239 -0.693227 0.68429
vn -0.0532235 -0.719481 0.69247
vn -0.0457083 -0.684576 -0.727507
vn -0.0685884 -0.672495 0.736917
vn -0.707109 0 -0.707104
vn -0.707109 -0.707104 0
vn -0.707109 0 0.707104
vn -0.70711 0.707104 0
vn 0.707106 0 -0.707107
vn 0.707106 -0.707107 0
vn 0.707106 0 0.707107
vn 0.577353 -0.577349 -0.577349
vn 0.577353 -0.577349 0.577349
vn 0.577353 0.577348 0.577349
vn 0.577353 0.577348 -0.577349
vn -0.301511 0.301511 -0.904534
vn -0.301511 -0.301511 -0.904534
vn -0.301511 -0.301511 0.904534
vn -0.301511 0.301511 0.904534
vn -0.577353 -0.577349 -0.577349
vn -0.577353 -0.577349 0.577349
vn -0.577353 0.577348 0.577349
vn -0.577353 0.577348 -0.577349
vn 0.301511 0.301511 -0.904534
vn 0.301511 -0.301511 -0.904534
vn 0.301511 -0.301511 0.904534
vn 0.301511 0.301511 0.904534
# 141 normals
f  1//1 146//2 200//3 65//3
f  161//4 11//4 10//4 156//4
f  75//5 148//5 145//5 205//5
f  2//6 154//6 5//6 144//6
f  149//7 152//8 3//9 143//10
f  6//11 153//11 4//11 147//11
f  148//5 7//5 8//5 145//5
f  154//6 12//6 9//6 5//6
f  155//3 157//3 151//12 150//13
f  158//11 159//11 153//11 6//11
f  7//5 160//5 162//5 8//5
f  199//6 67//6 163//14 165//15 203//6 74//6 2//6 144//6
f  206//11 70//11 168//16 170//17 202//11 66//11 147//11 4//11
f  69//3 166//3 167//3 204//3
f  14//18 164//18 169//18 15//18
f  13//5 201//5 68//5 16//5
f  102//4 106//4 19//19 17//4
f  17//4 19//19 108//4 110//4
f  106//4 23//4 24//4 19//19
f  26//4 28//4 27//4 25//4
f  76//6 18//6 101//6 29//6
f  115//3 136//3 109//3 21//3
f  103//5 138//5 77//5 20//5
f  116//11 78//11 114//11 111//11
f  22//6 137//6 29//6 101//6
f  104//11 117//11 30//11 107//11
f  113//3 140//3 32//3 105//3
f  20//5 77//5 31//5 112//5
f  81//6 97//6 79//6 84//6
f  73//3 72//3 82//3 85//3
f  83//5 99//5 100//5 88//5
f  80//11 98//11 86//11 87//11
f  200//3 174//20 171//20 65//3
f  42//18 43//18 44//18 41//18
f  173//5 36//5 75//5 205//5
f  178//6 40//6 34//6 172//6
f  175//21 179//22 177//23 33//21
f  176//11 181//11 38//11 35//11
f  182//5 39//5 36//5 173//5
f  184//6 189//6 40//6 178//6
f  180//24 186//3 183//3 37//24
f  181//11 188//11 185//11 38//11
f  190//5 187//5 39//5 182//5
f  34//6 74//6 203//6 194//25 191//26 67//6 199//6 172//6
f  35//11 66//11 202//11 198//27 195//28 70//11 206//11 176//11
f  196//3 193//3 69//3 204//3
f  48//4 45//4 46//4 47//4
f  68//5 201//5 192//5 197//5
f  122//29 52//18 120//18 118//18
f  124//18 122//29 118//18 126//18
f  56//18 55//18 52//18 122//29
f  59//18 60//18 58//18 57//18
f  49//6 50//6 139//6 61//6
f  127//3 135//3 62//3 53//3
f  77//5 138//5 119//5 123//5
f  130//11 142//11 63//11 129//11
f  61//6 71//6 54//6 49//6
f  132//11 64//11 121//11 125//11
f  134//3 141//3 131//3 51//3
f  133//5 77//5 123//5 128//5
f  79//6 97//6 90//6 91//6
f  89//3 72//3 73//3 94//3
f  100//5 99//5 92//5 95//5
f  93//11 98//11 80//11 96//11
f  25//30 27//30 85//30 82//30
f  81//31 84//31 26//31 25//31
f  82//32 72//33 97//33 81//32
f  83//34 88//34 28//34 26//34
f  84//35 79//35 99//35 83//35
f  27//36 28//36 87//36 86//36
f  86//37 98//38 73//38 85//37
f  88//39 100//39 80//39 87//39
f  57//40 58//40 91//40 90//40
f  89//41 94//41 59//41 57//41
f  90//32 97//33 72//33 89//32
f  58//42 60//42 95//42 92//42
f  92//35 99//35 79//35 91//35
f  93//43 96//43 60//43 59//43
f  94//37 73//38 98//38 93//37
f  96//39 80//39 100//39 95//39
f  82//44 81//44 25//44
f  84//45 83//45 26//45
f  86//46 85//46 27//46
f  88//47 87//47 28//47
f  90//48 89//48 57//48
f  92//49 91//49 58//49
f  94//50 93//50 59//50
f  96//51 95//51 60//51
f  17//52 110//52 22//52 101//52
f  101//52 18//52 102//52 17//52
f  18//35 76//35 138//35 103//35
f  103//53 20//53 106//53 102//53
f  19//54 24//54 113//54 105//54
f  104//55 107//55 108//55 19//55
f  105//37 32//37 117//37 104//37
f  20//53 112//53 23//53 106//53
f  21//56 109//56 110//56 108//56
f  107//57 30//57 115//57 21//57
f  109//58 136//58 137//58 22//58
f  111//59 114//59 24//59 23//59
f  112//60 31//60 116//60 111//60
f  114//61 78//61 140//61 113//61
f  49//62 54//62 126//62 118//62
f  118//62 120//62 50//62 49//62
f  119//35 138//35 139//35 50//35
f  120//63 52//63 123//63 119//63
f  51//64 131//64 56//64 122//64
f  121//37 64//37 134//37 51//37
f  122//65 124//65 125//65 121//65
f  52//63 55//63 128//63 123//63
f  53//57 62//57 132//57 125//57
f  124//66 126//66 127//66 53//66
f  54//58 71//58 135//58 127//58
f  55//67 56//67 130//67 129//67
f  129//60 63//60 133//60 128//60
f  131//61 141//61 142//61 130//61
f  103//68 102//68 18//68
f  105//69 104//69 19//19
f  108//70 107//70 21//70
f  110//71 109//71 22//71
f  112//72 111//72 23//72
f  114//73 113//73 24//73
f  120//74 119//74 50//74
f  122//29 121//75 51//75
f  125//76 124//76 53//76
f  127//77 126//77 54//77
f  129//78 128//78 55//78
f  131//79 130//79 56//79
f  1//80 65//81 199//81 144//82
f  143//10 3//9 146//2 1//1
f  144//82 5//83 149//84 143//85
f  2//86 74//86 205//86 145//86
f  145//86 8//86 154//86 2//86
f  3//87 152//88 6//89 147//90
f  147//90 66//91 200//91 146//92
f  4//93 153//93 7//93 148//93
f  148//93 75//93 206//93 4//93
f  5//83 9//94 155//94 150//95
f  150//13 151//12 152//8 149//7
f  151//96 157//37 158//37 6//89
f  153//93 159//97 160//97 7//93
f  8//86 162//86 12//86 154//86
f  9//98 12//98 161//98 156//98
f  156//99 10//99 157//99 155//99
f  10//100 11//100 159//100 158//100
f  11//101 161//101 162//101 160//101
f  13//63 16//63 169//63 164//63
f  163//86 67//86 201//86 13//86
f  164//102 14//102 165//102 163//102
f  14//103 15//103 167//103 166//103
f  166//104 69//104 203//104 165//104
f  15//105 169//105 170//105 168//105
f  168//57 70//106 204//106 167//57
f  16//97 68//93 202//93 170//97
f  33//107 177//108 178//109 172//110
f  171//20 174//20 175//21 33//21
f  172//110 199//81 65//81 171//111
f  34//86 40//86 182//86 173//86
f  173//86 205//86 74//86 34//86
f  35//112 38//113 179//114 175//115
f  174//116 200//91 66//91 35//112
f  36//93 39//93 181//93 176//93
f  176//93 206//93 75//93 36//93
f  37//117 183//94 184//94 178//109
f  177//23 179//22 180//24 37//24
f  38//113 185//37 186//37 180//118
f  39//93 187//97 188//97 181//93
f  40//86 189//86 190//86 182//86
f  41//119 44//119 189//119 184//119
f  183//120 186//120 42//120 41//120
f  185//121 188//121 43//121 42//121
f  187//122 190//122 44//122 43//122
f  45//53 48//53 197//53 192//53
f  191//123 194//123 46//123 45//123
f  192//86 201//86 67//86 191//86
f  193//124 196//124 47//124 46//124
f  194//104 203//104 69//104 193//104
f  195//125 198//125 48//125 47//125
f  196//57 204//106 70//106 195//57
f  198//97 202//93 68//93 197//97
f  144//82 143//85 1//80
f  147//90 146//92 3//87
f  150//95 149//84 5//83
f  152//88 151//96 6//89
f  156//126 155//126 9//126
f  158//127 157//127 10//127
f  160//128 159//128 11//128
f  162//129 161//129 12//129
f  164//130 163//14 13//130
f  166//131 165//15 14//131
f  168//16 167//132 15//132
f  170//17 169//133 16//133
f  172//110 171//111 33//107
f  175//115 174//116 35//112
f  178//109 177//108 37//117
f  180//118 179//114 38//113
f  184//134 183//134 41//134
f  186//135 185//135 42//135
f  188//136 187//136 43//136
f  190//137 189//137 44//137
f  192//138 191//26 45//138
f  194//25 193//139 46//139
f  196//140 195//28 47//140
f  198//27 197//141 48//141
