# 
# Wavefront OBJ file
# Converted by the DEEP Exploration 3.5.7.1088
# Right Hemisphere, LTD
# http://www.righthemisphere.com/
# 
# object Object #0
g Object__0
v -0.172525 -0.295 0
v 0.172525 -0.295 0
v 0.2575 0.0025 0
v 0.172525 0.3 0
v -0.172525 0.3 0
v -0.2575 0.0025 0
v -0.172525 -0.295 0.465
v 0.172525 -0.295 0.465
v 0.2575 0.0025 0.465
v 0.172525 0.3 0.465
v -0.172525 0.3 0.465
v -0.2575 0.0025 0.465
v 0.205 -0.165 0
v 0.605 -0.165 0
v 0.605 -0.099 0
v 0.365 -0.099 0
v 0.605 0.099 0
v 0.365 0.099 0
v 0.205 0.165 0
v 0.605 0.165 0
v 0.605 -0.099 0.13
v 0.605 -0.165 0.13
v 0.205 -0.165 0.405
v 0.205 0.165 0.405
v 0.605 0.165 0.13
v 0.605 0.099 0.13
v 0.365 0.099 0.353729
v 0.365 -0.099 0.353729
v 0.31 -0.165 0.405
v 0.31 0.165 0.405
v 0.31 -0.165 0
v 0.31 0.165 0
v -0.1525 0.25 0
v 0.1525 0.25 0
v 0.1525 0.61 0
v -0.1525 0.61 0
v -0.1525 0.25 0.36
v 0.1525 0.25 0.36
v 0.1525 0.61 0.285
v -0.1525 0.61 0.285
v -0.1125 0.29 0.351667
v -0.1125 0.57 0.293333
v 0.1125 0.57 0.293333
v 0.1125 0.29 0.351667
v -0.1125 0.29 0.085
v -0.1125 0.57 0.085
v 0.1125 0.57 0.085
v 0.1125 0.29 0.085
v -0.205 -0.165 0
v -0.605 -0.165 0
v -0.605 -0.099 0
v -0.365 -0.099 0
v -0.605 0.099 0
v -0.365 0.099 0
v -0.205 0.165 0
v -0.605 0.165 0
v -0.605 -0.099 0.13
v -0.605 -0.165 0.13
v -0.205 -0.165 0.405
v -0.205 0.165 0.405
v -0.605 0.165 0.13
v -0.605 0.099 0.13
v -0.365 0.099 0.353729
v -0.365 -0.099 0.353729
v -0.31 -0.165 0.405
v -0.31 0.165 0.405
v -0.31 -0.165 0
v -0.31 0.165 0
v -0.1525 -0.25 0
v 0.1525 -0.25 0
v 0.1525 -0.61 0
v -0.1525 -0.61 0
v -0.1525 -0.25 0.36
v 0.1525 -0.25 0.36
v 0.1525 -0.61 0.285
v -0.1525 -0.61 0.285
v -0.1125 -0.29 0.351667
v -0.1125 -0.57 0.293333
v 0.1125 -0.57 0.293333
v 0.1125 -0.29 0.351667
v -0.1125 -0.29 0.085
v -0.1125 -0.57 0.085
v 0.1125 -0.57 0.085
v 0.1125 -0.29 0.085
# 84 verticies
vn 0 0 -1
vn 0 0 1
vn 0 -1 0
vn 0.961545 -0.274646 0
vn 0.961545 0.274646 0
vn 0 1 0
vn -0.961545 0.274646 0
vn -0.961545 -0.274646 0
vn 1 0 0
vn -1 0 0
vn 0.681876 3.79065e-008 0.731467
vn 0.681876 0 0.731467
vn 0.681876 1.89533e-008 0.731467
vn 0.681876 -4.65934e-008 0.731467
vn 0.681876 -4.65934e-008 0.731467
vn 0.681876 -2.32967e-008 0.731467
vn 0.681876 3.79065e-008 0.731467
vn -1.88138e-008 0.203954 0.97898
vn 2.50851e-008 0.203954 0.97898
vn -8.77978e-008 0.203954 0.97898
vn 1.31697e-007 0.203954 0.97898
vn 1.12883e-007 0.203954 0.97898
vn 2.50851e-008 0.203954 0.97898
vn -1.69324e-007 0.203954 0.97898
vn -0.681876 -2.32967e-008 0.731467
vn -0.681876 0 0.731467
vn -0.681876 -4.65934e-008 0.731467
vn -0.681876 -4.65934e-008 0.731467
vn -0.681876 1.89533e-008 0.731467
vn -0.681876 3.79065e-008 0.731467
vn -0.681876 3.79065e-008 0.731467
vn -8.77978e-008 -0.203954 0.97898
vn 2.50851e-008 -0.203954 0.97898
vn -1.88138e-008 -0.203954 0.97898
vn 1.31697e-007 -0.203954 0.97898
vn 2.50851e-008 -0.203954 0.97898
vn 1.12883e-007 -0.203954 0.97898
vn -1.69324e-007 -0.203954 0.97898
# 38 normals
f  5//1 4//1 3//1 2//1 1//1 6//1
f  10//2 11//2 12//2 7//2 8//2 9//2
f  2//3 8//3 7//3 1//3
f  3//4 9//4 8//4 2//4
f  4//5 10//5 9//5 3//5
f  11//6 10//6 4//6 5//6
f  12//7 11//7 5//7 6//7
f  7//8 12//8 6//8 1//8
f  28//6 21//6 15//6 16//6
f  15//9 21//9 22//9 14//9
f  23//10 24//10 19//10 13//10
f  20//9 25//9 26//9 17//9
f  17//3 26//3 27//3 18//3
f  18//9 27//9 28//9 16//9
f  22//11 21//12 28//13 27//14 26//15 25//12 30//16 29//17
f  23//2 29//2 30//2 24//2
f  29//3 31//3 14//3 22//3
f  13//3 31//3 29//3 23//3
f  20//6 32//6 30//6 25//6
f  24//6 30//6 32//6 19//6
f  36//1 35//1 34//1 33//1
f  34//3 38//3 37//3 33//3
f  35//9 39//9 38//9 34//9
f  40//6 39//6 35//6 36//6
f  37//10 40//10 36//10 33//10
f  48//2 47//2 46//2 45//2
f  44//18 41//19 37//20 38//21
f  41//19 42//22 40//23 37//20
f  39//18 40//23 42//22 43//24
f  39//18 43//24 44//18 38//21
f  45//6 41//6 44//6 48//6
f  46//9 42//9 41//9 45//9
f  43//3 42//3 46//3 47//3
f  44//10 43//10 47//10 48//10
f  51//6 57//6 64//6 52//6
f  58//10 57//10 51//10 50//10
f  55//9 60//9 59//9 49//9
f  62//10 61//10 56//10 53//10
f  63//3 62//3 53//3 54//3
f  64//10 63//10 54//10 52//10
f  66//25 61//26 62//27 63//28 64//29 57//26 58//30 65//31
f  66//2 65//2 59//2 60//2
f  50//3 67//3 65//3 58//3
f  65//3 67//3 49//3 59//3
f  66//6 68//6 56//6 61//6
f  68//6 66//6 60//6 55//6
f  70//1 71//1 72//1 69//1
f  73//6 74//6 70//6 69//6
f  74//9 75//9 71//9 70//9
f  71//3 75//3 76//3 72//3
f  72//10 76//10 73//10 69//10
f  82//2 83//2 84//2 81//2
f  73//32 77//33 80//34 74//35
f  76//36 78//37 77//33 73//32
f  78//37 76//36 75//34 79//38
f  80//34 79//38 75//34 74//35
f  80//3 77//3 81//3 84//3
f  77//9 78//9 82//9 81//9
f  82//6 78//6 79//6 83//6
f  83//10 79//10 80//10 84//10
