# 
# Wavefront OBJ file
# Converted by the DEEP Exploration 3.5.7.1088
# Right Hemisphere, LTD
# http://www.righthemisphere.com/
# 
# object Object #0
g Object__0
v 0 -0.495 0
v 0 0.505 0
v 0 -0.495 0.04
v 0 0.505 0.04
v 0 -0.465 0.04
v 0 0.475 0.04
v 0.5 -0.47 0
v 0.475 -0.495 0
v 0.5 -0.47 0.04
v 0.475 -0.495 0.04
v -0.5 0.48 0
v -0.475 0.505 0
v -0.5 0.48 0.04
v -0.475 0.505 0.04
v 0.47 -0.44 0.04
v 0.445 -0.465 0.04
v -0.47 0.45 0.04
v -0.445 0.475 0.04
v 0.498726 -0.477902 0
v 0.495177 -0.484765 0
v 0.489765 -0.490177 0
v 0.482902 -0.493726 0
v -0.498726 0.487902 0
v -0.495177 0.494765 0
v -0.489765 0.500177 0
v -0.482902 0.503726 0
v 0.482902 -0.493726 0.04
v 0.489765 -0.490177 0.04
v 0.495177 -0.484765 0.04
v 0.498726 -0.477902 0.04
v -0.482902 0.503726 0.04
v -0.489765 0.500177 0.04
v -0.495177 0.494765 0.04
v -0.498726 0.487902 0.04
v 0.468726 -0.447902 0.04
v 0.465177 -0.454765 0.04
v 0.459765 -0.460177 0.04
v 0.452902 -0.463726 0.04
v -0.468726 0.457902 0.04
v -0.465177 0.464765 0.04
v -0.459765 0.470177 0.04
v -0.452902 0.473726 0.04
v -0.475 -0.495 0.04
v -0.5 -0.47 0.04
v -0.475 -0.495 0
v -0.5 -0.47 0
v 0.475 0.505 0.04
v 0.5 0.48 0.04
v 0.475 0.505 0
v 0.5 0.48 0
v 0.445 0.475 0.04
v 0.47 0.45 0.04
v -0.445 -0.465 0.04
v -0.47 -0.44 0.04
v -0.482902 -0.493726 0
v -0.489765 -0.490177 0
v -0.495177 -0.484765 0
v -0.498726 -0.477902 0
v 0.482902 0.503726 0
v 0.489765 0.500177 0
v 0.495177 0.494765 0
v 0.498726 0.487902 0
v 0.498726 0.487902 0.04
v 0.495177 0.494765 0.04
v 0.489765 0.500177 0.04
v 0.482902 0.503726 0.04
v -0.498726 -0.477902 0.04
v -0.495177 -0.484765 0.04
v -0.489765 -0.490177 0.04
v -0.482902 -0.493726 0.04
v 0.452902 0.473726 0.04
v 0.459765 0.470177 0.04
v 0.465177 0.464765 0.04
v 0.468726 0.457902 0.04
v -0.452902 -0.463726 0.04
v -0.459765 -0.460177 0.04
v -0.465177 -0.454765 0.04
v -0.468726 -0.447902 0.04
v 0.445 0.475 0.02
v 0.452902 0.473726 0.02
v 0.459765 0.470177 0.02
v 0.465177 0.464765 0.02
v 0.468726 0.457902 0.02
v 0.47 0.45 0.02
v 0.47 -0.44 0.02
v 0.468726 -0.447902 0.02
v 0.465177 -0.454765 0.02
v 0.459765 -0.460177 0.02
v 0.452902 -0.463726 0.02
v 0.445 -0.465 0.02
v 0 -0.465 0.02
v 0 0.475 0.02
v -0.47 0.45 0.02
v -0.468726 0.457902 0.02
v -0.465177 0.464765 0.02
v -0.459765 0.470177 0.02
v -0.452902 0.473726 0.02
v -0.445 0.475 0.02
v -0.445 -0.465 0.02
v -0.452902 -0.463726 0.02
v -0.459765 -0.460177 0.02
v -0.465177 -0.454765 0.02
v -0.468726 -0.447902 0.02
v -0.47 -0.44 0.02
v 0.18 -0.43 0.02
v 0.172098 -0.428726 0.02
v 0.165235 -0.425177 0.02
v 0.159823 -0.419765 0.02
v 0.156274 -0.412902 0.02
v 0.155 -0.405 0.02
v 0.155 0.405 0.02
v 0.156274 0.412902 0.02
v 0.159823 0.419765 0.02
v 0.165235 0.425177 0.02
v 0.172098 0.428726 0.02
v 0.18 0.43 0.02
v 0.187902 0.428726 0.02
v 0.194765 0.425177 0.02
v 0.200177 0.419765 0.02
v 0.203726 0.412902 0.02
v 0.205 0.405 0.02
v 0.205 -0.405 0.02
v 0.203726 -0.412902 0.02
v 0.200177 -0.419765 0.02
v 0.194765 -0.425177 0.02
v 0.187902 -0.428726 0.02
v 0 -0.43 0.02
v 9.31323e-010 -0.43 0.02
v 0 0.43 0.02
v 9.31323e-010 0.43 0.02
v 0.0079024 0.428726 0.02
v 0.0147652 0.425177 0.02
v 0.0201768 0.419765 0.02
v 0.0237256 0.412902 0.02
v 0.025 0.405 0.02
v 0.025 -0.405 0.02
v 0.0237256 -0.412902 0.02
v 0.0201768 -0.419765 0.02
v 0.0147652 -0.425177 0.02
v 0.0079024 -0.428726 0.02
v 0.09 -0.43 0.02
v 0.0820976 -0.428726 0.02
v 0.0752348 -0.425177 0.02
v 0.0698232 -0.419765 0.02
v 0.0662744 -0.412902 0.02
v 0.065 -0.405 0.02
v 0.065 0.405 0.02
v 0.0662744 0.412902 0.02
v 0.0698232 0.419765 0.02
v 0.0752348 0.425177 0.02
v 0.0820976 0.428726 0.02
v 0.09 0.43 0.02
v 0.0979024 0.428726 0.02
v 0.104765 0.425177 0.02
v 0.110177 0.419765 0.02
v 0.113726 0.412902 0.02
v 0.115 0.405 0.02
v 0.115 -0.405 0.02
v 0.113726 -0.412902 0.02
v 0.110177 -0.419765 0.02
v 0.104765 -0.425177 0.02
v 0.0979024 -0.428726 0.02
v -0.0079024 -0.428726 0.02
v -0.0147652 -0.425177 0.02
v -0.0201768 -0.419765 0.02
v -0.0237256 -0.412902 0.02
v -0.025 -0.405 0.02
v -0.025 0.405 0.02
v -0.0237256 0.412902 0.02
v -0.0201768 0.419765 0.02
v -0.0147652 0.425177 0.02
v -0.0079024 0.428726 0.02
v -0.165235 -0.425177 0.02
v -0.172098 -0.428726 0.02
v -0.18 -0.43 0.02
v -0.187902 -0.428726 0.02
v -0.194765 -0.425177 0.02
v -0.200177 -0.419765 0.02
v -0.203726 -0.412902 0.02
v -0.205 -0.405 0.02
v -0.205 0.405 0.02
v -0.203726 0.412902 0.02
v -0.200177 0.419765 0.02
v -0.194765 0.425177 0.02
v -0.187902 0.428726 0.02
v -0.18 0.43 0.02
v -0.172098 0.428726 0.02
v -0.165235 0.425177 0.02
v -0.159823 0.419765 0.02
v -0.156274 0.412902 0.02
v -0.155 0.405 0.02
v -0.155 -0.405 0.02
v -0.156274 -0.412902 0.02
v -0.159823 -0.419765 0.02
v -0.0752348 -0.425177 0.02
v -0.0820976 -0.428726 0.02
v -0.09 -0.43 0.02
v -0.0979024 -0.428726 0.02
v -0.104765 -0.425177 0.02
v -0.110177 -0.419765 0.02
v -0.113726 -0.412902 0.02
v -0.115 -0.405 0.02
v -0.115 0.405 0.02
v -0.113726 0.412902 0.02
v -0.110177 0.419765 0.02
v -0.104765 0.425177 0.02
v -0.0979024 0.428726 0.02
v -0.09 0.43 0.02
v -0.0820976 0.428726 0.02
v -0.0752348 0.425177 0.02
v -0.0698232 0.419765 0.02
v -0.0662744 0.412902 0.02
v -0.065 0.405 0.02
v -0.065 -0.405 0.02
v -0.0662744 -0.412902 0.02
v -0.0698232 -0.419765 0.02
v 0.155 -0.405 -4.47035e-010
v 0.155 0.405 -4.47035e-010
v 0.156274 0.412902 -4.47035e-010
v 0.159823 0.419765 -4.47035e-010
v 0.165235 0.425177 -4.47035e-010
v 0.172098 0.428726 -4.47035e-010
v 0.18 0.43 -4.47035e-010
v 0.187902 0.428726 -4.47035e-010
v 0.194765 0.425177 -4.47035e-010
v 0.200177 0.419765 -4.47035e-010
v 0.203726 0.412902 -4.47035e-010
v 0.205 0.405 -4.47035e-010
v 0.205 -0.405 -4.47035e-010
v 0.203726 -0.412902 -4.47035e-010
v 0.200177 -0.419765 -4.47035e-010
v 0.194765 -0.425177 -4.47035e-010
v 0.187902 -0.428726 -4.47035e-010
v 0.18 -0.43 -4.47035e-010
v 0.172098 -0.428726 -4.47035e-010
v 0.165235 -0.425177 -4.47035e-010
v 0.159823 -0.419765 -4.47035e-010
v 0.156274 -0.412902 -4.47035e-010
v 0.025 0.405 -4.47035e-010
v 0.025 -0.405 -4.47035e-010
v 0.0237256 -0.412902 -4.47035e-010
v 0.0201768 -0.419765 -4.47035e-010
v 0.0147652 -0.425177 -4.47035e-010
v 0.0079024 -0.428726 -4.47035e-010
v 9.31323e-010 -0.43 -4.47035e-010
v 0 -0.43 -4.47035e-010
v 0 0.43 -4.47035e-010
v 9.31323e-010 0.43 -4.47035e-010
v 0.0079024 0.428726 -4.47035e-010
v 0.0147652 0.425177 -4.47035e-010
v 0.0201768 0.419765 -4.47035e-010
v 0.0237256 0.412902 -4.47035e-010
v 0.065 -0.405 -4.47035e-010
v 0.065 0.405 -4.47035e-010
v 0.0662744 0.412902 -4.47035e-010
v 0.0698232 0.419765 -4.47035e-010
v 0.0752348 0.425177 -4.47035e-010
v 0.0820976 0.428726 -4.47035e-010
v 0.09 0.43 -4.47035e-010
v 0.0979024 0.428726 -4.47035e-010
v 0.104765 0.425177 -4.47035e-010
v 0.110177 0.419765 -4.47035e-010
v 0.113726 0.412902 -4.47035e-010
v 0.115 0.405 -4.47035e-010
v 0.115 -0.405 -4.47035e-010
v 0.113726 -0.412902 -4.47035e-010
v 0.110177 -0.419765 -4.47035e-010
v 0.104765 -0.425177 -4.47035e-010
v 0.0979024 -0.428726 -4.47035e-010
v 0.09 -0.43 -4.47035e-010
v 0.0820976 -0.428726 -4.47035e-010
v 0.0752348 -0.425177 -4.47035e-010
v 0.0698232 -0.419765 -4.47035e-010
v 0.0662744 -0.412902 -4.47035e-010
v -0.0079024 -0.428726 -4.47035e-010
v -0.0147652 -0.425177 -4.47035e-010
v -0.0201768 -0.419765 -4.47035e-010
v -0.0237256 -0.412902 -4.47035e-010
v -0.025 -0.405 -4.47035e-010
v -0.025 0.405 -4.47035e-010
v -0.0237256 0.412902 -4.47035e-010
v -0.0201768 0.419765 -4.47035e-010
v -0.0147652 0.425177 -4.47035e-010
v -0.0079024 0.428726 -4.47035e-010
v -0.155 0.405 -4.47035e-010
v -0.155 -0.405 -4.47035e-010
v -0.156274 -0.412902 -4.47035e-010
v -0.159823 -0.419765 -4.47035e-010
v -0.165235 -0.425177 -4.47035e-010
v -0.172098 -0.428726 -4.47035e-010
v -0.18 -0.43 -4.47035e-010
v -0.187902 -0.428726 -4.47035e-010
v -0.194765 -0.425177 -4.47035e-010
v -0.200177 -0.419765 -4.47035e-010
v -0.203726 -0.412902 -4.47035e-010
v -0.205 -0.405 -4.47035e-010
v -0.205 0.405 -4.47035e-010
v -0.203726 0.412902 -4.47035e-010
v -0.200177 0.419765 -4.47035e-010
v -0.194765 0.425177 -4.47035e-010
v -0.187902 0.428726 -4.47035e-010
v -0.18 0.43 -4.47035e-010
v -0.172098 0.428726 -4.47035e-010
v -0.165235 0.425177 -4.47035e-010
v -0.159823 0.419765 -4.47035e-010
v -0.156274 0.412902 -4.47035e-010
v -0.115 -0.405 -4.47035e-010
v -0.115 0.405 -4.47035e-010
v -0.113726 0.412902 -4.47035e-010
v -0.110177 0.419765 -4.47035e-010
v -0.104765 0.425177 -4.47035e-010
v -0.0979024 0.428726 -4.47035e-010
v -0.09 0.43 -4.47035e-010
v -0.0820976 0.428726 -4.47035e-010
v -0.0752348 0.425177 -4.47035e-010
v -0.0698232 0.419765 -4.47035e-010
v -0.0662744 0.412902 -4.47035e-010
v -0.065 0.405 -4.47035e-010
v -0.065 -0.405 -4.47035e-010
v -0.0662744 -0.412902 -4.47035e-010
v -0.0698232 -0.419765 -4.47035e-010
v -0.0752348 -0.425177 -4.47035e-010
v -0.0820976 -0.428726 -4.47035e-010
v -0.09 -0.43 -4.47035e-010
v -0.0979024 -0.428726 -4.47035e-010
v -0.104765 -0.425177 -4.47035e-010
v -0.110177 -0.419765 -4.47035e-010
v -0.113726 -0.412902 -4.47035e-010
# 328 verticies
vn 0 -1 0
vn 0.0798606 -0.996806 0
vn -0.0532214 0.998583 0
vn 0 1 0
vn -0.106443 0.994319 0
vn 0.996806 -0.0798606 0
vn 0.931655 -0.363344 0
vn 0.96502 -0.262176 0
vn 0.775656 -0.631156 0
vn 0.836684 -0.547685 0
vn 0.631156 -0.775656 0
vn 0.547685 -0.836684 0
vn -0.994319 0.106443 0
vn -0.931655 0.363344 0
vn -0.96502 0.262176 0
vn -0.998583 0.0532214 0
vn -0.775656 0.631156 0
vn -0.836684 0.547685 0
vn -0.631156 0.775656 0
vn -0.547685 0.836684 0
vn 0.363344 -0.931655 0
vn 0.262176 -0.96502 0
vn -0.363344 0.931655 0
vn -0.262176 0.96502 0
vn -0.0532214 -0.998583 0
vn -0.106443 -0.994319 0
vn 0.0532214 0.998583 0
vn 0.106443 0.994319 0
vn 0.996806 0.0798606 0
vn -0.998583 -0.0532214 0
vn -0.994319 -0.106443 0
vn 0 0 -1
vn 0 0 1
vn -0.363344 -0.931655 0
vn -0.262176 -0.96502 0
vn -0.631156 -0.775656 0
vn -0.547685 -0.836684 0
vn -0.775656 -0.631156 0
vn -0.836684 -0.547685 0
vn 0.363344 0.931655 0
vn 0.262176 0.96502 0
vn 0.631156 0.775656 0
vn 0.547685 0.836684 0
vn 0.775656 0.631156 0
vn 0.836684 0.547685 0
vn 0.931655 0.363344 0
vn 0.96502 0.262176 0
vn -0.931655 -0.363344 0
vn -0.96502 -0.262176 0
vn -0.0798606 -0.996806 0
vn 0.994319 -0.106443 0
vn 0.998583 -0.0532214 0
vn 0.994319 0.106443 0
vn 0.998583 0.0532214 0
vn 0.96502 -0.262175 0
vn 0.931655 -0.363343 0
vn 0.836685 -0.547685 0
vn 0.775656 -0.631156 0
vn 0.631155 -0.775657 0
vn 0.547684 -0.836685 0
vn 0.363344 -0.931655 0
vn 0.262176 -0.96502 0
vn -0.262176 -0.96502 0
vn -0.363344 -0.931655 0
vn -0.547685 -0.836685 0
vn -0.631155 -0.775656 0
vn -0.775655 -0.631157 0
vn -0.836684 -0.547686 0
vn -0.931655 -0.363344 0
vn -0.96502 -0.262175 0
vn -0.994319 -0.106442 0
vn -0.998583 -0.0532208 0
vn -0.998583 0.0532208 0
vn -0.994319 0.106442 0
vn -0.96502 0.262175 0
vn -0.931655 0.363344 0
vn -0.836684 0.547686 0
vn -0.775655 0.631157 0
vn -0.631155 0.775656 0
vn -0.547685 0.836685 0
vn -0.363344 0.931655 0
vn -0.262176 0.96502 0
vn 0.262176 0.96502 0
vn 0.363344 0.931655 0
vn 0.547684 0.836685 0
vn 0.631155 0.775657 0
vn 0.775656 0.631156 0
vn 0.836685 0.547685 0
vn 0.931655 0.363343 0
vn 0.96502 0.262175 0
vn -0.998583 0.0532211 0
vn -0.994319 -0.106442 0
vn -0.998583 -0.0532211 0
vn -0.994319 0.106442 0
vn -0.96502 0.262175 0
vn -0.931655 0.363344 0
vn -0.836684 0.547685 0
vn -0.775656 0.631157 0
vn -0.631156 0.775656 0
vn -0.547685 0.836685 0
vn -0.363344 0.931655 0
vn -0.262176 0.96502 0
vn -0.106443 0.994319 0
vn -0.0532215 0.998583 0
vn 0.0798607 0.996806 0
vn -0.0798607 -0.996806 0
vn 0.0532215 -0.998583 0
vn 0.106443 -0.994319 0
vn -0.262176 -0.96502 0
vn -0.363344 -0.931655 0
vn -0.547685 -0.836685 0
vn -0.631156 -0.775656 0
vn -0.775656 -0.631157 0
vn -0.836684 -0.547685 0
vn -0.931655 -0.363344 0
vn -0.96502 -0.262175 0
vn 0.998583 -0.0532211 0
vn 0.994319 -0.106442 0
vn 0.998583 0.0532211 0
vn 0.994319 0.106442 0
vn 0.96502 -0.262175 0
vn 0.931655 -0.363343 0
vn 0.836685 -0.547685 0
vn 0.775656 -0.631156 0
vn 0.631156 -0.775656 0
vn 0.547685 -0.836685 0
vn -0.547685 -0.836685 0
vn -0.631156 -0.775656 0
vn -0.775655 -0.631157 0
vn -0.836684 0.547685 0
vn -0.775655 0.631157 0
vn -0.631156 0.775656 0
vn -0.547685 0.836685 0
vn 0.547685 0.836685 0
vn 0.631156 0.775656 0
vn 0.775656 0.631156 0
vn 0.836685 0.547685 0
vn 0.931655 0.363343 0
vn 0.96502 0.262175 0
vn 0.262176 0.96502 0
vn 0.363344 0.931655 0
vn 0.547685 0.836685 0
vn 0.931655 0.363344 0
vn 0.96502 0.262175 0
vn 0.96502 -0.262175 0
vn 0.931655 -0.363344 0
vn 0.836684 -0.547685 0
vn 0.631156 -0.775656 0
vn 0.547685 -0.836685 0
vn 0.363344 -0.931655 0
vn 0.262176 -0.96502 0
vn -0.96502 0.262175 0
vn -0.931655 0.363343 0
vn -0.836685 0.547685 0
vn -0.775656 0.631156 0
vn -0.631155 0.775657 0
vn -0.547684 0.836685 0
vn -0.363344 0.931655 0
vn -0.262176 0.96502 0
vn 0.262176 0.96502 0
vn 0.363344 0.931655 0
vn 0.547685 0.836685 0
vn 0.631155 0.775656 0
vn 0.775655 0.631157 0
vn 0.836684 0.547686 0
vn 0.96502 0.262175 0
vn 0.994319 0.106442 0
vn 0.998583 0.0532208 0
vn 0.998583 -0.0532208 0
vn 0.994319 -0.106442 0
vn 0.96502 -0.262175 0
vn 0.836684 -0.547686 0
vn 0.775655 -0.631157 0
vn 0.631155 -0.775656 0
vn 0.547685 -0.836685 0
vn 0.363344 -0.931655 0
vn 0.262176 -0.96502 0
vn -0.262176 -0.96502 0
vn -0.363344 -0.931655 0
vn -0.547684 -0.836685 0
vn -0.631155 -0.775657 0
vn -0.775656 -0.631156 0
vn -0.836685 -0.547685 0
vn -0.931655 -0.363343 0
vn -0.96502 -0.262175 0
vn 0.96502 -0.262175 0
vn 0.931655 -0.363344 0
vn 0.836684 -0.547685 0
vn 0.775655 -0.631157 0
vn 0.631156 -0.775656 0
vn 0.547685 -0.836685 0
vn 0.363344 -0.931655 0
vn 0.262176 -0.96502 0
vn -0.547685 -0.836685 0
vn -0.631156 -0.775656 0
vn -0.775656 -0.631156 0
vn -0.836685 -0.547685 0
vn -0.931655 -0.363343 0
vn -0.96502 -0.262175 0
vn -0.96502 0.262175 0
vn -0.931655 0.363343 0
vn -0.836685 0.547685 0
vn -0.775656 0.631156 0
vn -0.631156 0.775656 0
vn -0.547685 0.836685 0
vn 0.262176 0.96502 0
vn 0.363344 0.931655 0
vn 0.547685 0.836685 0
vn 0.631156 0.775656 0
vn 0.775655 0.631157 0
vn 0.836684 0.547685 0
vn 0.931655 0.363344 0
vn 0.96502 0.262175 0
# 213 normals
f  3//1 1//1 8//2 10//2
f  14//3 4//4 2//4 12//5
f  9//6 30//7 19//8 7//6
f  30//7 29//9 20//10 19//8
f  21//11 20//10 29//9 28//12
f  13//13 34//14 23//15 11//16
f  34//14 33//17 24//18 23//15
f  25//19 24//18 33//17 32//20
f  8//2 22//21 27//22 10//2
f  22//21 21//11 28//12 27//22
f  12//5 26//23 31//24 14//3
f  26//23 25//19 32//20 31//24
f  45//25 1//1 3//1 43//26
f  49//27 2//4 4//4 47//28
f  50//29 48//29 9//6 7//6
f  44//30 13//13 11//16 46//31
f  7//32 19//32 20//32 21//32 22//32 8//32 1//32 2//32 49//32 59//32\
60//32 61//32 62//32 50//32
f  11//32 23//32 24//32 25//32 26//32 12//32 2//32 1//32 45//32 55//32\
56//32 57//32 58//32 46//32
f  4//33 6//33 51//33 71//33 72//33 73//33 74//33 52//33 15//33 35//33\
36//33 37//33 38//33 16//33 5//33 3//33 10//33 27//33 28//33 29//33\
30//33 9//33 48//33 63//33 64//33 65//33 66//33 47//33
f  3//33 5//33 53//33 75//33 76//33 77//33 78//33 54//33 17//33 39//33\
40//33 41//33 42//33 18//33 6//33 4//33 14//33 31//33 32//33 33//33\
34//33 13//33 44//33 67//33 68//33 69//33 70//33 43//33
f  43//26 70//34 55//35 45//25
f  70//34 69//36 56//37 55//35
f  57//38 56//37 69//36 68//39
f  47//28 66//40 59//41 49//27
f  66//40 65//42 60//43 59//41
f  61//44 60//43 65//42 64//45
f  50//29 62//46 63//47 48//29
f  62//46 61//44 64//45 63//47
f  46//31 58//48 67//49 44//30
f  58//48 57//38 68//39 67//49
f  71//35 51//50 79//50 80//34
f  72//37 71//35 80//34 81//36
f  73//38 72//37 81//36 82//39
f  74//48 73//38 82//39 83//49
f  52//31 74//48 83//49 84//30
f  15//16 52//31 84//30 85//13
f  35//15 15//16 85//13 86//14
f  36//18 35//15 86//14 87//17
f  37//19 36//18 87//17 88//20
f  38//23 37//19 88//20 89//24
f  16//5 38//23 89//24 90//3
f  5//4 16//5 90//3 91//4
f  79//50 51//50 6//1 92//1
f  94//8 39//7 17//51 93//52
f  95//10 40//9 39//7 94//8
f  96//11 41//12 40//9 95//10
f  97//21 42//22 41//12 96//11
f  98//2 18//2 42//22 97//21
f  6//1 18//2 98//2 92//1
f  99//27 53//28 5//4 91//4
f  100//41 75//40 53//28 99//27
f  101//43 76//42 75//40 100//41
f  102//44 77//45 76//42 101//43
f  103//46 78//47 77//45 102//44
f  104//53 54//54 78//47 103//46
f  93//52 17//51 54//54 104//53
f  147//33 148//33 149//33 150//33 151//33 152//33 153//33 154//33\
155//33 156//33 157//33 158//33 110//33 111//33 112//33 113//33\
114//33 115//33 116//33 117//33 118//33 119//33 120//33 121//33\
122//33 123//33 124//33 125//33 126//33 105//33 106//33 107//33\
108//33 109//33 110//1 158//1 159//33 160//33 161//33 162//33 141//33\
142//33 143//33 144//33 145//33 146//33 136//33 137//33 138//33\
139//33 140//33 128//33 127//1 91//33 90//33 89//33 88//33 87//33\
86//33 85//33 84//33 83//33 82//33 81//33 80//33 79//33 92//33 129//33\
130//1 131//33 132//33 133//33 134//33 135//33 136//1 146//1
f  238//33 237//33 236//33 235//33 234//33 233//33 232//33 231//33\
230//33 229//33 228//33 227//33 226//33 225//33 224//33 223//33\
222//33 221//33 220//33 219//33 218//33 217//33
f  252//33 251//33 250//33 249//33 248//33 247//33 246//33 245//33\
244//33 243//33 242//33 241//33 240//33 239//33
f  274//33 273//33 272//33 271//33 270//33 269//33 268//33 267//33\
266//33 265//33 264//33 263//33 262//33 261//33 260//33 259//33\
258//33 257//33 256//33 255//33 254//33 253//33
f  214//33 215//33 216//33 195//33 196//33 197//33 198//33 199//33\
200//33 201//33 202//33 203//33 191//33 192//33 193//33 194//33\
173//33 174//33 175//33 176//33 177//33 178//33 179//33 180//33\
181//33 182//33 183//33 184//33 185//33 186//33 187//33 188//33\
189//33 190//33 191//1 203//1 204//33 205//33 206//33 207//33 208//33\
209//33 210//33 211//33 212//33 213//33 168//33 169//33 170//33\
171//33 172//33 129//33 92//33 98//33 97//33 96//33 95//33 94//33\
93//33 104//33 103//33 102//33 101//33 100//33 99//33 91//33 127//33\
163//33 164//33 165//33 166//33 167//33 168//1 213//1
f  247//33 284//33 283//33 282//33 281//33 280//33 279//33 278//33\
277//33 276//33 275//33 246//33
f  306//33 305//33 304//33 303//33 302//33 301//33 300//33 299//33\
298//33 297//33 296//33 295//33 294//33 293//33 292//33 291//33\
290//33 289//33 288//33 287//33 286//33 285//33
f  328//33 327//33 326//33 325//33 324//33 323//33 322//33 321//33\
320//33 319//33 318//33 317//33 316//33 315//33 314//33 313//33\
312//33 311//33 310//33 309//33 308//33 307//33
f  218//52 111//51 110//54 217//53
f  219//55 112//56 111//51 218//52
f  220//57 113//58 112//56 219//55
f  221//59 114//60 113//58 220//57
f  222//61 115//62 114//60 221//59
f  223//1 116//1 115//62 222//61
f  117//63 116//1 223//1 224//64
f  118//65 117//63 224//64 225//66
f  119//67 118//65 225//66 226//68
f  120//69 119//67 226//68 227//70
f  121//71 120//69 227//70 228//72
f  122//73 121//71 228//72 229//74
f  123//75 122//73 229//74 230//76
f  124//77 123//75 230//76 231//78
f  125//79 124//77 231//78 232//80
f  126//81 125//79 232//80 233//82
f  105//4 126//81 233//82 234//4
f  235//83 106//84 105//4 234//4
f  236//85 107//86 106//84 235//83
f  237//87 108//88 107//86 236//85
f  238//89 109//90 108//88 237//87
f  217//53 110//54 109//90 238//89
f  136//91 135//92 239//93 240//94
f  137//95 136//91 240//94 241//96
f  138//97 137//95 241//96 242//98
f  139//99 138//97 242//98 243//100
f  140//101 139//99 243//100 244//102
f  128//103 140//101 244//102 245//104
f  127//105 128//103 245//104 246//105
f  248//106 130//106 129//107 247//108
f  131//109 130//106 248//106 249//110
f  132//111 131//109 249//110 250//112
f  133//113 132//111 250//112 251//114
f  134//115 133//113 251//114 252//116
f  135//92 134//115 252//116 239//93
f  254//117 147//118 146//119 253//120
f  255//121 148//122 147//118 254//117
f  256//123 149//124 148//122 255//121
f  257//125 150//126 149//124 256//123
f  258//61 151//62 150//126 257//125
f  259//1 152//1 151//62 258//61
f  153//109 152//1 259//1 260//110
f  154//127 153//109 260//110 261//128
f  155//129 154//127 261//128 262//114
f  156//115 155//129 262//114 263//116
f  157//92 156//115 263//116 264//93
f  158//91 157//92 264//93 265//94
f  159//95 158//91 265//94 266//96
f  160//130 159//95 266//96 267//131
f  161//132 160//130 267//131 268//133
f  162//101 161//132 268//133 269//102
f  141//4 162//101 269//102 270//4
f  271//83 142//84 141//4 270//4
f  272//134 143//135 142//84 271//83
f  273//136 144//137 143//135 272//134
f  274//138 145//139 144//137 273//136
f  253//120 146//119 145//139 274//138
f  275//140 163//141 127//105 246//105
f  276//142 164//135 163//141 275//140
f  277//87 165//45 164//135 276//142
f  278//143 166//144 165//45 277//87
f  279//120 167//119 166//144 278//143
f  280//117 168//118 167//119 279//120
f  281//145 169//146 168//118 280//117
f  282//147 170//58 169//146 281//145
f  283//148 171//149 170//58 282//147
f  284//150 172//151 171//149 283//148
f  247//108 129//107 172//151 284//150
f  192//16 191//31 285//30 286//13
f  193//152 192//16 286//13 287//153
f  194//154 193//152 287//153 288//155
f  173//156 194//154 288//155 289//157
f  174//158 173//156 289//157 290//159
f  175//4 174//158 290//159 291//4
f  292//160 176//161 175//4 291//4
f  293//162 177//163 176//161 292//160
f  294//164 178//165 177//163 293//162
f  295//143 179//166 178//165 294//164
f  296//167 180//168 179//166 295//143
f  297//169 181//170 180//168 296//167
f  298//171 182//146 181//170 297//169
f  299//172 183//173 182//146 298//171
f  300//174 184//175 183//173 299//172
f  301//176 185//177 184//175 300//174
f  302//1 186//1 185//177 301//176
f  187//178 186//1 302//1 303//179
f  188//180 187//178 303//179 304//181
f  189//182 188//180 304//181 305//183
f  190//184 189//182 305//183 306//185
f  191//31 190//184 306//185 285//30
f  308//117 203//118 202//119 307//120
f  309//186 204//187 203//118 308//117
f  310//188 205//189 204//187 309//186
f  311//190 206//191 205//189 310//188
f  312//192 207//193 206//191 311//190
f  313//1 208//1 207//193 312//192
f  209//178 208//1 313//1 314//179
f  210//194 209//178 314//179 315//195
f  211//196 210//194 315//195 316//197
f  212//198 211//196 316//197 317//199
f  213//92 212//198 317//199 318//93
f  214//91 213//92 318//93 319//94
f  215//200 214//91 319//94 320//201
f  216//202 215//200 320//201 321//203
f  195//204 216//202 321//203 322//205
f  196//158 195//204 322//205 323//159
f  197//4 196//158 323//159 324//4
f  325//206 198//207 197//4 324//4
f  326//208 199//209 198//207 325//206
f  327//210 200//211 199//209 326//208
f  328//212 201//213 200//211 327//210
f  307//120 202//119 201//213 328//212
