# 
# Wavefront OBJ file
# Converted by the DEEP Exploration 3.5.7.1088
# Right Hemisphere, LTD
# http://www.righthemisphere.com/
# 
# object Object #0
g Object__0
v 0.145161 -0.76 0
v 0.177419 -0.76 0
v 0.306452 -0.76 0
v 0.370968 -0.76 0
v 0.370968 0.75 0
v 0.306452 0.75 0
v 0.177419 0.75 0
v 0.145161 0.75 0
v 0.145161 -0.76 0.03
v 0.177419 -0.76 0.03
v 0.306452 -0.76 0.03
v 0.370968 -0.76 0.03
v 0.370968 0.75 0.03
v 0.306452 0.75 0.03
v 0.177419 0.75 0.03
v 0.145161 0.75 0.03
v 0.145161 -0.76 0.06
v 0.145161 0.75 0.06
v 0.177419 0.75 0.06
v 0.177419 -0.76 0.06
v 0.306452 -0.6845 0.03
v 0.306452 0.6745 0.03
v 0.370968 0.6745 0.03
v 0.370968 -0.6845 0.03
v 0.306452 -0.6845 0.015
v 0.306452 0.6745 0.015
v 0.370968 0.6745 0.015
v 0.370968 -0.6845 0.015
v 0.5 0.71 0.03
v 0.46 0.75 0.03
v 0.5 0.71 0
v 0.46 0.75 0
v 0.498571 0.720634 0.03
v 0.494539 0.73019 0.03
v 0.488285 0.738285 0.03
v 0.48019 0.744539 0.03
v 0.470634 0.748571 0.03
v 0.498571 0.720634 0
v 0.494539 0.73019 0
v 0.488285 0.738285 0
v 0.48019 0.744539 0
v 0.470634 0.748571 0
v 0.46 -0.76 0.03
v 0.5 -0.72 0.03
v 0.46 -0.76 0
v 0.5 -0.72 0
v 0.470634 -0.758571 0.03
v 0.48019 -0.754539 0.03
v 0.488285 -0.748285 0.03
v 0.494539 -0.74019 0.03
v 0.498571 -0.730634 0.03
v 0.498571 -0.730634 0
v 0.494539 -0.74019 0
v 0.488285 -0.748285 0
v 0.48019 -0.754539 0
v 0.470634 -0.758571 0
v -0.145161 -0.76 0
v -0.177419 -0.76 0
v -0.306452 -0.76 0
v -0.370968 -0.76 0
v -0.370968 0.75 0
v -0.306452 0.75 0
v -0.177419 0.75 0
v -0.145161 0.75 0
v -0.145161 -0.76 0.03
v -0.177419 -0.76 0.03
v -0.306452 -0.76 0.03
v -0.370968 -0.76 0.03
v -0.370968 0.75 0.03
v -0.306452 0.75 0.03
v -0.177419 0.75 0.03
v -0.145161 0.75 0.03
v -0.145161 -0.76 0.06
v -0.145161 0.75 0.06
v -0.177419 0.75 0.06
v -0.177419 -0.76 0.06
v -0.306452 -0.6845 0.03
v -0.306452 0.6745 0.03
v -0.370968 0.6745 0.03
v -0.370968 -0.6845 0.03
v -0.306452 -0.6845 0.015
v -0.306452 0.6745 0.015
v -0.370968 0.6745 0.015
v -0.370968 -0.6845 0.015
v -0.5 0.71 0.03
v -0.46 0.75 0.03
v -0.5 0.71 0
v -0.46 0.75 0
v -0.498571 0.720634 0.03
v -0.494539 0.73019 0.03
v -0.488285 0.738285 0.03
v -0.48019 0.744539 0.03
v -0.470634 0.748571 0.03
v -0.498571 0.720634 0
v -0.494539 0.73019 0
v -0.488285 0.738285 0
v -0.48019 0.744539 0
v -0.470634 0.748571 0
v -0.46 -0.76 0.03
v -0.5 -0.72 0.03
v -0.46 -0.76 0
v -0.5 -0.72 0
v -0.470634 -0.758571 0.03
v -0.48019 -0.754539 0.03
v -0.488285 -0.748285 0.03
v -0.494539 -0.74019 0.03
v -0.498571 -0.730634 0.03
v -0.498571 -0.730634 0
v -0.494539 -0.74019 0
v -0.488285 -0.748285 0
v -0.48019 -0.754539 0
v -0.470634 -0.758571 0
v 0 -0.76 0
v 0 0.75 0
v 0 -0.76 0.03
v 0 0.75 0.03
# 116 verticies
vn 0 0 -1
vn 0 -1 0
vn 0 1 0
vn 0 0 1
vn -1 0 0
vn 1 0 0
vn 0.0667261 0.997771 0
vn 0.997771 0.0667244 0
vn 0.952044 0.305962 0
vn 0.975481 0.220082 0
vn 0.840906 0.541181 0
vn 0.884559 0.466428 0
vn 0.676247 0.736675 0
vn 0.736675 0.676247 0
vn 0.305961 0.952044 0
vn 0.220083 0.975481 0
vn 0.54118 0.840907 0
vn 0.466426 0.88456 0
vn 0.0667261 -0.997771 0
vn 0.997771 -0.0667244 0
vn 0.305961 -0.952044 0
vn 0.220083 -0.975481 0
vn 0.54118 -0.840907 0
vn 0.466426 -0.88456 0
vn 0.736675 -0.676247 0
vn 0.676247 -0.736675 0
vn 0.952044 -0.305962 0
vn 0.975481 -0.220082 0
vn 0.840906 -0.541181 0
vn 0.884559 -0.466428 0
vn -0.0667261 0.997771 0
vn -0.975481 0.220082 0
vn -0.952044 0.305962 0
vn -0.997771 0.0667244 0
vn -0.884559 0.466428 0
vn -0.840906 0.541181 0
vn -0.736675 0.676247 0
vn -0.676247 0.736675 0
vn -0.220083 0.975481 0
vn -0.305961 0.952044 0
vn -0.466426 0.88456 0
vn -0.54118 0.840907 0
vn -0.0667261 -0.997771 0
vn -0.997771 -0.0667244 0
vn -0.220083 -0.975481 0
vn -0.305961 -0.952044 0
vn -0.466426 -0.88456 0
vn -0.54118 -0.840907 0
vn -0.676247 -0.736675 0
vn -0.736675 -0.676247 0
vn -0.975481 -0.220082 0
vn -0.952044 -0.305962 0
vn -0.884559 -0.466428 0
vn -0.840906 -0.541181 0
# 54 normals
f  8//1 7//1 2//1 1//1
f  2//2 10//2 9//2 1//2
f  16//3 15//3 7//3 8//3
f  20//4 19//4 18//4 17//4
f  8//1 1//1 113//1 114//1
f  1//2 9//2 115//2 113//2
f  9//4 16//4 116//4 115//4
f  16//3 8//3 114//3 116//3
f  6//1 3//1 2//1 7//1
f  3//2 11//2 10//2 2//2
f  11//4 14//4 15//4 10//4
f  14//3 6//3 7//3 15//3
f  5//1 4//1 3//1 6//1
f  4//2 12//2 11//2 3//2
f  28//4 27//4 26//4 25//4
f  13//3 5//3 6//3 14//3
f  10//2 20//2 17//2 9//2
f  17//5 18//5 16//5 9//5
f  18//3 19//3 15//3 16//3
f  15//6 19//6 20//6 10//6
f  12//4 24//4 21//4 11//4
f  22//4 23//4 13//4 14//4
f  24//3 28//3 25//3 21//3
f  25//6 26//6 22//6 21//6
f  26//2 27//2 23//2 22//2
f  23//5 27//5 28//5 24//5
f  30//7 32//7 5//3 13//3
f  31//8 38//9 33//10 29//8
f  38//9 39//11 34//12 33//10
f  39//11 40//13 35//14 34//12
f  30//7 37//15 42//16 32//7
f  37//15 36//17 41//18 42//16
f  36//17 35//14 40//13 41//18
f  45//19 43//19 12//2 4//2
f  31//8 29//8 44//20 46//20
f  32//1 42//1 41//1 40//1 39//1 38//1 31//1 46//1 52//1 53//1 54//1\
55//1 56//1 45//1 4//1 5//1
f  43//4 47//4 48//4 49//4 50//4 51//4 44//4 29//4 33//4 34//4 35//4\
36//4 37//4 30//4 13//4 12//4
f  45//19 56//21 47//22 43//19
f  56//21 55//23 48//24 47//22
f  55//23 54//25 49//26 48//24
f  44//20 51//27 52//28 46//20
f  51//27 50//29 53//30 52//28
f  50//29 49//26 54//25 53//30
f  58//1 63//1 64//1 57//1
f  65//2 66//2 58//2 57//2
f  63//3 71//3 72//3 64//3
f  74//4 75//4 76//4 73//4
f  113//1 57//1 64//1 114//1
f  115//2 65//2 57//2 113//2
f  116//4 72//4 65//4 115//4
f  114//3 64//3 72//3 116//3
f  58//1 59//1 62//1 63//1
f  66//2 67//2 59//2 58//2
f  71//4 70//4 67//4 66//4
f  63//3 62//3 70//3 71//3
f  59//1 60//1 61//1 62//1
f  67//2 68//2 60//2 59//2
f  82//4 83//4 84//4 81//4
f  62//3 61//3 69//3 70//3
f  73//2 76//2 66//2 65//2
f  72//6 74//6 73//6 65//6
f  71//3 75//3 74//3 72//3
f  76//5 75//5 71//5 66//5
f  77//4 80//4 68//4 67//4
f  69//4 79//4 78//4 70//4
f  81//3 84//3 80//3 77//3
f  78//5 82//5 81//5 77//5
f  79//2 83//2 82//2 78//2
f  84//6 83//6 79//6 80//6
f  61//3 88//31 86//31 69//3
f  89//32 94//33 87//34 85//34
f  90//35 95//36 94//33 89//32
f  91//37 96//38 95//36 90//35
f  98//39 93//40 86//31 88//31
f  97//41 92//42 93//40 98//39
f  96//38 91//37 92//42 97//41
f  68//2 99//43 101//43 60//2
f  100//44 85//34 87//34 102//44
f  60//1 101//1 112//1 111//1 110//1 109//1 108//1 102//1 87//1 94//1\
95//1 96//1 97//1 98//1 88//1 61//1
f  69//4 86//4 93//4 92//4 91//4 90//4 89//4 85//4 100//4 107//4\
106//4 105//4 104//4 103//4 99//4 68//4
f  103//45 112//46 101//43 99//43
f  104//47 111//48 112//46 103//45
f  105//49 110//50 111//48 104//47
f  108//51 107//52 100//44 102//44
f  109//53 106//54 107//52 108//51
f  110//50 105//49 106//54 109//53
