# 
# Wavefront OBJ file
# Converted by the DEEP Exploration 3.5.7.1088
# Right Hemisphere, LTD
# http://www.righthemisphere.com/
# 
# object Object #0
g Object__0
v -0.32 -0.31 0
v 0.32 -0.31 0
v 0.32 0.31 0
v -0.32 0.31 0
v -0.32 -0.31 0.24
v 0.32 -0.31 0.24
v 0.32 0.31 0.24
v -0.32 0.31 0.24
v -0.035 0.3 0
v 0.035 0.3 0
v 0.035 0.5 0
v -0.035 0.5 0
v -0.035 0.3 0.18
v 0.035 0.3 0.18
v 0.035 0.5 0.12
v -0.035 0.5 0.12
v -0.28 0.3 0
v -0.21 0.3 0
v -0.21 0.5 0
v -0.28 0.5 0
v -0.28 0.3 0.18
v -0.21 0.3 0.18
v -0.21 0.5 0.12
v -0.28 0.5 0.12
v -0.16 0.3 0
v -0.09 0.3 0
v -0.09 0.5 0
v -0.16 0.5 0
v -0.16 0.3 0.18
v -0.09 0.3 0.18
v -0.09 0.5 0.12
v -0.16 0.5 0.12
v 0.28 0.3 0
v 0.21 0.3 0
v 0.21 0.5 0
v 0.28 0.5 0
v 0.28 0.3 0.18
v 0.21 0.3 0.18
v 0.21 0.5 0.12
v 0.28 0.5 0.12
v 0.16 0.3 0
v 0.09 0.3 0
v 0.09 0.5 0
v 0.16 0.5 0
v 0.16 0.3 0.18
v 0.09 0.3 0.18
v 0.09 0.5 0.12
v 0.16 0.5 0.12
v -0.3 -0.035 0
v -0.3 0.035 0
v -0.5 0.035 0
v -0.5 -0.035 0
v -0.3 -0.035 0.18
v -0.3 0.035 0.18
v -0.5 0.035 0.12
v -0.5 -0.035 0.12
v -0.3 -0.28 0
v -0.3 -0.21 0
v -0.5 -0.21 0
v -0.5 -0.28 0
v -0.3 -0.28 0.18
v -0.3 -0.21 0.18
v -0.5 -0.21 0.12
v -0.5 -0.28 0.12
v -0.3 -0.16 0
v -0.3 -0.09 0
v -0.5 -0.09 0
v -0.5 -0.16 0
v -0.3 -0.16 0.18
v -0.3 -0.09 0.18
v -0.5 -0.09 0.12
v -0.5 -0.16 0.12
v -0.3 0.28 0
v -0.3 0.21 0
v -0.5 0.21 0
v -0.5 0.28 0
v -0.3 0.28 0.18
v -0.3 0.21 0.18
v -0.5 0.21 0.12
v -0.5 0.28 0.12
v -0.3 0.16 0
v -0.3 0.09 0
v -0.5 0.09 0
v -0.5 0.16 0
v -0.3 0.16 0.18
v -0.3 0.09 0.18
v -0.5 0.09 0.12
v -0.5 0.16 0.12
v 0.035 -0.3 0
v -0.035 -0.3 0
v -0.035 -0.5 0
v 0.035 -0.5 0
v 0.035 -0.3 0.18
v -0.035 -0.3 0.18
v -0.035 -0.5 0.12
v 0.035 -0.5 0.12
v 0.28 -0.3 0
v 0.21 -0.3 0
v 0.21 -0.5 0
v 0.28 -0.5 0
v 0.28 -0.3 0.18
v 0.21 -0.3 0.18
v 0.21 -0.5 0.12
v 0.28 -0.5 0.12
v 0.16 -0.3 0
v 0.09 -0.3 0
v 0.09 -0.5 0
v 0.16 -0.5 0
v 0.16 -0.3 0.18
v 0.09 -0.3 0.18
v 0.09 -0.5 0.12
v 0.16 -0.5 0.12
v -0.28 -0.3 0
v -0.21 -0.3 0
v -0.21 -0.5 0
v -0.28 -0.5 0
v -0.28 -0.3 0.18
v -0.21 -0.3 0.18
v -0.21 -0.5 0.12
v -0.28 -0.5 0.12
v -0.16 -0.3 0
v -0.09 -0.3 0
v -0.09 -0.5 0
v -0.16 -0.5 0
v -0.16 -0.3 0.18
v -0.09 -0.3 0.18
v -0.09 -0.5 0.12
v -0.16 -0.5 0.12
v 0.3 0.035 0
v 0.3 -0.035 0
v 0.5 -0.035 0
v 0.5 0.035 0
v 0.3 0.035 0.18
v 0.3 -0.035 0.18
v 0.5 -0.035 0.12
v 0.5 0.035 0.12
v 0.3 0.28 0
v 0.3 0.21 0
v 0.5 0.21 0
v 0.5 0.28 0
v 0.3 0.28 0.18
v 0.3 0.21 0.18
v 0.5 0.21 0.12
v 0.5 0.28 0.12
v 0.3 0.16 0
v 0.3 0.09 0
v 0.5 0.09 0
v 0.5 0.16 0
v 0.3 0.16 0.18
v 0.3 0.09 0.18
v 0.5 0.09 0.12
v 0.5 0.16 0.12
v 0.3 -0.28 0
v 0.3 -0.21 0
v 0.5 -0.21 0
v 0.5 -0.28 0
v 0.3 -0.28 0.18
v 0.3 -0.21 0.18
v 0.5 -0.21 0.12
v 0.5 -0.28 0.12
v 0.3 -0.16 0
v 0.3 -0.09 0
v 0.5 -0.09 0
v 0.5 -0.16 0
v 0.3 -0.16 0.18
v 0.3 -0.09 0.18
v 0.5 -0.09 0.12
v 0.5 -0.16 0.12
v 0.26 0 0.23
v 0.257776 0.0339368 0.23
v 0.251141 0.067293 0.23
v 0.240209 0.0994977 0.23
v 0.225167 0.13 0.23
v 0.206272 0.158278 0.23
v 0.183848 0.183848 0.23
v 0.158278 0.206272 0.23
v 0.13 0.225167 0.23
v 0.0994977 0.240209 0.23
v 0.067293 0.251141 0.23
v 0.0339368 0.257776 0.23
v 0 0.26 0.23
v -0.0339368 0.257776 0.23
v -0.067293 0.251141 0.23
v -0.0994977 0.240209 0.23
v -0.13 0.225167 0.23
v -0.158278 0.206272 0.23
v -0.183848 0.183848 0.23
v -0.206272 0.158278 0.23
v -0.225167 0.13 0.23
v -0.240209 0.0994977 0.23
v -0.251141 0.067293 0.23
v -0.257776 0.0339368 0.23
v -0.26 0 0.23
v -0.257776 -0.0339368 0.23
v -0.251141 -0.067293 0.23
v -0.240209 -0.0994977 0.23
v -0.225167 -0.13 0.23
v -0.206272 -0.158278 0.23
v -0.183848 -0.183848 0.23
v -0.158278 -0.206272 0.23
v -0.13 -0.225167 0.23
v -0.0994977 -0.240209 0.23
v -0.067293 -0.251141 0.23
v -0.0339368 -0.257776 0.23
v 0 -0.26 0.23
v 0.0339368 -0.257776 0.23
v 0.067293 -0.251141 0.23
v 0.0994977 -0.240209 0.23
v 0.13 -0.225167 0.23
v 0.158278 -0.206272 0.23
v 0.183848 -0.183848 0.23
v 0.206272 -0.158278 0.23
v 0.225167 -0.13 0.23
v 0.240209 -0.0994977 0.23
v 0.251141 -0.067293 0.23
v 0.257776 -0.0339368 0.23
v 0.26 0 0.28
v 0.257776 0.0339368 0.28
v 0.251141 0.067293 0.28
v 0.240209 0.0994977 0.28
v 0.225167 0.13 0.28
v 0.206272 0.158278 0.28
v 0.183848 0.183848 0.28
v 0.158278 0.206272 0.28
v 0.13 0.225167 0.28
v 0.0994977 0.240209 0.28
v 0.067293 0.251141 0.28
v 0.0339368 0.257776 0.28
v 0 0.26 0.28
v -0.0339368 0.257776 0.28
v -0.067293 0.251141 0.28
v -0.0994977 0.240209 0.28
v -0.13 0.225167 0.28
v -0.158278 0.206272 0.28
v -0.183848 0.183848 0.28
v -0.206272 0.158278 0.28
v -0.225167 0.13 0.28
v -0.240209 0.0994977 0.28
v -0.251141 0.067293 0.28
v -0.257776 0.0339368 0.28
v -0.26 0 0.28
v -0.257776 -0.0339368 0.28
v -0.251141 -0.067293 0.28
v -0.240209 -0.0994977 0.28
v -0.225167 -0.13 0.28
v -0.206272 -0.158278 0.28
v -0.183848 -0.183848 0.28
v -0.158278 -0.206272 0.28
v -0.13 -0.225167 0.28
v -0.0994977 -0.240209 0.28
v -0.067293 -0.251141 0.28
v -0.0339368 -0.257776 0.28
v 0 -0.26 0.28
v 0.0339368 -0.257776 0.28
v 0.067293 -0.251141 0.28
v 0.0994977 -0.240209 0.28
v 0.13 -0.225167 0.28
v 0.158278 -0.206272 0.28
v 0.183848 -0.183848 0.28
v 0.206272 -0.158278 0.28
v 0.225167 -0.13 0.28
v 0.240209 -0.0994977 0.28
v 0.251141 -0.067293 0.28
v 0.257776 -0.0339368 0.28
v 0.199871 0 0.28
v 0.198161 -0.0260884 0.28
v 0.193061 -0.0517305 0.28
v 0.184657 -0.0764874 0.28
v 0.173094 -0.0999356 0.28
v 0.158569 -0.121674 0.28
v 0.14133 -0.14133 0.28
v 0.121674 -0.158569 0.28
v 0.0999356 -0.173094 0.28
v 0.0764874 -0.184657 0.28
v 0.0517305 -0.193061 0.28
v 0.0260884 -0.198161 0.28
v 0 -0.199871 0.28
v -0.0260884 -0.198161 0.28
v -0.0517305 -0.193061 0.28
v -0.0764874 -0.184657 0.28
v -0.0999356 -0.173094 0.28
v -0.121674 -0.158569 0.28
v -0.14133 -0.14133 0.28
v -0.158569 -0.121674 0.28
v -0.173094 -0.0999356 0.28
v -0.184657 -0.0764874 0.28
v -0.193061 -0.0517305 0.28
v -0.198161 -0.0260884 0.28
v -0.199871 0 0.28
v -0.198161 0.0260884 0.28
v -0.193061 0.0517305 0.28
v -0.184657 0.0764874 0.28
v -0.173094 0.0999356 0.28
v -0.158569 0.121674 0.28
v -0.14133 0.14133 0.28
v -0.121674 0.158569 0.28
v -0.0999356 0.173094 0.28
v -0.0764874 0.184657 0.28
v -0.0517305 0.193061 0.28
v -0.0260884 0.198161 0.28
v 0 0.199871 0.28
v 0.0260884 0.198161 0.28
v 0.0517305 0.193061 0.28
v 0.0764874 0.184657 0.28
v 0.0999356 0.173094 0.28
v 0.121674 0.158569 0.28
v 0.14133 0.14133 0.28
v 0.158569 0.121674 0.28
v 0.173094 0.0999356 0.28
v 0.184657 0.0764874 0.28
v 0.193061 0.0517305 0.28
v 0.198161 0.0260884 0.28
v 0.199871 0 0.25
v 0.198161 -0.0260884 0.25
v 0.193061 -0.0517305 0.25
v 0.184657 -0.0764874 0.25
v 0.173094 -0.0999356 0.25
v 0.158569 -0.121674 0.25
v 0.14133 -0.14133 0.25
v 0.121674 -0.158569 0.25
v 0.0999356 -0.173094 0.25
v 0.0764874 -0.184657 0.25
v 0.0517305 -0.193061 0.25
v 0.0260884 -0.198161 0.25
v 0 -0.199871 0.25
v -0.0260884 -0.198161 0.25
v -0.0517305 -0.193061 0.25
v -0.0764874 -0.184657 0.25
v -0.0999356 -0.173094 0.25
v -0.121674 -0.158569 0.25
v -0.14133 -0.14133 0.25
v -0.158569 -0.121674 0.25
v -0.173094 -0.0999356 0.25
v -0.184657 -0.0764874 0.25
v -0.193061 -0.0517305 0.25
v -0.198161 -0.0260884 0.25
v -0.199871 0 0.25
v -0.198161 0.0260884 0.25
v -0.193061 0.0517305 0.25
v -0.184657 0.0764874 0.25
v -0.173094 0.0999356 0.25
v -0.158569 0.121674 0.25
v -0.14133 0.14133 0.25
v -0.121674 0.158569 0.25
v -0.0999356 0.173094 0.25
v -0.0764874 0.184657 0.25
v -0.0517305 0.193061 0.25
v -0.0260884 0.198161 0.25
v 0 0.199871 0.25
v 0.0260884 0.198161 0.25
v 0.0517305 0.193061 0.25
v 0.0764874 0.184657 0.25
v 0.0999356 0.173094 0.25
v 0.121674 0.158569 0.25
v 0.14133 0.14133 0.25
v 0.158569 0.121674 0.25
v 0.173094 0.0999356 0.25
v 0.184657 0.0764874 0.25
v 0.193061 0.0517305 0.25
v 0.198161 0.0260884 0.25
# 360 verticies
vn 0 0 -1
vn 0 -1 0
vn 1 0 0
vn 0 1 0
vn -1 0 0
vn 0 0 1
vn 0 0.287348 0.957826
vn -0.287348 0 0.957826
vn 0 -0.287348 0.957826
vn 0.287348 0 0.957826
vn 0.994059 0.108839 0
vn 0.988357 0.152151 0
vn 0.999761 0.0218425 0
vn 0.999761 -0.0218425 0
vn 0.971349 0.237659 0
vn 0.960042 0.279856 0
vn 0.932018 0.362412 0
vn 0.9153 0.402772 0
vn 0.87674 0.480964 0
vn 0.854897 0.518797 0
vn 0.806461 0.591287 0
vn 0.779867 0.625945 0
vn 0.722383 0.691493 0
vn 0.691493 0.722383 0
vn 0.625945 0.779867 0
vn 0.591287 0.806461 0
vn 0.518797 0.854897 0
vn 0.480964 0.87674 0
vn 0.402772 0.9153 0
vn 0.362412 0.932018 0
vn 0.279856 0.960042 0
vn 0.237659 0.971349 0
vn 0.152151 0.988357 0
vn 0.108839 0.994059 0
vn -0.108839 0.994059 0
vn -0.152151 0.988357 0
vn -0.237659 0.971349 0
vn -0.279856 0.960042 0
vn -0.362412 0.932018 0
vn -0.402772 0.9153 0
vn -0.480964 0.87674 0
vn -0.518797 0.854897 0
vn -0.591287 0.806461 0
vn -0.625945 0.779867 0
vn -0.691493 0.722383 0
vn -0.722383 0.691493 0
vn -0.779867 0.625945 0
vn -0.806461 0.591287 0
vn -0.854897 0.518797 0
vn -0.87674 0.480964 0
vn -0.9153 0.402772 0
vn -0.932018 0.362412 0
vn -0.960042 0.279856 0
vn -0.971349 0.237659 0
vn -0.988357 0.152151 0
vn -0.994059 0.108839 0
vn -0.999761 0.0218425 0
vn -0.999761 -0.0218425 0
vn -0.994059 -0.108839 0
vn -0.988357 -0.152151 0
vn -0.971349 -0.237659 0
vn -0.960042 -0.279856 0
vn -0.932018 -0.362412 0
vn -0.9153 -0.402772 0
vn -0.87674 -0.480964 0
vn -0.854897 -0.518797 0
vn -0.806461 -0.591287 0
vn -0.779867 -0.625945 0
vn -0.722383 -0.691493 0
vn -0.691493 -0.722383 0
vn -0.625945 -0.779867 0
vn -0.591287 -0.806461 0
vn -0.518797 -0.854897 0
vn -0.480964 -0.87674 0
vn -0.402772 -0.9153 0
vn -0.362412 -0.932018 0
vn -0.279856 -0.960042 0
vn -0.237659 -0.971349 0
vn -0.152151 -0.988357 0
vn -0.108839 -0.994059 0
vn 0.108839 -0.994059 0
vn 0.152151 -0.988357 0
vn 0.237659 -0.971349 0
vn 0.279856 -0.960042 0
vn 0.362412 -0.932018 0
vn 0.402772 -0.9153 0
vn 0.480964 -0.87674 0
vn 0.518797 -0.854897 0
vn 0.591287 -0.806461 0
vn 0.625945 -0.779867 0
vn 0.691493 -0.722383 0
vn 0.722383 -0.691493 0
vn 0.779867 -0.625945 0
vn 0.806461 -0.591287 0
vn 0.854897 -0.518797 0
vn 0.87674 -0.480964 0
vn 0.9153 -0.402772 0
vn 0.932018 -0.362412 0
vn 0.960042 -0.279856 0
vn 0.971349 -0.237659 0
vn 0.988357 -0.152151 0
vn 0.994059 -0.108839 0
vn -0.999761 -0.0218426 0
vn -0.988357 -0.152151 0
vn -0.994059 -0.108839 0
vn -0.999761 0.0218426 0
vn -0.994059 0.108839 0
vn -0.988357 0.152151 0
vn -0.971349 0.237659 0
vn -0.87674 0.480964 0
vn -0.854897 0.518797 0
vn -0.779867 0.625945 0
vn -0.722383 0.691493 0
vn -0.691493 0.722383 0
vn -0.625945 0.779867 0
vn -0.591287 0.806461 0
vn -0.518797 0.854897 0
vn -0.480964 0.87674 0
vn -0.279856 0.960042 0
vn -0.237659 0.971349 0
vn -0.152151 0.988357 0
vn -0.108839 0.994059 0
vn 0.108839 0.994059 0
vn 0.152151 0.988357 0
vn 0.237659 0.971349 0
vn 0.480964 0.87674 0
vn 0.518797 0.854897 0
vn 0.625945 0.779867 0
vn 0.691493 0.722383 0
vn 0.722383 0.691493 0
vn 0.779867 0.625945 0
vn 0.806461 0.591287 0
vn 0.854897 0.518797 0
vn 0.87674 0.480964 0
vn 0.960042 0.279856 0
vn 0.971349 0.237659 0
vn 0.988357 0.152151 0
vn 0.994059 0.108839 0
vn 0.999761 0.0218426 0
vn 0.999761 -0.0218426 0
vn 0.994059 -0.108839 0
vn 0.988357 -0.152151 0
vn 0.971349 -0.237659 0
vn 0.87674 -0.480964 0
vn 0.854897 -0.518797 0
vn 0.779867 -0.625945 0
vn 0.722383 -0.691493 0
vn 0.691493 -0.722383 0
vn 0.625945 -0.779867 0
vn 0.591287 -0.806461 0
vn 0.518797 -0.854897 0
vn 0.480964 -0.87674 0
vn 0.279856 -0.960042 0
vn 0.237659 -0.971349 0
vn 0.152151 -0.988357 0
vn 0.108839 -0.994059 0
vn -0.108839 -0.994059 0
vn -0.152151 -0.988357 0
vn -0.237659 -0.971349 0
vn -0.480964 -0.87674 0
vn -0.518797 -0.854897 0
vn -0.625945 -0.779867 0
vn -0.691493 -0.722383 0
vn -0.722383 -0.691493 0
vn -0.779867 -0.625945 0
vn -0.806461 -0.591287 0
vn -0.854897 -0.518797 0
vn -0.87674 -0.480964 0
vn -0.960042 -0.279856 0
vn -0.971349 -0.237659 0
# 170 normals
f  4//1 3//1 2//1 1//1
f  2//2 6//2 5//2 1//2
f  3//3 7//3 6//3 2//3
f  8//4 7//4 3//4 4//4
f  5//5 8//5 4//5 1//5
f  6//6 7//6 8//6 5//6
f  12//1 11//1 10//1 9//1
f  10//2 14//2 13//2 9//2
f  11//3 15//3 14//3 10//3
f  16//4 15//4 11//4 12//4
f  13//5 16//5 12//5 9//5
f  14//7 15//7 16//7 13//7
f  20//1 19//1 18//1 17//1
f  18//2 22//2 21//2 17//2
f  19//3 23//3 22//3 18//3
f  24//4 23//4 19//4 20//4
f  21//5 24//5 20//5 17//5
f  22//7 23//7 24//7 21//7
f  28//1 27//1 26//1 25//1
f  26//2 30//2 29//2 25//2
f  27//3 31//3 30//3 26//3
f  32//4 31//4 27//4 28//4
f  29//5 32//5 28//5 25//5
f  30//7 31//7 32//7 29//7
f  34//1 35//1 36//1 33//1
f  37//2 38//2 34//2 33//2
f  38//5 39//5 35//5 34//5
f  35//4 39//4 40//4 36//4
f  36//3 40//3 37//3 33//3
f  40//7 39//7 38//7 37//7
f  42//1 43//1 44//1 41//1
f  45//2 46//2 42//2 41//2
f  46//5 47//5 43//5 42//5
f  43//4 47//4 48//4 44//4
f  44//3 48//3 45//3 41//3
f  48//7 47//7 46//7 45//7
f  52//1 51//1 50//1 49//1
f  50//3 54//3 53//3 49//3
f  51//4 55//4 54//4 50//4
f  56//5 55//5 51//5 52//5
f  53//2 56//2 52//2 49//2
f  54//8 55//8 56//8 53//8
f  60//1 59//1 58//1 57//1
f  58//3 62//3 61//3 57//3
f  59//4 63//4 62//4 58//4
f  64//5 63//5 59//5 60//5
f  61//2 64//2 60//2 57//2
f  62//8 63//8 64//8 61//8
f  68//1 67//1 66//1 65//1
f  66//3 70//3 69//3 65//3
f  67//4 71//4 70//4 66//4
f  72//5 71//5 67//5 68//5
f  69//2 72//2 68//2 65//2
f  70//8 71//8 72//8 69//8
f  74//1 75//1 76//1 73//1
f  77//3 78//3 74//3 73//3
f  78//2 79//2 75//2 74//2
f  75//5 79//5 80//5 76//5
f  76//4 80//4 77//4 73//4
f  80//8 79//8 78//8 77//8
f  82//1 83//1 84//1 81//1
f  85//3 86//3 82//3 81//3
f  86//2 87//2 83//2 82//2
f  83//5 87//5 88//5 84//5
f  84//4 88//4 85//4 81//4
f  88//8 87//8 86//8 85//8
f  92//1 91//1 90//1 89//1
f  90//4 94//4 93//4 89//4
f  91//5 95//5 94//5 90//5
f  96//2 95//2 91//2 92//2
f  93//3 96//3 92//3 89//3
f  94//9 95//9 96//9 93//9
f  100//1 99//1 98//1 97//1
f  98//4 102//4 101//4 97//4
f  99//5 103//5 102//5 98//5
f  104//2 103//2 99//2 100//2
f  101//3 104//3 100//3 97//3
f  102//9 103//9 104//9 101//9
f  108//1 107//1 106//1 105//1
f  106//4 110//4 109//4 105//4
f  107//5 111//5 110//5 106//5
f  112//2 111//2 107//2 108//2
f  109//3 112//3 108//3 105//3
f  110//9 111//9 112//9 109//9
f  114//1 115//1 116//1 113//1
f  117//4 118//4 114//4 113//4
f  118//3 119//3 115//3 114//3
f  115//2 119//2 120//2 116//2
f  116//5 120//5 117//5 113//5
f  120//9 119//9 118//9 117//9
f  122//1 123//1 124//1 121//1
f  125//4 126//4 122//4 121//4
f  126//3 127//3 123//3 122//3
f  123//2 127//2 128//2 124//2
f  124//5 128//5 125//5 121//5
f  128//9 127//9 126//9 125//9
f  132//1 131//1 130//1 129//1
f  130//5 134//5 133//5 129//5
f  131//2 135//2 134//2 130//2
f  136//3 135//3 131//3 132//3
f  133//4 136//4 132//4 129//4
f  134//10 135//10 136//10 133//10
f  140//1 139//1 138//1 137//1
f  138//5 142//5 141//5 137//5
f  139//2 143//2 142//2 138//2
f  144//3 143//3 139//3 140//3
f  141//4 144//4 140//4 137//4
f  142//10 143//10 144//10 141//10
f  148//1 147//1 146//1 145//1
f  146//5 150//5 149//5 145//5
f  147//2 151//2 150//2 146//2
f  152//3 151//3 147//3 148//3
f  149//4 152//4 148//4 145//4
f  150//10 151//10 152//10 149//10
f  154//1 155//1 156//1 153//1
f  157//5 158//5 154//5 153//5
f  158//4 159//4 155//4 154//4
f  155//3 159//3 160//3 156//3
f  156//2 160//2 157//2 153//2
f  160//10 159//10 158//10 157//10
f  162//1 163//1 164//1 161//1
f  165//5 166//5 162//5 161//5
f  166//4 167//4 163//4 162//4
f  163//3 167//3 168//3 164//3
f  164//2 168//2 165//2 161//2
f  168//10 167//10 166//10 165//10
f  216//1 215//1 214//1 213//1 212//1 211//1 210//1 209//1 208//1\
207//1 206//1 205//1 204//1 203//1 202//1 201//1 200//1 199//1 198//1\
197//1 196//1 195//1 194//1 193//1 192//1 191//1 190//1 189//1 188//1\
187//1 186//1 185//1 184//1 183//1 182//1 181//1 180//1 179//1 178//1\
177//1 176//1 175//1 174//1 173//1 172//1 171//1 170//1 169//1
f  170//11 218//12 217//13 169//14
f  171//15 219//16 218//12 170//11
f  172//17 220//18 219//16 171//15
f  173//19 221//20 220//18 172//17
f  174//21 222//22 221//20 173//19
f  175//23 223//24 222//22 174//21
f  176//25 224//26 223//24 175//23
f  177//27 225//28 224//26 176//25
f  178//29 226//30 225//28 177//27
f  179//31 227//32 226//30 178//29
f  180//33 228//34 227//32 179//31
f  181//4 229//4 228//34 180//33
f  230//35 229//4 181//4 182//36
f  231//37 230//35 182//36 183//38
f  232//39 231//37 183//38 184//40
f  233//41 232//39 184//40 185//42
f  234//43 233//41 185//42 186//44
f  235//45 234//43 186//44 187//46
f  236//47 235//45 187//46 188//48
f  237//49 236//47 188//48 189//50
f  238//51 237//49 189//50 190//52
f  239//53 238//51 190//52 191//54
f  240//55 239//53 191//54 192//56
f  241//57 240//55 192//56 193//58
f  242//59 241//57 193//58 194//60
f  243//61 242//59 194//60 195//62
f  244//63 243//61 195//62 196//64
f  245//65 244//63 196//64 197//66
f  246//67 245//65 197//66 198//68
f  247//69 246//67 198//68 199//70
f  248//71 247//69 199//70 200//72
f  249//73 248//71 200//72 201//74
f  250//75 249//73 201//74 202//76
f  251//77 250//75 202//76 203//78
f  252//79 251//77 203//78 204//80
f  253//2 252//79 204//80 205//2
f  206//81 254//82 253//2 205//2
f  207//83 255//84 254//82 206//81
f  208//85 256//86 255//84 207//83
f  209//87 257//88 256//86 208//85
f  210//89 258//90 257//88 209//87
f  211//91 259//92 258//90 210//89
f  212//93 260//94 259//92 211//91
f  213//95 261//96 260//94 212//93
f  214//97 262//98 261//96 213//95
f  215//99 263//100 262//98 214//97
f  216//101 264//102 263//100 215//99
f  169//14 217//13 264//102 216//101
f  360//6 359//6 358//6 357//6 356//6 355//6 354//6 353//6 352//6\
351//6 350//6 349//6 348//6 347//6 346//6 345//6 344//6 343//6 342//6\
341//6 340//6 339//6 338//6 337//6 336//6 335//6 334//6 333//6 332//6\
331//6 330//6 329//6 328//6 327//6 326//6 325//6 324//6 323//6 322//6\
321//6 320//6 319//6 318//6 317//6 316//6 315//6 314//6 313//6
f  217//6 218//6 312//6 265//6
f  217//6 265//6 266//6 264//6
f  264//6 266//6 267//6 263//6
f  263//6 267//6 268//6 262//6
f  262//6 268//6 269//6 261//6
f  261//6 269//6 270//6 260//6
f  260//6 270//6 271//6 259//6
f  259//6 271//6 272//6 258//6
f  258//6 272//6 273//6 257//6
f  257//6 273//6 274//6 256//6
f  256//6 274//6 275//6 255//6
f  255//6 275//6 276//6 254//6
f  254//6 276//6 277//6 253//6
f  277//6 278//6 252//6 253//6
f  278//6 279//6 251//6 252//6
f  279//6 280//6 250//6 251//6
f  280//6 281//6 249//6 250//6
f  281//6 282//6 248//6 249//6
f  282//6 283//6 247//6 248//6
f  283//6 284//6 246//6 247//6
f  284//6 285//6 245//6 246//6
f  285//6 286//6 244//6 245//6
f  286//6 287//6 243//6 244//6
f  287//6 288//6 242//6 243//6
f  288//6 289//6 241//6 242//6
f  290//6 240//6 241//6 289//6
f  291//6 239//6 240//6 290//6
f  292//6 238//6 239//6 291//6
f  293//6 237//6 238//6 292//6
f  294//6 236//6 237//6 293//6
f  295//6 235//6 236//6 294//6
f  296//6 234//6 235//6 295//6
f  297//6 233//6 234//6 296//6
f  298//6 232//6 233//6 297//6
f  299//6 231//6 232//6 298//6
f  300//6 230//6 231//6 299//6
f  301//6 229//6 230//6 300//6
f  228//6 229//6 301//6 302//6
f  227//6 228//6 302//6 303//6
f  226//6 227//6 303//6 304//6
f  225//6 226//6 304//6 305//6
f  224//6 225//6 305//6 306//6
f  223//6 224//6 306//6 307//6
f  222//6 223//6 307//6 308//6
f  221//6 222//6 308//6 309//6
f  220//6 221//6 309//6 310//6
f  219//6 220//6 310//6 311//6
f  218//6 219//6 311//6 312//6
f  265//103 312//104 360//105 313//106
f  266//107 265//103 313//106 314//108
f  267//109 266//107 314//108 315//53
f  268//52 267//109 315//53 316//51
f  269//110 268//52 316//51 317//111
f  270//48 269//110 317//111 318//112
f  271//113 270//48 318//112 319//114
f  272//115 271//113 319//114 320//116
f  273//117 272//115 320//116 321//118
f  274//40 273//117 321//118 322//39
f  275//119 274//40 322//39 323//120
f  276//121 275//119 323//120 324//122
f  277//4 276//121 324//122 325//4
f  326//123 278//124 277//4 325//4
f  327//125 279//31 278//124 326//123
f  328//30 280//29 279//31 327//125
f  329//126 281//127 280//29 328//30
f  330//26 282//128 281//127 329//126
f  331//129 283//130 282//128 330//26
f  332//131 284//132 283//130 331//129
f  333//133 285//134 284//132 332//131
f  334//18 286//17 285//134 333//133
f  335//135 287//136 286//17 334//18
f  336//137 288//138 287//136 335//135
f  337//139 289//140 288//138 336//137
f  338//141 290//142 289//140 337//139
f  339//143 291//99 290//142 338//141
f  340//98 292//97 291//99 339//143
f  341//144 293//145 292//97 340//98
f  342//94 294//146 293//145 341//144
f  343//147 295//148 294//146 342//94
f  344//149 296//150 295//148 343//147
f  345//151 297//152 296//150 344//149
f  346//86 298//85 297//152 345//151
f  347//153 299//154 298//85 346//86
f  348//155 300//156 299//154 347//153
f  349//2 301//2 300//156 348//155
f  302//157 301//2 349//2 350//158
f  303//159 302//157 350//158 351//77
f  304//76 303//159 351//77 352//75
f  305//160 304//76 352//75 353//161
f  306//72 305//160 353//161 354//162
f  307//163 306//72 354//162 355//164
f  308//165 307//163 355//164 356//166
f  309//167 308//165 356//166 357//168
f  310//64 309//167 357//168 358//63
f  311//169 310//64 358//63 359//170
f  312//104 311//169 359//170 360//105
