# 
# Wavefront OBJ file
# Converted by the DEEP Exploration 3.5.7.1088
# Right Hemisphere, LTD
# http://www.righthemisphere.com/
# 
# object Object #0
g Object__0
v 0.095 -0.195 0.105
v 0.095 -0.195 0.15
v 0.13 -0.195 0.15
v 0.13 -0.195 0.11
v 0.47 -0.195 0.11
v 0.47 -0.195 0.15
v 0.5 -0.195 0.15
v 0.5 -0.195 0
v 0.46 -0.195 0
v 0.435 -0.195 0.095
v 0.155 -0.195 0.095
v 0.155 -0.195 0.05
v 0.095 0.195 0.105
v 0.095 0.195 0.15
v 0.13 0.195 0.15
v 0.13 0.195 0.11
v 0.47 0.195 0.11
v 0.47 0.195 0.15
v 0.5 0.195 0.15
v 0.5 0.195 0
v 0.46 0.195 0
v 0.435 0.195 0.095
v 0.155 0.195 0.095
v 0.155 0.195 0.05
v -0.095 -0.195 0.105
v -0.095 -0.195 0.15
v -0.13 -0.195 0.15
v -0.13 -0.195 0.11
v -0.47 -0.195 0.11
v -0.47 -0.195 0.15
v -0.5 -0.195 0.15
v -0.5 -0.195 0
v -0.46 -0.195 0
v -0.435 -0.195 0.095
v -0.155 -0.195 0.095
v -0.155 -0.195 0.05
v -0.095 0.195 0.105
v -0.095 0.195 0.15
v -0.13 0.195 0.15
v -0.13 0.195 0.11
v -0.47 0.195 0.11
v -0.47 0.195 0.15
v -0.5 0.195 0.15
v -0.5 0.195 0
v -0.46 0.195 0
v -0.435 0.195 0.095
v -0.155 0.195 0.095
v -0.155 0.195 0.05
v 0 -0.195 0.105
v 0 -0.195 0.05
v 0 0.195 0.105
v 0 0.195 0.05
v -0.265 -1.38778e-017 0.11
v -0.354615 -0.00587368 0.11
v -0.353467 -0.0116469 0.11
v -0.351575 -0.0172208 0.11
v -0.348971 -0.0225 0.11
v -0.345701 -0.0273943 0.11
v -0.34182 -0.0318198 0.11
v -0.337394 -0.0357009 0.11
v -0.3325 -0.0389711 0.11
v -0.327221 -0.0415746 0.11
v -0.321647 -0.0434667 0.11
v -0.315874 -0.044615 0.11
v -0.31 -0.045 0.11
v -0.304126 -0.044615 0.11
v -0.298353 -0.0434667 0.11
v -0.292779 -0.0415746 0.11
v -0.2875 -0.0389711 0.11
v -0.282606 -0.0357009 0.11
v -0.27818 -0.0318198 0.11
v -0.274299 -0.0273943 0.11
v -0.271029 -0.0225 0.11
v -0.268425 -0.0172208 0.11
v -0.266533 -0.0116469 0.11
v -0.265385 -0.00587368 0.11
v -0.265 -1.04083e-017 0.095
v -0.354615 -0.00587368 0.095
v -0.353467 -0.0116469 0.095
v -0.351575 -0.0172208 0.095
v -0.348971 -0.0225 0.095
v -0.345701 -0.0273943 0.095
v -0.34182 -0.0318198 0.095
v -0.337394 -0.0357009 0.095
v -0.3325 -0.0389711 0.095
v -0.327221 -0.0415746 0.095
v -0.321647 -0.0434667 0.095
v -0.315874 -0.044615 0.095
v -0.31 -0.045 0.095
v -0.304126 -0.044615 0.095
v -0.298353 -0.0434667 0.095
v -0.292779 -0.0415746 0.095
v -0.2875 -0.0389711 0.095
v -0.282606 -0.0357009 0.095
v -0.27818 -0.0318198 0.095
v -0.274299 -0.0273943 0.095
v -0.271029 -0.0225 0.095
v -0.268425 -0.0172208 0.095
v -0.266533 -0.0116469 0.095
v -0.265385 -0.00587368 0.095
v 0.265 -2.08167e-017 0.11
v 0.354615 -0.00587368 0.11
v 0.353467 -0.0116469 0.11
v 0.351575 -0.0172208 0.11
v 0.348971 -0.0225 0.11
v 0.345701 -0.0273943 0.11
v 0.34182 -0.0318198 0.11
v 0.337394 -0.0357009 0.11
v 0.3325 -0.0389711 0.11
v 0.327221 -0.0415746 0.11
v 0.321647 -0.0434667 0.11
v 0.315874 -0.044615 0.11
v 0.31 -0.045 0.11
v 0.304126 -0.044615 0.11
v 0.298353 -0.0434667 0.11
v 0.292779 -0.0415746 0.11
v 0.2875 -0.0389711 0.11
v 0.282606 -0.0357009 0.11
v 0.27818 -0.0318198 0.11
v 0.274299 -0.0273943 0.11
v 0.271029 -0.0225 0.11
v 0.268425 -0.0172208 0.11
v 0.266533 -0.0116469 0.11
v 0.265385 -0.00587368 0.11
v 0.265 -1.38778e-017 0.095
v 0.354615 -0.00587368 0.095
v 0.353467 -0.0116469 0.095
v 0.351575 -0.0172208 0.095
v 0.348971 -0.0225 0.095
v 0.345701 -0.0273943 0.095
v 0.34182 -0.0318198 0.095
v 0.337394 -0.0357009 0.095
v 0.3325 -0.0389711 0.095
v 0.327221 -0.0415746 0.095
v 0.321647 -0.0434667 0.095
v 0.315874 -0.044615 0.095
v 0.31 -0.045 0.095
v 0.304126 -0.044615 0.095
v 0.298353 -0.0434667 0.095
v 0.292779 -0.0415746 0.095
v 0.2875 -0.0389711 0.095
v 0.282606 -0.0357009 0.095
v 0.27818 -0.0318198 0.095
v 0.274299 -0.0273943 0.095
v 0.271029 -0.0225 0.095
v 0.268425 -0.0172208 0.095
v 0.266533 -0.0116469 0.095
v 0.265385 -0.00587368 0.095
v -0.265385 0.00587368 0.11
v -0.266533 0.0116469 0.11
v -0.268425 0.0172208 0.11
v -0.271029 0.0225 0.11
v -0.274299 0.0273943 0.11
v -0.27818 0.0318198 0.11
v -0.282606 0.0357009 0.11
v -0.2875 0.0389711 0.11
v -0.292779 0.0415746 0.11
v -0.298353 0.0434667 0.11
v -0.304126 0.044615 0.11
v -0.31 0.045 0.11
v -0.315874 0.044615 0.11
v -0.321647 0.0434667 0.11
v -0.327221 0.0415746 0.11
v -0.3325 0.0389711 0.11
v -0.337394 0.0357009 0.11
v -0.34182 0.0318198 0.11
v -0.345701 0.0273943 0.11
v -0.348971 0.0225 0.11
v -0.351575 0.0172208 0.11
v -0.353467 0.0116469 0.11
v -0.354615 0.00587368 0.11
v -0.265385 0.00587368 0.095
v -0.266533 0.0116469 0.095
v -0.268425 0.0172208 0.095
v -0.271029 0.0225 0.095
v -0.274299 0.0273943 0.095
v -0.27818 0.0318198 0.095
v -0.282606 0.0357009 0.095
v -0.2875 0.0389711 0.095
v -0.292779 0.0415746 0.095
v -0.298353 0.0434667 0.095
v -0.304126 0.044615 0.095
v -0.31 0.045 0.095
v -0.315874 0.044615 0.095
v -0.321647 0.0434667 0.095
v -0.327221 0.0415746 0.095
v -0.3325 0.0389711 0.095
v -0.337394 0.0357009 0.095
v -0.34182 0.0318198 0.095
v -0.345701 0.0273943 0.095
v -0.348971 0.0225 0.095
v -0.351575 0.0172208 0.095
v -0.353467 0.0116469 0.095
v -0.354615 0.00587368 0.095
v 0.265385 0.00587368 0.11
v 0.266533 0.0116469 0.11
v 0.268425 0.0172208 0.11
v 0.271029 0.0225 0.11
v 0.274299 0.0273943 0.11
v 0.27818 0.0318198 0.11
v 0.282606 0.0357009 0.11
v 0.2875 0.0389711 0.11
v 0.292779 0.0415746 0.11
v 0.298353 0.0434667 0.11
v 0.304126 0.044615 0.11
v 0.31 0.045 0.11
v 0.315874 0.044615 0.11
v 0.321647 0.0434667 0.11
v 0.327221 0.0415746 0.11
v 0.3325 0.0389711 0.11
v 0.337394 0.0357009 0.11
v 0.34182 0.0318198 0.11
v 0.345701 0.0273943 0.11
v 0.348971 0.0225 0.11
v 0.351575 0.0172208 0.11
v 0.353467 0.0116469 0.11
v 0.354615 0.00587368 0.11
v 0.265385 0.00587368 0.095
v 0.266533 0.0116469 0.095
v 0.268425 0.0172208 0.095
v 0.271029 0.0225 0.095
v 0.274299 0.0273943 0.095
v 0.27818 0.0318198 0.095
v 0.282606 0.0357009 0.095
v 0.2875 0.0389711 0.095
v 0.292779 0.0415746 0.095
v 0.298353 0.0434667 0.095
v 0.304126 0.044615 0.095
v 0.31 0.045 0.095
v 0.315874 0.044615 0.095
v 0.321647 0.0434667 0.095
v 0.327221 0.0415746 0.095
v 0.3325 0.0389711 0.095
v 0.337394 0.0357009 0.095
v 0.34182 0.0318198 0.095
v 0.345701 0.0273943 0.095
v 0.348971 0.0225 0.095
v 0.351575 0.0172208 0.095
v 0.353467 0.0116469 0.095
v 0.354615 0.00587368 0.095
v 0.08 0.065 0.125
v 0.08 -0.09 0.125
v -0.08 -0.09 0.125
v -0.08 0.065 0.125
v 0 -0.09 0.105
v -0.08 -0.09 0.105
v 0.08 -0.09 0.105
v 0 0.065 0.105
v -0.08 0.065 0.105
v 0.08 0.065 0.105
v -0.0415746 0.00222075 0.105
v -0.0434667 -0.00335314 0.105
v -0.0389711 0.0075 0.105
v -0.0357009 0.0123943 0.105
v 0.0389711 0.0075 0.105
v 0.0357009 0.0123943 0.105
v 0.0415746 0.00222075 0.105
v 0.0434667 -0.00335314 0.105
v 0 -0.0266469 0.05
v -0.033512 -0.0266469 0.05
v -0.0348718 -0.0265101 0.05
v -0.036349 -0.026137 0.05
v -0.0377685 -0.0255837 0.05
v -0.0389553 -0.0249061 0.05
v -0.0421717 -0.0226145 0.05
v -0.0431382 -0.0217016 0.05
v -0.0439569 -0.0205068 0.05
v -0.0445429 -0.0191822 0.05
v -0.0448112 -0.0178801 0.05
v -0.045 -0.015 0.05
v -0.044615 -0.00912632 0.05
v -0.0434667 -0.00335314 0.05
v 0.045 -0.015 0.05
v 0.044615 -0.00912632 0.05
v 0.0448112 -0.0178801 0.05
v 0.0445429 -0.0191822 0.05
v 0.0439569 -0.0205068 0.05
v 0.0431382 -0.0217016 0.05
v 0.0421717 -0.0226145 0.05
v 0.0389553 -0.0249061 0.05
v 0.0377685 -0.0255837 0.05
v 0.036349 -0.026137 0.05
v 0.0348718 -0.0265101 0.05
v 0.033512 -0.0266469 0.05
v 0.0434667 -0.00335314 0.05
v -0.033512 -0.0266469 0.125
v -0.0348718 -0.0265101 0.125
v -0.036349 -0.026137 0.125
v -0.0377685 -0.0255837 0.125
v -0.0389553 -0.0249061 0.125
v -0.0421717 -0.0226145 0.125
v -0.0431382 -0.0217016 0.125
v -0.0439569 -0.0205068 0.125
v -0.0445429 -0.0191822 0.125
v -0.0448112 -0.0178801 0.125
v -0.045 -0.015 0.125
v -0.044615 -0.00912632 0.125
v -0.0434667 -0.00335314 0.125
v 0.045 -0.015 0.125
v 0.044615 -0.00912632 0.125
v 0.0448112 -0.0178801 0.125
v 0.0445429 -0.0191822 0.125
v 0.0439569 -0.0205068 0.125
v 0.0431382 -0.0217016 0.125
v 0.0421717 -0.0226145 0.125
v 0.0389553 -0.0249061 0.125
v 0.0377685 -0.0255837 0.125
v 0.036349 -0.026137 0.125
v 0.0348718 -0.0265101 0.125
v 0.033512 -0.0266469 0.125
v 0.0434667 -0.00335314 0.125
v 0 0.03 0.05
v -0.0415746 0.00222075 0.05
v -0.0389711 0.0075 0.05
v -0.0357009 0.0123943 0.05
v -0.0318198 0.0168198 0.05
v -0.0273943 0.0207009 0.05
v -0.0225 0.0239711 0.05
v -0.0172208 0.0265746 0.05
v -0.0116469 0.0284667 0.05
v -0.00587368 0.029615 0.05
v 0.00587368 0.029615 0.05
v 0.0116469 0.0284667 0.05
v 0.0172208 0.0265746 0.05
v 0.0225 0.0239711 0.05
v 0.0273943 0.0207009 0.05
v 0.0318198 0.0168198 0.05
v 0.0357009 0.0123943 0.05
v 0.0389711 0.0075 0.05
v 0.0415746 0.00222075 0.05
v -0.0415746 0.00222075 0.125
v -0.0389711 0.0075 0.125
v -0.0357009 0.0123943 0.125
v -0.0318198 0.0168198 0.125
v -0.0273943 0.0207009 0.125
v -0.0225 0.0239711 0.125
v -0.0172208 0.0265746 0.125
v -0.0116469 0.0284667 0.125
v -0.00587368 0.029615 0.125
v 0 0.03 0.125
v 0.00587368 0.029615 0.125
v 0.0116469 0.0284667 0.125
v 0.0172208 0.0265746 0.125
v 0.0225 0.0239711 0.125
v 0.0273943 0.0207009 0.125
v 0.0318198 0.0168198 0.125
v 0.0357009 0.0123943 0.125
v 0.0389711 0.0075 0.125
v 0.0415746 0.00222075 0.125
# 349 verticies
vn -1 0 0
vn 0 0 1
vn 1 0 0
vn 0 0 -1
vn -0.967075 0 -0.254493
vn 0 -1 0
vn 0 1 0
vn 0.967075 0 -0.254493
vn 0.999761 -0.0218429 -4.92783e-019
vn 0.988357 -0.152153 0
vn 0.994059 -0.108841 -1.01044e-017
vn 0.999761 0.0218429 -4.92783e-019
vn 0.960042 -0.279857 0
vn 0.971348 -0.237661 0
vn 0.915301 -0.40277 0
vn 0.932018 -0.362412 0
vn 0.854897 -0.518798 0
vn 0.876741 -0.480963 0
vn 0.779868 -0.625944 0
vn 0.80646 -0.591288 0
vn 0.691493 -0.722383 0
vn 0.722384 -0.691492 0
vn 0.591287 -0.806461 0
vn 0.625944 -0.779868 0
vn 0.480965 -0.87674 0
vn 0.518797 -0.854897 0
vn 0.362412 -0.932018 0
vn 0.402772 -0.9153 0
vn 0.237659 -0.971349 0
vn 0.279855 -0.960042 0
vn 0.108839 -0.994059 0
vn 0.152151 -0.988357 0
vn -0.0218427 -0.999761 0
vn 0.0218427 -0.999761 0
vn -0.152151 -0.988357 0
vn -0.108839 -0.994059 0
vn -0.279855 -0.960042 0
vn -0.237659 -0.971349 0
vn -0.402772 -0.9153 0
vn -0.362412 -0.932018 0
vn -0.518797 -0.854897 0
vn -0.480965 -0.87674 0
vn -0.625946 -0.779866 0
vn -0.591288 -0.80646 0
vn -0.722383 -0.691493 0
vn -0.691494 -0.722383 0
vn -0.806461 -0.591287 0
vn -0.779867 -0.625945 0
vn -0.87674 -0.480965 0
vn -0.854898 -0.518797 0
vn -0.932018 -0.362413 0
vn -0.9153 -0.402773 0
vn -0.971348 -0.237661 0
vn -0.960042 -0.279857 0
vn -0.997865 -0.0653105 0
vn -0.991432 -0.130621 0
vn -0.991432 0.130621 0
vn -0.997865 0.0653105 0
vn -0.960042 0.279857 0
vn -0.971348 0.237661 0
vn -0.9153 0.402773 0
vn -0.932018 0.362413 0
vn -0.854898 0.518797 0
vn -0.87674 0.480965 0
vn -0.779867 0.625945 0
vn -0.806461 0.591287 0
vn -0.691494 0.722383 0
vn -0.722383 0.691493 0
vn -0.591288 0.80646 0
vn -0.625946 0.779866 0
vn -0.480965 0.87674 0
vn -0.518797 0.854897 0
vn -0.362412 0.932018 0
vn -0.402772 0.9153 0
vn -0.237659 0.971349 0
vn -0.279855 0.960042 0
vn -0.108839 0.994059 0
vn -0.152151 0.988357 0
vn 0.0218427 0.999761 0
vn -0.0218427 0.999761 0
vn 0.152151 0.988357 0
vn 0.108839 0.994059 0
vn 0.279855 0.960042 0
vn 0.237659 0.971349 0
vn 0.402772 0.9153 0
vn 0.362412 0.932018 0
vn 0.518797 0.854897 0
vn 0.480965 0.87674 0
vn 0.625944 0.779868 0
vn 0.591287 0.806461 0
vn 0.722384 0.691492 0
vn 0.691493 0.722383 0
vn 0.80646 0.591288 0
vn 0.779868 0.625944 0
vn 0.876741 0.480963 0
vn 0.854897 0.518798 0
vn 0.932018 0.362412 0
vn 0.915301 0.40277 0
vn 0.971348 0.237661 0
vn 0.960042 0.279857 0
vn 0.994059 0.108841 9.61159e-018
vn 0.988357 0.152153 0
vn -0.994059 -0.108841 -6.40773e-018
vn -0.999761 0.0218429 -1.35554e-018
vn -0.999761 -0.0218429 -1.35554e-018
vn -0.988357 -0.152153 0
vn -0.932018 -0.362412 0
vn -0.915301 -0.40277 0
vn -0.876741 -0.480963 0
vn -0.854897 -0.518798 0
vn -0.80646 -0.591288 0
vn -0.779868 -0.625944 0
vn -0.722384 -0.691492 0
vn -0.691493 -0.722383 0
vn -0.625944 -0.779868 0
vn -0.591287 -0.806461 0
vn -0.237659 -0.971349 0
vn -0.108839 -0.994059 0
vn 0.108839 -0.994059 0
vn 0.237659 -0.971349 0
vn 0.591288 -0.80646 0
vn 0.625946 -0.779866 0
vn 0.691494 -0.722383 0
vn 0.722383 -0.691493 0
vn 0.779867 -0.625945 0
vn 0.806461 -0.591287 0
vn 0.854898 -0.518797 0
vn 0.87674 -0.480965 0
vn 0.9153 -0.402773 0
vn 0.932018 -0.362413 0
vn 0.991432 -0.130621 0
vn 0.997865 -0.0653105 0
vn 0.997865 0.0653105 0
vn 0.991432 0.130621 0
vn 0.932018 0.362413 0
vn 0.9153 0.402773 0
vn 0.87674 0.480965 0
vn 0.854898 0.518797 0
vn 0.806461 0.591287 0
vn 0.779867 0.625945 0
vn 0.722383 0.691493 0
vn 0.691494 0.722383 0
vn 0.625946 0.779866 0
vn 0.591288 0.80646 0
vn 0.237659 0.971349 0
vn 0.108839 0.994059 0
vn -0.108839 0.994059 0
vn -0.237659 0.971349 0
vn -0.591287 0.806461 0
vn -0.625944 0.779868 0
vn -0.691493 0.722383 0
vn -0.722384 0.691492 0
vn -0.779868 0.625944 0
vn -0.80646 0.591288 0
vn -0.854897 0.518798 0
vn -0.876741 0.480963 0
vn -0.915301 0.40277 0
vn -0.932018 0.362412 0
vn -0.988357 0.152153 0
vn -0.994059 0.108841 5.05219e-018
vn -0.999761 -0.0218428 0
vn -0.988357 -0.152151 0
vn -0.994059 -0.10884 0
vn -0.999761 0.0218425 0
vn -0.993806 0.111125 0
vn -0.987645 0.156708 0
vn -0.962637 0.270794 0
vn -0.940894 0.3387 0
vn -0.888 0.459844 0
vn -0.858028 0.513604 0
vn -0.782787 0.62229 0
vn -0.736454 0.676487 0
vn -0.652556 0.75774 0
vn -0.617021 0.786947 0
vn -0.552734 0.833358 0
vn -0.524559 0.851374 0
vn -0.452702 0.891662 0
vn -0.408379 0.912812 0
vn -0.324295 0.945956 0
vn -0.284784 0.958592 0
vn -0.197072 0.980389 0
vn -0.148701 0.988882 0
vn -0.0668008 0.997766 0
vn -0.0334004 0.999442 0
vn 0.0668008 0.997766 0
vn 0.0250459 0.999686 0
vn 0.148701 0.988882 0
vn 0.197072 0.980389 0
vn 0.284784 0.958592 0
vn 0.324295 0.945956 0
vn 0.408379 0.912813 0
vn 0.452701 0.891662 0
vn 0.524558 0.851374 0
vn 0.552733 0.833358 0
vn 0.617021 0.786946 0
vn 0.652557 0.75774 0
vn 0.736455 0.676487 0
vn 0.782787 0.62229 0
vn 0.858028 0.513604 0
vn 0.888 0.459844 0
vn 0.940894 0.3387 0
vn 0.962637 0.270794 0
vn 0.987645 0.156708 0
vn 0.993806 0.111125 0
vn 0.999761 0.0218425 0
vn 0.999761 -0.0218428 0
vn 0.994059 -0.10884 0
vn 0.988357 -0.152151 0
vn 0.971349 -0.237659 0
vn 0.960042 -0.279856 0
vn 0.92388 -0.382684 0
vn 0.94693 -0.321439 0
vn 0.9153 -0.402772 0
vn 0.932018 -0.362412 0
vn 0.866025 -0.5 0
vn 0.854897 -0.518797 0
vn 0.87674 -0.480965 0
vn 0.83147 -0.55557 0
vn 0.779867 -0.625945 0
vn 0.806461 -0.591287 0
vn 0.722383 -0.691493 0
vn 0.691493 -0.722383 0
vn 0.625945 -0.779867 0
vn 0.591287 -0.806461 0
vn 0.518797 -0.854898 0
vn 0.480964 -0.87674 0
vn 0.402772 -0.9153 0
vn 0.362412 -0.932018 0
vn 0.279856 -0.960042 0
vn 0.237659 -0.971349 0
vn 0.152151 -0.988357 0
vn 0.108839 -0.994059 0
vn 0.0218425 -0.999761 0
vn -0.0218425 -0.999761 0
vn -0.108839 -0.994059 0
vn -0.152151 -0.988357 0
vn -0.237659 -0.971349 0
vn -0.279856 -0.960042 0
vn -0.362412 -0.932018 0
vn -0.402772 -0.9153 0
vn -0.480964 -0.87674 0
vn -0.518797 -0.854898 0
vn -0.591287 -0.806461 0
vn -0.625945 -0.779867 0
vn -0.691493 -0.722383 0
vn -0.722383 -0.691493 0
vn -0.779867 -0.625945 0
vn -0.806461 -0.591287 0
vn -0.866025 -0.5 0
vn -0.83147 -0.55557 0
vn -0.87674 -0.480965 0
vn -0.854897 -0.518797 0
vn -0.92388 -0.382684 0
vn -0.932018 -0.362412 0
vn -0.9153 -0.402772 0
vn -0.94693 -0.321439 0
vn -0.971349 -0.237659 0
vn -0.960042 -0.279856 0
# 258 normals
f  2//1 14//1 13//1 1//1
f  3//2 15//2 14//2 2//2
f  16//3 15//3 3//3 4//3
f  6//1 18//1 17//1 5//1
f  7//2 19//2 18//2 6//2
f  20//3 19//3 7//3 8//3
f  21//4 20//4 8//4 9//4
f  10//5 22//5 21//5 9//5
f  24//3 23//3 11//3 12//3
f  50//6 12//6 11//6 10//6 9//6 8//6 7//6 6//6 5//6 4//6 3//6 2//6\
1//6 49//6
f  13//7 14//7 15//7 16//7 17//7 18//7 19//7 20//7 21//7 22//7 23//7\
24//7 52//7 51//7
f  37//3 38//3 26//3 25//3
f  38//2 39//2 27//2 26//2
f  27//1 39//1 40//1 28//1
f  41//3 42//3 30//3 29//3
f  42//2 43//2 31//2 30//2
f  31//1 43//1 44//1 32//1
f  32//4 44//4 45//4 33//4
f  45//8 46//8 34//8 33//8
f  35//1 47//1 48//1 36//1
f  25//6 26//6 27//6 28//6 29//6 30//6 31//6 32//6 33//6 34//6 35//6\
36//6 50//6 49//6
f  52//7 48//7 47//7 46//7 45//7 44//7 43//7 42//7 41//7 40//7 39//7\
38//7 37//7 51//7
f  5//2 108//2 109//2 110//2 111//2 112//2 113//2 114//2 115//2 116//2\
117//2 118//2 119//2 120//2 121//2 122//2 123//2 124//2 101//2 195//2\
196//2 197//2 198//2 199//2 200//2 201//2 202//2 203//2 204//2 205//2\
206//2 207//2 208//2 209//2 210//2 211//2 212//2 213//2 214//2 215//2\
216//2 217//2 102//2 103//2 104//2 105//2 106//2 107//2 108//1 5//1\
17//2 16//2 4//2
f  23//4 22//4 10//4 133//4 132//4 131//4 130//4 129//4 128//4 127//4\
126//4 240//4 239//4 238//4 237//4 236//4 235//4 234//4 233//4 232//4\
231//4 230//4 229//4 228//4 227//4 226//4 225//4 224//4 223//4 222//4\
221//4 220//4 219//4 218//4 125//4 148//4 147//4 146//4 145//4 144//4\
143//4 142//4 141//4 140//4 139//4 138//4 137//4 136//4 135//4 134//4\
133//1 10//1 11//4
f  40//2 41//2 29//2 60//2 59//2 58//2 57//2 56//2 55//2 54//2 171//2\
170//2 169//2 168//2 167//2 166//2 165//2 164//2 163//2 162//2 161//2\
160//2 159//2 158//2 157//2 156//2 155//2 154//2 153//2 152//2 151//2\
150//2 149//2 53//2 76//2 75//2 74//2 73//2 72//2 71//2 70//2 69//2\
68//2 67//2 66//2 65//2 64//2 63//2 62//2 61//2 60//1 29//1 28//2
f  34//4 85//4 86//4 87//4 88//4 89//4 90//4 91//4 92//4 93//4 94//4\
95//4 96//4 97//4 98//4 99//4 100//4 77//4 172//4 173//4 174//4 175//4\
176//4 177//4 178//4 179//4 180//4 181//4 182//4 183//4 184//4 185//4\
186//4 187//4 188//4 189//4 190//4 191//4 192//4 193//4 194//4 78//4\
79//4 80//4 81//4 82//4 83//4 84//4 85//1 34//1 46//4 47//4 35//4
f  125//9 218//10 195//11 101//12
f  218//10 219//13 196//14 195//11
f  219//13 220//15 197//16 196//14
f  220//15 221//17 198//18 197//16
f  221//17 222//19 199//20 198//18
f  222//19 223//21 200//22 199//20
f  223//21 224//23 201//24 200//22
f  224//23 225//25 202//26 201//24
f  225//25 226//27 203//28 202//26
f  226//27 227//29 204//30 203//28
f  227//29 228//31 205//32 204//30
f  228//31 229//33 206//34 205//32
f  229//33 230//35 207//36 206//34
f  230//35 231//37 208//38 207//36
f  231//37 232//39 209//40 208//38
f  232//39 233//41 210//42 209//40
f  233//41 234//43 211//44 210//42
f  234//43 235//45 212//46 211//44
f  235//45 236//47 213//48 212//46
f  236//47 237//49 214//50 213//48
f  237//49 238//51 215//52 214//50
f  238//51 239//53 216//54 215//52
f  239//53 240//55 217//56 216//54
f  240//55 126//57 102//58 217//56
f  126//57 127//59 103//60 102//58
f  127//59 128//61 104//62 103//60
f  128//61 129//63 105//64 104//62
f  129//63 130//65 106//66 105//64
f  130//65 131//67 107//68 106//66
f  131//67 132//69 108//70 107//68
f  132//69 133//71 109//72 108//70
f  133//71 134//73 110//74 109//72
f  134//73 135//75 111//76 110//74
f  135//75 136//77 112//78 111//76
f  136//77 137//79 113//80 112//78
f  137//79 138//81 114//82 113//80
f  138//81 139//83 115//84 114//82
f  139//83 140//85 116//86 115//84
f  140//85 141//87 117//88 116//86
f  141//87 142//89 118//90 117//88
f  142//89 143//91 119//92 118//90
f  143//91 144//93 120//94 119//92
f  144//93 145//95 121//96 120//94
f  145//95 146//97 122//98 121//96
f  146//97 147//99 123//100 122//98
f  147//99 148//101 124//102 123//100
f  148//101 125//9 101//12 124//102
f  172//103 77//104 53//105 149//106
f  173//53 172//103 149//106 150//54
f  174//107 173//53 150//54 151//108
f  175//109 174//107 151//108 152//110
f  176//111 175//109 152//110 153//112
f  177//113 176//111 153//112 154//114
f  178//115 177//113 154//114 155//116
f  179//41 178//115 155//116 156//42
f  180//39 179//41 156//42 157//40
f  181//37 180//39 157//40 158//117
f  182//35 181//37 158//117 159//118
f  183//33 182//35 159//118 160//34
f  184//119 183//33 160//34 161//32
f  185//120 184//119 161//32 162//30
f  186//27 185//120 162//30 163//28
f  187//25 186//27 163//28 164//26
f  188//121 187//25 164//26 165//122
f  189//123 188//121 165//122 166//124
f  190//125 189//123 166//124 167//126
f  191//127 190//125 167//126 168//128
f  192//129 191//127 168//128 169//130
f  193//13 192//129 169//130 170//14
f  194//131 193//13 170//14 171//132
f  78//133 194//131 171//132 54//134
f  79//99 78//133 54//134 55//100
f  80//135 79//99 55//100 56//136
f  81//137 80//135 56//136 57//138
f  82//139 81//137 57//138 58//140
f  83//141 82//139 58//140 59//142
f  84//143 83//141 59//142 60//144
f  85//87 84//143 60//144 61//88
f  86//85 85//87 61//88 62//86
f  87//83 86//85 62//86 63//145
f  88//81 87//83 63//145 64//146
f  89//79 88//81 64//146 65//80
f  90//147 89//79 65//80 66//78
f  91//148 90//147 66//78 67//76
f  92//73 91//148 67//76 68//74
f  93//71 92//73 68//74 69//72
f  94//149 93//71 69//72 70//150
f  95//151 94//149 70//150 71//152
f  96//153 95//151 71//152 72//154
f  97//155 96//153 72//154 73//156
f  98//157 97//155 73//156 74//158
f  99//59 98//157 74//158 75//60
f  100//159 99//59 75//60 76//160
f  77//104 100//159 76//160 53//105
f  13//2 51//2 248//2 250//2 247//2 245//2 49//2 1//2
f  49//2 245//2 246//2 249//2 248//2 51//2 37//2 25//2
f  250//7 248//7 249//7 244//7 241//7
f  242//3 247//3 250//3 241//3
f  246//6 245//6 247//6 242//6 243//6
f  249//1 246//1 243//1 244//1
f  12//4 50//4 259//4 284//4 283//4 282//4 281//4 280//4 279//4 278//4\
277//4 276//4 275//4 273//4 274//4 285//4 330//4 329//4 328//4 327//4\
326//4 325//4 324//4 323//4 322//4 312//4 52//4 24//4
f  52//4 312//4 321//4 320//4 319//4 318//4 317//4 316//4 315//4\
314//4 313//4 272//4 271//4 270//4 269//4 268//4 267//4 266//4 265//4\
264//4 263//4 262//4 261//4 260//4 259//4 50//4 36//4 48//4
f  242//2 241//2 244//2 334//2 335//2 336//2 337//2 338//2 339//2\
340//2 341//2 342//2 343//2 344//2 345//2 346//2 347//2 348//2 349//2\
311//2 300//2 299//2 301//2 302//2 303//2 304//2 305//2 306//2 307//2\
308//2 309//2 310//2 286//2 287//2 288//2 289//2 290//2 291//2 292//2\
293//2 294//2 295//2 296//2 297//2 298//2 331//2 332//2 333//2 334//1\
244//1 243//2
f  299//161 300//162 274//163 273//164
f  301//165 299//161 273//164 275//166
f  302//167 301//165 275//166 276//168
f  303//169 302//167 276//168 277//170
f  304//171 303//169 277//170 278//172
f  305//173 304//171 278//172 279//174
f  306//175 305//173 279//174 280//176
f  307//177 306//175 280//176 281//178
f  308//179 307//177 281//178 282//180
f  309//181 308//179 282//180 283//182
f  310//183 309//181 283//182 284//184
f  310//183 284//184 259//7 260//185 286//186
f  287//187 286//186 260//185 261//188
f  288//189 287//187 261//188 262//190
f  289//191 288//189 262//190 263//192
f  290//193 289//191 263//192 264//194
f  291//195 290//193 264//194 265//196
f  292//197 291//195 265//196 266//198
f  293//199 292//197 266//198 267//200
f  294//201 293//199 267//200 268//202
f  295//203 294//201 268//202 269//204
f  296//205 295//203 269//204 270//206
f  297//207 296//205 270//206 271//208
f  298//209 297//207 271//208 272//210
f  251//211 252//212 272//210 313//213
f  331//214 298//209 252//212 251//211
f  253//215 251//211 313//213 314//216
f  332//217 331//214 251//211 253//215
f  254//218 253//215 314//216 315//219
f  333//220 332//217 253//215 254//218
f  334//221 333//220 315//219 316//222
f  335//223 334//221 316//222 317//224
f  336//225 335//223 317//224 318//226
f  337//227 336//225 318//226 319//228
f  338//229 337//227 319//228 320//230
f  339//231 338//229 320//230 321//232
f  340//233 339//231 321//232 312//234
f  341//235 340//233 312//234 322//236
f  342//237 341//235 322//236 323//238
f  343//239 342//237 323//238 324//240
f  344//241 343//239 324//240 325//242
f  345//243 344//241 325//242 326//244
f  346//245 345//243 326//244 327//246
f  347//247 346//245 327//246 328//248
f  255//249 256//250 328//248 329//251
f  348//252 347//247 256//250 255//249
f  257//253 255//249 329//251 330//254
f  349//255 348//252 255//249 257//253
f  258//256 257//253 330//254 285//257
f  311//258 349//255 257//253 258//256
f  300//162 311//258 285//257 274//163
