# 
# Wavefront OBJ file
# Converted by the DEEP Exploration 3.5.7.1088
# Right Hemisphere, LTD
# http://www.righthemisphere.com/
# 
# object Object #0
g Object__0
v -0.133431 -0.703796 0.345996
v 0.333431 -0.703796 0.345996
v 0.394678 -0.642549 0.345996
v 0.394678 0.182549 0.345996
v 0.333431 0.243796 0.345996
v -0.133431 0.243796 0.345996
v -0.194678 0.182549 0.345996
v -0.194678 -0.642549 0.345996
v 0.333431 -0.703796 0.513558
v -0.133431 -0.703796 0.513558
v -0.194678 -0.642549 0.513558
v -0.194678 0.182549 0.513558
v -0.133431 0.243796 0.513558
v 0.333431 0.243796 0.513558
v 0.394678 0.182549 0.513558
v 0.394678 -0.642549 0.513558
v 0.319071 -0.669128 0.554004
v -0.119071 -0.669128 0.554004
v -0.16001 -0.628189 0.554004
v -0.16001 0.168189 0.554004
v -0.119071 0.209128 0.554004
v 0.319071 0.209128 0.554004
v 0.36001 0.168189 0.554004
v 0.36001 -0.628189 0.554004
v -0.404 -0.82 0
v 0.404 -0.82 0
v 0.51 -0.714 0
v 0.51 0.714 0
v 0.404 0.82 0
v -0.404 0.82 0
v -0.51 0.714 0
v -0.51 -0.714 0
v 0.404 -0.82 0.29
v -0.404 -0.82 0.29
v -0.51 -0.714 0.29
v -0.51 0.714 0.29
v -0.404 0.82 0.29
v 0.404 0.82 0.29
v 0.51 0.714 0.29
v 0.51 -0.714 0.29
v 0.379147 -0.76 0.36
v -0.379147 -0.76 0.36
v -0.45 -0.689147 0.36
v -0.45 0.689147 0.36
v -0.379147 0.76 0.36
v 0.379147 0.76 0.36
v 0.45 0.689147 0.36
v 0.45 -0.689147 0.36
v -0.35175 -0.45 0.358409
v -0.35175 -0.51 0.358409
v -0.27825 -0.51 0.358409
v -0.27825 -0.45 0.358409
v -0.35175 0.02 0.358409
v -0.35175 -0.04 0.358409
v -0.27825 -0.04 0.358409
v -0.27825 0.02 0.358409
v -0.35175 -0.15 0.358409
v -0.35175 -0.21 0.358409
v -0.27825 -0.21 0.358409
v -0.27825 -0.15 0.358409
v -0.35175 -0.29 0.358409
v -0.35175 -0.35 0.358409
v -0.27825 -0.35 0.358409
v -0.27825 -0.29 0.358409
v -0.35175 -0.45 0.388409
v -0.27825 -0.45 0.388409
v -0.27825 -0.51 0.388409
v -0.35175 -0.51 0.388409
v -0.35175 0.02 0.388409
v -0.27825 0.02 0.388409
v -0.27825 -0.04 0.388409
v -0.35175 -0.04 0.388409
v -0.35175 -0.15 0.388409
v -0.27825 -0.15 0.388409
v -0.27825 -0.21 0.388409
v -0.35175 -0.21 0.388409
v -0.35175 -0.29 0.388409
v -0.27825 -0.29 0.388409
v -0.27825 -0.35 0.388409
v -0.35175 -0.35 0.388409
v -0.07 -0.00714286 0.554004
v -0.07 0.07 0.554004
v 0.27 0.07 0.554004
v 0.27 -0.00714286 0.554004
v -0.07 -0.161429 0.554004
v -0.07 -0.0842857 0.554004
v 0.27 -0.0842857 0.554004
v 0.27 -0.161429 0.554004
v -0.07 -0.315714 0.554004
v -0.07 -0.238571 0.554004
v 0.27 -0.238571 0.554004
v 0.27 -0.315714 0.554004
v -0.07 -0.47 0.554004
v -0.07 -0.392857 0.554004
v 0.27 -0.392857 0.554004
v 0.27 -0.47 0.554004
v -0.07 -0.00714286 0.36
v -0.07 0.07 0.36
v 0.27 0.07 0.36
v 0.27 -0.00714286 0.36
v -0.07 -0.161429 0.36
v -0.07 -0.0842857 0.36
v 0.27 -0.0842857 0.36
v 0.27 -0.161429 0.36
v -0.07 -0.315714 0.36
v -0.07 -0.238571 0.36
v 0.27 -0.238571 0.36
v 0.27 -0.315714 0.36
v -0.07 -0.47 0.36
v -0.07 -0.392857 0.36
v 0.27 -0.392857 0.36
v 0.27 -0.47 0.36
v -0.152857 0.34 0.36
v -0.23 0.34 0.36
v -0.23 0.68 0.36
v -0.152857 0.68 0.36
v 0.00142857 0.34 0.36
v -0.0757143 0.34 0.36
v -0.0757143 0.68 0.36
v 0.00142857 0.68 0.36
v 0.155714 0.34 0.36
v 0.0785714 0.34 0.36
v 0.0785714 0.68 0.36
v 0.155714 0.68 0.36
v 0.31 0.34 0.36
v 0.232857 0.34 0.36
v 0.232857 0.68 0.36
v 0.31 0.68 0.36
v -0.07 -0.00714286 0.464004
v -0.07 0.07 0.464004
v 0.27 0.07 0.464004
v 0.27 -0.00714286 0.464004
v -0.07 -0.161429 0.464004
v -0.07 -0.0842857 0.464004
v 0.27 -0.0842857 0.464004
v 0.27 -0.161429 0.464004
v -0.07 -0.315714 0.464004
v -0.07 -0.238571 0.464004
v 0.27 -0.238571 0.464004
v 0.27 -0.315714 0.464004
v -0.07 -0.47 0.464004
v -0.07 -0.392857 0.464004
v 0.27 -0.392857 0.464004
v 0.27 -0.47 0.464004
v -0.07 -0.00714286 0.27
v -0.07 0.07 0.27
v 0.27 0.07 0.27
v 0.27 -0.00714286 0.27
v -0.07 -0.161429 0.27
v -0.07 -0.0842857 0.27
v 0.27 -0.0842857 0.27
v 0.27 -0.161429 0.27
v -0.07 -0.315714 0.27
v -0.07 -0.238571 0.27
v 0.27 -0.238571 0.27
v 0.27 -0.315714 0.27
v -0.07 -0.47 0.27
v -0.07 -0.392857 0.27
v 0.27 -0.392857 0.27
v 0.27 -0.47 0.27
v -0.152857 0.34 0.27
v -0.23 0.34 0.27
v -0.23 0.68 0.27
v -0.152857 0.68 0.27
v 0.00142857 0.34 0.27
v -0.0757143 0.34 0.27
v -0.0757143 0.68 0.27
v 0.00142857 0.68 0.27
v 0.155714 0.34 0.27
v 0.0785714 0.34 0.27
v 0.0785714 0.68 0.27
v 0.155714 0.68 0.27
v 0.31 0.34 0.27
v 0.232857 0.34 0.27
v 0.232857 0.68 0.27
v 0.31 0.68 0.27
# 176 verticies
vn 0.707107 -0.707107 0
vn 0 -1 0
vn -0.707107 -0.707107 0
vn -1 0 0
vn -0.707107 0.707107 0
vn 0 1 0
vn 0.707107 0.707107 0
vn 1 0 0
vn 0.536875 -0.536875 0.650792
vn 0 -0.759256 0.650792
vn -0.536875 -0.536875 0.650792
vn -0.536875 -0.536874 0.650793
vn -0.536875 -0.536875 0.650792
vn -0.759256 0 0.650792
vn -0.536875 0.536875 0.650792
vn -0.536875 0.536875 0.650792
vn -0.536875 0.536875 0.650792
vn 0 0.759256 0.650792
vn 0.536875 0.536875 0.650792
vn 0.536875 0.536875 0.650792
vn 0.536875 0.536875 0.650792
vn 0.759256 0 0.650792
vn 0.707107 -0.707107 0
vn -0.707107 -0.707107 0
vn -0.707107 0.707107 0
vn 0.707107 0.707107 0
vn 0.536876 -0.536875 0.650791
vn 0.536876 -0.536875 0.650791
vn 0.536876 -0.536875 0.650791
vn 0 -0.759257 0.650791
vn -0.536876 -0.536875 0.650791
vn -0.536876 -0.536875 0.650791
vn -0.536876 -0.536875 0.650791
vn -0.759257 0 0.650791
vn -0.536876 0.536875 0.650791
vn -0.536876 0.536875 0.650791
vn 0 0.759257 0.650791
vn 0.536876 0.536875 0.650791
vn 0.536876 0.536875 0.650791
vn 0.759257 0 0.650791
vn 0 0 1
# 41 normals
f  3//1 16//1 9//1 2//1
f  9//2 10//2 1//2 2//2
f  10//3 11//3 8//3 1//3
f  11//4 12//4 7//4 8//4
f  12//5 13//5 6//5 7//5
f  13//6 14//6 5//6 6//6
f  5//7 14//7 15//7 4//7
f  4//8 15//8 16//8 3//8
f  16//9 24//9 17//9 9//9
f  17//10 18//10 10//10 9//10
f  18//11 19//12 11//11 10//13
f  19//14 20//14 12//14 11//14
f  20//15 21//16 13//15 12//17
f  21//18 22//18 14//18 13//18
f  14//19 22//20 23//19 15//21
f  15//22 23//22 24//22 16//22
f  27//23 40//23 33//23 26//23
f  33//2 34//2 25//2 26//2
f  34//24 35//24 32//24 25//24
f  35//4 36//4 31//4 32//4
f  36//25 37//25 30//25 31//25
f  37//6 38//6 29//6 30//6
f  29//26 38//26 39//26 28//26
f  28//8 39//8 40//8 27//8
f  40//27 48//28 41//27 33//29
f  41//30 42//30 34//30 33//30
f  42//31 43//32 35//31 34//33
f  43//34 44//34 36//34 35//34
f  44//35 45//35 37//35 36//36
f  45//37 46//37 38//37 37//37
f  38//38 46//38 47//38 39//39
f  39//40 47//40 48//40 40//40
f  68//41 67//41 66//41 65//41
f  72//41 71//41 70//41 69//41
f  76//41 75//41 74//41 73//41
f  80//41 79//41 78//41 77//41
f  68//4 65//4 49//4 50//4
f  49//6 65//6 66//6 52//6
f  52//8 66//8 67//8 51//8
f  67//2 68//2 50//2 51//2
f  72//4 69//4 53//4 54//4
f  53//6 69//6 70//6 56//6
f  56//8 70//8 71//8 55//8
f  71//2 72//2 54//2 55//2
f  76//4 73//4 57//4 58//4
f  57//6 73//6 74//6 60//6
f  60//8 74//8 75//8 59//8
f  75//2 76//2 58//2 59//2
f  80//4 77//4 61//4 62//4
f  61//6 77//6 78//6 64//6
f  64//8 78//8 79//8 63//8
f  79//2 80//2 62//2 63//2
f  19//41 18//41 17//41 24//41 23//41 22//41 21//41 20//41 82//41\
83//41 84//41 87//41 88//41 91//41 92//41 95//41 96//41 93//41 94//41\
95//1 92//1 89//41 90//41 91//1 88//1 85//41 86//41 87//1 84//1 81//41\
82//1 20//1
f  132//41 131//41 130//41 129//41
f  136//41 135//41 134//41 133//41
f  140//41 139//41 138//41 137//41
f  144//41 143//41 142//41 141//41
f  46//41 128//41 125//41 99//41 100//41 103//41 104//41 107//41\
108//41 111//41 112//41 109//41 110//41 111//1 108//1 105//41 106//41\
107//1 104//1 101//41 102//41 103//1 100//1 97//41 98//41 99//1 125//1\
126//41 127//41 124//41 121//41 122//41 123//41 120//41 117//41\
118//41 119//41 116//41 113//41 114//41 115//41 116//1 119//1 120//1\
123//1 124//1 127//1 128//1 46//1 45//41 44//41 43//41 42//41 41//41\
48//41 47//41
f  148//41 147//41 146//41 145//41
f  152//41 151//41 150//41 149//41
f  156//41 155//41 154//41 153//41
f  160//41 159//41 158//41 157//41
f  164//41 163//41 162//41 161//41
f  168//41 167//41 166//41 165//41
f  172//41 171//41 170//41 169//41
f  176//41 175//41 174//41 173//41
f  81//6 84//6 132//6 129//6
f  130//8 82//8 81//8 129//8
f  131//2 83//2 82//2 130//2
f  84//4 83//4 131//4 132//4
f  85//6 88//6 136//6 133//6
f  134//8 86//8 85//8 133//8
f  135//2 87//2 86//2 134//2
f  88//4 87//4 135//4 136//4
f  89//6 92//6 140//6 137//6
f  138//8 90//8 89//8 137//8
f  139//2 91//2 90//2 138//2
f  92//4 91//4 139//4 140//4
f  93//6 96//6 144//6 141//6
f  142//8 94//8 93//8 141//8
f  143//2 95//2 94//2 142//2
f  96//4 95//4 143//4 144//4
f  97//6 100//6 148//6 145//6
f  146//8 98//8 97//8 145//8
f  147//2 99//2 98//2 146//2
f  100//4 99//4 147//4 148//4
f  101//6 104//6 152//6 149//6
f  150//8 102//8 101//8 149//8
f  151//2 103//2 102//2 150//2
f  104//4 103//4 151//4 152//4
f  105//6 108//6 156//6 153//6
f  154//8 106//8 105//8 153//8
f  155//2 107//2 106//2 154//2
f  108//4 107//4 155//4 156//4
f  109//6 112//6 160//6 157//6
f  158//8 110//8 109//8 157//8
f  159//2 111//2 110//2 158//2
f  112//4 111//4 159//4 160//4
f  113//4 116//4 164//4 161//4
f  162//6 114//6 113//6 161//6
f  163//8 115//8 114//8 162//8
f  116//2 115//2 163//2 164//2
f  117//4 120//4 168//4 165//4
f  166//6 118//6 117//6 165//6
f  167//8 119//8 118//8 166//8
f  120//2 119//2 167//2 168//2
f  121//4 124//4 172//4 169//4
f  122//6 121//6 169//6 170//6
f  171//8 123//8 122//8 170//8
f  172//2 124//2 123//2 171//2
f  125//4 128//4 176//4 173//4
f  126//6 125//6 173//6 174//6
f  175//8 127//8 126//8 174//8
f  176//2 128//2 127//2 175//2
