# 
# Wavefront OBJ file
# Converted by the DEEP Exploration 3.5.7.1088
# Right Hemisphere, LTD
# http://www.righthemisphere.com/
# 
# object Object #0
g Object__0
v 0.5 -0.885858 0.0141421
v 0.5 0.885858 0.0141421
v 0.5 -0.885858 0.345858
v 0.5 0.885858 0.345858
v 0.38 0.765858 0.345858
v 0.394142 -0.794142 0.36
v 0.38 0.765858 0.254142
v 0.38 -0.765858 0.254142
v 0.154142 -0.785858 0.2
v 0.185858 -0.785858 0.2
v 0.185858 0.785858 0.2
v 0.154142 0.785858 0.2
v 0.154142 -0.8 0.305858
v 0.185858 -0.8 0.305858
v 0.2 0.785858 0.305858
v 0.154142 0.8 0.305858
v -0.5 -0.885858 0.0141421
v -0.5 0.885858 0.0141421
v -0.5 -0.885858 0.345858
v -0.5 0.885858 0.345858
v -0.394142 0.794142 0.36
v -0.38 -0.765858 0.345858
v -0.38 0.765858 0.254142
v -0.38 -0.765858 0.254142
v -0.154142 -0.785858 0.2
v -0.185858 -0.785858 0.2
v -0.185858 0.785858 0.2
v -0.154142 0.785858 0.2
v -0.154142 -0.8 0.305858
v -0.185858 -0.8 0.305858
v -0.2 0.785858 0.305858
v -0.154142 0.8 0.305858
v 0 -0.885858 0
v 0 0.9 0.0141421
v 0 -0.9 0.345858
v 0 0.885858 0.36
v 0 -0.78 0.254142
v 0 0.765858 0.24
v 0 -0.794142 0.36
v 0 0.78 0.345858
v 0.485858 -0.885858 0
v 0.485858 -0.9 0.0141421
v 0.485858 0.9 0.0141421
v 0.485858 0.885858 0
v 0.485858 -0.9 0.345858
v 0.485858 -0.885858 0.36
v 0.485858 0.885858 0.36
v 0.485858 0.9 0.345858
v 0.365858 0.78 0.345858
v 0.394142 0.794142 0.36
v 0.365858 -0.78 0.345858
v 0.38 -0.765858 0.345858
v 0.365858 0.765858 0.24
v 0.365858 0.78 0.254142
v 0.365858 -0.78 0.254142
v 0.365858 -0.765858 0.24
v 0.14 -0.785858 0.214142
v 0.154142 -0.8 0.214142
v 0.185858 -0.8 0.214142
v 0.2 -0.785858 0.214142
v 0.2 0.785858 0.214142
v 0.185858 0.8 0.214142
v 0.154142 0.8 0.214142
v 0.14 0.785858 0.214142
v 0.14 -0.785858 0.305858
v 0.154142 -0.785858 0.32
v 0.185858 -0.785858 0.32
v 0.2 -0.785858 0.305858
v 0.185858 0.785858 0.32
v 0.185858 0.8 0.305858
v 0.154142 0.785858 0.32
v 0.14 0.785858 0.305858
v -0.485858 -0.9 0.0141421
v -0.485858 -0.885858 0
v -0.485858 0.885858 0
v -0.485858 0.9 0.0141421
v -0.485858 -0.885858 0.36
v -0.485858 -0.9 0.345858
v -0.485858 0.9 0.345858
v -0.485858 0.885858 0.36
v -0.365858 0.78 0.345858
v -0.38 0.765858 0.345858
v -0.365858 -0.78 0.345858
v -0.394142 -0.794142 0.36
v -0.365858 0.78 0.254142
v -0.365858 0.765858 0.24
v -0.365858 -0.765858 0.24
v -0.365858 -0.78 0.254142
v -0.154142 -0.8 0.214142
v -0.14 -0.785858 0.214142
v -0.2 -0.785858 0.214142
v -0.185858 -0.8 0.214142
v -0.185858 0.8 0.214142
v -0.2 0.785858 0.214142
v -0.14 0.785858 0.214142
v -0.154142 0.8 0.214142
v -0.154142 -0.785858 0.32
v -0.14 -0.785858 0.305858
v -0.2 -0.785858 0.305858
v -0.185858 -0.785858 0.32
v -0.185858 0.8 0.305858
v -0.185858 0.785858 0.32
v -0.14 0.785858 0.305858
v -0.154142 0.785858 0.32
v 0 -0.9 0.0141421
v 0 0.885858 0
v 0 -0.885858 0.36
v 0 0.9 0.345858
v 0 -0.765858 0.24
v 0 0.78 0.254142
v 0 -0.78 0.345858
v 0 0.794142 0.36
# 112 verticies
vn 1 0 0
vn 0 0 1
vn -0.102706 -0.102706 0.989395
vn -0.061245 0.0612449 0.996242
vn -1 0 0
vn 0 0 -1
vn 0 -1 0
vn 0 1 0
vn 0.061245 0.0612449 0.996242
vn 0.102706 -0.102706 0.989395
vn 0.707108 -0.707106 0
vn 0.707107 0 -0.707107
vn 0 -0.707106 -0.707107
vn 0.707108 0.707106 0
vn 0 0.707106 -0.707107
vn 0.707107 0 0.707107
vn 0 -0.707106 0.707108
vn 0 0.707106 0.707108
vn -0.707107 0 0.707107
vn -0.707108 -0.707106 0
vn -0.707108 0.707106 0
vn 0 -0.707106 -0.707107
vn -0.707107 0 -0.707107
vn -0.707107 -0.707106 0
vn 0.707107 0 -0.707107
vn 0.707107 -0.707106 0
vn 0 0.707106 -0.707107
vn 0.707107 0.707106 0
vn -0.707107 0.707106 0
vn -0.707106 0 0.707107
vn 0.707106 0 0.707107
vn -0.707107 0 -0.707107
vn 0.577351 -0.57735 -0.57735
vn 0.577351 0.57735 -0.57735
vn 0.577351 -0.577349 0.577351
vn 0.577351 0.577349 0.577351
vn -0.301511 -0.301511 0.904534
vn -0.301511 0.301511 0.904534
vn -0.577351 -0.577349 0.577351
vn -0.577351 0.577349 0.577351
vn -0.57735 -0.57735 -0.57735
vn 0.57735 -0.57735 -0.57735
vn 0.57735 0.57735 -0.57735
vn -0.57735 0.57735 -0.57735
vn -0.57735 -0.57735 0.577351
vn 0.57735 -0.57735 0.577351
vn 0.57735 0.57735 0.577351
vn -0.57735 0.57735 0.577351
vn -0.577351 -0.57735 -0.57735
vn -0.577351 0.57735 -0.57735
vn 0.301511 -0.301511 0.904534
vn 0.301511 0.301511 0.904534
# 52 normals
f  2//1 4//1 3//1 1//1
f  47//2 50//3 6//4 46//2
f  52//5 5//5 7//5 8//5
f  12//6 11//6 10//6 9//6
f  59//7 14//7 13//7 58//7
f  61//1 15//1 68//1 60//1
f  16//8 70//8 62//8 63//8
f  65//5 72//5 64//5 57//5
f  67//2 69//2 71//2 66//2
f  41//6 33//6 106//6 44//6
f  35//7 105//7 42//7 45//7
f  43//8 34//8 108//8 48//8
f  38//2 109//2 56//2 53//2
f  6//4 39//2 107//2 46//2
f  112//2 50//3 47//2 36//2
f  55//8 37//8 111//8 51//8
f  49//7 40//7 110//7 54//7
f  19//5 20//5 18//5 17//5
f  84//9 21//10 80//2 77//2
f  23//1 82//1 22//1 24//1
f  26//6 27//6 28//6 25//6
f  29//7 30//7 92//7 89//7
f  99//5 31//5 94//5 91//5
f  93//8 101//8 32//8 96//8
f  95//1 103//1 98//1 90//1
f  104//2 102//2 100//2 97//2
f  106//6 33//6 74//6 75//6
f  73//7 105//7 35//7 78//7
f  108//8 34//8 76//8 79//8
f  87//2 109//2 38//2 86//2
f  107//2 39//2 84//9 77//2
f  80//2 21//10 112//2 36//2
f  111//8 37//8 88//8 83//8
f  110//7 40//7 81//7 85//7
f  1//11 3//11 45//11 42//11
f  41//12 44//12 2//12 1//12
f  42//13 105//13 33//13 41//13
f  43//14 48//14 4//14 2//14
f  44//15 106//15 34//15 43//15
f  3//16 4//16 47//16 46//16
f  46//17 107//17 35//17 45//17
f  48//18 108//18 36//18 47//18
f  5//19 52//19 6//19 50//19
f  49//20 54//20 7//20 5//20
f  50//17 112//17 40//17 49//17
f  51//18 111//18 39//18 6//18
f  52//21 8//21 55//21 51//21
f  53//19 56//19 8//19 7//19
f  54//17 110//17 38//17 53//17
f  56//18 109//18 37//18 55//18
f  9//22 10//22 59//22 58//22
f  57//23 64//23 12//23 9//23
f  58//24 13//24 65//24 57//24
f  10//25 11//25 61//25 60//25
f  60//26 68//26 14//26 59//26
f  11//27 12//27 63//27 62//27
f  62//28 70//28 15//28 61//28
f  64//29 72//29 16//29 63//29
f  13//17 14//17 67//17 66//17
f  66//30 71//30 72//30 65//30
f  68//31 15//31 69//31 67//31
f  70//18 16//18 71//18 69//18
f  17//32 18//32 75//32 74//32
f  73//20 78//20 19//20 17//20
f  74//13 33//13 105//13 73//13
f  18//21 20//21 79//21 76//21
f  76//15 34//15 106//15 75//15
f  77//19 80//19 20//19 19//19
f  78//17 35//17 107//17 77//17
f  80//18 36//18 108//18 79//18
f  21//16 84//16 22//16 82//16
f  81//17 40//17 112//17 21//17
f  82//11 23//11 85//11 81//11
f  83//14 88//14 24//14 22//14
f  84//18 39//18 111//18 83//18
f  23//16 24//16 87//16 86//16
f  86//17 38//17 110//17 85//17
f  88//18 37//18 109//18 87//18
f  25//25 28//25 95//25 90//25
f  89//22 92//22 26//22 25//22
f  90//26 98//26 29//26 89//26
f  91//23 94//23 27//23 26//23
f  92//24 30//24 99//24 91//24
f  93//27 96//27 28//27 27//27
f  94//29 31//29 101//29 93//29
f  96//28 32//28 103//28 95//28
f  97//17 100//17 30//17 29//17
f  98//31 103//31 104//31 97//31
f  100//30 102//30 31//30 99//30
f  102//18 104//18 32//18 101//18
f  42//33 41//33 1//33
f  44//34 43//34 2//34
f  46//35 45//35 3//35
f  48//36 47//36 4//36
f  50//3 49//37 5//37
f  52//38 51//38 6//4
f  54//39 53//39 7//39
f  56//40 55//40 8//40
f  58//41 57//41 9//41
f  60//42 59//42 10//42
f  62//43 61//43 11//43
f  64//44 63//44 12//44
f  66//45 65//45 13//45
f  68//46 67//46 14//46
f  70//47 69//47 15//47
f  72//48 71//48 16//48
f  74//49 73//49 17//49
f  76//50 75//50 18//50
f  78//39 77//39 19//39
f  80//40 79//40 20//40
f  82//51 81//51 21//10
f  84//9 83//52 22//52
f  86//35 85//35 23//35
f  88//36 87//36 24//36
f  90//42 89//42 25//42
f  92//41 91//41 26//41
f  94//44 93//44 27//44
f  96//43 95//43 28//43
f  98//46 97//46 29//46
f  100//45 99//45 30//45
f  102//48 101//48 31//48
f  104//47 103//47 32//47
