# 
# Wavefront OBJ file
# Converted by the DEEP Exploration 3.5.7.1088
# Right Hemisphere, LTD
# http://www.righthemisphere.com/
# 
# object Object #0
g Object__0
v 0.5 -0.35 0
v 0.5 0.25 0
v 0.5 -0.35 0.1325
v 0.5 0.25 0.1325
v 0.28 -0.5 0
v 0.28 0.34 0
v 0.28 -0.5 0.181455
v 0.28 0.34 0.181455
v 0.24 -0.38 0.17
v 0.24 -0.33 0.31
v 0.24 -0.02 0.37
v 0.24 -0.02 0.17
v 0.16 -0.12 0.181455
v 0.16 0.08 0.181455
v 0.16 -0.12 0.22
v 0.16 0.08 0.22
v 0.1 -0.12 0.181455
v 0.1 0.06 0.181455
v 0.1 -0.12 0.26
v 0.1 0.06 0.26
v 0.33 0.51 0.103923
v 0.33 0.508973 0.119586
v 0.33 0.505911 0.134981
v 0.33 0.500866 0.149845
v 0.33 0.493923 0.163923
v 0.33 0.485202 0.176974
v 0.33 0.474853 0.188776
v 0.33 0.463051 0.199125
v 0.33 0.45 0.207846
v 0.33 0.435922 0.214789
v 0.33 0.421058 0.219834
v 0.33 0.405663 0.222896
v 0.33 0.39 0.223923
v 0.33 0.374337 0.222896
v 0.33 0.358942 0.219834
v 0.33 0.344078 0.214789
v 0.33 0.33 0.207846
v 0.33 0.316949 0.199125
v 0.33 0.305147 0.188776
v 0.33 0.294798 0.176974
v 0.33 0.286077 0.163923
v 0.33 0.279134 0.149845
v 0.33 0.274089 0.134981
v 0.33 0.271027 0.119586
v 0.33 0.27 0.103923
v 0.33 0.271027 0.0882599
v 0.33 0.274089 0.0728648
v 0.33 0.279134 0.058001
v 0.33 0.286077 0.043923
v 0.33 0.294798 0.0308717
v 0.33 0.305147 0.0190702
v 0.33 0.316949 0.00872065
v 0.33 0.33 0
v 0.33 0.45 0
v 0.33 0.463051 0.00872065
v 0.33 0.474853 0.0190702
v 0.33 0.485202 0.0308717
v 0.33 0.493923 0.043923
v 0.33 0.500866 0.058001
v 0.33 0.505911 0.0728648
v 0.33 0.508973 0.0882599
v 0.11 -0.38 0.17
v 0.11 -0.33 0.31
v 0.11 -0.02 0.37
v 0.11 -0.02 0.17
v -0.5 -0.35 0
v -0.5 0.25 0
v -0.5 -0.35 0.1325
v -0.5 0.25 0.1325
v -0.28 -0.5 0
v -0.28 0.34 0
v -0.28 -0.5 0.181455
v -0.28 0.34 0.181455
v -0.24 -0.38 0.17
v -0.24 -0.33 0.31
v -0.24 -0.02 0.37
v -0.24 -0.02 0.17
v -0.16 -0.12 0.181455
v -0.16 0.08 0.181455
v -0.16 -0.12 0.22
v -0.16 0.08 0.22
v -0.1 -0.12 0.181455
v -0.1 0.06 0.181455
v -0.1 -0.12 0.26
v -0.1 0.06 0.26
v -0.33 0.51 0.103923
v -0.33 0.508973 0.119586
v -0.33 0.505911 0.134981
v -0.33 0.500866 0.149845
v -0.33 0.493923 0.163923
v -0.33 0.485202 0.176974
v -0.33 0.474853 0.188776
v -0.33 0.463051 0.199125
v -0.33 0.45 0.207846
v -0.33 0.435922 0.214789
v -0.33 0.421058 0.219834
v -0.33 0.405663 0.222896
v -0.33 0.39 0.223923
v -0.33 0.374337 0.222896
v -0.33 0.358942 0.219834
v -0.33 0.344078 0.214789
v -0.33 0.33 0.207846
v -0.33 0.316949 0.199125
v -0.33 0.305147 0.188776
v -0.33 0.294798 0.176974
v -0.33 0.286077 0.163923
v -0.33 0.279134 0.149845
v -0.33 0.274089 0.134981
v -0.33 0.271027 0.119586
v -0.33 0.27 0.103923
v -0.33 0.271027 0.0882599
v -0.33 0.274089 0.0728648
v -0.33 0.279134 0.058001
v -0.33 0.286077 0.043923
v -0.33 0.294798 0.0308717
v -0.33 0.305147 0.0190702
v -0.33 0.316949 0.00872065
v -0.33 0.33 0
v -0.33 0.45 0
v -0.33 0.463051 0.00872065
v -0.33 0.474853 0.0190702
v -0.33 0.485202 0.0308717
v -0.33 0.493923 0.043923
v -0.33 0.500866 0.058001
v -0.33 0.505911 0.0728648
v -0.33 0.508973 0.0882599
v -0.11 -0.38 0.17
v -0.11 -0.33 0.31
v -0.11 -0.02 0.37
v -0.11 -0.02 0.17
v 0 -0.5 0
v 0 -0.5 0.181455
v 0 -0.35 0
v 0 -0.35 0.1325
v 0 -0.12 0.181455
v 0 -0.12 0.22
v 0 -0.12 0.26
v 0 0.08 0.181455
v 0 0.06 0.181455
v 0 0.08 0.22
v 0 0.06 0.26
v 0 0.25 0
v 0 0.25 0.1325
v 0 0.34 0
v 0 0.34 0.181455
v 0 0.294798 0.176974
v 0 0.286077 0.163923
v 0 0.279134 0.149845
v 0 0.274089 0.134981
v 0 0.271027 0.119586
v 0 0.27 0.103923
v 0 0.271027 0.0882599
v 0 0.274089 0.0728648
v 0 0.279134 0.058001
v 0 0.286077 0.043923
v 0 0.294798 0.0308717
v 0 0.305147 0.0190702
v 0 0.316949 0.00872065
v 0 0.33 0
v 0 0.374337 0.222896
v 0 0.358942 0.219834
v 0 0.344078 0.214789
v 0 0.33 0.207846
v 0 0.316949 0.199125
v 0 0.305147 0.188776
v 0 0.51 0.103923
v 0 0.508973 0.119586
v 0 0.505911 0.134981
v 0 0.500866 0.149845
v 0 0.493923 0.163923
v 0 0.485202 0.176974
v 0 0.45 0
v 0 0.463051 0.00872065
v 0 0.474853 0.0190702
v 0 0.485202 0.0308717
v 0 0.493923 0.043923
v 0 0.500866 0.058001
v 0 0.505911 0.0728648
v 0 0.508973 0.0882599
v 0 0.474853 0.188776
v 0 0.463051 0.199125
v 0 0.45 0.207846
v 0 0.435922 0.214789
v 0 0.421058 0.219834
v 0 0.405663 0.222896
v 0 0.39 0.223923
v -0.11 -0.40838 0.15
v -0.11 4.47035e-010 0.15
v -0.11 4.47035e-010 0.394242
v -0.11 -0.344999 0.327468
v 0.11 -0.40838 0.15
v 0.11 4.47035e-010 0.15
v 0.11 4.47035e-010 0.394242
v 0.11 -0.344999 0.327468
v 0 -0.40838 0.15
v 0 4.47035e-010 0.15
v 0 4.47035e-010 0.394242
v 0 -0.344999 0.327468
v 0 -0.03 0.29
v 0.00391579 -0.03 0.289743
v 0.00776457 -0.03 0.288978
v 0.0114805 -0.03 0.287716
v 0.015 -0.03 0.285981
v 0.0182628 -0.03 0.283801
v 0.0212132 -0.03 0.281213
v 0.0238006 -0.03 0.278263
v 0.0259808 -0.03 0.275
v 0.0277164 -0.03 0.271481
v 0.0289778 -0.03 0.267765
v 0.0297433 -0.03 0.263916
v 0.03 -0.03 0.26
v 0.0297433 -0.03 0.256084
v 0.0289778 -0.03 0.252235
v 0.0277164 -0.03 0.248519
v 0.0259808 -0.03 0.245
v 0.0238006 -0.03 0.241737
v 0.0212132 -0.03 0.238787
v 0.0182628 -0.03 0.236199
v 0.015 -0.03 0.234019
v 0.0114805 -0.03 0.232284
v 0.00776457 -0.03 0.231022
v 0.00391579 -0.03 0.230257
v 0 -0.03 0.23
v -0.00391579 -0.03 0.230257
v -0.00776457 -0.03 0.231022
v -0.0114805 -0.03 0.232284
v -0.015 -0.03 0.234019
v -0.0182628 -0.03 0.236199
v -0.0212132 -0.03 0.238787
v -0.0238006 -0.03 0.241737
v -0.0259808 -0.03 0.245
v -0.0277164 -0.03 0.248519
v -0.0289778 -0.03 0.252235
v -0.0297433 -0.03 0.256084
v -0.03 -0.03 0.26
v -0.0297433 -0.03 0.263916
v -0.0289778 -0.03 0.267765
v -0.0277164 -0.03 0.271481
v -0.0259808 -0.03 0.275
v -0.0238006 -0.03 0.278263
v -0.0212132 -0.03 0.281213
v -0.0182628 -0.03 0.283801
v -0.015 -0.03 0.285981
v -0.0114805 -0.03 0.287716
v -0.00776457 -0.03 0.288978
v -0.00391579 -0.03 0.289743
v 0 0.04 0.29
v 0.00391579 0.04 0.289743
v 0.00776457 0.04 0.288978
v 0.0114805 0.04 0.287716
v 0.015 0.04 0.285981
v 0.0182628 0.04 0.283801
v 0.0212132 0.04 0.281213
v 0.0238006 0.04 0.278263
v 0.0259808 0.04 0.275
v 0.0277164 0.04 0.271481
v 0.0289778 0.04 0.267765
v 0.0297433 0.04 0.263916
v 0.03 0.04 0.26
v 0.0297433 0.04 0.256084
v 0.0289778 0.04 0.252235
v 0.0277164 0.04 0.248519
v 0.0259808 0.04 0.245
v 0.0238006 0.04 0.241737
v 0.0212132 0.04 0.238787
v 0.0182628 0.04 0.236199
v 0.015 0.04 0.234019
v 0.0114805 0.04 0.232284
v 0.00776457 0.04 0.231022
v 0.00391579 0.04 0.230257
v 0 0.04 0.23
v -0.00391579 0.04 0.230257
v -0.00776457 0.04 0.231022
v -0.0114805 0.04 0.232284
v -0.015 0.04 0.234019
v -0.0182628 0.04 0.236199
v -0.0212132 0.04 0.238787
v -0.0238006 0.04 0.241737
v -0.0259808 0.04 0.245
v -0.0277164 0.04 0.248519
v -0.0289778 0.04 0.252235
v -0.0297433 0.04 0.256084
v -0.03 0.04 0.26
v -0.0297433 0.04 0.263916
v -0.0289778 0.04 0.267765
v -0.0277164 0.04 0.271481
v -0.0259808 0.04 0.275
v -0.0238006 0.04 0.278263
v -0.0212132 0.04 0.281213
v -0.0182628 0.04 0.283801
v -0.015 0.04 0.285981
v -0.0114805 0.04 0.287716
v -0.00776457 0.04 0.288978
v -0.00391579 0.04 0.289743
# 294 verticies
vn 1 0 0
vn 0 -0.941742 0.336336
vn 0 -0.190022 0.98178
vn 0 1 0
vn 0 0 -1
vn 0 -1 0
vn 0 0 1
vn 0 0.999761 0.0218429
vn 0 0.999761 -0.0218429
vn 0 0.994059 0.108839
vn 0 0.988357 0.15215
vn 0 0.971349 0.237658
vn 0 0.960042 0.279857
vn 0 0.932017 0.362413
vn 0 0.9153 0.402772
vn 0 0.876741 0.480964
vn 0 0.854898 0.518796
vn 0 0.806461 0.591287
vn 0 0.779867 0.625945
vn 0 0.722383 0.691493
vn 0 0.691493 0.722383
vn 0 0.625945 0.779867
vn 0 0.591287 0.806461
vn 0 0.518797 0.854898
vn 0 0.480964 0.87674
vn 0 0.402772 0.9153
vn 0 0.362412 0.932018
vn 0 0.279856 0.960042
vn 0 0.237659 0.971349
vn 0 0.152151 0.988357
vn 0 0.108839 0.994059
vn 0 0.0218425 0.999761
vn 0 -0.0218427 0.999761
vn 0 -0.108839 0.994059
vn 0 -0.152151 0.988357
vn 0 -0.237659 0.971349
vn 0 -0.279855 0.960042
vn 0 -0.362412 0.932018
vn 0 -0.402772 0.9153
vn 0 -0.480965 0.87674
vn 0 -0.518797 0.854897
vn 0 -0.591287 0.806461
vn 0 -0.625945 0.779867
vn 0 -0.691493 0.722383
vn 0 -0.722383 0.691493
vn 0 -0.779867 0.625945
vn 0 -0.806461 0.591287
vn 0 -0.854898 0.518797
vn 0 -0.87674 0.480965
vn 0 -0.9153 0.402773
vn 0 -0.932018 0.362413
vn 0 -0.960042 0.279856
vn 0 -0.971349 0.237659
vn 0 -0.988357 0.15215
vn 0 -0.994059 0.108838
vn 0 -0.999761 0.0218423
vn 0 -0.999761 -0.0218423
vn 0 -0.994059 -0.108838
vn 0 -0.988357 -0.15215
vn 0 -0.971349 -0.237659
vn 0 -0.960042 -0.279856
vn 0 -0.932018 -0.362413
vn 0 -0.9153 -0.402773
vn 0 -0.87674 -0.480965
vn 0 -0.854898 -0.518797
vn 0 -0.806461 -0.591287
vn 0 -0.779867 -0.625945
vn 0 -0.722383 -0.691493
vn 0 -0.691493 -0.722383
vn 0 -0.625945 -0.779867
vn 0 -0.591287 -0.806461
vn 0 -0.55557 -0.83147
vn 0 0.55557 -0.83147
vn 0 0.591287 -0.806461
vn 0 0.625945 -0.779867
vn 0 0.691493 -0.722383
vn 0 0.722383 -0.691493
vn 0 0.779867 -0.625945
vn 0 0.806461 -0.591287
vn 0 0.854898 -0.518796
vn 0 0.876741 -0.480964
vn 0 0.9153 -0.402772
vn 0 0.932017 -0.362413
vn 0 0.960042 -0.279856
vn 0 0.971349 -0.237658
vn 0 0.988357 -0.15215
vn 0 0.994059 -0.108839
vn -1 0 0
vn 0 -0.941742 0.336336
vn 0.108839 0 0.994059
vn 0.15215 0 0.988357
vn 0.237657 0 0.971349
vn 0.279854 0 0.960042
vn 0.362412 0 0.932018
vn 0.402772 0 0.9153
vn 0.480965 0 0.87674
vn 0.518797 0 0.854898
vn 0.591288 0 0.806461
vn 0.625946 0 0.779866
vn 0.691493 0 0.722383
vn 0.722382 0 0.691494
vn 0.779866 0 0.625947
vn 0.806461 0 0.591288
vn 0.854898 0 0.518796
vn 0.876741 0 0.480964
vn 0.915301 0 0.402772
vn 0.932018 0 0.362412
vn 0.960042 0 0.279856
vn 0.971349 0 0.237659
vn 0.988357 0 0.152151
vn 0.994059 0 0.108839
vn 0.999761 0 0.0218424
vn 0.999761 0 -0.0218424
vn 0.994059 0 -0.10884
vn 0.988357 0 -0.152152
vn 0.971348 0 -0.23766
vn 0.960042 0 -0.279855
vn 0.932018 0 -0.362412
vn 0.9153 0 -0.402772
vn 0.87674 0 -0.480965
vn 0.854898 0 -0.518797
vn 0.806461 0 -0.591287
vn 0.779867 0 -0.625945
vn 0.722383 0 -0.691493
vn 0.691494 0 -0.722382
vn 0.625946 0 -0.779866
vn 0.591287 0 -0.806461
vn 0.518796 0 -0.854898
vn 0.480963 0 -0.876741
vn 0.402771 0 -0.915301
vn 0.362413 0 -0.932018
vn 0.279858 0 -0.960042
vn 0.237661 0 -0.971348
vn 0.152151 0 -0.988357
vn 0.108838 0 -0.994059
vn -0.108838 0 -0.994059
vn -0.152151 0 -0.988357
vn -0.237661 0 -0.971348
vn -0.279858 0 -0.960042
vn -0.362413 0 -0.932018
vn -0.402771 0 -0.915301
vn -0.480963 0 -0.876741
vn -0.518796 0 -0.854898
vn -0.591288 0 -0.806461
vn -0.625946 0 -0.779866
vn -0.691494 0 -0.722382
vn -0.722383 0 -0.691493
vn -0.779867 0 -0.625945
vn -0.806461 0 -0.591287
vn -0.854898 0 -0.518797
vn -0.87674 0 -0.480965
vn -0.9153 0 -0.402772
vn -0.932018 0 -0.362412
vn -0.960042 0 -0.279855
vn -0.971348 0 -0.23766
vn -0.988357 0 -0.152152
vn -0.994059 0 -0.10884
vn -0.999761 0 -0.0218424
vn -0.999761 0 0.0218424
vn -0.994059 0 0.108839
vn -0.988357 0 0.152151
vn -0.971349 0 0.237659
vn -0.960042 0 0.279856
vn -0.932018 0 0.362412
vn -0.915301 0 0.402772
vn -0.876741 0 0.480964
vn -0.854898 0 0.518796
vn -0.806461 0 0.591288
vn -0.779866 0 0.625947
vn -0.722382 0 0.691494
vn -0.691493 0 0.722383
vn -0.625946 0 0.779866
vn -0.591287 0 0.806461
vn -0.518797 0 0.854898
vn -0.480965 0 0.87674
vn -0.402772 0 0.9153
vn -0.362412 0 0.932018
vn -0.279854 0 0.960042
vn -0.237657 0 0.971349
vn -0.15215 0 0.988357
vn -0.108839 0 0.994059
# 181 normals
f  2//1 4//1 3//1 1//1
f  6//1 8//1 7//1 5//1
f  12//1 11//1 10//1 9//1
f  14//1 16//1 15//1 13//1
f  18//1 20//1 19//1 17//1
f  22//1 23//1 24//1 25//1 26//1 27//1 28//1 29//1 30//1 31//1 32//1\
33//1 34//1 35//1 36//1 37//1 38//1 39//1 40//1 41//1 42//1 43//1\
44//1 45//1 46//1 47//1 48//1 49//1 50//1 51//1 52//1 53//1 54//1\
55//1 56//1 57//1 58//1 59//1 60//1 61//1 21//1
f  10//2 63//2 62//2 9//2
f  11//3 64//3 63//3 10//3
f  12//4 65//4 64//4 11//4
f  9//5 62//5 65//5 12//5
f  1//5 133//5 142//5 2//5
f  134//6 133//6 1//6 3//6
f  2//4 142//4 143//4 4//4
f  143//7 134//7 3//7 4//7
f  5//5 131//5 144//5 6//5
f  132//6 131//6 5//6 7//6
f  6//4 144//4 145//4 8//4
f  145//7 132//7 7//7 8//7
f  13//5 135//5 138//5 14//5
f  136//6 135//6 13//6 15//6
f  14//4 138//4 140//4 16//4
f  140//7 136//7 15//7 16//7
f  17//5 135//5 139//5 18//5
f  19//6 137//6 135//6 17//6
f  18//4 139//4 141//4 20//4
f  141//7 137//7 19//7 20//7
f  21//8 166//9 167//10 22//11
f  22//11 167//10 168//12 23//13
f  23//13 168//12 169//14 24//15
f  24//15 169//14 170//16 25//17
f  25//17 170//16 171//18 26//19
f  26//19 171//18 180//20 27//21
f  27//21 180//20 181//22 28//23
f  28//23 181//22 182//24 29//25
f  29//25 182//24 183//26 30//27
f  30//27 183//26 184//28 31//29
f  31//29 184//28 185//30 32//31
f  32//31 185//30 186//32 33//33
f  33//33 186//32 160//34 34//35
f  34//35 160//34 161//36 35//37
f  35//37 161//36 162//38 36//39
f  36//39 162//38 163//40 37//41
f  37//41 163//40 164//42 38//43
f  38//43 164//42 165//44 39//45
f  39//45 165//44 146//46 40//47
f  40//47 146//46 147//48 41//49
f  41//49 147//48 148//50 42//51
f  42//51 148//50 149//52 43//53
f  43//53 149//52 150//54 44//55
f  44//55 150//54 151//56 45//57
f  45//57 151//56 152//58 46//59
f  46//59 152//58 153//60 47//61
f  47//61 153//60 154//62 48//63
f  48//63 154//62 155//64 49//65
f  49//65 155//64 156//66 50//67
f  50//67 156//66 157//68 51//69
f  51//69 157//68 158//70 52//71
f  52//71 158//70 159//72 53//72
f  54//73 172//73 173//74 55//75
f  55//75 173//74 174//76 56//77
f  56//77 174//76 175//78 57//79
f  57//79 175//78 176//80 58//81
f  58//81 176//80 177//82 59//83
f  59//83 177//82 178//84 60//85
f  60//85 178//84 179//86 61//87
f  61//87 179//86 166//9 21//8
f  53//5 159//5 172//5 54//5
f  68//88 69//88 67//88 66//88
f  72//88 73//88 71//88 70//88
f  75//88 76//88 77//88 74//88
f  80//88 81//88 79//88 78//88
f  84//88 85//88 83//88 82//88
f  126//88 125//88 124//88 123//88 122//88 121//88 120//88 119//88\
118//88 117//88 116//88 115//88 114//88 113//88 112//88 111//88\
110//88 109//88 108//88 107//88 106//88 105//88 104//88 103//88\
102//88 101//88 100//88 99//88 98//88 97//88 96//88 95//88 94//88\
93//88 92//88 91//88 90//88 89//88 88//88 87//88 86//88
f  127//2 128//2 75//2 74//2
f  128//3 129//3 76//3 75//3
f  129//4 130//4 77//4 76//4
f  130//5 127//5 74//5 77//5
f  142//5 133//5 66//5 67//5
f  66//6 133//6 134//6 68//6
f  143//4 142//4 67//4 69//4
f  68//7 134//7 143//7 69//7
f  144//5 131//5 70//5 71//5
f  70//6 131//6 132//6 72//6
f  145//4 144//4 71//4 73//4
f  72//7 132//7 145//7 73//7
f  138//5 135//5 78//5 79//5
f  78//6 135//6 136//6 80//6
f  140//4 138//4 79//4 81//4
f  80//7 136//7 140//7 81//7
f  139//5 135//5 82//5 83//5
f  135//6 137//6 84//6 82//6
f  141//4 139//4 83//4 85//4
f  84//7 137//7 141//7 85//7
f  167//10 166//9 86//8 87//11
f  168//12 167//10 87//11 88//13
f  169//14 168//12 88//13 89//15
f  170//16 169//14 89//15 90//17
f  171//18 170//16 90//17 91//19
f  180//20 171//18 91//19 92//21
f  181//22 180//20 92//21 93//23
f  182//24 181//22 93//23 94//25
f  183//26 182//24 94//25 95//27
f  184//28 183//26 95//27 96//29
f  185//30 184//28 96//29 97//31
f  186//32 185//30 97//31 98//33
f  160//34 186//32 98//33 99//35
f  161//36 160//34 99//35 100//37
f  162//38 161//36 100//37 101//39
f  163//40 162//38 101//39 102//41
f  164//42 163//40 102//41 103//43
f  165//44 164//42 103//43 104//45
f  146//46 165//44 104//45 105//47
f  147//48 146//46 105//47 106//49
f  148//50 147//48 106//49 107//51
f  149//52 148//50 107//51 108//53
f  150//54 149//52 108//53 109//55
f  151//56 150//54 109//55 110//57
f  152//58 151//56 110//57 111//59
f  153//60 152//58 111//59 112//61
f  154//62 153//60 112//61 113//63
f  155//64 154//62 113//63 114//65
f  156//66 155//64 114//65 115//67
f  157//68 156//66 115//67 116//69
f  158//70 157//68 116//69 117//71
f  159//72 158//70 117//71 118//72
f  173//74 172//73 119//73 120//75
f  174//76 173//74 120//75 121//77
f  175//78 174//76 121//77 122//79
f  176//80 175//78 122//79 123//81
f  177//82 176//80 123//81 124//83
f  178//84 177//82 124//83 125//85
f  179//86 178//84 125//85 126//87
f  166//9 179//86 126//87 86//8
f  172//5 159//5 118//5 119//5
f  130//88 188//88 187//88 127//88
f  129//88 189//88 188//88 130//88
f  128//88 190//88 189//88 129//88
f  127//88 187//88 190//88 128//88
f  62//1 191//1 192//1 65//1
f  65//1 192//1 193//1 64//1
f  64//1 193//1 194//1 63//1
f  63//1 194//1 191//1 62//1
f  188//5 196//5 195//5 187//5
f  189//4 197//4 196//4 188//4
f  198//3 197//3 189//3 190//3
f  195//89 198//89 190//89 187//89
f  195//5 196//5 192//5 191//5
f  196//4 197//4 193//4 192//4
f  193//3 197//3 198//3 194//3
f  194//89 198//89 195//89 191//89
f  246//6 245//6 244//6 243//6 242//6 241//6 240//6 239//6 238//6\
237//6 236//6 235//6 234//6 233//6 232//6 231//6 230//6 229//6 228//6\
227//6 226//6 225//6 224//6 223//6 222//6 221//6 220//6 219//6 218//6\
217//6 216//6 215//6 214//6 213//6 212//6 211//6 210//6 209//6 208//6\
207//6 206//6 205//6 204//6 203//6 202//6 201//6 200//6 199//6
f  248//90 247//7 199//7 200//91
f  249//92 248//90 200//91 201//93
f  250//94 249//92 201//93 202//95
f  251//96 250//94 202//95 203//97
f  252//98 251//96 203//97 204//99
f  253//100 252//98 204//99 205//101
f  254//102 253//100 205//101 206//103
f  255//104 254//102 206//103 207//105
f  256//106 255//104 207//105 208//107
f  257//108 256//106 208//107 209//109
f  258//110 257//108 209//109 210//111
f  259//112 258//110 210//111 211//113
f  260//114 259//112 211//113 212//115
f  261//116 260//114 212//115 213//117
f  262//118 261//116 213//117 214//119
f  263//120 262//118 214//119 215//121
f  264//122 263//120 215//121 216//123
f  265//124 264//122 216//123 217//125
f  266//126 265//124 217//125 218//127
f  267//128 266//126 218//127 219//129
f  268//130 267//128 219//129 220//131
f  269//132 268//130 220//131 221//133
f  270//134 269//132 221//133 222//135
f  271//5 270//134 222//135 223//5
f  224//136 272//137 271//5 223//5
f  225//138 273//139 272//137 224//136
f  226//140 274//141 273//139 225//138
f  227//142 275//143 274//141 226//140
f  228//144 276//145 275//143 227//142
f  229//146 277//147 276//145 228//144
f  230//148 278//149 277//147 229//146
f  231//150 279//151 278//149 230//148
f  232//152 280//153 279//151 231//150
f  233//154 281//155 280//153 232//152
f  234//156 282//157 281//155 233//154
f  235//158 283//159 282//157 234//156
f  236//160 284//161 283//159 235//158
f  237//162 285//163 284//161 236//160
f  238//164 286//165 285//163 237//162
f  239//166 287//167 286//165 238//164
f  240//168 288//169 287//167 239//166
f  241//170 289//171 288//169 240//168
f  242//172 290//173 289//171 241//170
f  243//174 291//175 290//173 242//172
f  244//176 292//177 291//175 243//174
f  245//178 293//179 292//177 244//176
f  246//180 294//181 293//179 245//178
f  199//7 247//7 294//181 246//180
f  248//4 249//4 250//4 251//4 252//4 253//4 254//4 255//4 256//4\
257//4 258//4 259//4 260//4 261//4 262//4 263//4 264//4 265//4 266//4\
267//4 268//4 269//4 270//4 271//4 272//4 273//4 274//4 275//4 276//4\
277//4 278//4 279//4 280//4 281//4 282//4 283//4 284//4 285//4 286//4\
287//4 288//4 289//4 290//4 291//4 292//4 293//4 294//4 247//4
