# 
# Wavefront OBJ file
# Converted by the DEEP Exploration 3.5.7.1088
# Right Hemisphere, LTD
# http://www.righthemisphere.com/
# 
# object Object #0
g Object__0
v 0.51 -0.31 0
v 0.51 0.3 0
v 0.51 -0.31 0.5
v 0.51 0.3 0.5
v 0.42 -0.31 0.1
v 0.42 -0.31 0.5
v 0.42 0.22 0.1
v 0.42 0.22 0.5
v -5.55112e-017 -0.31 0.1
v 0.4 -0.15 0.1
v 0.335 -0.0374167 0.1
v 0.205 -0.0374167 0.1
v 0.14 -0.15 0.1
v 0.205 -0.262583 0.1
v 0.335 -0.262583 0.1
v 0.4 -0.15 0.47
v 0.335 -0.0374167 0.47
v 0.205 -0.0374167 0.47
v 0.14 -0.15 0.47
v 0.205 -0.262583 0.47
v 0.335 -0.262583 0.47
v 0.365359 -0.15 0.47
v 0.317679 -0.232583 0.47
v 0.222321 -0.232583 0.47
v 0.174641 -0.15 0.47
v 0.222321 -0.0674167 0.47
v 0.317679 -0.0674167 0.47
v 0.365359 -0.15 0.42
v 0.317679 -0.232583 0.42
v 0.222321 -0.232583 0.42
v 0.174641 -0.15 0.42
v 0.222321 -0.0674167 0.42
v 0.317679 -0.0674167 0.42
v 0.4 0.09 0.1
v 0.335 0.202583 0.1
v 0.205 0.202583 0.1
v 0.14 0.09 0.1
v 0.205 -0.0225833 0.1
v 0.335 -0.0225833 0.1
v 0.4 0.09 0.47
v 0.335 0.202583 0.47
v 0.205 0.202583 0.47
v 0.14 0.09 0.47
v 0.205 -0.0225833 0.47
v 0.335 -0.0225833 0.47
v 0.365359 0.09 0.47
v 0.317679 0.0074167 0.47
v 0.222321 0.0074167 0.47
v 0.174641 0.09 0.47
v 0.222321 0.172583 0.47
v 0.317679 0.172583 0.47
v 0.365359 0.09 0.42
v 0.317679 0.0074167 0.42
v 0.222321 0.0074167 0.42
v 0.174641 0.09 0.42
v 0.222321 0.172583 0.42
v 0.317679 0.172583 0.42
v 0.126063 -0.23 0.1
v 0.126063 0.18 0.1
v 0.126063 0.18 0.41
v 0.126063 -0.23 0.41
v 0.34 -0.23 0.1
v 0.34 0.18 0.1
v 0.34 0.18 0.41
v 0.34 -0.23 0.41
v 0.0960631 -0.2 0.13
v 0.0960631 0.15 0.13
v 0.0960631 0.15 0.38
v 0.0960631 -0.2 0.38
v 0.39 -0.14 0.1016
v 0.39 -0.14 0.4084
v 0.39 0.09 0.4084
v 0.39 0.09 0.1016
v 0.07 0.220228 0.09
v 0.09 0.220228 0.09
v 0.09 0.220228 0.47
v 0.07 0.220228 0.47
v 0.07 -0.279772 0.09
v 0.09 -0.279772 0.09
v 0.09 -0.279772 0.47
v 0.07 -0.279772 0.47
v 0.02 0.220228 0.09
v 0.04 0.220228 0.09
v 0.04 0.220228 0.47
v 0.02 0.220228 0.47
v 0.02 -0.279772 0.09
v 0.04 -0.279772 0.09
v 0.04 -0.279772 0.47
v 0.02 -0.279772 0.47
v -0.51 -0.31 0
v -0.51 0.3 0
v -0.51 -0.31 0.5
v -0.51 0.3 0.5
v -0.42 -0.31 0.1
v -0.42 -0.31 0.5
v -0.42 0.22 0.1
v -0.42 0.22 0.5
v 5.55112e-017 -0.31 0.1
v -0.4 -0.15 0.1
v -0.335 -0.0374167 0.1
v -0.205 -0.0374167 0.1
v -0.14 -0.15 0.1
v -0.205 -0.262583 0.1
v -0.335 -0.262583 0.1
v -0.4 -0.15 0.47
v -0.335 -0.0374167 0.47
v -0.205 -0.0374167 0.47
v -0.14 -0.15 0.47
v -0.205 -0.262583 0.47
v -0.335 -0.262583 0.47
v -0.365359 -0.15 0.47
v -0.317679 -0.232583 0.47
v -0.222321 -0.232583 0.47
v -0.174641 -0.15 0.47
v -0.222321 -0.0674167 0.47
v -0.317679 -0.0674167 0.47
v -0.365359 -0.15 0.42
v -0.317679 -0.232583 0.42
v -0.222321 -0.232583 0.42
v -0.174641 -0.15 0.42
v -0.222321 -0.0674167 0.42
v -0.317679 -0.0674167 0.42
v -0.4 0.09 0.1
v -0.335 0.202583 0.1
v -0.205 0.202583 0.1
v -0.14 0.09 0.1
v -0.205 -0.0225833 0.1
v -0.335 -0.0225833 0.1
v -0.4 0.09 0.47
v -0.335 0.202583 0.47
v -0.205 0.202583 0.47
v -0.14 0.09 0.47
v -0.205 -0.0225833 0.47
v -0.335 -0.0225833 0.47
v -0.365359 0.09 0.47
v -0.317679 0.0074167 0.47
v -0.222321 0.0074167 0.47
v -0.174641 0.09 0.47
v -0.222321 0.172583 0.47
v -0.317679 0.172583 0.47
v -0.365359 0.09 0.42
v -0.317679 0.0074167 0.42
v -0.222321 0.0074167 0.42
v -0.174641 0.09 0.42
v -0.222321 0.172583 0.42
v -0.317679 0.172583 0.42
v -0.126063 -0.23 0.1
v -0.126063 0.18 0.1
v -0.126063 0.18 0.41
v -0.126063 -0.23 0.41
v -0.34 -0.23 0.1
v -0.34 0.18 0.1
v -0.34 0.18 0.41
v -0.34 -0.23 0.41
v -0.0960631 -0.2 0.13
v -0.0960631 0.15 0.13
v -0.0960631 0.15 0.38
v -0.0960631 -0.2 0.38
v -0.39 -0.14 0.1016
v -0.39 -0.14 0.4084
v -0.39 0.09 0.4084
v -0.39 0.09 0.1016
v -0.07 0.220228 0.09
v -0.09 0.220228 0.09
v -0.09 0.220228 0.47
v -0.07 0.220228 0.47
v -0.07 -0.279772 0.09
v -0.09 -0.279772 0.09
v -0.09 -0.279772 0.47
v -0.07 -0.279772 0.47
v -0.02 0.220228 0.09
v -0.04 0.220228 0.09
v -0.04 0.220228 0.47
v -0.02 0.220228 0.47
v -0.02 -0.279772 0.09
v -0.04 -0.279772 0.09
v -0.04 -0.279772 0.47
v -0.02 -0.279772 0.47
v 0 -0.31 0
v 0 0.3 0
v 0 0.3 0.5
v 0 0.22 0.5
v 0 0.22 0.1
v 0 -0.2 0.13
v 0 0.15 0.13
v 0 0.15 0.38
v 0 -0.2 0.38
# 187 verticies
vn 1 0 0
vn -1 0 0
vn 0 0 -1
vn 0 1 0
vn 0 0 1
vn 0 -1 0
vn 0.866025 0.5 0
vn -0.866025 0.5 0
vn -0.866025 -0.5 0
vn 0.866025 -0.5 0
vn -0.866025 0.5 0
vn 0.866025 -0.5 0
vn -0.866025 -0.5 0
vn 0.866025 -0.5 0
vn -0.866025 0.5 0
vn 0.866025 0.5 0
vn 0.0213248 0 -0.999773
vn 0.0106624 0 -0.999943
vn 0.0159938 0 0.999872
vn 0.968028 0.250841 0
vn 0.986023 -0.166607 0
vn 0.942851 -0.333214 0
vn -0.707107 -0.707107 0
vn -0.707107 0 -0.707107
vn -0.707107 0.707107 0
vn -0.707107 0 0.707107
vn 0.0319836 0 -0.999488
vn 0.874157 -0.485643 0
vn 0.0319836 0 0.999488
vn 0.874157 0.485643 0
vn 0.866025 0.5 0
vn -0.866025 -0.5 0
vn 0.866025 0.5 0
vn -0.866025 0.5 0
vn -0.0106624 0 -0.999943
vn -0.0213248 0 -0.999773
vn -0.0159938 0 0.999872
vn -0.986023 -0.166607 0
vn -0.968028 0.250841 0
vn -0.942851 -0.333214 0
vn 0.707107 -0.707107 0
vn 0.707107 0 -0.707107
vn 0.707107 0.707107 0
vn 0.707107 0 0.707107
vn -0.0319836 0 -0.999488
vn -0.874157 -0.485643 0
vn -0.0319836 0 0.999488
vn -0.874157 0.485643 0
# 48 normals
f  2//1 4//1 3//1 1//1
f  6//2 8//2 7//2 5//2
f  1//3 179//3 180//3 2//3
f  2//4 180//4 181//4 4//4
f  181//5 182//5 8//5 6//5 3//5 4//5
f  3//6 6//6 5//6 9//6 179//6 1//6
f  8//6 182//6 183//6 7//6
f  7//5 183//5 9//5 5//5
f  15//3 14//3 13//3 12//3 11//3 10//3
f  11//7 17//7 16//7 10//7
f  18//4 17//4 11//4 12//4
f  19//8 18//8 12//8 13//8
f  20//9 19//9 13//9 14//9
f  21//6 20//6 14//6 15//6
f  10//10 16//10 21//10 15//10
f  33//5 32//5 31//5 30//5 29//5 28//5
f  16//5 17//5 27//5 22//5
f  16//5 22//5 23//5 21//5
f  21//5 23//5 24//5 20//5
f  24//5 25//5 19//5 20//5
f  25//5 26//5 18//5 19//5
f  27//5 17//5 18//5 26//5
f  22//9 27//9 33//9 28//9
f  23//11 22//11 28//11 29//11
f  24//4 23//4 29//4 30//4
f  31//7 25//7 24//7 30//7
f  32//12 26//12 25//12 31//12
f  33//6 27//6 26//6 32//6
f  39//3 38//3 37//3 36//3 35//3 34//3
f  35//7 41//7 40//7 34//7
f  42//4 41//4 35//4 36//4
f  43//8 42//8 36//8 37//8
f  44//13 43//13 37//13 38//13
f  45//6 44//6 38//6 39//6
f  34//14 40//14 45//14 39//14
f  57//5 56//5 55//5 54//5 53//5 52//5
f  40//5 41//5 51//5 46//5
f  40//5 46//5 47//5 45//5
f  45//5 47//5 48//5 44//5
f  48//5 49//5 43//5 44//5
f  49//5 50//5 42//5 43//5
f  51//5 41//5 42//5 50//5
f  46//13 51//13 57//13 52//13
f  47//15 46//15 52//15 53//15
f  48//4 47//4 53//4 54//4
f  55//16 49//16 48//16 54//16
f  56//12 50//12 49//12 55//12
f  57//6 51//6 50//6 56//6
f  59//3 63//17 62//18 58//3
f  60//4 64//4 63//4 59//4
f  65//19 64//19 60//5 61//5
f  62//6 65//6 61//6 58//6
f  73//20 72//20 71//21 70//22
f  61//23 69//23 66//23 58//23
f  66//24 67//24 59//24 58//24
f  67//25 68//25 60//25 59//25
f  61//26 60//26 68//26 69//26
f  69//6 187//6 184//6 66//6
f  184//3 185//3 67//3 66//3
f  185//4 186//4 68//4 67//4
f  68//5 186//5 187//5 69//5
f  63//17 73//27 70//27 62//18
f  70//22 71//21 65//28 62//28
f  72//29 64//19 65//19 71//29
f  64//30 72//20 73//20 63//30
f  77//4 76//4 75//4 74//4
f  85//4 84//4 83//4 82//4
f  86//6 87//6 88//6 89//6
f  78//6 79//6 80//6 81//6
f  74//3 75//3 79//3 78//3
f  75//1 76//1 80//1 79//1
f  80//5 76//5 77//5 81//5
f  81//2 77//2 74//2 78//2
f  82//3 83//3 87//3 86//3
f  83//1 84//1 88//1 87//1
f  88//5 84//5 85//5 89//5
f  89//2 85//2 82//2 86//2
f  92//2 93//2 91//2 90//2
f  96//1 97//1 95//1 94//1
f  180//3 179//3 90//3 91//3
f  181//4 180//4 91//4 93//4
f  92//5 95//5 97//5 182//5 181//5 93//5
f  179//6 98//6 94//6 95//6 92//6 90//6
f  183//6 182//6 97//6 96//6
f  98//5 183//5 96//5 94//5
f  100//3 101//3 102//3 103//3 104//3 99//3
f  105//8 106//8 100//8 99//8
f  100//4 106//4 107//4 101//4
f  101//7 107//7 108//7 102//7
f  102//10 108//10 109//10 103//10
f  103//6 109//6 110//6 104//6
f  110//9 105//9 99//9 104//9
f  118//5 119//5 120//5 121//5 122//5 117//5
f  116//5 106//5 105//5 111//5
f  112//5 111//5 105//5 110//5
f  113//5 112//5 110//5 109//5
f  108//5 114//5 113//5 109//5
f  107//5 115//5 114//5 108//5
f  107//5 106//5 116//5 115//5
f  122//10 116//10 111//10 117//10
f  117//31 111//31 112//31 118//31
f  118//4 112//4 113//4 119//4
f  113//8 114//8 120//8 119//8
f  114//32 115//32 121//32 120//32
f  115//6 116//6 122//6 121//6
f  124//3 125//3 126//3 127//3 128//3 123//3
f  129//8 130//8 124//8 123//8
f  124//4 130//4 131//4 125//4
f  125//7 131//7 132//7 126//7
f  126//14 132//14 133//14 127//14
f  127//6 133//6 134//6 128//6
f  134//13 129//13 123//13 128//13
f  142//5 143//5 144//5 145//5 146//5 141//5
f  140//5 130//5 129//5 135//5
f  136//5 135//5 129//5 134//5
f  137//5 136//5 134//5 133//5
f  132//5 138//5 137//5 133//5
f  131//5 139//5 138//5 132//5
f  131//5 130//5 140//5 139//5
f  146//14 140//14 135//14 141//14
f  141//33 135//33 136//33 142//33
f  142//4 136//4 137//4 143//4
f  137//34 138//34 144//34 143//34
f  138//32 139//32 145//32 144//32
f  139//6 140//6 146//6 145//6
f  151//35 152//36 148//3 147//3
f  152//4 153//4 149//4 148//4
f  149//5 153//37 154//37 150//5
f  150//6 154//6 151//6 147//6
f  160//38 161//39 162//39 159//40
f  155//41 158//41 150//41 147//41
f  148//42 156//42 155//42 147//42
f  149//43 157//43 156//43 148//43
f  157//44 149//44 150//44 158//44
f  184//6 187//6 158//6 155//6
f  156//3 185//3 184//3 155//3
f  157//4 186//4 185//4 156//4
f  187//5 186//5 157//5 158//5
f  159//45 162//45 152//36 151//35
f  154//46 160//38 159//40 151//46
f  154//37 153//37 161//47 160//47
f  162//39 161//39 153//48 152//48
f  164//4 165//4 166//4 163//4
f  172//4 173//4 174//4 171//4
f  177//6 176//6 175//6 178//6
f  169//6 168//6 167//6 170//6
f  168//3 164//3 163//3 167//3
f  169//2 165//2 164//2 168//2
f  166//5 165//5 169//5 170//5
f  163//1 166//1 170//1 167//1
f  176//3 172//3 171//3 175//3
f  177//2 173//2 172//2 176//2
f  174//5 173//5 177//5 178//5
f  171//1 174//1 178//1 175//1
