# 
# Wavefront OBJ file
# Converted by the DEEP Exploration 3.5.7.1088
# Right Hemisphere, LTD
# http://www.righthemisphere.com/
# 
# object Object #0
g Object__0
v 0.44 0.66 0.09
v 0.44102 0.666322 0.09
v 0.443859 0.671812 0.09
v 0.448188 0.676141 0.09
v 0.453678 0.678981 0.09
v 0.46 0.68 0.09
v 0.5 0.68 0.09
v 0.506322 0.678981 0.09
v 0.511812 0.676141 0.09
v 0.516141 0.671812 0.09
v 0.51898 0.666322 0.09
v 0.52 0.66 0.09
v 0.52 -0.57 0.09
v 0.52 -0.62 0.09
v 0.517451 -0.635805 0.09
v 0.510354 -0.64953 0.09
v 0.49953 -0.660354 0.09
v 0.485805 -0.667451 0.09
v 0.47 -0.67 0.09
v 0.02 0.68 0.09
v 0.0263219 0.678981 0.09
v 0.0318122 0.676141 0.09
v 0.0361414 0.671812 0.09
v 0.0389805 0.666322 0.09
v 0.04 0.66 0.09
v 0.42 -0.57 0.09
v 0.426322 -0.568981 0.09
v 0.431812 -0.566141 0.09
v 0.436141 -0.561812 0.09
v 0.43898 -0.556322 0.09
v 0.44 -0.55 0.09
v 0.44 0.66 0.02625
v 0.44102 0.666322 0.02625
v 0.443859 0.671812 0.02625
v 0.448188 0.676141 0.02625
v 0.453678 0.678981 0.02625
v 0.46 0.68 0.02625
v 0.5 0.68 0.02625
v 0.506322 0.678981 0.02625
v 0.511812 0.676141 0.02625
v 0.516141 0.671812 0.02625
v 0.51898 0.666322 0.02625
v 0.52 0.66 0.02625
v 0.52 -0.57 0.02625
v 0.52 -0.62 0.02625
v 0.517451 -0.635805 0.02625
v 0.510354 -0.64953 0.02625
v 0.49953 -0.660354 0.02625
v 0.485805 -0.667451 0.02625
v 0.47 -0.67 0.02625
v 0.02 0.68 0.02625
v 0.0263219 0.678981 0.02625
v 0.0318122 0.676141 0.02625
v 0.0361414 0.671812 0.02625
v 0.0389805 0.666322 0.02625
v 0.04 0.66 0.02625
v 0.42 -0.57 0.02625
v 0.426322 -0.568981 0.02625
v 0.431812 -0.566141 0.02625
v 0.436141 -0.561812 0.02625
v 0.43898 -0.556322 0.02625
v 0.44 -0.55 0.02625
v 0.04 -0.548 0.02625
v 0.062 -0.57 0.02625
v 0.04 -0.548 0.09
v 0.062 -0.57 0.09
v 0.0411215 -0.554954 0.02625
v 0.0442444 -0.560993 0.02625
v 0.0490066 -0.565756 0.02625
v 0.0550459 -0.568878 0.02625
v 0.0550459 -0.568878 0.09
v 0.0490066 -0.565756 0.09
v 0.0442444 -0.560993 0.09
v 0.0411215 -0.554954 0.09
v 0.47 -0.67 0
v 0.485805 -0.667451 0
v 0.49953 -0.660354 0
v 0.510354 -0.64953 0
v 0.517451 -0.635805 0
v 0.52 -0.62 0
v 0.52 -0.57 0
v 0.52 0.66 0
v 0.51898 0.666322 0
v 0.516141 0.671812 0
v 0.511812 0.676141 0
v 0.506322 0.678981 0
v 0.5 0.68 0
v 0.46 0.68 0
v 0.453678 0.678981 0
v 0.448188 0.676141 0
v 0.443859 0.671812 0
v 0.44102 0.666322 0
v 0.44 0.66 0
v 0.44 -0.55 0
v 0.43898 -0.556322 0
v 0.436141 -0.561812 0
v 0.431812 -0.566141 0
v 0.426322 -0.568981 0
v 0.42 -0.57 0
v 0.062 -0.57 0
v -0.44 0.66 0.09
v -0.44102 0.666322 0.09
v -0.443859 0.671812 0.09
v -0.448188 0.676141 0.09
v -0.453678 0.678981 0.09
v -0.46 0.68 0.09
v -0.5 0.68 0.09
v -0.506322 0.678981 0.09
v -0.511812 0.676141 0.09
v -0.516141 0.671812 0.09
v -0.51898 0.666322 0.09
v -0.52 0.66 0.09
v -0.52 -0.57 0.09
v -0.52 -0.62 0.09
v -0.517451 -0.635805 0.09
v -0.510354 -0.64953 0.09
v -0.49953 -0.660354 0.09
v -0.485805 -0.667451 0.09
v -0.47 -0.67 0.09
v -0.02 0.68 0.09
v -0.0263219 0.678981 0.09
v -0.0318122 0.676141 0.09
v -0.0361414 0.671812 0.09
v -0.0389805 0.666322 0.09
v -0.04 0.66 0.09
v -0.42 -0.57 0.09
v -0.426322 -0.568981 0.09
v -0.431812 -0.566141 0.09
v -0.436141 -0.561812 0.09
v -0.43898 -0.556322 0.09
v -0.44 -0.55 0.09
v -0.44 0.66 0.02625
v -0.44102 0.666322 0.02625
v -0.443859 0.671812 0.02625
v -0.448188 0.676141 0.02625
v -0.453678 0.678981 0.02625
v -0.46 0.68 0.02625
v -0.5 0.68 0.02625
v -0.506322 0.678981 0.02625
v -0.511812 0.676141 0.02625
v -0.516141 0.671812 0.02625
v -0.51898 0.666322 0.02625
v -0.52 0.66 0.02625
v -0.52 -0.57 0.02625
v -0.52 -0.62 0.02625
v -0.517451 -0.635805 0.02625
v -0.510354 -0.64953 0.02625
v -0.49953 -0.660354 0.02625
v -0.485805 -0.667451 0.02625
v -0.47 -0.67 0.02625
v -0.02 0.68 0.02625
v -0.0263219 0.678981 0.02625
v -0.0318122 0.676141 0.02625
v -0.0361414 0.671812 0.02625
v -0.0389805 0.666322 0.02625
v -0.04 0.66 0.02625
v -0.42 -0.57 0.02625
v -0.426322 -0.568981 0.02625
v -0.431812 -0.566141 0.02625
v -0.436141 -0.561812 0.02625
v -0.43898 -0.556322 0.02625
v -0.44 -0.55 0.02625
v -0.04 -0.548 0.02625
v -0.062 -0.57 0.02625
v -0.04 -0.548 0.09
v -0.062 -0.57 0.09
v -0.0411215 -0.554954 0.02625
v -0.0442444 -0.560993 0.02625
v -0.0490066 -0.565756 0.02625
v -0.0550459 -0.568878 0.02625
v -0.0550459 -0.568878 0.09
v -0.0490066 -0.565756 0.09
v -0.0442444 -0.560993 0.09
v -0.0411215 -0.554954 0.09
v -0.47 -0.67 0
v -0.485805 -0.667451 0
v -0.49953 -0.660354 0
v -0.510354 -0.64953 0
v -0.517451 -0.635805 0
v -0.52 -0.62 0
v -0.52 -0.57 0
v -0.52 0.66 0
v -0.51898 0.666322 0
v -0.516141 0.671812 0
v -0.511812 0.676141 0
v -0.506322 0.678981 0
v -0.5 0.68 0
v -0.46 0.68 0
v -0.453678 0.678981 0
v -0.448188 0.676141 0
v -0.443859 0.671812 0
v -0.44102 0.666322 0
v -0.44 0.66 0
v -0.44 -0.55 0
v -0.43898 -0.556322 0
v -0.436141 -0.561812 0
v -0.431812 -0.566141 0
v -0.426322 -0.568981 0
v -0.42 -0.57 0
v -0.062 -0.57 0
v 0 -0.67 0.02625
v 0 -0.67 0.09
v 0 0.68 0.02625
v 0 0.68 0.09
v 0 -0.57 0.09
v 0 -0.67 0
v 0 -0.57 0
v 0 -0.57 0.02625
v -0.45 -0.6 0.03
v 0.45 -0.6 0.03
v 0.45 0.66 0.03
v -0.45 0.66 0.03
v -0.45 -0.6 0.075
v 0.45 -0.6 0.075
v 0.45 0.66 0.075
v -0.45 0.66 0.075
# 216 verticies
vn -0.998583 0.0532207 0
vn -0.994319 0.106441 0
vn -0.994319 0.106441 0
vn -0.931654 0.363347 0
vn -0.96502 0.262176 0
vn -0.775657 0.631154 0
vn -0.836683 0.547687 0
vn -0.54769 0.836681 0
vn -0.631161 0.775652 0
vn -0.262173 0.965021 0
vn -0.363346 0.931654 0
vn -0.0532189 0.998583 0
vn -0.106438 0.994319 0
vn 0.0798568 0.996806 0
vn 0.262173 0.965021 0
vn 0.363346 0.931654 0
vn 0.54769 0.836681 0
vn 0.631161 0.775652 0
vn 0.775658 0.631153 0
vn 0.836685 0.547684 0
vn 0.931654 0.363346 0
vn 0.96502 0.262178 0
vn 0.994319 0.106444 0
vn 0.998583 0.0532222 0
vn 1 0 0
vn 0.998583 -0.0532216 0
vn 0.994319 -0.106443 0
vn 0.96502 -0.262176 0
vn 0.931655 -0.363343 0
vn 0.836685 -0.547685 0
vn 0.775655 -0.631157 0
vn 0.631154 -0.775657 0
vn 0.547684 -0.836685 0
vn 0.363344 -0.931655 0
vn 0.262176 -0.96502 0
vn 0.106443 -0.994319 0
vn 0.0532215 -0.998583 0
vn 0.079857 0.996806 0
vn 0.262174 0.965021 0
vn 0.363346 0.931654 0
vn 0.547691 0.836681 0
vn 0.631161 0.775652 0
vn 0.775657 0.631155 0
vn 0.836684 0.547686 0
vn 0.931654 0.363347 0
vn 0.96502 0.262177 0
vn 0.994319 0.106443 0
vn 0.998583 0.0532215 0
vn -0.631161 0.775652 0
vn -0.547691 0.836681 0
vn -0.836683 0.547687 0
vn 0.996806 0.079861 0
vn 0.0532234 0.998583 0
vn 0.931655 0.363344 0
vn 0.96502 0.262176 0
vn 0.775655 0.631158 0
vn 0.836684 0.547686 0
vn 0.631154 0.775658 0
vn 0.547683 0.836686 0
vn 0.363344 0.931655 0
vn 0.262179 0.965019 0
vn 0.631155 -0.775657 0
vn 0.836685 -0.547685 0
vn 0.931654 0.363346 0
vn 0.54769 0.836681 0
vn 0.262173 0.965021 0
vn -0.262173 0.965021 0
vn -0.54769 0.836681 0
vn 0 1 0
vn 0 -1 0
vn 0 0 1
vn 0 0 -1
vn 0.998583 0.0532207 0
vn 0.994319 0.106441 0
vn 0.994319 0.106441 0
vn 0.96502 0.262176 0
vn 0.931654 0.363347 0
vn 0.836683 0.547687 0
vn 0.775657 0.631154 0
vn 0.106438 0.994319 0
vn 0.0532189 0.998583 0
vn -0.0798568 0.996806 0
vn -0.775658 0.631153 0
vn -0.836685 0.547684 0
vn -0.931654 0.363346 0
vn -0.96502 0.262178 0
vn -0.994319 0.106444 0
vn -0.998583 0.0532222 0
vn -1 0 0
vn -0.998583 -0.0532216 0
vn -0.994319 -0.106443 0
vn -0.96502 -0.262176 0
vn -0.931655 -0.363343 0
vn -0.836685 -0.547685 0
vn -0.775655 -0.631157 0
vn -0.631154 -0.775657 0
vn -0.547684 -0.836685 0
vn -0.363344 -0.931655 0
vn -0.262176 -0.96502 0
vn -0.106443 -0.994319 0
vn -0.0532215 -0.998583 0
vn -0.262174 0.965021 0
vn -0.079857 0.996806 0
vn -0.363346 0.931654 0
vn -0.547691 0.836681 0
vn -0.631161 0.775652 0
vn -0.775657 0.631155 0
vn -0.836684 0.547686 0
vn -0.931654 0.363347 0
vn -0.96502 0.262177 0
vn -0.994319 0.106443 0
vn -0.998583 0.0532215 0
vn 0.547691 0.836681 0
vn 0.631161 0.775652 0
vn 0.836683 0.547687 0
vn -0.996806 0.079861 0
vn -0.0532234 0.998583 0
vn -0.96502 0.262176 0
vn -0.931655 0.363344 0
vn -0.836684 0.547686 0
vn -0.775655 0.631158 0
vn -0.631154 0.775658 0
vn -0.547683 0.836686 0
vn -0.262179 0.965019 0
vn -0.363344 0.931655 0
vn -0.631155 -0.775657 0
vn -0.836685 -0.547685 0
vn -0.931654 0.363346 0
# 128 normals
f  31//1 1//2 32//1 62//3
f  1//2 2//4 33//5 32//1
f  2//4 3//6 34//7 33//5
f  3//6 4//8 35//9 34//7
f  4//8 5//10 36//11 35//9
f  5//10 6//12 37//13 36//11
f  6//12 7//14 38//14 37//13
f  38//14 7//14 8//15 39//16
f  39//16 8//15 9//17 40//18
f  40//18 9//17 10//19 41//20
f  41//20 10//19 11//21 42//22
f  42//22 11//21 12//23 43//24
f  43//24 12//23 13//25 44//25
f  44//25 13//25 14//26 45//27
f  45//27 14//26 15//28 46//29
f  46//29 15//28 16//30 47//31
f  47//31 16//30 17//32 48//33
f  48//33 17//32 18//34 49//35
f  49//35 18//34 19//36 50//37
f  51//38 20//38 21//39 52//40
f  52//40 21//39 22//41 53//42
f  53//42 22//41 23//43 54//44
f  54//44 23//43 24//45 55//46
f  55//46 24//45 25//47 56//48
f  26//13 27//11 58//10 57//12
f  27//11 28//49 59//50 58//10
f  28//49 29//51 60//6 59//50
f  29//51 30//5 61//4 60//6
f  30//5 31//1 62//3 61//4
f  56//48 25//47 65//52 63//52
f  66//53 26//13 57//12 64//53
f  65//52 74//54 67//55 63//52
f  74//54 73//56 68//57 67//55
f  69//58 68//57 73//56 72//59
f  64//53 70//60 71//61 66//53
f  70//60 69//58 72//59 71//61
f  75//36 76//34 49//35 50//37
f  76//34 77//62 48//33 49//35
f  77//62 78//63 47//31 48//33
f  78//63 79//28 46//29 47//31
f  79//28 80//26 45//27 46//29
f  80//26 81//25 44//25 45//27
f  81//25 82//23 43//24 44//25
f  82//23 83//64 42//22 43//24
f  83//64 84//19 41//20 42//22
f  84//19 85//65 40//18 41//20
f  85//65 86//66 39//16 40//18
f  86//66 87//14 38//14 39//16
f  38//14 87//14 88//12 37//13
f  37//13 88//12 89//67 36//11
f  36//11 89//67 90//68 35//9
f  35//9 90//68 91//6 34//7
f  34//7 91//6 92//4 33//5
f  33//5 92//4 93//2 32//1
f  32//1 93//2 94//1 62//3
f  62//3 94//1 95//5 61//4
f  61//4 95//5 96//7 60//6
f  60//6 96//7 97//49 59//50
f  59//50 97//49 98//11 58//10
f  58//10 98//11 99//13 57//12
f  57//12 99//13 100//69 64//53
f  202//70 201//70 50//37 19//36
f  51//38 203//69 204//69 20//38
f  19//71 18//71 17//71 16//71 15//71 14//71 13//71 12//71 11//71\
10//71 9//71 8//71 7//71 6//71 5//71 4//71 3//71 2//71 1//71 31//71\
30//71 29//71 28//71 27//71 26//71 66//71 205//71 202//71
f  66//71 71//71 72//71 73//71 74//71 65//71 25//71 24//71 23//71\
22//71 21//71 20//71 204//71 205//71
f  207//72 100//72 99//72 98//72 97//72 96//72 95//72 94//72 93//72\
92//72 91//72 90//72 89//72 88//72 87//72 86//72 85//72 84//72 83//72\
82//72 81//72 80//72 79//72 78//72 77//72 76//72 75//72 206//72
f  203//72 51//72 52//72 53//72 54//72 55//72 56//72 63//72 67//72\
68//72 69//72 70//72 64//72 208//72
f  50//37 201//70 206//70 75//36
f  207//69 208//69 64//53 100//69
f  132//73 101//74 131//73 162//75
f  133//76 102//77 101//74 132//73
f  134//78 103//79 102//77 133//76
f  135//18 104//65 103//79 134//78
f  136//16 105//66 104//65 135//18
f  137//80 106//81 105//66 136//16
f  138//82 107//82 106//81 137//80
f  108//67 107//82 138//82 139//11
f  109//68 108//67 139//11 140//9
f  110//83 109//68 140//9 141//84
f  111//85 110//83 141//84 142//86
f  112//87 111//85 142//86 143//88
f  113//89 112//87 143//88 144//89
f  114//90 113//89 144//89 145//91
f  115//92 114//90 145//91 146//93
f  116//94 115//92 146//93 147//95
f  117//96 116//94 147//95 148//97
f  118//98 117//96 148//97 149//99
f  119//100 118//98 149//99 150//101
f  121//102 120//103 151//103 152//104
f  122//105 121//102 152//104 153//106
f  123//107 122//105 153//106 154//108
f  124//109 123//107 154//108 155//110
f  125//111 124//109 155//110 156//112
f  158//66 127//16 126//80 157//81
f  159//113 128//114 127//16 158//66
f  160//79 129//115 128//114 159//113
f  161//77 130//76 129//115 160//79
f  162//75 131//73 130//76 161//77
f  165//116 125//111 156//112 163//116
f  157//81 126//80 166//117 164//117
f  167//118 174//119 165//116 163//116
f  168//120 173//121 174//119 167//118
f  173//121 168//120 169//122 172//123
f  171//124 170//125 164//117 166//117
f  172//123 169//122 170//125 171//124
f  149//99 176//98 175//100 150//101
f  148//97 177//126 176//98 149//99
f  147//95 178//127 177//126 148//97
f  146//93 179//92 178//127 147//95
f  145//91 180//90 179//92 146//93
f  144//89 181//89 180//90 145//91
f  143//88 182//87 181//89 144//89
f  142//86 183//128 182//87 143//88
f  141//84 184//83 183//128 142//86
f  140//9 185//8 184//83 141//84
f  139//11 186//10 185//8 140//9
f  138//82 187//82 186//10 139//11
f  188//81 187//82 138//82 137//80
f  189//15 188//81 137//80 136//16
f  190//17 189//15 136//16 135//18
f  191//79 190//17 135//18 134//78
f  192//77 191//79 134//78 133//76
f  193//74 192//77 133//76 132//73
f  194//73 193//74 132//73 162//75
f  195//76 194//73 162//75 161//77
f  196//78 195//76 161//77 160//79
f  197//114 196//78 160//79 159//113
f  198//16 197//114 159//113 158//66
f  199//80 198//16 158//66 157//81
f  200//69 199//80 157//81 164//117
f  150//101 201//70 202//70 119//100
f  204//69 203//69 151//103 120//103
f  205//71 166//71 126//71 127//71 128//71 129//71 130//71 131//71\
101//71 102//71 103//71 104//71 105//71 106//71 107//71 108//71\
109//71 110//71 111//71 112//71 113//71 114//71 115//71 116//71\
117//71 118//71 119//71 202//71
f  204//71 120//71 121//71 122//71 123//71 124//71 125//71 165//71\
174//71 173//71 172//71 171//71 166//71 205//71
f  175//72 176//72 177//72 178//72 179//72 180//72 181//72 182//72\
183//72 184//72 185//72 186//72 187//72 188//72 189//72 190//72\
191//72 192//72 193//72 194//72 195//72 196//72 197//72 198//72\
199//72 200//72 207//72 206//72
f  164//72 170//72 169//72 168//72 167//72 163//72 156//72 155//72\
154//72 153//72 152//72 151//72 203//72 208//72
f  206//70 201//70 150//101 175//100
f  164//117 208//69 207//69 200//69
f  212//72 211//72 210//72 209//72
f  210//70 214//70 213//70 209//70
f  211//25 215//25 214//25 210//25
f  216//69 215//69 211//69 212//69
f  213//89 216//89 212//89 209//89
f  214//71 215//71 216//71 213//71
